<?xml version="1.0" encoding="utf-8"?>
<!-- Generator: Adobe Illustrator 22.1.0, SVG Export Plug-In . SVG Version: 6.00 Build 0)  -->
<svg version="1.1" id="Layer_1" xmlns="http://www.w3.org/2000/svg" xmlns:xlink="http://www.w3.org/1999/xlink" x="0px" y="0px"
	 viewBox="0 0 408.1 472.6" style="enable-background:new 0 0 408.1 472.6;" xml:space="preserve">
<style type="text/css">
	.st0{opacity:0.75;}
	.st1{fill-rule:evenodd;clip-rule:evenodd;fill:none;stroke:#FFFFFF;stroke-width:0.25;stroke-miterlimit:10;}
	.st2{fill:none;stroke:#FFFFFF;stroke-width:0.25;stroke-miterlimit:10;}
	.st3{fill:#76B72D;stroke:#FFFFFF;stroke-width:0.25;stroke-miterlimit:10;}
	.st4{fill:#2D2D2D;stroke:#FFFFFF;stroke-width:0.25;stroke-miterlimit:10;}
	.st5{opacity:0.75;fill:none;stroke:#FFFFFF;stroke-width:0.25;stroke-miterlimit:10;}
	.st6{opacity:0.75;fill:#76B82A;}
</style>
<g class="st0">
	<path class="st1" d="M147.9,35.9c0,0,23.3,36.1-53,81.4c-76.4,45.2-46.1,108.4-55,122.7c-0.8,1.4-17-77.8,5.4-104.1
		c22.4-26.3,17.6-9.1,56.5-34.3C140.7,76.3,140.8,61.2,147.9,35.9"/>
	<path class="st2" d="M147.9,35.9c0,0,23.3,36.1-53,81.4c-76.4,45.2-46.1,108.4-55,122.7c-0.8,1.4-17-77.8,5.4-104.1
		c22.4-26.3,17.6-9.1,56.5-34.3C140.7,76.3,140.8,61.2,147.9,35.9z"/>
	<path class="st1" d="M133.6,90.7c0,0,38.6,52.5-17.4,121.1c-30.2,37-0.7,97.5,14.3,117.3c15,19.8,49.3,25.7,67.4,27.4
		c7.9,0.7,8.8,33.7-30.2,30.9c-117.5-8.7-84.1-147.2-90.6-107.6c-6.5,39.6,7.3-62.6,41.4-121.1C152.6,100,132.8,121.5,133.6,90.7"/>
	<path class="st2" d="M133.6,90.7c0,0,38.6,52.5-17.4,121.1c-30.2,37-0.7,97.5,14.3,117.3c15,19.8,49.3,25.7,67.4,27.4
		c7.9,0.7,8.8,33.7-30.2,30.9c-117.5-8.7-84.1-147.2-90.6-107.6c-6.5,39.6,7.3-62.6,41.4-121.1C152.6,100,132.8,121.5,133.6,90.7z"
		/>
	<path class="st1" d="M132.1,92.2c0,0-106.4,35.7-92.1,153.5c14.3,117.9,68.6,167.5,103.4,174c34.8,6.4,41.6-11.4,45.7-14.7
		c4-3.3-6.8-7.7-26.7-13.9c-19.9-6.2-79.8-23.3-82.8-89.9c-3.1-66.6,24.7-109.6,41.4-139.6C137.6,131.7,143.2,102.5,132.1,92.2"/>
	<path class="st2" d="M132.1,92.2c0,0-106.4,35.7-92.1,153.5c14.3,117.9,68.6,167.5,103.4,174c34.8,6.4,41.6-11.4,45.7-14.7
		c4-3.3-6.8-7.7-26.7-13.9c-19.9-6.2-79.8-23.3-82.8-89.9c-3.1-66.6,24.7-109.6,41.4-139.6C137.6,131.7,143.2,102.5,132.1,92.2z"/>
	<path class="st1" d="M132.1,92.2c0,0-109.9,107.8-83.6,186.3c1.6,4.8,24.8,80.9,25.5,83.3c1.5,4.8,10.6,27.9,54.2,50.9
		c43.6,23,58.2-7.6,47.6,9.3c-25.4,40.4-90.6,3.3-119.2-20.4C28,377.8,6.8,287.2,36,210.6C65.3,134,91.6,104.9,132.1,92.2"/>
	<path class="st2" d="M132.1,92.2c0,0-109.9,107.8-83.6,186.3c1.6,4.8,24.8,80.9,25.5,83.3c1.5,4.8,10.6,27.9,54.2,50.9
		c43.6,23,58.2-7.6,47.6,9.3c-25.4,40.4-90.6,3.3-119.2-20.4C28,377.8,6.8,287.2,36,210.6C65.3,134,91.6,104.9,132.1,92.2z"/>
	<path class="st1" d="M253.6,83.3c0,0,5.1-4.6,13.2-3.9c8.1,0.7,32.7,16.3,57.3,22.8c24.6,6.5,34,22.3,34.8,40.5
		c0.9,18.2-6.6,3,3.1,33.9c9.7,31,14.2,38,15.1,58.6c0.9,20.6-2.6,43,0.8,54c3.3,11,2.2,46.2,15.9,71.7
		c13.7,25.5-48.4,35.9-48.4,35.9s-44.8,7.6-59.2-4.2c-14.4-11.9-19,2.5-30.2-52.1c-11.2-54.6,9.7-71.2-6.6-93.3
		c-7-9.5,26.6,12.1,36.8-49C295,145,257.7,146,252.1,142c-5.6-4-52.4-27-59.6-27.8c-7.3-0.7,12-0.8,16.6-0.8
		c4.7,0,42.8,17.1,67.4,21.2c24.6,4.1,21.2,8.2,35.6,6.6c14.4-1.6,19.3-24.4,8.1-32.4C309,100.8,265.5,84.9,253.6,83.3"/>
	<path class="st3" d="M253.6,83.3c0,0,5.1-4.6,13.2-3.9c8.1,0.7,32.7,16.3,57.3,22.8c24.6,6.5,34,22.3,34.8,40.5
		c0.9,18.2-6.6,3,3.1,33.9c9.7,31,14.2,38,15.1,58.6c0.9,20.6-2.6,43,0.8,54c3.3,11,2.2,46.2,15.9,71.7
		c13.7,25.5-48.4,35.9-48.4,35.9s-44.8,7.6-59.2-4.2c-14.4-11.9-19,2.5-30.2-52.1c-11.2-54.6,9.7-71.2-6.6-93.3
		c-7-9.5,26.6,12.1,36.8-49C295,145,257.7,146,252.1,142c-5.6-4-52.4-27-59.6-27.8c-7.3-0.7,12-0.8,16.6-0.8
		c4.7,0,42.8,17.1,67.4,21.2c24.6,4.1,21.2,8.2,35.6,6.6c14.4-1.6,19.3-24.4,8.1-32.4C309,100.8,265.5,84.9,253.6,83.3z"/>
	<path class="st2" d="M242.4,185.6c0,0,26.4,20.7,43.7,14.3"/>
	<path class="st2" d="M319.4,165.9c0,0-9.2,33.1-36,35.5"/>
	<path class="st1" d="M339.2,152.4c0,0-1.7,3.8-16.6,22c-1.7,2.1-1.7-7.8-13.6,27c-11.9,34.8-11.7,38.7-21.3,49
		c-9.6,10.3-7.1,18-15.1,18.9c-8,0.9-5.7-7.2-12-15.8c-6.3-8.6-11.2-6.2-11.2-6.2s12.3,33.2,20.9,31.6c8.6-1.6,16.1-11.8,18.6-18.9
		c2.5-7.1,9.7-15.8,9.7-15.8s-0.5,16.6-10.1,32.4c-9.6,15.8,11.3-9.5,13.6-14.3c2.2-4.8-2.7-12,10.1-42c12.8-30,4.9-24.3,11.2-35.5
		C329.6,173.6,339.2,152.4,339.2,152.4"/>
	<path class="st2" d="M339.2,152.4c0,0-1.7,3.8-16.6,22c-1.7,2.1-1.7-7.8-13.6,27c-11.9,34.8-11.7,38.7-21.3,49
		c-9.6,10.3-7.1,18-15.1,18.9c-8,0.9-5.7-7.2-12-15.8c-6.3-8.6-11.2-6.2-11.2-6.2s12.3,33.2,20.9,31.6c8.6-1.6,16.1-11.8,18.6-18.9
		c2.5-7.1,9.7-15.8,9.7-15.8s-0.5,16.6-10.1,32.4c-9.6,15.8,11.3-9.5,13.6-14.3c2.2-4.8-2.7-12,10.1-42c12.8-30,4.9-24.3,11.2-35.5
		C329.6,173.6,339.2,152.4,339.2,152.4z"/>
	<path class="st1" d="M361.2,191c0,0-24.5-21.9-37.2,23.1c-12.7,45-2.1,23.6-5.4,35.5c-3.3,11.9,8.5-7.7,8.5-7.7s4-38,13.5-41.3
		c9.6-3.2,9.4-12.1,17.4,6.2c8,18.3,2.3,33.9,2.3,33.9S372.3,204.4,361.2,191"/>
	<path class="st2" d="M361.2,191c0,0-24.5-21.9-37.2,23.1c-12.7,45-2.1,23.6-5.4,35.5c-3.3,11.9,8.5-7.7,8.5-7.7s4-38,13.5-41.3
		c9.6-3.2,9.4-12.1,17.4,6.2c8,18.3,2.3,33.9,2.3,33.9S372.3,204.4,361.2,191z"/>
	<path class="st1" d="M358.1,158.7c8.7-41.9-25.3-53.9-22.8-49c11.8,23.3,11.9,20.3,11.2,29.7c-2.4,35.4,12.4,38.2,12.4,38.2"/>
	<path class="st1" d="M272.6,150.8c0,0-0.6-15.7,14.3-14.3c14.9,1.4,24.9,9.2,28.3,24.3c3.4,15.1-2.8,34.1-25.9,41.3
		C278.8,205.4,301.9,168.3,272.6,150.8"/>
	<path class="st1" d="M296.7,96.1c0,0,64.2,12.9,39.9,45.1c-9.5,12.6-19.7,12.2-34.8,2.3C294.5,138.8,357,131.6,296.7,96.1"/>
	<path class="st1" d="M308.2,281.2c0,0,26.3-26.5,28.6-38.6c2.3-12-2.9,31.4-19.7,37.8C300.3,286.8,308.2,281.2,308.2,281.2"/>
	<path class="st2" d="M308.2,281.2c0,0,26.3-26.5,28.6-38.6c2.3-12-2.9,31.4-19.7,37.8C300.3,286.8,308.2,281.2,308.2,281.2z"/>
	<path class="st1" d="M323.3,255c0,0-2,10.4-7.4,12c-5.4,1.6-2.7-1.2-2.7-1.2L323.3,255"/>
	<path class="st2" d="M323.3,255c0,0-2,10.4-7.4,12c-5.4,1.6-2.7-1.2-2.7-1.2L323.3,255z"/>
	<path class="st1" d="M333.7,272.3c0,0-7.1,1-5.4,7.7c1.7,6.8,3.1-1.9,3.1-1.9L333.7,272.3"/>
	<path class="st2" d="M333.7,272.3c0,0-7.1,1-5.4,7.7c1.7,6.8,3.1-1.9,3.1-1.9L333.7,272.3z"/>
	<path class="st1" d="M363.6,244.2c0,0-14.8,38.1-25.2,45.5c-10.3,7.4,10.5-2.3,10.5-2.3s14.7-12.8,22.8-13.5
		c8.2-0.7-0.4-2.3-0.4-2.3s-9-1.4-20.5,9.3C339.2,291.5,381.1,255,363.6,244.2"/>
	<path class="st2" d="M363.6,244.2c0,0-14.8,38.1-25.2,45.5c-10.3,7.4,10.5-2.3,10.5-2.3s14.7-12.8,22.8-13.5
		c8.2-0.7-0.4-2.3-0.4-2.3s-9-1.4-20.5,9.3C339.2,291.5,381.1,255,363.6,244.2z"/>
	<path class="st1" d="M359.2,165.9c0,0,21.9,43.2,22.8,141.6c1,98.4-8.7-49.6-10.5-64c-1.7-14.4-6.8-37.5-9.7-41.3
		C359.1,198.3,354.7,169.5,359.2,165.9"/>
	<path class="st2" d="M359.2,165.9c0,0,21.9,43.2,22.8,141.6c1,98.4-8.7-49.6-10.5-64c-1.7-14.4-6.8-37.5-9.7-41.3
		C359.1,198.3,354.7,169.5,359.2,165.9z"/>
	<path class="st1" d="M280.7,383.4c5.4,2-0.8-1.9-5.8-17.7c-2.1-6.6-12.2-12-12-24.7c0.5-27.1-7.4-25.1-7.4-25.1
		c-0.3,5.8-0.1,37.5,6.6,49C268.8,376.4,278.5,382.6,280.7,383.4"/>
	<path class="st2" d="M280.7,383.4c5.4,2-0.8-1.9-5.8-17.7c-2.1-6.6-12.2-12-12-24.7c0.5-27.1-7.4-25.1-7.4-25.1
		c-0.3,5.8-0.1,37.5,6.6,49C268.8,376.4,278.5,382.6,280.7,383.4z"/>
	<path class="st1" d="M273.4,356c0,0,13.5,15.7,80.5-14.7C386.8,326.5,278.1,386.8,273.4,356"/>
	<path class="st2" d="M273.4,356c0,0,13.5,15.7,80.5-14.7C386.8,326.5,278.1,386.8,273.4,356z"/>
	<path class="st1" d="M285.7,366.8c0,0,9.3,4.2,13.2,2.7c3.8-1.5-3.5,4.2-7.7,3.9C286.9,373.1,281.8,370.2,285.7,366.8"/>
	<path class="st2" d="M285.7,366.8c0,0,9.3,4.2,13.2,2.7c3.8-1.5-3.5,4.2-7.7,3.9C286.9,373.1,281.8,370.2,285.7,366.8z"/>
	<path class="st1" d="M281.9,368.4c0,0,6.6,7.6,11.6,5.8c5-1.8,48.4-20.6,58.1-26.2c9.6-5.7,16.7-6.9-1.5,4.2
		c-18.3,11.2-45.6,23-51.9,25.8c-6.2,2.8-15.2-4.1-17-5.8C279.9,371.1,270.2,360.1,281.9,368.4"/>
	<path class="st2" d="M281.9,368.4c0,0,6.6,7.6,11.6,5.8c5-1.8,48.4-20.6,58.1-26.2c9.6-5.7,16.7-6.9-1.5,4.2
		c-18.3,11.2-45.6,23-51.9,25.8c-6.2,2.8-15.2-4.1-17-5.8C279.9,371.1,270.2,360.1,281.9,368.4z"/>
	<path class="st2" d="M278.4,375.7c0,0,0.6-2.2,7.4,3.1c6.8,5.3,9.3,3.1,4.6,4.6C285.8,385,274.8,378.5,278.4,375.7z"/>
	<path class="st1" d="M330.6,368.8c0,0,23.4-16.5,30.6-15.8c7.2,0.7-13.2,6.8-20.5,19.3C333.4,384.7,343.2,362.7,330.6,368.8"/>
	<path class="st2" d="M330.6,368.8c0,0,23.4-16.5,30.6-15.8c7.2,0.7-13.2,6.8-20.5,19.3C333.4,384.7,343.2,362.7,330.6,368.8z"/>
	<path class="st1" d="M290,395.4c0,0,90.8,14.5,104.1-24.3c4.1-11.9-8.7-20.6-9.7-37c-1-16.5-13.4-1.9-25.6-6.6
		c-12.2-4.6,37.6,33.3,22.5,38.2c-15.1,4.9-13.8,22.9-35.2,22.8C324.7,388.3,295.8,394.8,290,395.4"/>
	<path class="st2" d="M290,395.4c0,0,90.8,14.5,104.1-24.3c4.1-11.9-8.7-20.6-9.7-37c-1-16.5-13.4-1.9-25.6-6.6
		c-12.2-4.6,37.6,33.3,22.5,38.2c-15.1,4.9-13.8,22.9-35.2,22.8C324.7,388.3,295.8,394.8,290,395.4z"/>
	<path class="st1" d="M258.6,316.3c2.1-0.2,31.6,3.2,43,10.8c11.4,7.6,86.3-1.2,68.9-0.8c-68.1,1.6-117.7-17-117.7-17
		S256.5,316.5,258.6,316.3"/>
	<path class="st2" d="M258.6,316.3c2.1-0.2,31.6,3.2,43,10.8c11.4,7.6,86.3-1.2,68.9-0.8c-68.1,1.6-117.7-17-117.7-17
		S256.5,316.5,258.6,316.3z"/>
	<path class="st1" d="M217.6,59.7c0,0-1.2-3.5-4.3-8.3c-6.3-9.9-20.4-25.8-48.1-30.4c-41.2-6.9-69.8-3.7-101.8,8.9
		c-32,12.6-36.6,0-36.6,0s23.6,4.6,33.2-3.7c9.5-8.3,70.7-15.5,85.9-13.5C161.2,14.7,204.5,18,217.6,59.7"/>
	<path class="st2" d="M216.9,59.9c-0.2-0.5-0.4-1-0.6-1.5c-0.2-0.5-0.4-1-0.7-1.5c-0.5-1-0.9-1.9-1.5-2.9c-0.6-0.9-1.1-1.9-1.7-2.8
		c-0.6-0.9-1.2-1.8-1.8-2.7c-2.5-3.5-5.4-6.8-8.6-9.7c-3.2-2.9-6.7-5.6-10.4-7.8c-3.7-2.2-7.7-4.2-11.7-5.7c-1-0.4-2.1-0.7-3.1-1.1
		c-1-0.3-2.1-0.7-3.1-0.9l-3.2-0.8c-1.1-0.2-2.1-0.4-3.2-0.7c-2.1-0.5-4.3-0.8-6.5-1.1l-3.3-0.5l-3.3-0.4c-2.2-0.3-4.3-0.6-6.5-0.8
		c-2.2-0.2-4.4-0.5-6.6-0.6c-4.4-0.3-8.8-0.5-13.1-0.6c-2.2,0-4.4-0.1-6.6,0c-2.2,0.1-4.4,0.1-6.6,0.3l-3.3,0.2
		c-1.1,0.1-2.2,0.2-3.3,0.3l-3.3,0.4l-3.2,0.5c-1.1,0.2-2.2,0.3-3.2,0.5l-3.2,0.6c-2.2,0.4-4.3,0.9-6.4,1.4c-4.3,1-8.5,2.2-12.7,3.5
		c-2.1,0.7-4.2,1.4-6.2,2.1c-2.1,0.7-4.1,1.5-6.2,2.3c-2.1,0.8-4.1,1.5-6.2,2.2l-3.2,1l-1.6,0.5l-1.6,0.4c-4.3,1.1-8.7,1.8-13.2,1.6
		c-2.2-0.2-4.5-0.5-6.5-1.4c-0.5-0.2-1-0.5-1.5-0.8c-0.5-0.3-0.9-0.6-1.4-1c-0.9-0.8-1.6-1.6-2.2-2.7l-0.3-0.6l0.7,0.1
		c4.3,0.8,8.8,1.2,13.2,1.3c4.4,0,8.9-0.3,13.1-1.5c2.1-0.6,4.1-1.5,5.9-2.8l0.6-0.5l0.7-0.5c0.4-0.4,1-0.6,1.4-0.9
		c1-0.5,2-1,3.1-1.4c2.1-0.8,4.2-1.5,6.4-2.1c2.1-0.6,4.3-1.1,6.5-1.6c4.3-1,8.7-1.8,13.1-2.6c4.4-0.7,8.8-1.4,13.2-2
		c8.8-1.1,17.7-2,26.6-2.5c4.4-0.2,8.9-0.4,13.4-0.1c4.4,0.5,8.8,1.1,13.3,1.8c4.4,0.7,8.8,1.6,13.1,2.8c4.3,1.2,8.5,2.6,12.6,4.5
		c4.1,1.8,8,4,11.6,6.5c3.7,2.5,7,5.5,10,8.8c3,3.3,5.6,6.9,7.7,10.8c2.2,3.9,3.9,8,5.2,12.2L216.9,59.9 M217.6,59.7
		c-1.4-4.2-3.1-8.3-5.3-12.2c-2.2-3.9-4.8-7.5-7.8-10.8c-6-6.6-13.5-11.6-21.7-15.2c-4.1-1.8-8.3-3.2-12.6-4.4
		c-4.3-1.2-8.7-2.1-13-2.8c-4.4-0.7-8.8-1.2-13.2-1.7c-4.4-0.3-8.9-0.1-13.3,0.1c-8.9,0.5-17.7,1.4-26.6,2.6
		c-4.4,0.6-8.8,1.3-13.2,2c-4.4,0.8-8.8,1.6-13.1,2.6c-2.2,0.5-4.3,1-6.5,1.7c-2.1,0.6-4.2,1.3-6.3,2.1c-1,0.4-2,0.9-3,1.4
		c-0.5,0.3-0.9,0.5-1.4,0.9l-0.6,0.5l-0.7,0.5c-1.8,1.4-3.9,2.3-6.1,3c-4.3,1.3-8.9,1.6-13.3,1.6c-4.5-0.1-8.9-0.5-13.4-1.2l0.4-0.5
		c0.4,0.9,1.2,1.7,1.9,2.4c0.4,0.3,0.8,0.6,1.3,0.9c0.5,0.2,0.9,0.5,1.4,0.7c2,0.9,4.1,1.1,6.3,1.3c4.3,0.2,8.7-0.5,12.9-1.6
		l1.6-0.4l1.6-0.5l3.1-1c2.1-0.7,4.1-1.5,6.2-2.3c2.1-0.8,4.1-1.6,6.2-2.3c2.1-0.7,4.2-1.5,6.3-2.1c4.2-1.3,8.4-2.6,12.7-3.6
		c2.1-0.5,4.3-1,6.5-1.4l3.2-0.6c1.1-0.2,2.2-0.3,3.3-0.5l3.3-0.5l3.3-0.4c1.1-0.1,2.2-0.3,3.3-0.3l3.3-0.2c2.2-0.2,4.4-0.2,6.6-0.3
		c2.2-0.1,4.4-0.1,6.6-0.1c4.4,0,8.8,0.2,13.2,0.6c2.2,0.1,4.4,0.4,6.6,0.6c2.2,0.2,4.4,0.5,6.6,0.8l3.3,0.4l3.3,0.5
		c2.2,0.3,4.4,0.6,6.5,1.1c1.1,0.2,2.2,0.4,3.3,0.7l3.2,0.8c1.1,0.3,2.1,0.6,3.2,1c1,0.4,2.1,0.6,3.1,1.1c4.2,1.5,8.2,3.5,12,5.7
		c3.8,2.3,7.4,4.9,10.7,7.9c3.3,3,6.3,6.3,8.9,9.9c0.7,0.9,1.3,1.8,1.9,2.7c0.6,0.9,1.1,1.9,1.7,2.9c0.6,0.9,1.1,2,1.6,2.9
		c0.3,0.5,0.5,1,0.7,1.5c0.2,0.5,0.5,1,0.6,1.5L217.6,59.7z"/>
	<path class="st1" d="M216.2,59.7c0,0-3.2-64.6-94-31.5c-90.8,33-86.5,16.7-93.4,13.8c-6.9-2.9-8,30.2,94.9-8
		C207.9,2.6,208.7,59.7,216.2,59.7"/>
	<path class="st2" d="M215.5,60.7l-0.1-1c0,0,0-0.1,0-0.3c0-0.2,0-0.5-0.1-0.9c-0.1-0.8-0.3-2-0.6-3.5c-0.3-1.5-0.8-3.4-1.5-5.5
		c-0.7-2.1-1.7-4.6-3-7.1c-1.4-2.6-3.1-5.3-5.3-8c-2.3-2.6-5.1-5.2-8.5-7.4c-0.9-0.5-1.7-1.1-2.6-1.6c-0.5-0.2-0.9-0.5-1.4-0.7
		c-0.5-0.2-0.9-0.5-1.4-0.7c-1-0.4-2-0.8-3-1.3c-1.1-0.3-2.1-0.7-3.2-1c-4.4-1.2-9.2-2-14.2-2.2c-10.1-0.4-21,1.2-32.2,4.1
		c-11.2,2.9-22.5,7.6-34.6,11.5c-12,4-24.5,8-37.5,10.9c-3.3,0.7-6.5,1.4-9.9,1.9c-3.3,0.5-6.7,0.9-10.1,1c-0.8,0-1.7,0-2.5,0
		c-0.9-0.1-1.7-0.1-2.6-0.2c-1.7-0.2-3.4-0.5-5-1.2c-1.6-0.6-3.1-1.6-4.4-2.8c-0.6-0.6-1.2-1.2-1.9-1.7c-0.2-0.1-0.3-0.2-0.5-0.4
		c-0.2-0.1-0.3-0.2-0.5-0.3c-0.3-0.2-0.7-0.3-1-0.3c-0.7,0-1.3,0.5-1.4,1.2c-0.2,0.7,0,1.5,0.3,2.2c0.7,1.4,2,2.5,3.4,3.3
		c2.9,1.6,6.2,2.4,9.5,2.8c3.3,0.4,6.7,0.5,10,0.4c3.3-0.1,6.7-0.4,9.9-0.8c13.2-1.7,25.9-5.1,38-8.8c6.1-1.9,12-3.8,17.7-5.8
		c5.8-2,11.3-4.2,16.9-5.9c11.1-3.5,21.9-5.9,32.1-6.3c5.1-0.2,10,0.1,14.5,1c4.5,0.9,8.7,2.4,12.4,4.3c3.6,1.9,6.7,4.3,9.2,6.9
		c2.5,2.5,4.5,5.2,6.1,7.6c3.2,5,4.9,9.3,6.5,12.1c0.7,1.4,1.4,2.4,2.1,2.9c0.6,0.5,1.1,0.4,1.1,0.5L215.5,60.7 M216.2,59.7
		c0,0-0.5,0.1-1.1-0.5c-0.7-0.5-1.3-1.5-2.1-2.9c-1.5-2.8-3.3-7.1-6.5-12c-1.6-2.5-3.6-5.1-6.1-7.6c-2.5-2.5-5.6-4.9-9.2-6.8
		c-3.6-1.9-7.8-3.4-12.3-4.2c-4.5-0.9-9.4-1.2-14.5-0.9c-10.1,0.4-20.9,2.8-32,6.4c-5.5,1.8-11.1,4-16.8,6c-5.7,2-11.7,4-17.7,5.9
		c-12.1,3.7-24.8,7.1-38,8.9c-3.3,0.4-6.6,0.8-10,0.9c-3.4,0.1-6.7,0.1-10.1-0.3C36.4,52,33,51.2,30,49.5c-1.5-0.9-2.9-2-3.7-3.6
		c-0.4-0.8-0.6-1.7-0.4-2.7c0.1-0.5,0.3-0.9,0.7-1.3c0.4-0.4,0.9-0.5,1.4-0.5c0.5,0,1,0.2,1.4,0.4c0.2,0.1,0.4,0.2,0.6,0.3
		c0.2,0.1,0.4,0.2,0.5,0.4c0.7,0.5,1.3,1.1,1.9,1.7c1.2,1.1,2.6,2,4.1,2.6c1.5,0.6,3.2,0.9,4.8,1.1c0.8,0.1,1.7,0.1,2.5,0.2
		c0.8,0,1.7,0,2.5,0c3.3-0.1,6.7-0.5,10-1c3.3-0.5,6.6-1.2,9.8-1.9c12.9-3,25.4-7,37.4-11c6-2,11.9-4.1,17.6-6.2c2.9-1,5.7-2,8.6-3
		c2.8-0.9,5.7-1.7,8.5-2.5c11.2-3,22.3-4.6,32.5-4.3c5.1,0.2,10,1,14.5,2.2c1.1,0.4,2.2,0.7,3.3,1c1.1,0.4,2.1,0.9,3.1,1.3
		c0.5,0.2,1,0.5,1.5,0.7c0.5,0.3,1,0.5,1.4,0.8c1,0.5,1.8,1.1,2.7,1.6c3.5,2.3,6.4,4.9,8.8,7.6c2.4,2.7,4.1,5.6,5.5,8.2
		c1.4,2.6,2.4,5.1,3.1,7.3c0.7,2.2,1.2,4.1,1.5,5.7c0.3,1.6,0.5,2.8,0.6,3.6c0.1,0.4,0.1,0.7,0.1,1c0,0.2,0,0.3,0,0.3L216.2,59.7z"
		/>
	<path class="st1" d="M214.8,57.5c0,0-25.2-73.3-92.6-36.2c-67.4,37.1-83.6,17.5-89.4,18C27.1,39.6,49.7,64.1,153.4,17
		C183.1,3.4,214.8,57.5,214.8,57.5"/>
	<path class="st2" d="M212.6,53.9c-0.1-0.2-0.1-0.3-0.2-0.5c-1.2-2.8-3.2-6.8-6.2-11.6c-1.5-2.4-3.3-5-5.4-7.7
		c-2.1-2.7-4.6-5.4-7.5-8.2c-2.9-2.7-6.2-5.3-10-7.5c-1-0.5-1.9-1.1-2.9-1.6c-1-0.5-2.1-1-3.1-1.5c-1.1-0.4-2.2-0.8-3.3-1.2
		c-0.5-0.2-1.1-0.4-1.7-0.5c-0.6-0.2-1.2-0.3-1.7-0.5c-4.7-1.2-9.8-1.8-15-1.6c-5.2,0.2-10.6,1.3-15.9,2.9c-1.3,0.5-2.7,0.9-4,1.4
		l-1,0.3l-1,0.4c-0.7,0.3-1.3,0.6-2,0.8c-0.7,0.3-1.3,0.6-2,0.8l-1,0.4l-1,0.5c-1.3,0.7-2.6,1.3-3.9,2c-2.6,1.3-5.2,2.8-7.9,4.2
		c-2.7,1.4-5.4,2.8-8.2,4.1c-5.5,2.7-11.3,5.2-17.2,7.4c-5.9,2.2-12,4.2-18.4,5.6c-3.2,0.7-6.4,1.2-9.6,1.6
		c-3.2,0.4-6.5,0.5-9.8,0.3c-3.3-0.1-6.6-0.6-9.8-1.5c-1.6-0.4-3.2-1-4.7-1.5l-2.3-0.9c-0.8-0.3-1.5-0.6-2.3-0.7l-0.3-0.1l-0.3,0
		c-0.1,0-0.2,0-0.2,0c-0.1,0-0.2,0-0.3,0.1c-0.2,0.1-0.3,0.2-0.2,0.5c0.1,0.3,0.4,0.6,0.6,0.8c0.3,0.3,0.6,0.5,0.9,0.7
		c1.3,0.9,2.8,1.5,4.4,2c3.1,1,6.3,1.5,9.6,1.7c6.5,0.5,13,0.1,19.4-0.8C80,43,92.3,39.7,104,36.1c11.7-3.7,22.8-7.9,33.2-12.2
		c5.2-2.2,10.2-4.3,15-6.5c1.2-0.6,2.5-1,3.7-1.5c0.6-0.2,1.3-0.3,1.9-0.5c0.6-0.2,1.3-0.3,1.9-0.4c0.6-0.1,1.3-0.2,1.9-0.2
		c0.6,0,1.3,0,1.9,0l0.9,0c0.3,0,0.6,0.1,0.9,0.1c0.6,0.1,1.2,0.1,1.8,0.2c4.9,0.8,9.3,2.8,13.1,5c3.9,2.3,7.2,4.9,10.2,7.6
		c5.9,5.3,10.5,10.6,14,15.1c3.5,4.5,6.1,8.2,7.8,10.8C212.4,53.6,212.5,53.8,212.6,53.9 M214.8,57.5c0,0-0.8-1.4-2.5-4
		c-1.7-2.6-4.2-6.3-7.8-10.7c-3.6-4.5-8.1-9.8-14.1-15.1c-3-2.6-6.3-5.3-10.2-7.5c-3.8-2.3-8.2-4.2-13.1-5c-0.6-0.1-1.2-0.1-1.8-0.2
		c-0.3,0-0.6-0.1-0.9-0.1l-0.9,0c-0.6,0-1.3,0-1.9,0c-0.6,0.1-1.3,0.2-1.9,0.2c-0.6,0.1-1.3,0.2-1.9,0.4c-0.6,0.2-1.3,0.3-1.9,0.5
		c-1.2,0.5-2.4,0.9-3.6,1.5c-4.8,2.2-9.8,4.4-15,6.6c-10.4,4.4-21.5,8.6-33.2,12.4c-11.7,3.7-24,7-36.8,8.7
		c-6.4,0.8-12.9,1.3-19.5,0.8c-3.3-0.2-6.5-0.7-9.7-1.7c-1.6-0.5-3.1-1.1-4.5-2.1c-0.4-0.2-0.7-0.5-1-0.8c-0.3-0.3-0.6-0.6-0.8-1.1
		c-0.1-0.2-0.2-0.5,0-0.9c0.1-0.3,0.4-0.5,0.7-0.6c0.2-0.1,0.2,0,0.3-0.1c0.2,0,0.2,0,0.4,0l0.3,0l0.3,0.1c0.9,0.2,1.6,0.5,2.4,0.8
		l2.3,0.9c1.5,0.6,3.1,1.1,4.6,1.5c3.1,0.8,6.4,1.3,9.6,1.4c3.2,0.1,6.5,0,9.7-0.4c3.2-0.4,6.4-0.9,9.5-1.6
		c6.3-1.4,12.3-3.4,18.2-5.6c5.9-2.2,11.6-4.8,17.1-7.4c2.8-1.3,5.5-2.7,8.1-4.1c2.7-1.4,5.3-2.9,7.9-4.2c1.3-0.7,2.6-1.3,3.9-2
		l1-0.5l1-0.4c0.7-0.3,1.3-0.6,2-0.9c0.7-0.3,1.3-0.6,2-0.9l1-0.4l1-0.4c1.4-0.5,2.7-0.9,4-1.4c5.4-1.6,10.9-2.7,16.2-3
		c5.4-0.2,10.6,0.3,15.4,1.6c0.6,0.2,1.2,0.3,1.8,0.5c0.6,0.2,1.2,0.3,1.8,0.5c1.1,0.4,2.3,0.9,3.4,1.3c1.1,0.5,2.1,1,3.2,1.5
		c1,0.5,2,1.1,3,1.7c3.9,2.3,7.3,5,10.3,7.7c2.9,2.8,5.4,5.6,7.6,8.3c2.1,2.7,4,5.4,5.5,7.8c3.1,4.9,5.1,9,6.3,11.8
		c0.6,1.4,1.1,2.5,1.4,3.3c0.3,0.7,0.4,1.1,0.4,1.1l1.2,3.5L214.8,57.5z"/>
	<path class="st1" d="M210.5,54.5c0,0-29.8-60.6-94.6-6.5C51,102,18.7,79.4,18.7,79.4s44.7,22.5,69.8,0
		C113.6,56.9,124,46,131.7,40.5c7.8-5.5,29.1-18.4,56.8-3.2C216.2,52.6,210.5,54.5,210.5,54.5"/>
	<path class="st2" d="M209.8,54.8c-1-1.9-2.2-3.8-3.5-5.7c-1.3-1.9-2.7-3.6-4.2-5.3c-3-3.4-6.3-6.5-10-9.1c-3.7-2.6-7.7-4.7-12-6.2
		c-4.3-1.4-8.7-2.3-13.3-2.3c-4.5-0.1-9,0.5-13.4,1.6l-3.3,0.9c-0.5,0.2-1.1,0.3-1.6,0.5l-1.6,0.6c-1.1,0.4-2.1,0.8-3.2,1.2
		l-3.1,1.4c-4.1,1.9-8.1,4.2-11.9,6.6c-1,0.6-1.9,1.3-2.8,1.9l-2.8,2c-0.9,0.6-1.8,1.4-2.7,2.1l-2.7,2.1c-3.6,2.8-7.1,5.8-10.8,8.5
		l-2.7,2.1l-2.8,2l-2.8,2l-2.9,1.9c-1,0.6-1.9,1.3-2.9,1.9l-2.9,1.8c-1.9,1.2-3.9,2.3-5.9,3.5c-1,0.6-2,1.1-3,1.6l-3.1,1.6L75,75.4
		l-1.6,0.7l-1.6,0.7c-4.2,1.9-8.5,3.4-13,4.7c-4.4,1.3-8.9,2.2-13.5,2.7c-4.6,0.5-9.2,0.5-13.8-0.1c-2.3-0.3-4.5-0.8-6.8-1.5
		c-0.6-0.2-1.1-0.4-1.6-0.6c-0.5-0.2-1.1-0.4-1.6-0.6c-1.1-0.5-2.1-1-3.1-1.6l0.4-0.6c4.1,2,8.4,3.7,12.8,5.1
		c4.4,1.4,8.8,2.6,13.3,3.5c4.5,0.8,9.1,1.4,13.7,1.4c4.6,0,9.2-0.4,13.6-1.5c4.4-1.1,8.7-3,12.5-5.6c0.5-0.3,1-0.6,1.4-1l1.3-1.1
		c0.9-0.7,1.7-1.5,2.6-2.3l5.1-4.6c3.4-3.1,6.8-6.2,10.2-9.3l10.1-9.4c3.4-3.1,6.8-6.3,10.3-9.3c3.5-3,7.2-5.8,11.3-8
		c4-2.3,8.3-4,12.8-5.2c4.5-1.2,9.1-1.8,13.7-1.6c1.2,0,2.3,0.2,3.5,0.2l1.7,0.2c0.6,0.1,1.1,0.2,1.7,0.3c1.1,0.2,2.3,0.4,3.4,0.7
		l3.3,1c1.1,0.3,2.2,0.7,3.3,1.1c1.1,0.4,2.2,0.8,3.2,1.3l3.1,1.5l1.5,0.8c0.5,0.3,1,0.6,1.5,0.8c4,2.3,8,4.6,11.9,7.1
		c1.9,1.3,3.8,2.6,5.6,4.1c0.9,0.7,1.7,1.5,2.5,2.4c0.4,0.4,0.7,0.9,1,1.4c0.1,0.3,0.2,0.5,0.2,0.8c0,0.3-0.2,0.6-0.5,0.7
		L209.8,54.8 M211,53.9C211,53.9,211,53.9,211,53.9c0-0.3-0.1-0.6-0.2-0.8c-0.2-0.5-0.6-1-1-1.4c-0.8-0.9-1.6-1.6-2.5-2.4
		c-1.8-1.5-3.7-2.8-5.6-4c-3.9-2.5-7.9-4.8-11.9-7.1c-0.5-0.3-1-0.6-1.5-0.8l-1.5-0.8l-3.1-1.5c-1.1-0.5-2.1-0.8-3.2-1.3
		c-1.1-0.4-2.1-0.9-3.3-1.1l-3.3-0.9c-1.1-0.3-2.3-0.4-3.4-0.7c-0.6-0.1-1.1-0.2-1.7-0.3l-1.7-0.2c-1.1-0.1-2.3-0.3-3.4-0.2
		c-4.6-0.2-9.2,0.4-13.7,1.6c-4.4,1.2-8.7,3-12.7,5.2c-4,2.3-7.7,5-11.2,8c-3.5,3-6.8,6.2-10.2,9.3L105.7,64
		c-3.4,3.1-6.8,6.3-10.2,9.4L90.4,78c-0.9,0.8-1.7,1.6-2.6,2.3l-1.3,1.1c-0.4,0.4-0.9,0.7-1.4,1C81.3,85,77,87,72.5,88.1
		c-4.5,1.1-9.2,1.6-13.8,1.6c-4.6,0-9.3-0.6-13.8-1.4c-4.6-0.8-9-2-13.4-3.5c-4.4-1.4-8.7-3.1-12.9-5.1l0.4-0.6
		c0.9,0.6,1.9,1.1,3,1.5c0.5,0.2,1.1,0.4,1.6,0.6c0.5,0.2,1.1,0.4,1.6,0.5c2.2,0.7,4.4,1.1,6.6,1.4c4.5,0.6,9.1,0.6,13.6,0.1
		c4.5-0.5,9-1.4,13.4-2.7c4.4-1.3,8.7-2.8,12.8-4.7l1.6-0.7l1.5-0.7l3.1-1.5l3-1.6c1-0.5,2-1,3-1.6c2-1.1,4-2.2,5.9-3.5l2.9-1.8
		c1-0.6,1.9-1.3,2.8-1.9l2.8-1.9l2.8-2l2.8-2l2.7-2.1c3.7-2.7,7.1-5.7,10.7-8.5l2.7-2.1c0.9-0.7,1.8-1.4,2.7-2.1l2.8-2
		c0.9-0.7,1.8-1.4,2.8-1.9c3.9-2.5,7.8-4.8,12-6.8l3.1-1.4c1.1-0.4,2.2-0.8,3.2-1.2l1.6-0.6c0.5-0.2,1.1-0.3,1.7-0.5l3.3-1
		c4.5-1.1,9.1-1.7,13.8-1.6c4.6,0.1,9.3,0.9,13.7,2.4c4.4,1.5,8.6,3.6,12.3,6.3c3.8,2.6,7.2,5.8,10.3,9.3c1.5,1.7,3,3.5,4.3,5.4
		C208.8,50.1,210,51.9,211,53.9z"/>
	<path class="st1" d="M156,25.3c0,0-104.4,41.1-129.2,35.6c-15.6-3.4,21.3,13.2,42.1,4C89.6,55.7,138,27.7,156,25.3"/>
	<path class="st2" d="M159.5,24.7l-3.2,1.3c0,0-4.1,1.6-11.3,4.3c-7.2,2.7-17.6,6.5-30.1,10.8c-12.5,4.3-27.2,9.1-43.1,13.5
		c-8,2.2-16.3,4.3-24.8,5.8c-1.1,0.2-2.1,0.4-3.2,0.5c-1.1,0.1-2.2,0.3-3.3,0.4c-1.1,0.2-2.2,0.2-3.3,0.3c-1.1,0.1-2.2,0.2-3.3,0.2
		c-0.6,0-1.1,0.1-1.7,0l-1.7-0.1c-1.1,0-2.2-0.2-3.3-0.4c-1.1-0.2-2.2-0.5-3.2-0.5c-0.1,0-0.3,0-0.4,0c-0.1,0-0.2,0-0.2,0
		c0,0,0-0.1,0.1-0.1c0-0.1,0-0.1,0-0.1c0,0,0,0,0,0l0,0c0.1,0.1,0.2,0.1,0.3,0.2c0.4,0.3,0.9,0.5,1.4,0.8c2,0.9,4.1,1.6,6.1,2.3
		c2.1,0.6,4.2,1.2,6.3,1.7c4.3,0.9,8.6,1.6,12.9,1.8c4.3,0.2,8.6,0,12.7-0.9c4.2-0.8,7.9-2.9,11.6-4.6c7.4-3.6,14.5-7.3,21.3-10.7
		c6.7-3.4,13.1-6.7,19-9.6c11.8-5.9,21.9-10.4,29.1-13c3.6-1.3,6.5-2.2,8.5-2.7c0.5-0.1,0.9-0.2,1.3-0.3c0.4-0.1,0.7-0.1,1-0.2
		c0.5-0.1,0.8-0.1,0.8-0.1L159.5,24.7 M150.9,26.5c-1.8,0.5-4,1.2-6.6,2.2c-7.2,2.7-17.3,7.3-29.1,13.2c-5.9,2.9-12.3,6.2-19,9.7
		c-6.7,3.5-13.8,7.2-21.2,10.8c-1.9,0.9-3.7,1.8-5.7,2.7c-1.9,0.9-4,1.6-6,2c-4.2,0.9-8.5,1.2-12.9,1c-4.4-0.2-8.7-0.8-13-1.8
		c-2.2-0.5-4.3-1-6.4-1.7c-2.1-0.6-4.2-1.3-6.2-2.3c-0.5-0.2-1-0.5-1.5-0.8c-0.1-0.1-0.2-0.2-0.4-0.3c-0.1-0.1-0.1-0.1-0.2-0.3
		c0,0,0-0.2,0-0.3c0-0.1,0.1-0.2,0.2-0.3c0.3-0.2,0.4-0.1,0.6-0.2c0.2,0,0.3,0,0.5,0c1.2,0.1,2.2,0.4,3.3,0.5
		c1.1,0.1,2.1,0.4,3.2,0.4l1.6,0.1c0.5,0,1.1,0,1.6,0c1.1,0,2.2-0.1,3.3-0.2c1.1-0.1,2.2-0.2,3.2-0.3c1.1-0.1,2.2-0.3,3.2-0.4
		c1.1-0.2,2.1-0.4,3.2-0.6c8.5-1.5,16.8-3.7,24.7-5.9c15.9-4.5,30.5-9.3,43-13.7c12.5-4.3,22.8-8.2,30-10.9
		C147,28,149.2,27.1,150.9,26.5z"/>
	<path class="st1" d="M152.2,28.5c0,0-28.9,10.8-39.8,21.5c-10.9,10.6-82,67.6-90.4,49.2c-8.4-18.4,49.6-2.6,67.9-17
		C108.2,67.8,85.7,75.7,152.2,28.5"/>
	<path class="st2" d="M149.7,30.3c-0.2,0.1-0.4,0.1-0.5,0.2c-2.1,0.8-5.2,2.1-9.1,3.9c-3.9,1.7-8.6,3.9-13.8,6.8
		c-1.3,0.7-2.6,1.5-4,2.3c-0.7,0.4-1.3,0.8-2,1.3c-0.7,0.5-1.3,0.9-2,1.4c-0.7,0.4-1.3,1-2,1.5c-0.7,0.5-1.4,1-2,1.6
		c-1.3,1.1-2.6,2.4-4,3.6c-5.5,4.9-11.7,9.8-18.3,15C85.3,72.8,78.2,78,70.6,83.2C63,88.3,55,93.3,46.3,97.6
		c-4.3,2.1-8.8,4.1-13.7,5.1c-2.4,0.5-5,0.8-7.4-0.1c-1.2-0.4-2.3-1.2-3-2.3c-0.3-0.5-0.6-1.1-0.8-1.7c-0.1-0.3-0.2-0.6-0.3-0.9
		c-0.1-0.3-0.1-0.6-0.2-0.9c-0.1-0.6-0.1-1.3,0.1-1.9c0.2-0.6,0.5-1.3,0.9-1.8c0.8-1,2-1.7,3.2-2.1c2.3-0.9,4.8-1.3,7.2-1.5
		c4.9-0.5,9.7-0.5,14.5-0.5c9.6-0.1,19.1,0,28.1-1.4c4.5-0.7,8.9-1.8,12.7-4c0.9-0.5,1.8-1.1,2.7-1.8c0.8-0.7,1.7-1.4,2.5-2.1
		c0.8-0.7,1.6-1.4,2.3-2.2c0.7-0.8,1.5-1.5,2.1-2.3c1.3-1.6,2.4-3.4,3.6-5c0.6-0.8,1.3-1.6,1.9-2.4c0.7-0.8,1.4-1.5,2-2.2
		c2.8-2.8,5.6-5.4,8.4-7.7c1.4-1.2,2.8-2.3,4.1-3.4c1.4-1.1,2.7-2.1,4-3.2c0.7-0.5,1.3-1,1.9-1.5c0.6-0.5,1.3-1,1.9-1.5
		c1.3-1,2.5-1.9,3.7-2.8c2.4-1.8,4.6-3.4,6.7-5c2.1-1.5,4-2.9,5.7-4.2C145,33.7,147.9,31.6,149.7,30.3 M152.2,28.5
		c0,0-4,2.9-10.9,7.8c-1.7,1.3-3.6,2.7-5.7,4.2c-2.1,1.5-4.3,3.2-6.7,5c-1.2,0.9-2.4,1.8-3.7,2.8c-0.6,0.5-1.3,1-1.9,1.5
		c-0.6,0.5-1.3,1-1.9,1.5c-1.3,1-2.6,2.1-4,3.2c-1.4,1.1-2.7,2.3-4.1,3.4c-2.8,2.4-5.6,4.9-8.4,7.7c-0.7,0.7-1.3,1.4-2,2.2
		c-0.6,0.8-1.3,1.5-1.9,2.4c-1.2,1.6-2.3,3.4-3.6,5c-0.6,0.8-1.4,1.6-2.1,2.4c-0.8,0.7-1.6,1.5-2.4,2.2c-0.8,0.7-1.7,1.4-2.5,2.1
		c-0.8,0.7-1.8,1.3-2.7,1.9c-3.9,2.2-8.3,3.3-12.9,4.1c-9.1,1.4-18.6,1.4-28.2,1.5c-4.8,0.1-9.7,0.1-14.5,0.6
		c-2.4,0.3-4.8,0.6-7,1.5c-1.1,0.4-2.1,1.1-2.8,1.9c-0.3,0.4-0.6,0.9-0.7,1.5c-0.1,0.5-0.1,1.1,0,1.7c0,0.3,0.1,0.6,0.2,0.8
		c0.1,0.3,0.2,0.5,0.3,0.8c0.2,0.6,0.5,1.1,0.8,1.6c0.6,0.9,1.6,1.6,2.7,2c2.2,0.8,4.7,0.5,7,0c4.7-1,9.1-3,13.4-5.1
		c8.6-4.3,16.5-9.4,24.1-14.5c7.5-5.2,14.6-10.4,21.3-15.5c6.6-5.1,12.8-10.1,18.2-15c1.4-1.2,2.6-2.4,4-3.6c0.6-0.6,1.4-1.1,2-1.7
		c0.7-0.5,1.4-1.1,2.1-1.5c0.7-0.5,1.4-0.9,2.1-1.4c0.7-0.4,1.4-0.9,2.1-1.3c1.3-0.9,2.7-1.6,4-2.3c5.2-2.9,9.9-5.1,13.8-6.9
		c3.9-1.8,7-3.1,9.1-3.9c2.1-0.9,3.3-1.3,3.3-1.3l2.6-1L152.2,28.5z"/>
	<path class="st1" d="M162.2,25.2c0,0-74.4,26.8-84.2,59.2c-9.8,32.4-31.1,20.6-51.6,23.1c-20.5,2.4,33.2,6.6,48.7-1.1
		c15.6-7.7-1.4-19.7,8.1-23.9c9.5-4.2,5.8-13,41.9-34.9C161.1,25.7,162.2,25.2,162.2,25.2"/>
	<path class="st2" d="M158.2,27.5c-2.4,0.9-5.7,2.3-9.9,4c-4.4,1.9-9.8,4.3-15.8,7.3c-6,3-12.8,6.6-19.8,10.9
		c-7,4.4-14.5,9.5-21.3,16c-3.4,3.3-6.7,6.9-9.3,11.1c-0.3,0.5-0.6,1.1-1,1.6c-0.3,0.5-0.6,1.1-0.8,1.7c-0.3,0.6-0.6,1.1-0.8,1.7
		c-0.2,0.6-0.4,1.2-0.6,1.8l-0.3,0.9l-0.3,0.9c-0.2,0.6-0.4,1.2-0.6,1.8c-0.2,0.6-0.5,1.2-0.7,1.8c-0.2,0.6-0.5,1.2-0.7,1.8
		c-1,2.4-2.3,4.7-3.8,6.9c-1.6,2.2-3.4,4.2-5.7,5.8c-2.2,1.6-4.8,2.8-7.4,3.4c-2.7,0.7-5.4,1-8.2,1.1c-5.5,0.1-11-0.4-16.5-0.5
		c-2.8,0-5.5,0-8.2,0.3c-0.7,0.1-1.4,0.2-2,0.3c-0.7,0.1-1.4,0.3-1.9,0.5c-0.1,0-0.3,0.2-0.2,0.1c0-0.1,0-0.2,0-0.2c0,0,0,0,0.1,0.1
		c0.2,0.1,0.6,0.2,0.9,0.3c0.6,0.2,1.3,0.3,2,0.4c2.7,0.4,5.5,0.6,8.2,0.8c2.8,0.2,5.5,0.2,8.3,0.3c5.5,0,11-0.1,16.4-0.6
		c2.7-0.3,5.4-0.6,8.1-1.1c2.6-0.5,5.3-1.1,7.7-2.1c2.4-1,4.8-2.4,6.3-4.5c0.8-1,1.3-2.2,1.5-3.5c0.2-1.3,0.1-2.5-0.1-3.8
		c-0.2-1.3-0.6-2.5-0.9-3.7c-0.3-1.2-0.7-2.5-0.8-3.8c-0.1-0.6,0-1.3,0.2-2c0.2-0.7,0.5-1.2,1-1.7c0.5-0.5,1-0.9,1.6-1.1
		c0.6-0.3,1.1-0.6,1.7-0.9c2.2-1.2,3.9-3,5.4-4.9c1.5-1.9,3-3.8,4.6-5.6c3.2-3.6,6.6-6.7,10.1-9.6c3.5-2.8,7-5.4,10.4-7.7
		c6.9-4.7,13.5-8.5,19.2-12c5.8-3.5,10.8-6.5,15-9C152.9,30.7,156,28.8,158.2,27.5 M162.2,25.2c0,0-0.3,0.2-0.9,0.5
		c-0.6,0.3-1.4,0.8-2.6,1.5c-2.2,1.3-5.5,3.3-9.6,5.8c-4.1,2.5-9.2,5.6-14.9,9.1c-5.8,3.5-12.3,7.4-19.2,12.1
		c-3.4,2.3-6.9,4.9-10.4,7.7c-3.4,2.9-6.9,6-10,9.6c-1.6,1.8-3.1,3.7-4.6,5.6c-0.4,0.5-0.8,0.9-1.2,1.4c-0.4,0.4-0.8,0.9-1.3,1.3
		c-0.5,0.4-0.9,0.9-1.4,1.2l-0.8,0.5l-0.4,0.3l-0.4,0.2c-1.1,0.6-2.3,1-3.1,1.9c-0.4,0.5-0.7,1-0.9,1.6c-0.1,0.6-0.2,1.2-0.2,1.8
		c0.1,1.2,0.4,2.5,0.8,3.7c0.3,1.2,0.7,2.5,0.9,3.8c0.2,1.3,0.3,2.6,0.1,4c-0.2,1.3-0.7,2.6-1.6,3.7c-0.8,1.1-1.8,2-3,2.8
		c-0.6,0.4-1.1,0.7-1.7,1c-0.6,0.3-1.2,0.6-1.8,0.9c-2.5,1-5.2,1.7-7.8,2.2c-2.7,0.5-5.4,0.8-8.1,1.1c-5.5,0.5-11,0.7-16.5,0.7
		c-2.8,0-5.5-0.1-8.3-0.2c-2.8-0.2-5.5-0.4-8.3-0.8c-0.7-0.1-1.4-0.2-2.1-0.4c-0.3-0.1-0.7-0.2-1.1-0.4c-0.1-0.1-0.2-0.1-0.3-0.2
		c-0.1-0.1-0.2-0.4-0.1-0.6c0.1-0.2,0.2-0.3,0.3-0.3c0.1-0.1,0.2-0.1,0.3-0.2c0.7-0.3,1.4-0.4,2.1-0.6c0.7-0.1,1.4-0.2,2.1-0.3
		c2.8-0.3,5.6-0.4,8.3-0.4c5.6,0.1,11,0.6,16.5,0.5c2.7-0.1,5.4-0.4,8-1.1c2.6-0.7,5-1.8,7.1-3.3c2.1-1.5,3.9-3.5,5.4-5.6
		c1.5-2.1,2.7-4.4,3.7-6.8c0.3-0.6,0.5-1.2,0.7-1.8c0.2-0.6,0.5-1.2,0.7-1.8c0.2-0.6,0.4-1.2,0.6-1.8l0.3-0.9l0.3-0.9
		c0.2-0.6,0.4-1.2,0.7-1.8c0.2-0.6,0.5-1.2,0.8-1.7c0.3-0.6,0.5-1.2,0.9-1.7c0.3-0.5,0.7-1.1,1-1.6c2.7-4.3,6-8,9.4-11.4
		c6.9-6.7,14.4-11.8,21.4-16.3c7.1-4.4,13.8-8,19.9-11.1c6.1-3,11.4-5.5,15.9-7.4c4.5-1.9,8-3.4,10.4-4.3c2.4-1,3.7-1.4,3.7-1.4
		l4.2-1.5L162.2,25.2z"/>
	<path class="st1" d="M214.8,53.9c0,0-36.1-66.5-82.9-51.2C85,18.1,33.3,23,26.1,16.5c-7.1-6.5,19.3,18.8,88.1-2.7
		c68.7-21.5,54.3-7.2,73.4,11.4C206.8,43.8,214.8,53.9,214.8,53.9"/>
	<path class="st2" d="M214.8,53.9c0,0-36.1-66.5-82.9-51.2C85,18.1,33.3,23,26.1,16.5c-7.1-6.5,19.3,18.8,88.1-2.7
		c68.7-21.5,54.3-7.2,73.4,11.4C206.8,43.8,214.8,53.9,214.8,53.9z"/>
	<path class="st1" d="M177.9,12.8c0,0-17-28.6-97.5,19.2C0,79.9,16,32,16,32s-6.2,46.3,80.3-0.9C143.5,5.4,120,9.9,156,8.8
		C165.2,8.5,167.6,13,177.9,12.8"/>
	<path class="st2" d="M177.9,12.8c0,0-17-28.6-97.5,19.2C0,79.9,16,32,16,32s-6.2,46.3,80.3-0.9C143.5,5.4,120,9.9,156,8.8
		C165.2,8.5,167.6,13,177.9,12.8z"/>
	<path class="st1" d="M141.8,36c0,0-0.2,0.1-0.7,0.3c-1.9,1.1-7.5,5.4-15.7,21.1c-10,19.4-35.9,32-35.9,32s-30.7,12.3-34.2,11.3
		c-3.5-1-38.1-1.5-38.1-1.5s37.2,6.6,41.5,6.3c4.3-0.3,26.2-2.1,33.2-6.3c7-4.2,10.5-6.4,20.4-18c9.9-11.6,14.7-22,19.5-23.7
		C136.6,55.7,133,48.6,141.8,36"/>
	<path class="st2" d="M141.8,36c0,0-0.2,0.1-0.7,0.3c-1.9,1.1-7.5,5.4-15.7,21.1c-10,19.4-35.9,32-35.9,32s-30.7,12.3-34.2,11.3
		c-3.5-1-38.1-1.5-38.1-1.5s37.2,6.6,41.5,6.3c4.3-0.3,26.2-2.1,33.2-6.3c7-4.2,10.5-6.4,20.4-18c9.9-11.6,14.7-22,19.5-23.7
		C136.6,55.7,133,48.6,141.8,36z"/>
	<path class="st1" d="M138.9,40.8c0,0,5.4,24.7-22.6,46.7c-28,22.1-71.8,39.1-95.1,55.6c-23.4,16.5,10.4-17.5,52.8-36.5
		c42.4-19.1,43.8-18.7,51.5-35.9C133.2,53.6,138.9,40.8,138.9,40.8"/>
	<path class="st2" d="M138.9,40.8c0,0,5.4,24.7-22.6,46.7c-28,22.1-71.8,39.1-95.1,55.6c-23.4,16.5,10.4-17.5,52.8-36.5
		c42.4-19.1,43.8-18.7,51.5-35.9C133.2,53.6,138.9,40.8,138.9,40.8z"/>
	<path class="st1" d="M194.4,34.1c0,0-58.4-31.6-132.6,40.1c-6.8,6.6-40.4,3-48.3,0c-7.9-3,23.9,10.7,31.9,6.9
		c8-3.8,13,2.2,25.5-8.6c12.5-10.8,14.9-11.2,25.4-18c12.3-8,17.7-7.6,23.6-10.3c5.9-2.7,13.8-8.4,27.4-10.1
		C160.9,32.5,163.4,29.3,194.4,34.1"/>
	<path class="st2" d="M191.8,33.8c-0.5-0.2-1.1-0.5-1.7-0.7c-2.7-1-6.6-2.3-11.9-3.4c-1.3-0.2-2.7-0.5-4.1-0.7
		c-0.7-0.1-1.5-0.2-2.2-0.3c-0.8-0.1-1.6-0.2-2.3-0.3c-0.4,0-0.8-0.1-1.2-0.1c-0.4,0-0.8-0.1-1.2-0.1c-0.8-0.1-1.7-0.1-2.6-0.2
		c-0.9,0-1.8,0-2.7-0.1c-0.9,0-1.8,0-2.7,0c-0.9,0-1.9,0-2.8,0.1c-1,0-1.9,0.1-2.9,0.2c-2,0.1-4,0.4-6.1,0.6c-1,0.1-2.1,0.3-3.1,0.5
		c-1.1,0.2-2.1,0.3-3.2,0.5c-2.1,0.5-4.4,0.9-6.6,1.5c-8.9,2.3-18.3,5.7-27.6,10.6C97.3,46.7,88,52.8,79,59.9
		c-1.1,0.9-2.3,1.8-3.4,2.7c-1.1,0.9-2.2,1.9-3.3,2.8c-1.1,1-2.2,1.9-3.3,2.9c-1.1,1-2.2,2-3.2,3c-1.1,1-2.2,2-3.3,3
		c-0.1,0.1-0.2,0.2-0.4,0.4l-0.4,0.4c-0.3,0.2-0.7,0.4-1,0.7c-0.3,0.2-0.7,0.3-1.1,0.5c-0.4,0.2-0.7,0.3-1.1,0.4c-2.9,1-6,1.3-9,1.6
		c-6.1,0.4-12.2,0.1-18.3-0.4c-3.1-0.3-6.1-0.7-9.2-1.2c-1.5-0.3-3-0.5-4.6-0.9c-1.5-0.3-3-0.7-4.5-1.3l-0.5-0.2l-0.1,0
		c0.1-0.1-0.5,0.2,0.3-0.2c-0.2-0.9,0-0.2,0-0.4l0.1,0.1c0.3,0.2,0.7,0.3,1,0.4c0.7,0.3,1.4,0.6,2.1,0.8c1.4,0.6,2.9,1.1,4.3,1.6
		c2.9,1,5.8,2,8.8,2.8c2.9,0.8,5.9,1.5,8.9,1.9c3,0.4,6.1,0.6,8.7-0.9c1.5-0.5,3-0.8,4.5-0.9c1.5-0.1,3-0.1,4.5-0.2
		c3-0.1,5.9-0.9,8.5-2.3c2.6-1.3,4.9-3.2,7.2-5c2.3-1.9,4.5-3.7,6.7-5.5c0.5-0.5,1.1-0.9,1.7-1.3c0.6-0.4,1.2-0.8,1.7-1.3
		c0.6-0.4,1.2-0.8,1.7-1.2c0.6-0.4,1.1-0.8,1.8-1.2c2.4-1.5,4.8-3,7.1-4.5c4.7-2.9,9.3-5.9,14.1-8.1c2.4-1.1,4.9-1.9,7.4-2.7
		c1.2-0.4,2.4-0.7,3.6-1.1c0.6-0.2,1.2-0.4,1.8-0.7l0.9-0.3l0.8-0.4c1.1-0.5,2.2-1.1,3.3-1.7c1.1-0.6,2.2-1.1,3.2-1.7
		c1.1-0.5,2.2-1,3.2-1.5c1.1-0.5,2.2-0.9,3.2-1.3c1.1-0.4,2.2-0.8,3.2-1.1c1.1-0.4,2.2-0.6,3.2-0.9c0.5-0.1,1.1-0.3,1.6-0.4
		c0.3-0.1,0.5-0.1,0.8-0.2l0.8-0.1c1.1-0.2,2.1-0.3,3.2-0.5c2.1-0.3,4.1-0.6,6.1-0.9c2-0.3,3.9-0.7,5.7-0.9c1.8-0.3,3.7-0.4,5.4-0.6
		c0.9-0.1,1.7-0.1,2.6-0.1c0.8,0,1.7,0,2.5-0.1c0.8,0,1.6,0,2.4,0.1c0.8,0,1.5,0.1,2.3,0.1c0.7,0,1.5,0.1,2.2,0.1
		c0.7,0,1.4,0.1,2.1,0.2c2.7,0.3,5.1,0.5,7.1,0.8c2.1,0.3,3.8,0.5,5.3,0.7C190.7,33.6,191.3,33.7,191.8,33.8 M194.4,34.1
		c0,0-1.5-0.2-4.4-0.6c-1.4-0.2-3.2-0.4-5.3-0.7c-2.1-0.3-4.5-0.5-7.1-0.7c-0.7-0.1-1.4-0.2-2.1-0.2c-0.7,0-1.4-0.1-2.2-0.1
		c-0.7,0-1.5-0.1-2.3-0.1c-0.8,0-1.6-0.1-2.4,0c-0.8,0-1.6,0-2.5,0.1c-0.8,0-1.7,0-2.6,0.1c-1.7,0.2-3.6,0.3-5.4,0.6
		c-1.9,0.3-3.8,0.6-5.7,1c-2,0.3-4,0.6-6.1,0.9c-1,0.2-2.1,0.3-3.1,0.5l-0.8,0.1c-0.3,0.1-0.5,0.1-0.8,0.2c-0.5,0.1-1.1,0.3-1.6,0.4
		c-1.1,0.3-2.2,0.5-3.2,0.9c-1.1,0.4-2.2,0.7-3.2,1.1c-1.1,0.4-2.1,0.9-3.2,1.4c-1.1,0.5-2.1,1-3.2,1.5c-1.1,0.6-2.1,1.1-3.2,1.7
		c-1.1,0.6-2.2,1.1-3.3,1.7l-0.8,0.4l-0.9,0.4c-0.6,0.2-1.2,0.5-1.8,0.7c-1.2,0.4-2.4,0.8-3.7,1.2c-2.4,0.8-4.9,1.6-7.3,2.7
		c-4.8,2.1-9.4,5.1-14,8.1c-2.3,1.5-4.7,3-7.1,4.5c-0.6,0.4-1.2,0.8-1.7,1.2c-0.6,0.4-1.2,0.8-1.7,1.3c-0.6,0.4-1.2,0.8-1.7,1.3
		c-0.6,0.4-1.2,0.8-1.7,1.3c-2.2,1.8-4.5,3.7-6.7,5.5c-2.2,1.9-4.6,3.7-7.2,5.1c-2.7,1.4-5.6,2.2-8.7,2.4c-1.5,0.1-3,0.1-4.5,0.2
		c-1.5,0.1-2.9,0.4-4.3,0.9l-1,0.4c-0.3,0.1-0.7,0.3-1.1,0.4c-0.8,0.2-1.5,0.3-2.3,0.4c-1.5,0.1-3.1-0.1-4.6-0.3c-3-0.4-6-1.1-9-1.9
		c-3-0.8-5.9-1.7-8.8-2.8c-1.5-0.5-2.9-1-4.3-1.6c-0.7-0.3-1.4-0.6-2.2-0.8c-0.4-0.1-0.7-0.3-1.1-0.5l-0.1-0.1
		c-0.1-0.2,0,0.4-0.3-0.6c0.8-0.4,0.4-0.1,0.6-0.2l0.1,0l0.6,0.2c2.8,1.1,5.9,1.6,8.9,2.1c3,0.5,6.1,0.9,9.1,1.1
		c6.1,0.5,12.2,0.8,18.2,0.4c3-0.2,6-0.6,8.8-1.6c0.3-0.1,0.7-0.2,1-0.4c0.3-0.2,0.7-0.3,1-0.5c0.3-0.2,0.6-0.3,0.9-0.6l0.4-0.4
		c0.1-0.1,0.3-0.2,0.4-0.4c1.1-1,2.2-2,3.3-3c1.1-1,2.2-2,3.2-3c1.1-1,2.2-1.9,3.3-2.9c1.1-1,2.2-1.9,3.3-2.9
		c1.1-0.9,2.3-1.8,3.4-2.7c9-7.2,18.4-13.4,27.8-18.3c9.4-5,18.8-8.5,27.8-10.8c2.2-0.6,4.5-1,6.6-1.5c1.1-0.3,2.2-0.4,3.2-0.6
		c1.1-0.2,2.1-0.4,3.2-0.5c2.1-0.2,4.1-0.5,6.1-0.6c1-0.1,2-0.2,3-0.2c1,0,1.9,0,2.9-0.1c0.9,0,1.9,0,2.8,0c0.9,0,1.8,0,2.7,0.1
		c0.9,0.1,1.7,0.1,2.6,0.2c0.4,0,0.8,0.1,1.3,0.1c0.4,0,0.8,0.1,1.2,0.1c0.8,0.1,1.6,0.2,2.4,0.2c0.8,0.1,1.5,0.2,2.3,0.3
		c1.5,0.2,2.9,0.5,4.2,0.7c5.3,1.1,9.4,2.4,12.1,3.4c1.4,0.5,2.4,1,3.1,1.3c0.3,0.2,0.6,0.3,0.8,0.4l2.1,1.1L194.4,34.1z"/>
	<path class="st1" d="M23,68.1c0,0,34.2,8,53.4-6.7c19.1-14.7,26.3-39.3,43.5-46.6c17.2-7.3,51.5-10.3,59.2,3.9
		C186.8,33,168.2-9.8,109,31.2c-59.3,40.9-21.6,28-50.2,42.2C30.2,87.6,23,68.1,23,68.1"/>
	<path class="st2" d="M23,68.1c0,0,34.2,8,53.4-6.7c19.1-14.7,26.3-39.3,43.5-46.6c17.2-7.3,51.5-10.3,59.2,3.9
		C186.8,33,168.2-9.8,109,31.2c-59.3,40.9-21.6,28-50.2,42.2C30.2,87.6,23,68.1,23,68.1z"/>
	<path class="st1" d="M147.9,35.9c0,0-31.3,12.1-41.4,26.6C96.5,77.1,86.9,85.3,80.1,86.6c-6.8,1.3-39.9,5-48.1,7.5
		c-8.3,2.5,16.8-0.4,26.8,0c9.9,0.4,21.6-1.2,26-4.7c4.3-3.5,11.7-8.2,15.8-13.9c4.1-5.6,7.5-13.6,16.2-15.9
		C125.4,57.5,147.9,35.9,147.9,35.9"/>
	<path class="st2" d="M147.9,35.9c0,0-31.3,12.1-41.4,26.6C96.5,77.1,86.9,85.3,80.1,86.6c-6.8,1.3-39.9,5-48.1,7.5
		c-8.3,2.5,16.8-0.4,26.8,0c9.9,0.4,21.6-1.2,26-4.7c4.3-3.5,11.7-8.2,15.8-13.9c4.1-5.6,7.5-13.6,16.2-15.9
		C125.4,57.5,147.9,35.9,147.9,35.9z"/>
	<path class="st1" d="M151.3,33.7c0,0-54,40.4-62.1,49.1C81,91.4,31.9,98.6,12.3,94.2c-19.6-4.4,39.1,5.8,46.1,5
		c7-0.8,31.7-9.2,39.4-14.4c7.7-5.3,12.6-13.6,17.1-18.3C119.3,61.8,151.3,33.7,151.3,33.7"/>
	<path class="st2" d="M151.3,33.7c0,0-54,40.4-62.1,49.1C81,91.4,31.9,98.6,12.3,94.2c-19.6-4.4,39.1,5.8,46.1,5
		c7-0.8,31.7-9.2,39.4-14.4c7.7-5.3,12.6-13.6,17.1-18.3C119.3,61.8,151.3,33.7,151.3,33.7z"/>
	<path class="st1" d="M116.5,46.5c0,0-28.4,4.6-41,28.1C63,98.2,37.6,116.3,26.8,119c-10.8,2.7,21.8-5.2,29-13
		c7.2-7.8,23.1-26,33.4-36.8C99.4,58.3,116.5,46.5,116.5,46.5"/>
	<path class="st2" d="M116.5,46.5c0,0-28.4,4.6-41,28.1C63,98.2,37.6,116.3,26.8,119c-10.8,2.7,21.8-5.2,29-13
		c7.2-7.8,23.1-26,33.4-36.8C99.4,58.3,116.5,46.5,116.5,46.5z"/>
	<path class="st1" d="M141.8,43.6c0,0-11.3,27.8-49.8,40.2c-38.4,12.4-63.6,30-79.8,42.3c-16.2,12.3,29.6-22,39.3-21.4
		c9.7,0.6,36.1-15.3,47.5-15.3C110.4,89.4,132.9,69.1,141.8,43.6"/>
	<path class="st2" d="M141.8,43.6c0,0-11.3,27.8-49.8,40.2c-38.4,12.4-63.6,30-79.8,42.3c-16.2,12.3,29.6-22,39.3-21.4
		c9.7,0.6,36.1-15.3,47.5-15.3C110.4,89.4,132.9,69.1,141.8,43.6z"/>
	<path class="st1" d="M148.2,36.4c0,0-13.8,48.5-24.8,46.6c-11-1.9-77.3,36.1-84.8,40.4c-7.5,4.3-17.4,12.1-17.4,12.1
		s41.2-38.3,68-48.1c26.7-9.8,26.4-2.5,36.3-12.4C135.3,65.2,148.2,36.4,148.2,36.4"/>
	<path class="st2" d="M148.2,36.4c0,0-13.8,48.5-24.8,46.6c-11-1.9-77.3,36.1-84.8,40.4c-7.5,4.3-17.4,12.1-17.4,12.1
		s41.2-38.3,68-48.1c26.7-9.8,26.4-2.5,36.3-12.4C135.3,65.2,148.2,36.4,148.2,36.4z"/>
	<path class="st1" d="M100.5,19.4c0,0-49.1,18.3-57.3,17c-8.2-1.3-12.9-0.5-12.9-0.5s15.2,7.7,21.9,7.7c6.7,0,18.3-7.2,18.3-7.2
		L100.5,19.4"/>
	<path class="st2" d="M100.5,19.4c0,0-49.1,18.3-57.3,17c-8.2-1.3-12.9-0.5-12.9-0.5s15.2,7.7,21.9,7.7c6.7,0,18.3-7.2,18.3-7.2
		L100.5,19.4z"/>
	<path class="st1" d="M121.2,86c0,0-45.5,24.9-51.1,29.8c-5.6,5-32.5,13-45.4,31.8c-13,18.9,14-7,14-7s19.2-12.3,34.5-21.7
		C88.3,109.6,121.2,86,121.2,86"/>
	<path class="st2" d="M121.2,86c0,0-45.5,24.9-51.1,29.8c-5.6,5-32.5,13-45.4,31.8c-13,18.9,14-7,14-7s19.2-12.3,34.5-21.7
		C88.3,109.6,121.2,86,121.2,86z"/>
	<path class="st1" d="M147.9,40.8c0,0,6.3,20.2-6.2,41.1c-12.5,20.9-32.2,26.4-36.6,29c-4.4,2.6-37.7,21.7-37.2,27
		c0.4,5.4-11.7,17.4-13.6,21.2c-2,3.8-14.2,19.2-15.7,26.4c-1.4,7.2-9.7,14.1-11.8,19.3c-2.2,5.2,3.5-23.4,16.9-42.7
		c13.4-19.3,19.5-25.6,19.5-25.6s17.2-14.6,21.6-17.5c4.4-2.9,17.6-11,22-15.4c4.4-4.3,15.1-4.7,23.8-12.9c8.7-8.2,9.9-14,11.3-19.9
		C143.1,64.8,147.9,40.8,147.9,40.8"/>
	<path class="st2" d="M147.9,40.8c0,0,6.3,20.2-6.2,41.1c-12.5,20.9-32.2,26.4-36.6,29c-4.4,2.6-37.7,21.7-37.2,27
		c0.4,5.4-11.7,17.4-13.6,21.2c-2,3.8-14.2,19.2-15.7,26.4c-1.4,7.2-9.7,14.1-11.8,19.3c-2.2,5.2,3.5-23.4,16.9-42.7
		c13.4-19.3,19.5-25.6,19.5-25.6s17.2-14.6,21.6-17.5c4.4-2.9,17.6-11,22-15.4c4.4-4.3,15.1-4.7,23.8-12.9c8.7-8.2,9.9-14,11.3-19.9
		C143.1,64.8,147.9,40.8,147.9,40.8z"/>
	<path class="st1" d="M135.8,94.1c0,0,9.9,34.6,7.8,43.8c-2.2,9.2-4.8,16.3-7.8,24.2c-3,7.8-9.3,19-14.6,29
		c-5.3,9.9-16.1,20.5-17.8,26c-1.7,5.5-6.8,18-7,29.6c-0.3,11.6,0.2,22.1,1.9,25.7c1.7,3.6,2.6,20,6.9,29.1
		c4.3,9,9.7,19.3,16.1,27.1c6.4,7.8,16.6,17.3,28.4,21.4c11.8,4.1,11.3,4.9,21.7,6.7c10.4,1.7,19.9,5.3,27.9,5.4c8,0.2,8,0.7,10.6,0
		c2.6-0.7-55.8-2.2-45.4-0.8c10.4,1.4-23.4-6.4-31.6-13.7c-8.2-7.3-22.9-18.9-27.3-31.6c-4.3-12.8-13.2-40.3-13.1-49.8
		c0.1-9.5-0.7-27.4,1.9-37.8c2.6-10.5,13-23.8,17.7-32c4.8-8.2,12.1-14,16.4-26.8c4.3-12.8,9.6-21,10.4-28.3
		C139.7,133.7,135.8,94.1,135.8,94.1"/>
	<path class="st2" d="M135.8,94.1c0,0,9.9,34.6,7.8,43.8c-2.2,9.2-4.8,16.3-7.8,24.2c-3,7.8-9.3,19-14.6,29
		c-5.3,9.9-16.1,20.5-17.8,26c-1.7,5.5-6.8,18-7,29.6c-0.3,11.6,0.2,22.1,1.9,25.7c1.7,3.6,2.6,20,6.9,29.1
		c4.3,9,9.7,19.3,16.1,27.1c6.4,7.8,16.6,17.3,28.4,21.4c11.8,4.1,11.3,4.9,21.7,6.7c10.4,1.7,19.9,5.3,27.9,5.4c8,0.2,8,0.7,10.6,0
		c2.6-0.7-55.8-2.2-45.4-0.8c10.4,1.4-23.4-6.4-31.6-13.7c-8.2-7.3-22.9-18.9-27.3-31.6c-4.3-12.8-13.2-40.3-13.1-49.8
		c0.1-9.5-0.7-27.4,1.9-37.8c2.6-10.5,13-23.8,17.7-32c4.8-8.2,12.1-14,16.4-26.8c4.3-12.8,9.6-21,10.4-28.3
		C139.7,133.7,135.8,94.1,135.8,94.1z"/>
	<path class="st1" d="M135,96.1c0,0,6.2,43.2-6.6,73.3c-12.8,30.1-33.3,65.2-30.3,81.1c3,15.9,8.2,36.6,13.4,51.3
		c5.2,14.7,19.7,33.7,34.5,40.3c14.9,6.6,26.5,11,39.2,12.6c12.6,1.6,18.9,4.3,21.5,4.3c2.6,0-50.6-6.3-55.6-11.6
		c-5-5.3-37.4-14.1-44.9-43.7c-7.5-29.6-11.2-27-10-55.4c1.2-28.4,9.1-37.8,14.1-49.5c5.1-11.7,16.3-29.7,19.8-48.1
		C133.6,132.5,135,96.1,135,96.1"/>
	<path class="st2" d="M135,96.1c0,0,6.2,43.2-6.6,73.3c-12.8,30.1-33.3,65.2-30.3,81.1c3,15.9,8.2,36.6,13.4,51.3
		c5.2,14.7,19.7,33.7,34.5,40.3c14.9,6.6,26.5,11,39.2,12.6c12.6,1.6,18.9,4.3,21.5,4.3c2.6,0-50.6-6.3-55.6-11.6
		c-5-5.3-37.4-14.1-44.9-43.7c-7.5-29.6-11.2-27-10-55.4c1.2-28.4,9.1-37.8,14.1-49.5c5.1-11.7,16.3-29.7,19.8-48.1
		C133.6,132.5,135,96.1,135,96.1z"/>
	<path class="st1" d="M141.2,106c0,0,0.1,0.6,0.4,1.6c1.9,8.3,9.7,47.2-8.4,70c-20.3,25.6-49,48.4-51.5,81.1
		c-2.5,32.8,2.3,64.5,7.4,69.8c5.1,5.2,9,34.9,52.3,47.7c43.3,12.7,42,11.2,51.9,11.3c10,0.1-20.6-6.7-41.9-14.1
		c-21.3-7.4-46.8-17.5-52.8-34.4c-6.1-16.9-14.3-22.1-15.1-59.1c-0.9-37.1,4.3-35.8,9.9-47c5.6-11.2,14.9-20.2,30.3-39.5
		C139.1,173.9,141.9,117.5,141.2,106"/>
	<path class="st2" d="M141.2,106c0,0,0.1,0.6,0.4,1.6c1.9,8.3,9.7,47.2-8.4,70c-20.3,25.6-49,48.4-51.5,81.1
		c-2.5,32.8,2.3,64.5,7.4,69.8c5.1,5.2,9,34.9,52.3,47.7c43.3,12.7,42,11.2,51.9,11.3c10,0.1-20.6-6.7-41.9-14.1
		c-21.3-7.4-46.8-17.5-52.8-34.4c-6.1-16.9-14.3-22.1-15.1-59.1c-0.9-37.1,4.3-35.8,9.9-47c5.6-11.2,14.9-20.2,30.3-39.5
		C139.1,173.9,141.9,117.5,141.2,106z"/>
	<path class="st1" d="M91.3,236.5c0,0,3.8,103.3,49.7,116.4c45.9,13.1,54.3,15.6,62.2,13.9c7.9-1.7-36.4,0.2-53.6-4.8
		c-17.2-5-51.7-31.9-53.5-58C94.2,277.8,84.3,243,91.3,236.5"/>
	<path class="st2" d="M91.3,236.5c0,0,3.8,103.3,49.7,116.4c45.9,13.1,54.3,15.6,62.2,13.9c7.9-1.7-36.4,0.2-53.6-4.8
		c-17.2-5-51.7-31.9-53.5-58C94.2,277.8,84.3,243,91.3,236.5z"/>
	<path class="st1" d="M133.7,119c0,0-14.9,65.5-22.2,77.4c-7.3,11.9-24.5,36.1-22.4,81.1c2.1,44.9,23.2,62.4,27.4,66.2
		c4.1,3.8,45.8,23.2,62.6,26.4c16.8,3.2,19.6,6,19.6,6s-38.4-8.4-60.6-17c-22.2-8.6-48.7-35.4-50.2-61.4
		c-1.5-26.1,7.3-79.3,16.3-96.6C113.3,183.7,133.1,127.5,133.7,119"/>
	<path class="st2" d="M133.7,119c0,0-14.9,65.5-22.2,77.4c-7.3,11.9-24.5,36.1-22.4,81.1c2.1,44.9,23.2,62.4,27.4,66.2
		c4.1,3.8,45.8,23.2,62.6,26.4c16.8,3.2,19.6,6,19.6,6s-38.4-8.4-60.6-17c-22.2-8.6-48.7-35.4-50.2-61.4
		c-1.5-26.1,7.3-79.3,16.3-96.6C113.3,183.7,133.1,127.5,133.7,119z"/>
	<path class="st1" d="M86.9,244.2c0,0-28,87.3,59.6,122.7c87.5,35.4,39,11.1,47.9,11.9c8.9,0.7-77.6-15.5-93.8-39.7
		C84.3,314.8,69.9,248,86.9,244.2"/>
	<path class="st2" d="M86.9,244.2c0,0-28,87.3,59.6,122.7c87.5,35.4,39,11.1,47.9,11.9c8.9,0.7-77.6-15.5-93.8-39.7
		C84.3,314.8,69.9,248,86.9,244.2z"/>
	<path class="st1" d="M143.2,110.9c0,0-32.8,96.5-33.9,138.8c-1.1,42.3,0.9,61.6,21.2,76.3c20.3,14.7,23.8,36.2,66.2,36.4
		c42.4,0.2-47.2-1.5-58.6-22.4c-11.4-20.9-26.6-9.4-35.7-58.3c-9.1-48.9,2.2-61.4,9.3-76.2C118.9,190.6,149.3,122.5,143.2,110.9"/>
	<path class="st2" d="M143.2,110.9c0,0-32.8,96.5-33.9,138.8c-1.1,42.3,0.9,61.6,21.2,76.3c20.3,14.7,23.8,36.2,66.2,36.4
		c42.4,0.2-47.2-1.5-58.6-22.4c-11.4-20.9-26.6-9.4-35.7-58.3c-9.1-48.9,2.2-61.4,9.3-76.2C118.9,190.6,149.3,122.5,143.2,110.9z"/>
	<path class="st1" d="M131.8,137.9c0,0-23.7,49.1-27.6,61c-3.9,11.9-15.4,51.7-15,68.5c0.4,16.8,16.7,73.4,36.2,85.1
		c19.6,11.7,39.5,21.7,42.1,22.7c2.6,1-29.7-6.8-36.1-12.9c-6.4-6.1-34.3-32.6-35.4-42.6c-1.2-10-12.7-42.7-11.3-51.5
		c1.3-8.7,4.2-37.2,8.1-48.8c3.9-11.6,9.5-24.8,13.3-35.9C109.8,172.5,131.8,137.9,131.8,137.9"/>
	<path class="st2" d="M131.8,137.9c0,0-23.7,49.1-27.6,61c-3.9,11.9-15.4,51.7-15,68.5c0.4,16.8,16.7,73.4,36.2,85.1
		c19.6,11.7,39.5,21.7,42.1,22.7c2.6,1-29.7-6.8-36.1-12.9c-6.4-6.1-34.3-32.6-35.4-42.6c-1.2-10-12.7-42.7-11.3-51.5
		c1.3-8.7,4.2-37.2,8.1-48.8c3.9-11.6,9.5-24.8,13.3-35.9C109.8,172.5,131.8,137.9,131.8,137.9z"/>
	<path class="st1" d="M81,277.5c0,0,5.2,43.9,11.4,52.7c6.2,8.8,8.9,25.3,15.3,28.9c6.3,3.6,21.3,13.2,30.5,16
		c9.2,2.7,23.2,7.4,29.6,8.8c6.4,1.3-19.2-1.5-21.2-2.8c-2-1.3-28-11-28-11s-17.6-8.7-26.1-26.4c-8.5-17.7-13-42.4-13-42.4L81,277.5
		"/>
	<path class="st2" d="M81,277.5c0,0,5.2,43.9,11.4,52.7c6.2,8.8,8.9,25.3,15.3,28.9c6.3,3.6,21.3,13.2,30.5,16
		c9.2,2.7,23.2,7.4,29.6,8.8c6.4,1.3-19.2-1.5-21.2-2.8c-2-1.3-28-11-28-11s-17.6-8.7-26.1-26.4c-8.5-17.7-13-42.4-13-42.4L81,277.5
		z"/>
	<path class="st1" d="M179.1,367.3c0,0,34.7,4.9,39.2,8C222.7,378.5,188.5,373.5,179.1,367.3"/>
	<path class="st2" d="M179.1,367.3c0,0,34.7,4.9,39.2,8C222.7,378.5,188.5,373.5,179.1,367.3z"/>
	<path class="st1" d="M196.7,378.7c0,0,13.2,0.1,21.5,5.6C226.6,389.7,196.7,378.7,196.7,378.7"/>
	<path class="st2" d="M196.7,378.7c0,0,13.2,0.1,21.5,5.6C226.6,389.7,196.7,378.7,196.7,378.7z"/>
	<path class="st1" d="M212,387.5c0.6,0.3,1.3,0.6,1.9,0.9c12.8,6.2,25.7,10.9,25.7,10.9l9.8,2l-21-2l-15.7-11.6L212,387.5"/>
	<path class="st2" d="M212,387.5c0.6,0.3,1.3,0.6,1.9,0.9c12.8,6.2,25.7,10.9,25.7,10.9l9.8,2l-21-2l-15.7-11.6L212,387.5z"/>
	<polyline class="st1" points="179.1,391 180.9,391.4 196.7,394.4 202.2,399.3 179.1,391 	"/>
	<polygon class="st2" points="179.1,391 180.9,391.4 196.7,394.4 202.2,399.3 	"/>
	<path class="st1" d="M87.8,246.7c0,0-4.6,51.1,3.5,65.8c8.1,14.7,21.5,31.2,25.2,35c3.7,3.8,15.6,14.4,25.3,20.1
		c9.6,5.7,33,10.4,34.7,11c1.6,0.6-39.2-8.9-51-15.7c-11.8-6.8-23-27.2-24.9-29.9c-1.9-2.6-19.4-34.5-17.6-49.7
		C84.7,268.3,87.8,246.7,87.8,246.7"/>
	<path class="st2" d="M87.8,246.7c0,0-4.6,51.1,3.5,65.8c8.1,14.7,21.5,31.2,25.2,35c3.7,3.8,15.6,14.4,25.3,20.1
		c9.6,5.7,33,10.4,34.7,11c1.6,0.6-39.2-8.9-51-15.7c-11.8-6.8-23-27.2-24.9-29.9c-1.9-2.6-19.4-34.5-17.6-49.7
		C84.7,268.3,87.8,246.7,87.8,246.7z"/>
	<path class="st1" d="M144.8,119c0,0,0,0.6-0.1,1.7c-0.7,9.5-4.7,56.3-18.6,77.6c-15.4,23.8-36.6,35-40.2,42.2
		c-3.6,7.2,20-23.5,20-23.5l15.2-20.6l12.5-20.9l4.5-21.7"/>
	<path class="st2" d="M144.8,119c0,0,0,0.6-0.1,1.7c-0.7,9.5-4.7,56.3-18.6,77.6c-15.4,23.8-36.6,35-40.2,42.2
		c-3.6,7.2,20-23.5,20-23.5l15.2-20.6l12.5-20.9l4.5-21.7"/>
	<polyline class="st1" points="249.4,410 260.4,410 269.1,416.5 255.5,416.5 249.4,410 	"/>
	<polygon class="st2" points="249.4,410 260.4,410 269.1,416.5 255.5,416.5 	"/>
	<polyline class="st1" points="173,359.1 199.9,364.9 209.8,364.9 195.2,367.3 173,360.6 173,359.1 	"/>
	<polygon class="st2" points="173,359.1 199.9,364.9 209.8,364.9 195.2,367.3 173,360.6 	"/>
	<polyline class="st1" points="165.1,364.5 187,365.6 204.1,367.3 184.6,370.1 165.1,364.5 	"/>
	<polygon class="st2" points="165.1,364.5 187,365.6 204.1,367.3 184.6,370.1 	"/>
	<polyline class="st1" points="139.6,359.7 167.7,367.3 202.2,376.3 218.2,378.7 190.7,376.3 169.3,371.8 139.6,359.7 	"/>
	<polygon class="st2" points="139.6,359.7 167.7,367.3 202.2,376.3 218.2,378.7 190.7,376.3 169.3,371.8 	"/>
	<polyline class="st1" points="149.6,371.8 184.6,379.5 199.9,387.5 173,382.2 149.6,371.8 	"/>
	<polygon class="st2" points="149.6,371.8 184.6,379.5 199.9,387.5 173,382.2 	"/>
	<polyline class="st1" points="120.6,370.9 143.2,382.2 163.8,383.9 188.6,387.5 204.1,395.2 174.8,387.5 151.4,385.8 131.7,379.5 
		120.6,370.9 	"/>
	<polygon class="st2" points="120.6,370.9 143.2,382.2 163.8,383.9 188.6,387.5 204.1,395.2 174.8,387.5 151.4,385.8 131.7,379.5 	
		"/>
	<path class="st1" d="M86.9,244.2c0,0,8.9,75,51.2,95.8c42.3,20.8,38.3,27.8,38.3,27.8s25.8,5,25.8,6.7c0,1.8-28.4-4.4-28.4-4.4
		s-14.9-17.9-25.7-18.2c-10.8-0.3-30.2-23.5-30.2-23.5L96,288l-6.4-15.7l-5-15.7L86.9,244.2"/>
	<path class="st2" d="M86.9,244.2c0,0,8.9,75,51.2,95.8c42.3,20.8,38.3,27.8,38.3,27.8s25.8,5,25.8,6.7c0,1.8-28.4-4.4-28.4-4.4
		s-14.9-17.9-25.7-18.2c-10.8-0.3-30.2-23.5-30.2-23.5L96,288l-6.4-15.7l-5-15.7L86.9,244.2z"/>
	<path class="st1" d="M84.7,256.6l0.1,2.7l0.8,28.6c0,0,5,23.7,6.9,29.5c1.9,5.8,7.1,21.4,13.6,27.3c6.5,5.9,14.6,13.3,20.1,17.1
		c5.6,3.9,15.4,14.5,20.3,19.1c4.9,4.7,30.9,9.6,32.6,9.9c1.8,0.3-36.4-6.5-48.1-14.9c-11.7-8.4-8.1-17.3-16.8-19.5
		c-8.7-2.2-19.5-24.7-21.8-28.1c-2.3-3.4-3-7.8-6.8-21.5C81.7,293.2,84.7,256.6,84.7,256.6"/>
	<path class="st2" d="M84.7,256.6l0.1,2.7l0.8,28.6c0,0,5,23.7,6.9,29.5c1.9,5.8,7.1,21.4,13.6,27.3c6.5,5.9,14.6,13.3,20.1,17.1
		c5.6,3.9,15.4,14.5,20.3,19.1c4.9,4.7,30.9,9.6,32.6,9.9c1.8,0.3-36.4-6.5-48.1-14.9c-11.7-8.4-8.1-17.3-16.8-19.5
		c-8.7-2.2-19.5-24.7-21.8-28.1c-2.3-3.4-3-7.8-6.8-21.5C81.7,293.2,84.7,256.6,84.7,256.6z"/>
	<path class="st1" d="M109.3,251.9c0-25,4.9-37.2,4.9-37.2L109.3,251.9"/>
	<path class="st2" d="M109.3,251.9c0-25,4.9-37.2,4.9-37.2L109.3,251.9z"/>
	<path class="st1" d="M114.2,275.5l-0.3-3.1l-4.6-49.9c0,0-6.7,30.4-3.4,39.5c3.3,9.2,6.9,22,10.6,30.5c3.7,8.5,4.5,11.8,7.5,17.1
		c3.1,5.2-16.3-36-14.7-52.9C110.9,239.7,114.2,275.5,114.2,275.5"/>
	<path class="st2" d="M114.2,275.5l-0.3-3.1l-4.6-49.9c0,0-6.7,30.4-3.4,39.5c3.3,9.2,6.9,22,10.6,30.5c3.7,8.5,4.5,11.8,7.5,17.1
		c3.1,5.2-16.3-36-14.7-52.9C110.9,239.7,114.2,275.5,114.2,275.5z"/>
	<path class="st1" d="M100.6,232.8c0,0-8.7,10.8-4.6,22.1c4.1,11.3-1,33.8,4.6,41.3c5.6,7.5,22.9,19.9,29,23.5
		c6.1,3.6-25.1-13.7-28.5-32.2c-3.4-18.5,1.3-20-0.6-32.6C98.6,242.4,100.6,232.8,100.6,232.8"/>
	<path class="st2" d="M100.6,232.8c0,0-8.7,10.8-4.6,22.1c4.1,11.3-1,33.8,4.6,41.3c5.6,7.5,22.9,19.9,29,23.5
		c6.1,3.6-25.1-13.7-28.5-32.2c-3.4-18.5,1.3-20-0.6-32.6C98.6,242.4,100.6,232.8,100.6,232.8z"/>
	<path class="st1" d="M130.4,141.6c0,0-9.6,25.9-17.1,35.7c-7.4,9.9-12.3,17.7-18.5,34.8c-6.2,17.1-14.9,50.2-12.2,60.3
		c2.7,10.1,5.1-27.3,12.2-46.3c7.1-19,10.4-23.3,14.4-36C113.4,177.3,130.4,141.6,130.4,141.6"/>
	<path class="st2" d="M130.4,141.6c0,0-9.6,25.9-17.1,35.7c-7.4,9.9-12.3,17.7-18.5,34.8c-6.2,17.1-14.9,50.2-12.2,60.3
		c2.7,10.1,5.1-27.3,12.2-46.3c7.1-19,10.4-23.3,14.4-36C113.4,177.3,130.4,141.6,130.4,141.6z"/>
	<path class="st1" d="M89.5,43.6c0,0-30.2,12.3-44.1,10.9c-14-1.4-44.6-0.6-44.6-0.6s29.8,1.2,37.8,3.6c7.9,2.4,32-4.2,32-4.2
		L89.5,43.6"/>
	<path class="st2" d="M89.5,43.6c0,0-30.2,12.3-44.1,10.9c-14-1.4-44.6-0.6-44.6-0.6s29.8,1.2,37.8,3.6c7.9,2.4,32-4.2,32-4.2
		L89.5,43.6z"/>
	<path class="st1" d="M108.7,39.2c0,0-24.5,7.7-36.6,14.7C60.1,60.9,41,64.8,32,66.4c-9,1.6,6.6,3.7,6.6,3.7l12.4-2l7.8-5.5L71.1,58
		L108.7,39.2"/>
	<path class="st2" d="M108.7,39.2c0,0-24.5,7.7-36.6,14.7C60.1,60.9,41,64.8,32,66.4c-9,1.6,6.6,3.7,6.6,3.7l12.4-2l7.8-5.5L71.1,58
		L108.7,39.2z"/>
	<path class="st1" d="M85.5,61.8c0,0-16.5,11.6-20.1,16.8c-3.6,5.2-27.7,35.5-36.2,40.4c-8.5,4.9-24.1,13.8-24.1,13.8
		s30.4-9.8,33.7-12.5c3.3-2.7,5.8-13,12.9-19.6c7.1-6.6,12.7-15.3,17.2-18.9C73.5,78.2,85.5,61.8,85.5,61.8"/>
	<path class="st2" d="M85.5,61.8c0,0-16.5,11.6-20.1,16.8c-3.6,5.2-27.7,35.5-36.2,40.4c-8.5,4.9-24.1,13.8-24.1,13.8
		s30.4-9.8,33.7-12.5c3.3-2.7,5.8-13,12.9-19.6c7.1-6.6,12.7-15.3,17.2-18.9C73.5,78.2,85.5,61.8,85.5,61.8z"/>
	<path class="st1" d="M123.9,58c0,0-16.4,15.1-18.9,20.2C102.6,83.3,117.7,68.1,123.9,58"/>
	<path class="st2" d="M123.9,58c0,0-16.4,15.1-18.9,20.2C102.6,83.3,117.7,68.1,123.9,58z"/>
	<path class="st1" d="M126.1,70.8c0,0-12.3,12.8-36.6,25.3c-24.3,12.5-60.1,32.8-74.8,40.4c-14.7,7.6,15.7-4.5,15.7-4.5l19-12.3
		c0,0,14.1-6.5,16.1-7.2c2-0.7,24.1-12.9,24.1-12.9l19.2-10.2C108.7,89.4,126.5,76.8,126.1,70.8"/>
	<path class="st2" d="M126.1,70.8c0,0-12.3,12.8-36.6,25.3c-24.3,12.5-60.1,32.8-74.8,40.4c-14.7,7.6,15.7-4.5,15.7-4.5l19-12.3
		c0,0,14.1-6.5,16.1-7.2c2-0.7,24.1-12.9,24.1-12.9l19.2-10.2C108.7,89.4,126.5,76.8,126.1,70.8z"/>
	<path class="st1" d="M126.1,83c0,0-20.2,10-36.6,23c-16.4,13,9.6-1.4,16.8-6.8C113.6,93.9,126.1,83,126.1,83"/>
	<path class="st2" d="M126.1,83c0,0-20.2,10-36.6,23c-16.4,13,9.6-1.4,16.8-6.8C113.6,93.9,126.1,83,126.1,83z"/>
	<path class="st1" d="M133.6,94.2c0,0-15.9,67.6-29.4,77.1c-13.5,9.5-44.6,36.1-54.1,62c-9.5,25.9-3.3,57.5,10.5,84.8
		c13.8,27.3,20.8,59.3,31.8,68.1c11,8.8,47,26.4,54.1,27.1c7.1,0.6,27.2,4.1,32.7,3.2c5.5-0.9,7.8-3.2,7.8-3.2s-37.4-4.1-51.2-9.3
		c-13.8-5.2-43.2-22.4-43.4-24.3c-0.3-2-19.3-41.3-21.2-48.8c-1.9-7.5-18.8-35.7-16.7-38.4c2.2-2.7-3-17.9-3.9-26.2
		c-0.9-8.4,0.4-22,0.4-22s8.7-22,9.9-24.7c1.3-2.6,6.6-11.1,14.6-17.2c7.9-6.1,19.6-17.7,25-22c5.4-4.3,22.2-25.5,23.5-32.8
		C125.4,140.2,133.6,94.2,133.6,94.2"/>
	<path class="st2" d="M134.3,94.4c-2.1,8.8-4.5,17.4-7,26.1c-2.5,8.6-5.3,17.2-8.4,25.7c-1.6,4.2-3.3,8.4-5.2,12.5c-1,2-2,4.1-3.2,6
		c-0.6,1-1.2,1.9-1.9,2.9c-0.7,0.9-1.4,1.8-2.2,2.7c-0.4,0.4-0.9,0.8-1.3,1.2c-0.5,0.4-0.9,0.7-1.4,1c-0.9,0.7-1.8,1.3-2.7,2
		c-1.8,1.3-3.5,2.7-5.3,4.1c-3.5,2.9-6.9,5.8-10.2,8.8c-6.6,6.1-12.9,12.5-18.6,19.5l-2.1,2.6c-0.7,0.9-1.3,1.8-2,2.7
		c-0.7,0.9-1.4,1.8-2,2.7l-1.9,2.8L58,219l-0.9,1.4l-1.7,2.9c-0.6,1-1,2-1.6,3l-0.8,1.5c-0.3,0.5-0.5,1-0.7,1.5l-1.3,3.1l-0.3,0.8
		l-0.1,0.2l0,0.1l0,0.1l-0.1,0.4l-0.5,1.6c-0.3,1.1-0.7,2.1-1,3.2l-0.8,3.2c-0.1,0.5-0.3,1.1-0.4,1.6l-0.3,1.6l-0.6,3.3l-0.4,3.3
		l-0.2,1.7l-0.1,1.7c-0.5,8.9,0.2,17.9,2.1,26.7c1.8,8.8,4.5,17.3,7.9,25.6c0.9,2,1.8,4.1,2.7,6.1c1,2,1.9,4,2.9,6.1
		c2,4.1,3.8,8.2,5.5,12.3c3.5,8.3,6.6,16.8,9.8,25.2c1.6,4.2,3.2,8.4,5.1,12.5c1.8,4.1,3.8,8.2,6.3,11.8c1.3,1.8,2.8,3.5,4.5,4.8
		c0.9,0.7,1.8,1.4,2.7,2c0.9,0.6,1.8,1.3,2.8,1.8c3.8,2.4,7.7,4.6,11.7,6.8c4,2.2,8,4.2,12,6.2c4,2,8.1,3.9,12.2,5.7
		c2.1,0.9,4.1,1.7,6.3,2.5l1.6,0.6c0.5,0.2,1.1,0.3,1.6,0.5l0.8,0.2l0.8,0.2l0.8,0.2l0.8,0.1c4.5,0.5,9,1.2,13.4,1.8
		c4.5,0.6,8.9,1.2,13.4,1.4c1.1,0.1,2.2,0.1,3.3,0.1c0.3,0,0.6,0,0.8,0c0.3,0,0.6,0,0.8-0.1l1.7-0.3c2.1-0.5,4.3-1.4,5.9-2.8
		l0.2,0.6c-5.1-0.6-10.2-1.2-15.3-2c-5.1-0.7-10.2-1.5-15.2-2.4c-5.1-0.9-10.1-1.9-15.1-3.2c-1.2-0.4-2.5-0.7-3.7-1.1l-1.8-0.6
		c-0.6-0.2-1.2-0.5-1.8-0.7c-2.4-1-4.7-2.1-7.1-3.2c-4.6-2.2-9.2-4.6-13.7-7.1c-4.5-2.5-9-5.1-13.3-7.8c-2.2-1.4-4.4-2.7-6.4-4.3
		c-0.3-0.2-0.5-0.4-0.8-0.6c-0.2-0.2-0.5-0.5-0.6-0.9c-0.2-0.6-0.4-1.2-0.7-1.8c-0.5-1.2-1-2.3-1.5-3.5l-6.4-14
		c-2.1-4.7-4.3-9.3-6.3-14c-1-2.3-2.1-4.7-3.1-7.1c-1-2.4-2-4.7-2.8-7.2c-0.2-0.6-0.4-1.2-0.6-1.8c-0.2-0.6-0.4-1.2-0.7-1.8
		c-0.5-1.2-1-2.4-1.5-3.5c-1.1-2.3-2.2-4.6-3.4-6.9c-2.3-4.6-4.7-9.1-6.9-13.8c-1.1-2.3-2.2-4.6-3.1-7c-0.4-1.2-0.9-2.4-1.1-3.7
		c0-0.3,0-0.7,0.1-1l0.3-0.4c0-0.1,0.1-0.3,0.1-0.4c0.2-0.6,0.2-1.2,0.2-1.8c-0.1-2.5-0.6-5.1-1.1-7.6c-0.5-2.5-1.1-5-1.7-7.5
		c-0.5-2.5-1.1-5-1.4-7.6c-0.1-0.6-0.1-1.3-0.2-1.9l-0.1-1.9c-0.1-1.3-0.1-2.6-0.1-3.9c0-5.1,0.3-10.3,0.7-15.4l0,0l0,0l4.1-10.3
		c1.4-3.4,2.7-6.9,4.2-10.3l1.1-2.6l0.5-1.3c0.2-0.4,0.4-0.8,0.6-1.2c0.9-1.6,2-3.2,3-4.7c2.2-3,4.6-5.8,7.3-8.4
		c0.3-0.3,0.7-0.7,1-1l1.1-0.9l2.1-1.8l4.3-3.6c0.7-0.6,1.4-1.2,2.1-1.8l2.1-1.9l4.1-3.7c2.8-2.5,5.4-5,8.2-7.5l4.2-3.6
		c1.4-1.2,2.6-2.6,3.9-3.9c2.5-2.7,4.8-5.6,7.1-8.5c2.3-2.9,4.4-5.9,6.5-9c0.5-0.8,1-1.5,1.5-2.3c0.5-0.8,1-1.6,1.4-2.4
		c0.9-1.6,1.8-3.3,2.4-5c0.1-0.4,0.3-0.9,0.4-1.3l0.2-1.4l0.5-2.7l1-5.5l7.8-43.6L134.3,94.4 M133.6,94.2l-7.8,43.6l-1,5.5l-0.5,2.7
		l-0.2,1.4c-0.1,0.5-0.2,0.9-0.4,1.3c-0.6,1.8-1.4,3.4-2.4,5c-0.5,0.8-0.9,1.6-1.4,2.4c-0.5,0.8-1,1.6-1.5,2.3c-2,3.1-4.2,6.1-6.5,9
		c-2.3,2.9-4.6,5.8-7.1,8.5c-1.2,1.4-2.5,2.7-3.9,4l-4.2,3.6c-2.8,2.4-5.5,5-8.2,7.5l-4.1,3.7l-2.1,1.9c-0.7,0.6-1.4,1.2-2.1,1.8
		l-4.3,3.6l-2.1,1.8l-1.1,0.9c-0.4,0.3-0.7,0.6-1,1c-2.7,2.5-5.1,5.4-7.3,8.3c-1.1,1.5-2.1,3-3,4.6c-0.2,0.4-0.5,0.8-0.6,1.2
		l-0.5,1.3l-1.1,2.5c-1.4,3.4-2.8,6.9-4.1,10.3l-4.1,10.3l0,0c-0.4,5.1-0.7,10.2-0.7,15.3c0,1.3,0,2.5,0.1,3.8l0.1,1.9
		c0,0.6,0.1,1.3,0.2,1.9c0.3,2.5,0.9,5,1.4,7.5c0.6,2.5,1.2,5,1.7,7.5c0.5,2.5,1.1,5,1.2,7.6c0,0.6,0,1.3-0.2,2
		c0,0.2-0.1,0.3-0.2,0.5l-0.2,0.4c-0.1,0.2-0.1,0.5-0.1,0.8c0.1,1.2,0.6,2.4,1,3.6c0.9,2.4,2,4.7,3.1,7c2.2,4.6,4.6,9.2,6.9,13.7
		c1.2,2.3,2.3,4.6,3.4,6.9c0.5,1.2,1.1,2.3,1.5,3.5c0.2,0.6,0.5,1.2,0.7,1.8c0.2,0.6,0.4,1.2,0.6,1.8c0.8,2.4,1.8,4.8,2.8,7.1
		c1,2.4,2,4.7,3.1,7c2.1,4.7,4.2,9.3,6.4,14l6.4,14c0.5,1.2,1,2.3,1.6,3.5c0.3,0.6,0.5,1.2,0.7,1.8c0,0.2,0.3,0.4,0.5,0.6
		c0.2,0.2,0.5,0.4,0.7,0.6c2,1.6,4.2,2.9,6.4,4.3c4.4,2.7,8.8,5.3,13.3,7.7c4.5,2.5,9,4.9,13.7,7.1c2.3,1.1,4.6,2.2,7,3.1
		c0.6,0.2,1.2,0.5,1.8,0.7l1.8,0.6c1.2,0.4,2.5,0.7,3.7,1.1c5,1.3,10,2.3,15.1,3.2c5.1,0.9,10.1,1.7,15.2,2.4
		c5.1,0.7,10.2,1.4,15.3,1.9l0.8,0.1l-0.6,0.5c-1.8,1.6-4,2.4-6.2,3l-1.7,0.3c-0.3,0.1-0.6,0.1-0.9,0.1c-0.3,0-0.6,0.1-0.9,0
		c-1.2,0-2.3,0-3.4-0.1c-4.5-0.3-9-0.9-13.5-1.4c-4.5-0.6-8.9-1.2-13.4-1.7l-0.8-0.1l-0.9-0.2l-0.9-0.2l-0.8-0.2
		c-0.5-0.2-1.1-0.3-1.6-0.5l-1.6-0.6c-2.1-0.8-4.2-1.6-6.3-2.5c-4.2-1.8-8.3-3.7-12.3-5.7c-4.1-2-8.1-4-12-6.2
		c-4-2.1-7.9-4.4-11.7-6.8c-1-0.6-1.9-1.2-2.8-1.9c-1-0.6-1.9-1.3-2.8-2c-1.9-1.4-3.4-3.1-4.7-5c-2.6-3.7-4.6-7.8-6.5-11.9
		c-1.8-4.1-3.5-8.3-5.1-12.5c-3.2-8.4-6.3-16.8-9.8-25.1c-1.7-4.1-3.6-8.2-5.5-12.3c-1-2-2-4-3-6.1c-1-2-1.8-4.1-2.8-6.2
		c-3.5-8.3-6.2-17-8-25.8c-1.9-8.8-2.6-17.9-2.1-27l0.1-1.7l0.2-1.7l0.4-3.4l0.6-3.3l0.3-1.7c0.1-0.6,0.3-1.1,0.4-1.7l0.8-3.3
		c0.3-1.1,0.7-2.1,1-3.2l0.5-1.6l0.1-0.4l0-0.1l0-0.1l0.1-0.2L50,232l1.3-3.1c0.2-0.5,0.5-1,0.7-1.5l0.8-1.5c0.5-1,1-2,1.6-3
		l1.7-2.9l0.9-1.5l0.9-1.4l1.9-2.8c0.6-0.9,1.3-1.8,2-2.7c0.7-0.9,1.3-1.8,2-2.7l2.1-2.6c5.7-7,12-13.5,18.7-19.6
		c3.3-3.1,6.7-6,10.2-8.9c1.8-1.4,3.5-2.8,5.3-4.2c0.9-0.7,1.8-1.3,2.7-2c0.4-0.3,0.9-0.7,1.3-1c0.4-0.3,0.8-0.7,1.2-1.1
		c0.8-0.8,1.4-1.7,2.1-2.5c0.6-0.9,1.2-1.8,1.8-2.8c1.2-1.9,2.1-3.9,3.1-5.9c1.9-4,3.6-8.2,5.2-12.4c3.1-8.4,5.8-17,8.3-25.6
		c2.5-8.6,4.8-17.3,6.9-26L133.6,94.2z"/>
	<path class="st1" d="M131.4,97.3c0,0-7.5,46-39,77c-31.5,31-47.6,73.5-41.2,95.8c6.3,22.3,3.6,34.1,25.3,74
		c21.7,39.9,22.8,43.7,48,55.2c25.2,11.5,37.3,20.8,44.3,21.7c7.1,0.9,12.9,0,12.9,0s-55.9-21.5-61-26.7
		c-5.1-5.1-15.6-10.2-15.6-10.2S83.7,351.6,79.3,341c-4.5-10.7-14.9-33.3-17-39c-2.2-5.7-6.9-30-7.8-40.7
		c-0.9-10.7-2.6-5.7,5.6-24.6c8.2-18.8,11.4-24.3,19.3-43.3c7.9-19.1,10.6-21.9,21.1-37.9c10.6-16,11.9-13.5,17.9-28.3
		C124.5,112.2,131.4,97.3,131.4,97.3"/>
	<path class="st2" d="M132.6,94.5l-0.5,2.9c-0.8,4.3-1.8,8.4-3,12.6c-1.2,4.1-2.5,8.2-4,12.3c-3,8.1-6.5,16-10.7,23.5
		c-4.2,7.5-9,14.7-14.6,21.3c-1.4,1.7-2.8,3.2-4.3,4.8l-4.5,4.6c-3,3.1-5.9,6.2-8.6,9.5c-2.7,3.3-5.3,6.7-7.8,10.2
		c-2.5,3.5-4.8,7.1-7,10.7c-4.4,7.3-8.2,15-11.2,23c-3,8-5.2,16.3-5.9,24.8c-0.4,4.2-0.2,8.5,0.5,12.7c0.4,2,1,4.1,1.6,6.2
		c0.5,2.1,1,4.2,1.5,6.3c0.9,4.2,1.7,8.4,2.6,12.6c0.9,4.2,1.9,8.3,3.1,12.4c2.5,8.2,5.7,16.1,9.3,23.9c3.7,7.7,7.8,15.3,11.8,22.8
		c4.1,7.5,8.1,15.1,12.7,22.4c2.3,3.6,4.7,7.1,7.6,10.2c2.9,3.1,6.3,5.7,10,7.9c3.7,2.2,7.5,4.1,11.4,5.9l5.8,2.7
		c1.9,0.9,3.9,1.9,5.8,2.8c7.7,3.8,15.2,8,22.8,12.2c1.9,1,3.8,2,5.7,2.9c1.9,0.9,3.9,1.7,6,2c2.1,0.2,4.3,0.4,6.4,0.4
		c2.1,0,4.3-0.1,6.4-0.4l-0.1,0.7c-13.3-5.2-26.5-10.5-39.6-16.1c-3.3-1.4-6.5-2.8-9.8-4.3c-1.6-0.8-3.2-1.5-4.8-2.3
		c-1.6-0.8-3.2-1.6-4.7-2.5c-0.4-0.2-0.8-0.5-1.1-0.7c-0.4-0.2-0.7-0.5-1.1-0.8l-2-1.8c-1.4-1.1-2.8-2.1-4.3-3.1
		c-0.7-0.5-1.5-1-2.2-1.4c-0.8-0.5-1.5-0.9-2.3-1.4c-1.5-0.9-3.1-1.7-4.7-2.5l-0.1,0l0-0.1c-3.6-5.6-7.1-11.1-10.6-16.8l-5.2-8.5
		l-2.5-4.3c-0.8-1.4-1.7-2.8-2.5-4.3l-2.4-4.3c-0.7-1.5-1.5-3-2.2-4.5c-1.4-3-2.6-6.1-4-9.1l-8-18.2c-1.3-3-2.7-6.1-3.9-9.1l-1-2.3
		L62,302l-0.4-1.2c-0.5-1.6-0.9-3.2-1.3-4.8c-1.5-6.4-2.8-12.9-3.9-19.5l-0.8-4.9l-0.7-4.9c-0.2-1.6-0.4-3.3-0.6-4.9
		c-0.1-0.8-0.2-1.6-0.2-2.5l-0.3-2.5c-0.2-1.6-0.5-3.3-0.1-5c0.4-1.6,1-3.2,1.6-4.7c1.3-3.1,2.6-6.1,3.9-9.1l8.2-18.1
		c2.8-6,5.4-12.1,8.1-18.1l4-9.1c1.3-3,2.6-6.1,4-9.1l1-2.3l1.1-2.2l1.1-2.2l1.2-2.2c0.8-1.5,1.7-2.9,2.5-4.3
		c0.8-1.4,1.8-2.8,2.7-4.2c3.7-5.5,7.3-11,11.1-16.5l2.9-4l3-3.9c1-1.3,2-2.7,2.9-4l1.3-2.1c0.4-0.7,0.7-1.5,1.1-2.2
		c0.4-0.7,0.8-1.5,1.1-2.2l1-2.3l2-4.6l3.9-9.1l3.9-9.1l4.1-9.1L132.6,94.5 M129.9,100.5l-2.6,5.9l-3.9,9.1l-3.9,9.1l-1.9,4.6
		l-1,2.3c-0.3,0.8-0.7,1.5-1.1,2.2c-0.4,0.7-0.7,1.5-1.1,2.2l-1.3,2.1c-0.9,1.4-1.9,2.7-2.9,4l-3,3.9l-2.9,4
		c-3.8,5.4-7.4,11-11,16.5c-0.9,1.4-1.8,2.8-2.7,4.2c-0.9,1.4-1.7,2.8-2.5,4.3l-1.2,2.2l-1.1,2.2l-1.1,2.2l-1,2.3
		c-1.4,3-2.7,6.1-4,9.1l-4,9.1c-2.7,6.1-5.3,12.1-8,18.1l-8.1,18.1c-1.3,3-2.7,6.1-3.9,9.1c-0.6,1.5-1.2,3.1-1.6,4.7
		c-0.3,1.6-0.1,3.2,0.1,4.9l0.3,2.5c0.1,0.8,0.1,1.6,0.2,2.5c0.2,1.6,0.3,3.3,0.6,4.9l0.7,4.9l0.8,4.9c1.2,6.5,2.4,13,4,19.4
		c0.4,1.6,0.8,3.2,1.3,4.8l0.4,1.2l0.5,1.1l1,2.3c1.3,3.1,2.6,6.1,3.9,9.1l8,18.1c1.3,3,2.6,6.1,4,9.1c0.7,1.5,1.4,3,2.2,4.4
		l2.4,4.3c0.8,1.4,1.6,2.9,2.5,4.3l2.5,4.3l5.2,8.5c3.5,5.6,7,11.2,10.7,16.7l-0.1-0.1c1.6,0.8,3.2,1.6,4.7,2.5
		c0.8,0.4,1.5,0.9,2.3,1.4c0.8,0.5,1.5,0.9,2.3,1.4c1.5,1,2.9,2,4.4,3.1l2,1.8c0.3,0.3,0.6,0.5,1,0.8c0.4,0.3,0.7,0.5,1.1,0.7
		c1.5,0.9,3.1,1.7,4.7,2.5c1.6,0.8,3.2,1.5,4.8,2.3c3.2,1.5,6.5,2.9,9.8,4.3c13.1,5.6,26.3,10.8,39.6,16l1.3,0.5l-1.4,0.2
		c-2.2,0.3-4.3,0.4-6.5,0.4c-2.2,0-4.4-0.2-6.5-0.4c-2.2-0.3-4.3-1.2-6.2-2.1c-2-0.9-3.9-1.9-5.8-2.9c-7.6-4.1-15.1-8.3-22.8-12.1
		c-1.9-1-3.9-1.9-5.8-2.8l-5.8-2.7c-3.9-1.8-7.8-3.7-11.5-5.9c-3.7-2.2-7.2-4.9-10.2-8.1c-3-3.1-5.5-6.7-7.8-10.3
		c-4.6-7.3-8.6-14.9-12.7-22.4c-4.1-7.5-8.2-15.1-11.9-22.8c-3.7-7.8-6.9-15.8-9.5-24c-1.2-4.1-2.3-8.3-3.2-12.5
		c-0.9-4.2-1.7-8.4-2.6-12.6c-0.4-2.1-0.9-4.2-1.5-6.2c-0.6-2.1-1.1-4.1-1.6-6.3c-0.8-4.3-0.9-8.7-0.6-13c0.7-8.6,2.9-17,5.9-25.1
		c3-8.1,6.8-15.8,11.2-23.3c2.2-3.7,4.5-7.3,7-10.8c2.5-3.5,5.1-6.9,7.9-10.2c2.7-3.3,5.7-6.5,8.7-9.6l4.5-4.6
		c1.4-1.6,2.9-3.1,4.2-4.8c5.5-6.5,10.3-13.7,14.4-21.1c4.1-7.5,7.6-15.3,10.5-23.3c1.5-4,2.8-8.1,3.9-12.2
		C128.6,106.6,129.3,103.5,129.9,100.5z"/>
	<path class="st1" d="M127.6,112.5c0,0-16.6,45.1-28.5,54.6c-12,9.5-17.7,18.6-19.7,26.3c-2,7.7,3.1-9.1,8.5-13
		c5.5-3.9,6.4-0.9,12.6-8.6c6.3-7.8,7.6-15.6,12.1-19.3c4.5-3.6,6.8-10.2,8.5-16.8C122.8,129,127.6,112.5,127.6,112.5"/>
	<path class="st2" d="M128.3,112.7c0,0-1.1,2.9-3.1,7.9c-2,5-5,12.1-8.9,20.4c-2,4.2-4.2,8.6-6.9,13.2c-1.3,2.3-2.8,4.6-4.4,6.9
		c-1.6,2.3-3.4,4.5-5.7,6.4c-4.5,3.6-8.8,7.7-12.5,12.4c-1,1.1-1.7,2.4-2.6,3.7c-0.4,0.6-0.8,1.3-1.1,2c-0.4,0.7-0.7,1.3-1.1,2
		c-0.6,1.4-1.3,2.8-1.7,4.2c-0.2,0.7-0.5,1.4-0.7,2.2c-0.1,0.4-0.2,0.7-0.3,1.1l0,0.1c0,0,0,0,0,0c0.4,0-0.6-0.4-0.6-0.2
		c-0.1,0.1,0,0,0,0l0.1-0.1l0.2-0.5c1.2-2.8,2.5-5.6,4-8.3c0.8-1.3,1.6-2.6,2.5-3.9c0.5-0.6,1-1.2,1.6-1.7c0.2-0.1,0.3-0.2,0.5-0.4
		c0.2-0.1,0.3-0.2,0.5-0.3l1-0.6l0.5-0.3l0.5-0.3l1.1-0.5c0.7-0.3,1.4-0.5,2.1-0.8l0.5-0.2l0.5-0.2c0.3-0.2,0.7-0.3,1-0.5
		c0.6-0.4,1.2-0.8,1.7-1.3l0.8-0.8c0.3-0.2,0.5-0.5,0.8-0.8c0.5-0.6,1-1.1,1.4-1.6c0.5-0.5,0.9-1.1,1.4-1.7c0.4-0.6,0.8-1.2,1.2-1.8
		c1.6-2.4,2.9-4.9,4.1-7.4c1.3-2.5,2.4-5,4.1-7c0.8-1.1,1.9-1.9,2.8-2.7c0.9-0.9,1.7-1.9,2.4-2.9c1.4-2.1,2.3-4.3,3.1-6.4
		c0.8-2.2,1.4-4.3,1.9-6.3c0.6-2,1.1-3.9,1.6-5.7c1-3.6,1.9-6.7,2.6-9.3c1.5-5.2,2.3-8.1,2.3-8.1L128.3,112.7 M127.6,112.5
		c0,0-0.8,3-2.2,8.1c-0.7,2.6-1.6,5.7-2.6,9.3c-0.5,1.8-1,3.7-1.6,5.7c-0.5,2-1.1,4.2-1.9,6.3c-0.8,2.2-1.7,4.4-3.1,6.5
		c-0.7,1.1-1.5,2.1-2.4,3c-0.9,0.9-2,1.7-2.8,2.7c-1.6,2.1-2.8,4.5-4,7c-1.2,2.5-2.5,5-4.1,7.4c-0.8,1.2-1.6,2.4-2.6,3.5
		c-0.5,0.6-1,1.1-1.4,1.7c-0.2,0.3-0.5,0.6-0.8,0.8l-0.8,0.8c-0.5,0.6-1.2,0.9-1.8,1.4c-0.3,0.2-0.7,0.4-1,0.6l-0.5,0.3l-0.5,0.2
		c-0.7,0.3-1.4,0.5-2.1,0.8l-1,0.5l-0.5,0.2l-0.5,0.3l-1,0.6c-0.3,0.2-0.6,0.4-0.9,0.6c-0.5,0.5-1,1-1.5,1.6
		c-0.9,1.2-1.7,2.5-2.5,3.8c-1.5,2.7-2.7,5.5-3.9,8.3l-0.2,0.5l-0.1,0.1c0,0.1,0,0.1-0.2,0.2c0,0.2-1.1-0.3-0.7-0.3c0,0,0-0.1,0-0.1
		l0-0.2c0.1-0.4,0.2-0.8,0.3-1.1c0.2-0.7,0.4-1.5,0.7-2.2c0.4-1.5,1.1-2.9,1.7-4.3c0.3-0.7,0.7-1.4,1.1-2c0.4-0.7,0.7-1.4,1.2-2
		c0.9-1.3,1.6-2.6,2.6-3.8c3.7-4.9,8.1-9,12.5-12.7c2.2-1.8,3.9-4,5.5-6.2c1.6-2.2,3-4.6,4.3-6.8c2.6-4.6,4.8-9,6.8-13.2
		c3.9-8.3,6.8-15.4,8.8-20.4c2-5,3-7.9,3-7.9L127.6,112.5z"/>
	<path class="st1" d="M133.6,94.2c0,0-51.1,52.1-62.5,75.2c-11.4,23.1-25.3,58.4-26.6,78.1c-1.3,19.8,34.2,94.5,44.3,110.9
		c10.1,16.4,77,41.6,78.9,42.9c1.8,1.3,23,3,23,3s-31.5-7.7-41-13.4c-9.5-5.6-42.3-11.6-57.3-35.8c-15-24.1-20.6-33.6-24.9-45.9
		c-4.3-12.3-15.8-36.6-17.6-54c-1.8-17.4,10.3-44.1,12.9-54c2.6-9.9,10.7-31.7,25.2-53.7C102.5,125.6,133.6,94.2,133.6,94.2"/>
	<path class="st2" d="M133.6,94.2c0,0-51.1,52.1-62.5,75.2c-11.4,23.1-25.3,58.4-26.6,78.1c-1.3,19.8,34.2,94.5,44.3,110.9
		c10.1,16.4,77,41.6,78.9,42.9c1.8,1.3,23,3,23,3s-31.5-7.7-41-13.4c-9.5-5.6-42.3-11.6-57.3-35.8c-15-24.1-20.6-33.6-24.9-45.9
		c-4.3-12.3-15.8-36.6-17.6-54c-1.8-17.4,10.3-44.1,12.9-54c2.6-9.9,10.7-31.7,25.2-53.7C102.5,125.6,133.6,94.2,133.6,94.2z"/>
	<path class="st1" d="M187,404.4c0,0-63.1-8.7-87.9-36.5c-24.8-27.8-32.5-72.2-34.7-82.5c-2.2-10.3-0.9-43.1,4.3-52.6
		c5.2-9.5,6.4-22.7,16.8-34c10.4-11.3,39.3-76.5,45.8-101.6c6.6-25.2-19.5,41-26.3,57.3c-6.9,16.3-36.7,64.6-39.3,76.2
		c-2.6,11.6-2.2,17.7-4.3,28.7c-2.2,11-2.2,29.1,0.9,36.7c3,7.6,7,21.8,9.5,27.8c2.6,6,17.4,40.3,20.6,43
		c3.2,2.7,16.2,11.7,21.8,16.2c5.6,4.5,16.4,9.6,20.7,11.4C139.2,396.2,187,404.4,187,404.4"/>
	<path class="st2" d="M187,404.4c0,0-63.1-8.7-87.9-36.5c-24.8-27.8-32.5-72.2-34.7-82.5c-2.2-10.3-0.9-43.1,4.3-52.6
		c5.2-9.5,6.4-22.7,16.8-34c10.4-11.3,39.3-76.5,45.8-101.6c6.6-25.2-19.5,41-26.3,57.3c-6.9,16.3-36.7,64.6-39.3,76.2
		c-2.6,11.6-2.2,17.7-4.3,28.7c-2.2,11-2.2,29.1,0.9,36.7c3,7.6,7,21.8,9.5,27.8c2.6,6,17.4,40.3,20.6,43
		c3.2,2.7,16.2,11.7,21.8,16.2c5.6,4.5,16.4,9.6,20.7,11.4C139.2,396.2,187,404.4,187,404.4z"/>
	<path class="st1" d="M131.4,94.8c0,0-40,68.3-49.2,82.5c-9.2,14.2-39.3,61.2-23.8,109c15.5,47.8,21.8,79,33.9,93.3
		c12.1,14.4,36.5,35.2,47.2,38.2c10.7,3,24.5,3.6,24.5,3.6s-27.7-6.3-38-16.2c-10.3-9.9-29-23.7-32.2-29.9
		c-3.2-6.3-20.4-50.4-23-62.6c-2.6-12.2-11.3-21.3-11.1-47.3c0.2-26.1,2-41.3,5.4-48.4c3.5-7,14.7-25.8,17.5-31.9
		C85.6,179,131.4,94.8,131.4,94.8"/>
	<path class="st2" d="M131.4,94.8c0,0-40,68.3-49.2,82.5c-9.2,14.2-39.3,61.2-23.8,109c15.5,47.8,21.8,79,33.9,93.3
		c12.1,14.4,36.5,35.2,47.2,38.2c10.7,3,24.5,3.6,24.5,3.6s-27.7-6.3-38-16.2c-10.3-9.9-29-23.7-32.2-29.9
		c-3.2-6.3-20.4-50.4-23-62.6c-2.6-12.2-11.3-21.3-11.1-47.3c0.2-26.1,2-41.3,5.4-48.4c3.5-7,14.7-25.8,17.5-31.9
		C85.6,179,131.4,94.8,131.4,94.8z"/>
	<path class="st1" d="M115.7,149.1c0,0-22.6,64.2-24.8,73.4c-0.8,3.3-4.2,8-8.2,13.6c-7.2,10.1-16.3,22.8-14.4,33.9
		c2.9,17.2,12.6,50.4,16.3,59.2c3.7,8.8,26.5,40.5,29.5,44.3c3,3.8,47.2,32.7,54.5,33.1c7.3,0.4,11.9-0.4,18.3,0.7
		c6.3,1.1-47-6.6-55.6-14.3c-8.6-7.8-36.1-32.2-39-40.9c-2.9-8.7-10.5-42.2-13-50.7c-2.4-8.5-12.4-21.9-8.3-35
		c4.1-13.1,7-13.6,12.5-24.6C89,230.7,105.6,149.3,115.7,149.1"/>
	<path class="st1" d="M105,168c0,0-14.8,52.1-25.8,68.6c-11,16.5-11,44.9,0.1,76.9c11.1,32,37.4,72.1,44.7,75.7
		c7.3,3.6,18.2,10.4,37,15.1c18.8,4.7,21.9,1.7,26.4,5.6c4.5,3.9-50.5-6.5-66.9-19c-16.4-12.5-43.4-71.9-45.1-84.5
		c-1.6-12.5-15.7-44,0-73.7C91.2,203.1,105,168,105,168"/>
	<path class="st2" d="M105,168c0,0-14.8,52.1-25.8,68.6c-11,16.5-11,44.9,0.1,76.9c11.1,32,37.4,72.1,44.7,75.7
		c7.3,3.6,18.2,10.4,37,15.1c18.8,4.7,21.9,1.7,26.4,5.6c4.5,3.9-50.5-6.5-66.9-19c-16.4-12.5-43.4-71.9-45.1-84.5
		c-1.6-12.5-15.7-44,0-73.7C91.2,203.1,105,168,105,168z"/>
	<path class="st1" d="M97.8,185.6c0,0-47.5,90.9-18.8,138.3c28.7,47.4,91.3,75.8,108,77.5c16.7,1.7-77.7-16-106-68.5
		c-28.2-52.5-7.8-81-5.5-96.3C77.8,221.2,97.8,185.6,97.8,185.6"/>
	<path class="st2" d="M97.8,185.6c0,0-47.5,90.9-18.8,138.3c28.7,47.4,91.3,75.8,108,77.5c16.7,1.7-77.7-16-106-68.5
		c-28.2-52.5-7.8-81-5.5-96.3C77.8,221.2,97.8,185.6,97.8,185.6z"/>
	<path class="st1" d="M133.6,94.2c0,0-55.3,59.1-62.5,80.9C64,196.9,57.9,207,57.4,217c-0.5,10.1,14.7-38.9,23.6-53.1
		C89.9,149.7,133.6,94.2,133.6,94.2"/>
	<path class="st2" d="M133.6,94.2c0,0-55.3,59.1-62.5,80.9C64,196.9,57.9,207,57.4,217c-0.5,10.1,14.7-38.9,23.6-53.1
		C89.9,149.7,133.6,94.2,133.6,94.2z"/>
	<path class="st1" d="M132,100.7c0,0-0.9,29.6-4.2,43.6c-3.3,14-2.3,27.4-6.7,36C116.7,188.9,134.3,95.2,132,100.7"/>
	<path class="st2" d="M132,100.7c0,0-0.9,29.6-4.2,43.6c-3.3,14-2.3,27.4-6.7,36C116.7,188.9,134.3,95.2,132,100.7z"/>
	<path class="st1" d="M122.8,108.1c0,0-0.2,0.3-0.7,0.9c-6.1,8.2-50.8,68.5-56.1,89.9c-5.8,23-2.8,68.5-2.5,75.1
		c0.3,6.7,12.4,48.7,16.8,51.9c4.4,3.2,9.3,6.5,12.1,10.3c2.8,3.9-24.3-26.1-26.1-58.1c-1.8-32-0.4-55.5,0-63.6
		c0.4-8,16.5-40.7,21.5-52.5"/>
	<path class="st2" d="M122.8,108.1c0,0-0.2,0.3-0.7,0.9c-6.1,8.2-50.8,68.5-56.1,89.9c-5.8,23-2.8,68.5-2.5,75.1
		c0.3,6.7,12.4,48.7,16.8,51.9c4.4,3.2,9.3,6.5,12.1,10.3c2.8,3.9-24.3-26.1-26.1-58.1c-1.8-32-0.4-55.5,0-63.6
		c0.4-8,16.5-40.7,21.5-52.5"/>
	<path class="st1" d="M96.7,183.6c0,0-32.9,41.2-31.3,71.4c1.6,30.1,7.2,32.8,12.2,38.5c5,5.7-14.7-24.4-7-53
		C78.3,212,96.7,183.6,96.7,183.6"/>
	<path class="st2" d="M96.7,183.6c0,0-32.9,41.2-31.3,71.4c1.6,30.1,7.2,32.8,12.2,38.5c5,5.7-14.7-24.4-7-53
		C78.3,212,96.7,183.6,96.7,183.6z"/>
	<path class="st1" d="M101.6,135.6c0,0-15.8,36.4-25.7,61.2c-4.2,10.6-7.4,19.1-7.7,21.6c-1.2,8.6,7.5,61.7,9.5,75.1
		c2,13.5-0.5,43.2,14.8,61.7c15.3,18.5,38.6,52,53.4,54.7c14.8,2.7,31.9,1.3,41.3,3.2c9.4,1.9-42.1-5.2-51.2-15.2
		c-9.1-10-35.2-40.4-35.2-40.4s-17.4-18.3-18.3-33.8c-0.9-15.6-8.2-68.4-9.9-75.8c-1.7-7.5,0.3-39.2,10.5-54.7
		C93,177.8,91.6,147.8,101.6,135.6"/>
	<path class="st2" d="M101.6,135.6c0,0-15.8,36.4-25.7,61.2c-4.2,10.6-7.4,19.1-7.7,21.6c-1.2,8.6,7.5,61.7,9.5,75.1
		c2,13.5-0.5,43.2,14.8,61.7c15.3,18.5,38.6,52,53.4,54.7c14.8,2.7,31.9,1.3,41.3,3.2c9.4,1.9-42.1-5.2-51.2-15.2
		c-9.1-10-35.2-40.4-35.2-40.4s-17.4-18.3-18.3-33.8c-0.9-15.6-8.2-68.4-9.9-75.8c-1.7-7.5,0.3-39.2,10.5-54.7
		C93,177.8,91.6,147.8,101.6,135.6z"/>
	<path class="st1" d="M92.4,366.8c0,0,67.7,57.2,99,49.8C222.7,409.1,168.4,445.6,92.4,366.8"/>
	<path class="st2" d="M92.4,366.8c0,0,67.7,57.2,99,49.8C222.7,409.1,168.4,445.6,92.4,366.8z"/>
	<path class="st1" d="M97.8,185.6c0,0-25.1,40-27.1,54.4c-2,14.4-2.3,56.6,4.6,70.2c6.9,13.6-4.3-30-3.3-33.6c1-3.6-0.1-36.3,1.7-40
		C75.5,232.8,97.8,185.6,97.8,185.6"/>
	<path class="st2" d="M97.8,185.6c0,0-25.1,40-27.1,54.4c-2,14.4-2.3,56.6,4.6,70.2c6.9,13.6-4.3-30-3.3-33.6c1-3.6-0.1-36.3,1.7-40
		C75.5,232.8,97.8,185.6,97.8,185.6z"/>
	<path class="st1" d="M104.6,360c0,0,71.6,39.3,77,40.3c5.4,1.1-61-24.2-61-24.2L104.6,360"/>
	<path class="st2" d="M104.6,360c0,0,71.6,39.3,77,40.3c5.4,1.1-61-24.2-61-24.2L104.6,360z"/>
	<path class="st1" d="M174.8,401.5c0,0,16.9,3.1,27.5,5.8c10.5,2.7,16.4,9.2,16.4,9.2L174.8,401.5"/>
	<path class="st2" d="M174.8,401.5c0,0,16.9,3.1,27.5,5.8c10.5,2.7,16.4,9.2,16.4,9.2L174.8,401.5z"/>
	<path class="st1" d="M206.8,404.4c7.7-0.4,23.9,4.6,23.9,4.6l10.7,7.5l-21.6-7.5L206.8,404.4"/>
	<path class="st2" d="M206.8,404.4c7.7-0.4,23.9,4.6,23.9,4.6l10.7,7.5l-21.6-7.5L206.8,404.4z"/>
	<polyline class="st1" points="212,421.1 227.9,421.5 230.7,428.1 212,421.1 	"/>
	<polygon class="st2" points="212,421.1 227.9,421.5 230.7,428.1 	"/>
	<polyline class="st1" points="252.8,421.5 269.1,424.6 277.7,435 262.9,428.1 252.8,421.5 	"/>
	<polygon class="st2" points="252.8,421.5 269.1,424.6 277.7,435 262.9,428.1 	"/>
	<path class="st1" d="M128.9,96.7c0,0-75.3,55.4-83.5,86.9c-8.2,31.6-22.1,96.8-20.8,105.8c1.3,9,31.6,110,35.3,108.6
		c3.7-1.4,54.5,32.1,69.8,37c15.3,4.8,29.3,9.9,52.3,9.9c23.1,0-72.1-12.3-104.6-43.4c-32.4-31.1,1,2.8-17.5-8.7
		c-18.6-11.6-23.7-84.9-29.2-92.7c-5.5-7.8-3.4-36.5,2.8-52.1c6.2-15.6,7.9-46,11-54.7c3.1-8.7,21.8-39.4,31-45.8
		C84.7,141.1,128.9,96.7,128.9,96.7"/>
	<path class="st2" d="M128.9,96.7c0,0-75.3,55.4-83.5,86.9c-8.2,31.6-22.1,96.8-20.8,105.8c1.3,9,31.6,110,35.3,108.6
		c3.7-1.4,54.5,32.1,69.8,37c15.3,4.8,29.3,9.9,52.3,9.9c23.1,0-72.1-12.3-104.6-43.4c-32.4-31.1,1,2.8-17.5-8.7
		c-18.6-11.6-23.7-84.9-29.2-92.7c-5.5-7.8-3.4-36.5,2.8-52.1c6.2-15.6,7.9-46,11-54.7c3.1-8.7,21.8-39.4,31-45.8
		C84.7,141.1,128.9,96.7,128.9,96.7z"/>
	<path class="st1" d="M128.9,96.7c0,0-84.7,65.7-87.5,120.4c-0.2,3.6-0.3,7.2-0.4,10.6c-1.1,47.6,7.7,72.1,8.9,79
		c1.2,7.3,16.4,46.4,16.4,46.4s21.5,29.8,21.5,32.9c0,1.1,1.9,4.7,4.3,8.9c4.6,8.1,11.2,18.5,11.2,18.5l20.1,24.3
		c0,0,7.6,1.8,12.8,5.2c5.2,3.4,22.9,11.2,22.9,11.2H173l-21.9-9.1l-26.7-9.9c0,0-9.5-7.8-15.1-18.5c-5.6-10.8-10.3-15.1-10.3-15.1
		s-24.4-44.3-27.8-48.4c-3.4-4.1-19.6-46.2-20.4-51c-0.8-4.8-6-54-6.4-62c-0.4-8,6.2-47.4,9.6-54.4c3.4-7,30.5-41.7,37.9-50
		C99.4,127.3,128.9,96.7,128.9,96.7"/>
	<path class="st2" d="M128.9,96.7c0,0-84.7,65.7-87.5,120.4c-0.2,3.6-0.3,7.2-0.4,10.6c-1.1,47.6,7.7,72.1,8.9,79
		c1.2,7.3,16.4,46.4,16.4,46.4s21.5,29.8,21.5,32.9c0,1.1,1.9,4.7,4.3,8.9c4.6,8.1,11.2,18.5,11.2,18.5l20.1,24.3
		c0,0,7.6,1.8,12.8,5.2c5.2,3.4,22.9,11.2,22.9,11.2H173l-21.9-9.1l-26.7-9.9c0,0-9.5-7.8-15.1-18.5c-5.6-10.8-10.3-15.1-10.3-15.1
		s-24.4-44.3-27.8-48.4c-3.4-4.1-19.6-46.2-20.4-51c-0.8-4.8-6-54-6.4-62c-0.4-8,6.2-47.4,9.6-54.4c3.4-7,30.5-41.7,37.9-50
		C99.4,127.3,128.9,96.7,128.9,96.7z"/>
	<path class="st1" d="M114.7,106c0,0-84.6,50.2-88.4,108.6c-3.7,58.4-4.5,74.8-4.5,74.8l28,69.7l15.5,23.9c0,0,25.2,28.4,29,30.5
		c3.8,2,21.4,21.7,21.4,21.7s8.6,7.9,10.4,11.8c1.9,3.9-7.6-15.1-10.4-18.5c-2.9-3.5-36.4-35.8-36.4-35.8l-27.4-36.7
		c0,0-13.6-24.6-13.3-30.2c0.3-5.6-12.7-26.5-12.3-36.5c0.5-10,2.6-69.9,2.6-69.9s5.1-26.3,15.5-39.2c10.4-12.9,22.9-31.8,29.6-38.8
		C80.8,134.6,114.7,106,114.7,106"/>
	<path class="st2" d="M114.7,106c0,0-84.6,50.2-88.4,108.6c-3.7,58.4-4.5,74.8-4.5,74.8l28,69.7l15.5,23.9c0,0,25.2,28.4,29,30.5
		c3.8,2,21.4,21.7,21.4,21.7s8.6,7.9,10.4,11.8c1.9,3.9-7.6-15.1-10.4-18.5c-2.9-3.5-36.4-35.8-36.4-35.8l-27.4-36.7
		c0,0-13.6-24.6-13.3-30.2c0.3-5.6-12.7-26.5-12.3-36.5c0.5-10,2.6-69.9,2.6-69.9s5.1-26.3,15.5-39.2c10.4-12.9,22.9-31.8,29.6-38.8
		C80.8,134.6,114.7,106,114.7,106z"/>
	<path class="st1" d="M129.6,94.1c0,0-79.3,88.8-84.1,116.3c-4.7,27.5-19.1,57.5-15.2,83.8c3.9,26.2-1.2,72.8,8.2,85.4
		c9.5,12.6,41.8,39.4,50.3,43.7c8.4,4.3,68.3,8.2,79.9,11.6c11.6,3.4-63.8-12.4-77.9-16.3c-14.2-3.9-40.6-28.6-50-45.3
		c-9.3-16.7-4.2-31.4-5.2-53.6c-1-22.3-4.4-34.5-2.1-45.2c2.3-10.7,8.8-46.4,11.8-52.2c3.1-5.9,10-24.7,12-32.1
		c2-7.5,23.4-29.1,29.3-37.8C92.5,143.7,129.6,94.1,129.6,94.1"/>
	<path class="st2" d="M129.6,94.1c0,0-79.3,88.8-84.1,116.3c-4.7,27.5-19.1,57.5-15.2,83.8c3.9,26.2-1.2,72.8,8.2,85.4
		c9.5,12.6,41.8,39.4,50.3,43.7c8.4,4.3,68.3,8.2,79.9,11.6c11.6,3.4-63.8-12.4-77.9-16.3c-14.2-3.9-40.6-28.6-50-45.3
		c-9.3-16.7-4.2-31.4-5.2-53.6c-1-22.3-4.4-34.5-2.1-45.2c2.3-10.7,8.8-46.4,11.8-52.2c3.1-5.9,10-24.7,12-32.1
		c2-7.5,23.4-29.1,29.3-37.8C92.5,143.7,129.6,94.1,129.6,94.1z"/>
	<path class="st1" d="M101.9,111.4c0,0-12.1,5.6-26.4,17.7c-20.4,17.3-45.1,48-45.4,94.9c0,3,0.1,6.1,0.3,9.2
		c5.2,86.5,8.2,76.7,8.2,76.7l9.4,26.7l-3.5-16.9l-5.9-17.9l-4.3-31.1l-0.8-18.9v-21.1c0,0-0.1-19,2.6-29.3
		c2.7-10.3,6.6-15.8,8.3-24.1c1.8-8.2,15-26.1,17.9-29.7C65.3,144.1,93.7,113.9,101.9,111.4"/>
	<path class="st2" d="M101.9,111.4c0,0-12.1,5.6-26.4,17.7c-20.4,17.3-45.1,48-45.4,94.9c0,3,0.1,6.1,0.3,9.2
		c5.2,86.5,8.2,76.7,8.2,76.7l9.4,26.7l-3.5-16.9l-5.9-17.9l-4.3-31.1l-0.8-18.9v-21.1c0,0-0.1-19,2.6-29.3
		c2.7-10.3,6.6-15.8,8.3-24.1c1.8-8.2,15-26.1,17.9-29.7C65.3,144.1,93.7,113.9,101.9,111.4z"/>
	<path class="st1" d="M43.2,182c0,0-15,58.2-15.3,67.3c-0.3,9-2.4,41.2,2.3,49.9c4.7,8.7,10.3,35,15.5,44.9c5.1,9.9,40,54.8,40,54.8
		l32,22.2l28.9,7.2l21.2,6.5h7.1c0,0-46.4-10.8-51.3-13.6c-4.9-2.9-23.5-15.4-28.5-19.7c-5-4.3-38.2-40.4-40.8-48.4
		c-2.7-8-11.8-20.5-13.3-30.9c-1.5-10.3-7.8-22.7-10.7-32.7c-2.9-10,0.4-38.2,0.9-45.2C31.5,237.2,43.2,182,43.2,182"/>
	<path class="st2" d="M43.2,182c0,0-15,58.2-15.3,67.3c-0.3,9-2.4,41.2,2.3,49.9c4.7,8.7,10.3,35,15.5,44.9c5.1,9.9,40,54.8,40,54.8
		l32,22.2l28.9,7.2l21.2,6.5h7.1c0,0-46.4-10.8-51.3-13.6c-4.9-2.9-23.5-15.4-28.5-19.7c-5-4.3-38.2-40.4-40.8-48.4
		c-2.7-8-11.8-20.5-13.3-30.9c-1.5-10.3-7.8-22.7-10.7-32.7c-2.9-10,0.4-38.2,0.9-45.2C31.5,237.2,43.2,182,43.2,182z"/>
	<path class="st1" d="M39.7,244.2c0,0,18.9,108.1,35.8,125c16.8,17,30.4,35.4,36.3,38.1c5.8,2.7,31.9,15.1,41.8,17.3
		c9.9,2.2,35.4,6.1,35.4,6.1s-52.9-5.6-71.4-17.5c-18.5-11.9-34.8-30.4-42.1-38.4c-7.2-8-25.4-61.5-30-77.2
		C41.1,282,39.7,244.2,39.7,244.2"/>
	<path class="st2" d="M39.7,244.2c0,0,18.9,108.1,35.8,125c16.8,17,30.4,35.4,36.3,38.1c5.8,2.7,31.9,15.1,41.8,17.3
		c9.9,2.2,35.4,6.1,35.4,6.1s-52.9-5.6-71.4-17.5c-18.5-11.9-34.8-30.4-42.1-38.4c-7.2-8-25.4-61.5-30-77.2
		C41.1,282,39.7,244.2,39.7,244.2z"/>
	<path class="st1" d="M114.7,106c0,0-70.1,63.9-70.2,87.3c-0.1,23.4-10,78.8-9.2,84.9c0.8,6.1,10,45.6,10,45.6l20,39.4L84.9,391
		l29.3,31.8l44,14.1l26.4,4.9c0,0-66.6-18.4-68.3-21.7c-1.7-3.3-25.6-26.3-30.7-30.9c-5.1-4.6-15.3-20.3-16.1-24.4
		c-0.7-4.1-17-36.7-19.7-41.1c-2.7-4.3-10-34.4-10-34.4s-0.9-24.5,0-31.3c0.9-6.8,6.7-41.9,5-43.5c-1.6-1.6-1.3-21.6,10-37
		c11.3-15.4,33.2-35.4,37.2-42C96,129,114.7,106,114.7,106"/>
	<path class="st2" d="M114.7,106c0,0-70.1,63.9-70.2,87.3c-0.1,23.4-10,78.8-9.2,84.9c0.8,6.1,10,45.6,10,45.6l20,39.4L84.9,391
		l29.3,31.8l44,14.1l26.4,4.9c0,0-66.6-18.4-68.3-21.7c-1.7-3.3-25.6-26.3-30.7-30.9c-5.1-4.6-15.3-20.3-16.1-24.4
		c-0.7-4.1-17-36.7-19.7-41.1c-2.7-4.3-10-34.4-10-34.4s-0.9-24.5,0-31.3c0.9-6.8,6.7-41.9,5-43.5c-1.6-1.6-1.3-21.6,10-37
		c11.3-15.4,33.2-35.4,37.2-42C96,129,114.7,106,114.7,106z"/>
	<path class="st1" d="M22,292.5c0,0,34.1,80.4,44.4,91.8c10.3,11.4,71.5,38.9,94.7,42.3c23.1,3.4,23.5,6.3,23.5,6.3
		s-57.8-8.7-92-29.1c-34.2-20.4-47.2-48.2-52.8-62.8C34.1,326.4,22,292.5,22,292.5"/>
	<path class="st2" d="M22,292.5c0,0,34.1,80.4,44.4,91.8c10.3,11.4,71.5,38.9,94.7,42.3c23.1,3.4,23.5,6.3,23.5,6.3
		s-57.8-8.7-92-29.1c-34.2-20.4-47.2-48.2-52.8-62.8C34.1,326.4,22,292.5,22,292.5z"/>
	<path class="st1" d="M37.3,334.5c0,0,23.4,48.7,36.8,60.7c13.4,12,75.6,29,91,31.6c15.4,2.6,31.6,3.9,31.6,3.9s-88.6-9-114.5-25
		c-25.9-16-34.5-37.9-36.1-43c-1.6-5.1-8.8-25.2-8.8-25.2V334.5"/>
	<path class="st2" d="M37.3,334.5c0,0,23.4,48.7,36.8,60.7c13.4,12,75.6,29,91,31.6c15.4,2.6,31.6,3.9,31.6,3.9s-88.6-9-114.5-25
		c-25.9-16-34.5-37.9-36.1-43c-1.6-5.1-8.8-25.2-8.8-25.2V334.5z"/>
	<path class="st1" d="M105.1,110.9c0,0-69,75.7-69,90.5c0,14.7-9.4,66.7-8.3,73.2c1.1,6.5,17.7,33.8,17.7,33.8l8.5,30.6l5.8,13
		c0,0-3.1-19.9-5.8-26c-2.7-6-9.6-28.3-9.6-28.3l-11.7-18.2l-2.5-13.2l6.9-38.1l4.6-31l12.2-18.3L92,132.4L105.1,110.9"/>
	<path class="st2" d="M105.1,110.9c0,0-69,75.7-69,90.5c0,14.7-9.4,66.7-8.3,73.2c1.1,6.5,17.7,33.8,17.7,33.8l8.5,30.6l5.8,13
		c0,0-3.1-19.9-5.8-26c-2.7-6-9.6-28.3-9.6-28.3l-11.7-18.2l-2.5-13.2l6.9-38.1l4.6-31l12.2-18.3L92,132.4L105.1,110.9z"/>
	<path class="st1" d="M48.3,287.2c0,0,28.9,65.1,30.9,72c2,6.9,28.3,38.3,37,45.2c8.7,6.9,59.7,19.3,65.4,20.2
		c5.6,0.9-38.7-7.6-56.7-13.3c-18-5.7-31.8-27.7-36.1-31.8c-4.3-4.1-20.8-39.6-26.4-48.6C56.7,321.9,48.3,287.2,48.3,287.2"/>
	<path class="st2" d="M48.3,287.2c0,0,28.9,65.1,30.9,72c2,6.9,28.3,38.3,37,45.2c8.7,6.9,59.7,19.3,65.4,20.2
		c5.6,0.9-38.7-7.6-56.7-13.3c-18-5.7-31.8-27.7-36.1-31.8c-4.3-4.1-20.8-39.6-26.4-48.6C56.7,321.9,48.3,287.2,48.3,287.2z"/>
	<path class="st1" d="M37.3,337.4c0,0,16.4,63.3,55.1,77.9c38.7,14.6,81.3,30.5,86.8,35.6c5.5,5.2-77.8-32.6-90.3-34.5
		C76.3,414.6,37.3,337.4,37.3,337.4"/>
	<path class="st2" d="M37.3,337.4c0,0,16.4,63.3,55.1,77.9c38.7,14.6,81.3,30.5,86.8,35.6c5.5,5.2-77.8-32.6-90.3-34.5
		C76.3,414.6,37.3,337.4,37.3,337.4z"/>
	<path class="st1" d="M114.7,106l-31.9,19.6l-17.5,25.2l-20.9,26.5l-4.7,10.4l-7.6,64.2l5.2,37.6l7.2,12.5l7,10.9
		c0,0-10.1-23.5-10.7-25.6c-0.6-2.2-1.1-13.2-1.1-13.2l-3.6-17.3l0.7-20.1l2.8-29.9l3.5-18.6l9.1-16.4l21.8-30.1L92,123.1L114.7,106
		"/>
	<path class="st2" d="M109.3,106l-31.9,19.6l-17.5,25.2l-20.9,26.5l-4.7,10.4l-7.6,64.2l5.2,37.6l7.2,12.5l7,10.9
		c0,0-10.1-23.5-10.7-25.6c-0.6-2.2-1.1-13.2-1.1-13.2l-3.6-17.3l0.7-20.1l2.8-29.9l3.5-18.6l9.1-16.4l21.8-30.1l17.9-18.4
		L109.3,106z"/>
	<path class="st1" d="M40.4,319.8c0,0,79,98.4,134.6,103.4c55.6,4.9-6.3,6.6-26.8-3.4c-20.5-10-98.5-80.8-98.5-80.8L40.4,319.8"/>
	<path class="st2" d="M40.4,319.8c0,0,79,98.4,134.6,103.4c55.6,4.9-6.3,6.6-26.8-3.4c-20.5-10-98.5-80.8-98.5-80.8L40.4,319.8z"/>
	<polyline class="st1" points="52,341 59.9,351.9 65.3,363.2 84.7,385.8 58.6,363.2 52,341 	"/>
	<polygon class="st2" points="52,341 59.9,351.9 65.3,363.2 84.7,385.8 58.6,363.2 	"/>
	<path class="st1" d="M37.7,339c0,0,18.6,43.9,22.1,48.5c3.5,4.6,13.4,18.9,22.9,23.4c9.6,4.5,19.1,10.4,20.5,10.8
		c1.3,0.4-28-8.8-38-23.6c-10-14.8-22.6-42.1-22.6-42.1L37.7,339"/>
	<path class="st2" d="M37.7,339c0,0,18.6,43.9,22.1,48.5c3.5,4.6,13.4,18.9,22.9,23.4c9.6,4.5,19.1,10.4,20.5,10.8
		c1.3,0.4-28-8.8-38-23.6c-10-14.8-22.6-42.1-22.6-42.1L37.7,339z"/>
	<path class="st1" d="M37.3,334.5c0,0,1.5,26.1,16.2,49.8c14.7,23.7,23.9,42.8,23.9,42.8s-38.2-54.6-38.8-62.1
		C38,357.4,37.3,334.5,37.3,334.5"/>
	<path class="st2" d="M37.3,334.5c0,0,1.5,26.1,16.2,49.8c14.7,23.7,23.9,42.8,23.9,42.8s-38.2-54.6-38.8-62.1
		C38,357.4,37.3,334.5,37.3,334.5z"/>
	<polyline class="st1" points="188.1,437.6 214.1,437.6 224.1,444.9 188.1,437.6 	"/>
	<polygon class="st2" points="188.1,437.6 214.1,437.6 224.1,444.9 	"/>
	<path class="st1" d="M184.6,451.4c0,0,7.4-5.5,10.7-3.8c3.3,1.6,17.1,2.6,21.4,3.8c4.3,1.2-23.4-2.1-23.4-2.1L184.6,451.4"/>
	<path class="st2" d="M184.6,451.4c0,0,7.4-5.5,10.7-3.8c3.3,1.6,17.1,2.6,21.4,3.8c4.3,1.2-23.4-2.1-23.4-2.1L184.6,451.4z"/>
	<path class="st1" d="M181.6,459.1c0,0,4.4,5.2,16,7.3c11.6,2.2-2.4,5.2-2.4,5.2L181.6,459.1"/>
	<path class="st2" d="M181.6,459.1c0,0,4.4,5.2,16,7.3c11.6,2.2-2.4,5.2-2.4,5.2L181.6,459.1z"/>
	<polyline class="st1" points="221.3,462.1 224.1,462.6 243.1,465.4 249.4,471.6 235.3,466.9 	"/>
	<polyline class="st2" points="221.3,462.1 224.1,462.6 243.1,465.4 249.4,471.6 235.3,466.9 	"/>
	<path class="st1" d="M69.5,173.7L48.2,224c0,0-3.2,16.2-3.5,19.8c-0.3,3.7,0-22.4,0-22.4l9.3-26.2l8.1-13.3L69.5,173.7"/>
	<path class="st2" d="M69.5,173.7L48.2,224c0,0-3.2,16.2-3.5,19.8c-0.3,3.7,0-22.4,0-22.4l9.3-26.2l8.1-13.3L69.5,173.7z"/>
	<polyline class="st1" points="52,192.1 75.3,155.4 85.5,137.9 116.3,107.2 97.5,131.9 86.7,143.1 63.5,180.3 52,192.1 	"/>
	<polygon class="st2" points="52,192.1 75.3,155.4 85.5,137.9 116.3,107.2 97.5,131.9 86.7,143.1 63.5,180.3 	"/>
	<polyline class="st1" points="88.8,423.4 115.2,432.8 151.4,441.9 161,441.9 123.4,437.5 105.1,434.7 88.8,423.4 	"/>
	<polygon class="st2" points="88.8,423.4 115.2,432.8 151.4,441.9 161,441.9 123.4,437.5 105.1,434.7 	"/>
	<polyline class="st1" points="124.1,418.7 156,427.1 176.5,432.8 197.7,435 179.4,435.5 	"/>
	<polyline class="st2" points="124.1,418.7 156,427.1 176.5,432.8 197.7,435 179.4,435.5 	"/>
	<path class="st4" d="M212.4,277.1c-14.3-22-33.2-58.1-41-69c-28.4-39.9,0.8-54.8,0.8-54.8s37.9-15.9,46.8,36.6
		c2.7,15.6,16.4,83.2,41.8,94.1c0,0,71.7,11.6,76.4,14c4.8,2.4,4.8,19.8,4.8,19.8s-93.8-10.3-100.1-13.5
		C235.5,301.2,220.3,286.2,212.4,277.1z"/>
</g>
<path class="st5" d="M-12,235.6"/>
<path class="st5" d="M37.8,380.3"/>
<path class="st5" d="M37.8,453.4"/>
<path class="st6" d="M188.4,160.4l-9.5,4.4c-1.1,0.5-1.6,1.9-1,3.1c0.6,1,1.9,1.4,3,0.9l4.9-2.3c1.4-0.7,3.1,0,3.8,1.4l9.3,20
	c0.6,1.3-0.7,2.7-2.1,2.2l-5.1-2.1c-0.1,0-0.1,0-0.2-0.1c-0.1-0.1-0.2-0.1-0.3-0.2l-9.3-3.8c-4-1.8-3.8-1.1-6.1-5.9v0
	c-0.4-0.9,0.5-1.9,1.4-1.5l6.4,2.6c1.2,0.5,2.5-0.1,2.9-1.4c0.4-1.1-0.3-2.4-1.4-2.8l-14.2-5.7c-1-0.4-2.2,0-2.7,1
	c-0.4,0.6-0.3,1.4,0,2.1l15.5,33.4c0.5,1.1,1.8,1.7,2.9,1.2c1.2-0.5,1.7-1.8,1.2-3l-5.5-11.8c-0.7-1.4,0.8-2.9,2.2-2.3l5,2
	c0.1,0,0.1,0,0.2,0.1c0.1,0.1,0.2,0.1,0.3,0.2l14.2,5.9c0.6,0.2,1.2,0.2,1.8,0c0.4-0.2,0.7-0.5,1-0.9c0.4-0.6,0.4-1.5,0.1-2.1
	l-15.6-33.5C190.9,160.4,189.5,159.9,188.4,160.4z"/>
</svg>
