<?xml version="1.0" encoding="utf-8"?>
<!-- Generator: Adobe Illustrator 22.1.0, SVG Export Plug-In . SVG Version: 6.00 Build 0)  -->
<svg version="1.1" id="Layer_1" xmlns="http://www.w3.org/2000/svg" xmlns:xlink="http://www.w3.org/1999/xlink" x="0px" y="0px"
	 viewBox="0 0 198.4 343" style="enable-background:new 0 0 198.4 343;" xml:space="preserve">
<style type="text/css">
	.st0{fill:none;stroke:#FFFFFF;stroke-miterlimit:10;}
	.st1{fill:none;stroke:#76B72D;stroke-width:0.8752;stroke-miterlimit:10;}
	.st2{fill:none;stroke:#FFFFFF;stroke-width:0.8504;stroke-miterlimit:10;}
	.st3{fill:none;stroke:#76B72D;stroke-width:0.8504;stroke-miterlimit:10;}
	.st4{fill:none;stroke:#FFFFFF;stroke-width:0.75;stroke-miterlimit:10;}
</style>
<path class="st0" d="M178.3,328.3H17.5c-7.4,0-13.4-6-13.4-13.4V17.5c0-7.4,6-13.4,13.4-13.4h160.8c7.4,0,13.4,6,13.4,13.4v297.4
	C191.7,322.3,185.7,328.3,178.3,328.3z"/>
<rect x="17.6" y="18.2" class="st1" width="160.8" height="281.3"/>
<g>
	<path class="st2" d="M86.5,84.8c0,0,0.2,9.5,0.7,12.2c0.5,2.7,2.8,8.3,2.7,11.2c-0.1,2.9-0.4,5-1.7,7.2c-1.3,2.2-3.1,6.6-4.3,7.6
		c-1.2,1,8.6-5.6,12.6-10.1c4-4.5,8.9-15.4,9.7-17.5c0.7-2.1,2-9.7,2-10.6C108.1,83.8,90.9,85.8,86.5,84.8z"/>
	<path class="st3" d="M108.1,84.8c0,0,8.4-3.7,10.3-5.7c1.8-2.1,5.7-7.5,5.6-9.9c-0.1-2.4-0.1-12.6-5.6-16
		c-5.5-3.4,8.9,0.8,5.6,22.7c-0.5,3,1.9-0.1,1.9-0.1s0.7-1.2,0.9-1.5c0.1-0.2,0.7,2.7,0.5,3.5c-0.2,0.7,3.1-5.4,2.1-10.2
		c-1-4.8,0.7,10.1,0.6,11c-0.1,0.9,1.3-1.1,1.3-1.6c0.1-0.5,0.9,0.3,1.4,0.3c0.5,0,0.9-1.2,0.9-1.5c0.1-0.3-0.5,2.1,0.4,2
		c0.9-0.1,2.1-1.2,2.3-1.8c0.2-0.6,2.5-0.6,2.3,0.4c-0.2,1,0.8,3.4,1.3,1.6c0.6-1.8,1.5-2.6,1.5-5.6c0-3,2.3,2.9,2.2,3.2
		c-0.1,0.3,2,1,2.2-0.4s1.1,0.5,1.4,1.5c0.3,1,1.1,2.1,1.2,3.8c0.1,1.7,3.4-2,2.6-9c-0.7-7-2.4-10.9-6.1-14.5
		c-3.7-3.7,7,4.2,6.8,21.3c0,5.9,1.2,0.7,1.2,0.7l1.8,2.9L156,80c0,0,4,7.5,6.4,8.4c2.3,1-1.1-2.6-2.1-12c-1-9.4-3.3-15.9-6.7-20.2
		c-3.4-4.3-16.1-14.8-38.7-14.8c-22.6,0-29,2.7-35.9,7.9c-7,5.3-8.9,7.7-10.8,8.9c-1.8,1.2,3-0.3,3.9-0.8c0.9-0.5-6.3,6.4-7,7.5
		c-0.7,1.1-3,4.6-4.6,5.4c-1.6,0.8-1,0.7-1,0.7s1.5,0.2,2.1-0.1c0.7-0.3-2,3.5-2.6,3.7c-0.6,0.2-1.4,0.5-1.4,0.5l1.8,0.9
		c0,0-2.5,7.1-3.8,9.2c-1.3,2-2.4,3.3-2.4,3.3h1.9c0,0-3.4,11.1-4.5,12.5c-1.1,1.4,2-1.9,3.5-3.2c1.5-1.3,2.7-4.8,2.7-4.8L56,97.3
		c0,0,2.7-1.2,3.7-1.9c0.9-0.7-1.7,5.4-2,5.6c-0.3,0.2,2.7-0.5,3-1.6c0.4-1.1,0.3,6.7-1.6,8.7c-1.8,2-1.9,3.5-1.9,3.5s4.3-0.8,5-2.2
		c0.7-1.4,1.7-4.9,1.7-4.9s1.8,11.8,2.7,17.5c0.9,5.7-1.6,16.7-3.1,17.4c-1.5,0.7,0.3,1.4,0.3,1.4l-4.5,5c0,0-4.6,4-5.3,4
		c-0.6,0,1.8,0.6,1.8,0.6s-4.6,1.6-5.5,1.6c-1,0,4.6,2.8,13.1-6.2c3.8-4,0.5,2.1-1,3.7c-1.5,1.6-2.2,3-2.2,3s1.5,0.3,2.9-1
		c1.5-1.3-2.9,6-3.5,7c-0.6,1,0,2.2-1.3,3.2c-1.3,1-5.9,3.1-7.2,3.2c-1.3,0.1-3.8-0.4-4.3-0.6c-0.5-0.2,3.1,4.2,4.8,2.9
		c1.7-1.2,6.2-1.5,7.9-4c1.7-2.6,3.2-2.9,3.2-2.9s-5.7,9.4-6.2,9.9c-0.5,0.5,1.8,0,1.8,0s-5.5,7.2-7,9.7c-1.5,2.5-2.9,6.8-2.9,6.8
		h2.1l-3.1,6.6c0,0-3.4,4.9-6.8,6.6c-3.4,1.7,5.4-2.2,5.4-2.2s1.2,2.7,0.9,2.6c-0.4-0.1,2.9-2.6,3.3-3.7c0.4-1.1,6.4-7.3,6.6-7.7
		c0.2-0.4,4.3-4.5,5.3-5.5c1-1,1.1,3.5-0.1,4.6c-1.2,1.1,5-2.8,7-5.9c2-3.1,8.9-9,8.9-9s-5.1,8-5.4,8.3c-0.4,0.4,8-7.2,8.7-8.7
		c0.7-1.5,1.4-2.2,1.4-2.2s-4.8,12.9-6,13.7c-1.3,0.7,8.7-6.2,10.7-9.5c2-3.3-1.1,4.1-1.1,4.1l-0.9,1.6l3.5-1.5l-1.4,2.7
		c0,0,2.9-3.8,4.3-5.9c1.4-2.1-0.1,1.9-1.1,4.1c-1,2.2,1,0.8,1.6,0.6c0.6-0.3,2.3,0.1,2.3,0.1s-2.4,6.2-2.8,6.7
		c-0.5,0.5,3.5-6.2,3.5-6.2l1.9-0.5c0,0-1.3,5.5-1.8,6.8c-0.6,1.3,4-4.2,5-5.5c0.9-1.3,0.7,1.3,0.7,1.3s6.6-4.6,7.2-10.4
		c0.6-5.9,1.3-16.5-4.1-25.3c-0.2-0.3,0.4-0.6,0.5-0.6c0.1,0,0.4-0.1,0.7-0.1c0.3,0.1-0.8-1.3-1.4-1.5c-0.6-0.2-1.1-0.3-1.6-0.6
		c-0.5-0.4-2.3-3.4-2.3-4c0-0.6,4.6-1.2,5.1-1.6c0.5-0.4-2-0.2-3.7-1.6c-1.7-1.5-2.8-5.9-2.8-5.9l-0.6-2.8c0,0,2.7,2.1,4,2.6
		c1.3,0.6,0.1-0.1-2-1.9c-2-1.8-3.9-4.5-3.9-5.6c0-1.1,4.5,5.3,6.9,6c2.4,0.7-2.5-1.6-4.2-4.9c-1.7-3.3-3-9-3-9l0.1-1.2l0.3-1.1
		c0,0-10.2,8.7-11.9,9.4c-1.7,0.7,3.5-6.3,3.5-6.3s-10.6-7.1-11.5-12c-0.9-4.9-1.8-5.4-0.2-10.3c1.6-4.9,2.1-6.6,6-8.4
		C85.7,84.1,97,85.6,108.1,84.8z"/>
	<path class="st2" d="M129.2,158.3c0,0-0.1,0.2-0.2,0.4c-1.3,2.7-8.2,17.4-7.4,22.2c1,5.3-0.5,7.9-0.1,8.3c0.4,0.4-4.1-4.4-4.1-4.4
		s-2.3-7.7-2-12.7c0.4-5,4.2-14.5,5.5-15.3c1.3-0.7,2-0.9,2-0.9S128,158.5,129.2,158.3z"/>
	<path class="st2" d="M136.3,117.2c0,0-1.6,0.8-1.8,1.7c-0.2,0.9-0.3,2.3,0,2.7"/>
	<path class="st2" d="M149.5,124.6c0,0,2.3-1.8,3-3c0.7-1.2,1.2-2.9,0.8-3.9c-0.5-1-2.3-3.8-2.9-5.2c-0.6-1.4-1.7-3.3-1.8-4.7
		c-0.1-1.4-1-3.7-1.2-4.5c-0.3-0.8-0.7-2.3-0.9-5.5"/>
	<path class="st2" d="M147.1,127.3c0,0,0.1,2.1,0.3,2.6"/>
	<path class="st2" d="M145.4,127.3c0,0-0.7,1.3-0.5,2.1"/>
	<path class="st2" d="M132.1,136.4c0,0,2.8-0.1,4.2-1c1.4-0.9,3.7-2.4,4.2-2.9c0.5-0.5,2.3-1.1,3.3-1c1,0.1,2.7,0.7,3.4,0.8
		c0.6,0,2.8-0.7,3.6,0c0.8,0.7,1.6,2,1.8,3.1c0.2,1.1,0.3,1.7,0.3,1.7"/>
	<path class="st2" d="M152.9,131.5c0,0,1.8-3.4,3.2-5.3c1.3-1.9,2-5.6,2.1-7.1c0.1-1.5-0.8-8.4-0.9-9.8c-0.1-1.5-0.6-3.8-0.5-4.2
		c0.1-0.4,0.3-1.8,0.8-2.3"/>
	<path class="st2" d="M157.3,99c0,0,1.6-2.9,1.6-4.2c0-1.3-0.1-5.3-0.8-7c-0.7-1.7-1.8-5.4-1.8-5.8"/>
	<path class="st2" d="M150.6,141.7c0,0,0.6,2.6-0.3,3.3s-1.2,1.3-3.5,1.1c-2.3-0.2-1.2-0.4-2.9-0.5c-1.7-0.1-3.4-0.2-4.2-1
		c-0.9-0.8-4.5-3.1-5.9-3.5c-1.3-0.4-3.6-1.7-3.6-1.7"/>
	<path class="st2" d="M131.7,138.7c0,0,5.7,1.3,6.6,1.3c0.9,0,4.4,0.7,5.1,0.9c0.7,0.1,1.6,0.4,2,0.4c0.4,0,2.2-0.5,3.7,0
		c1.5,0.5,1.5,0.5,1.5,0.5"/>
	<path class="st2" d="M135.3,137.5c0,0,3.2-1.1,4.8-1.7s3.3-1.3,5-1c1.7,0.3,2.9,0.8,3.6,1.3"/>
	<path class="st2" d="M147.7,136.3c0.1,0.3-0.4,2.2-0.7,2.3c-0.3,0.1-7.7-1.2-7.7-1.2l-0.5-0.3l0.4-1.1c0,0,2.3-1.1,4.6-1.1
		c2.3,0,3.8,0.6,3.9,0.7C147.8,135.8,147.7,136.3,147.7,136.3z"/>
	<path class="st2" d="M143.4,137.8c0,0,0.1-1,0.2-1.4c0.1-0.4,0-1,0-1"/>
	<path class="st2" d="M138.8,138.7c0,0,6,0,7.6,0.2c1.6,0.3,1.6,0.3,1.6,0.3l-0.1,1.6c0,0-1.7,0.3-2.4,0.3c-0.7,0-6.8-1.4-7.1-1.5
		C138.1,139.6,138.8,138.7,138.8,138.7z"/>
	<line class="st2" x1="141.2" y1="138.7" x2="141.2" y2="139.7"/>
	<line class="st2" x1="143.6" y1="138.7" x2="143.5" y2="140"/>
	<line class="st2" x1="146.2" y1="138.9" x2="145.9" y2="140.2"/>
	<path class="st2" d="M138.9,138.7h-0.1l-4.6,0c0,0,0.3,0.6,1,0.7c0.6,0.1,3.2,0.2,3.2,0.2"/>
	<polygon class="st2" points="138.7,137.1 136.5,137.1 139.1,136.1 139.3,136.1 138.9,137.2 138.6,137.2 	"/>
	<path class="st2" d="M126.3,130c0,0,6.1-5.3,6.6-9.1"/>
	<path class="st2" d="M136.5,147.8c0,0,3.1,2.9,5.9,2.9"/>
	<path class="st2" d="M148.7,147.8c0,0,1.3,4.8-1.6,7.3c-2.9,2.6-7.7,4.9-10.8,4.6c-3.1-0.4-19.2-5.9-19.2-5.9s-10.4-3.2-11.9-6"/>
	<path class="st2" d="M104.2,140.2c0,0,3.5,6.2,6.8,7.6"/>
	<path class="st2" d="M130.3,99.9c0,0-2.3-3.1-4.7-3.7c-2.4-0.6-3.3-1.1-5.6-0.6c-2.2,0.5-3.2,1.4-3.2,1.4"/>
	<path class="st2" d="M116.6,97.6c0,0,1.9,2.5,2.8,2.9c0.9,0.4,2.6,1.3,3.4,1.3c0.8,0,3.6-0.6,4.2-0.6c0.6,0,1.8-0.7,2.5-0.9"/>
	<path class="st2" d="M120.3,102.8c0,0,1.5,0.4,4.4,0c2.9-0.4,5-0.6,5.2-0.6c0.2,0-1.4,0.1-1.7,0.7"/>
	<path class="st2" d="M116.6,94.7c0,0,2.5-2.2,4.6-2.2c2.1-0.1,5.3,0.4,5.3,0.4"/>
	<path class="st2" d="M122.2,93.6c0,0,2.8,0.3,4.5,1.1c1.8,0.8,3.2,1.8,3.5,2.1"/>
	<path class="st2" d="M129.1,98.5c0,0-0.1,1.9-0.6,2.2"/>
	<path class="st2" d="M127.6,98.3c0,0,0.1,1.3-0.7,2.2"/>
	<path class="st2" d="M122.5,95.7c0,0,1,0.8,0.8,1.8c-0.2,1-0.7,1.6-1.1,2.1c-0.4,0.4-2.1,0.9-2.7,0.8"/>
	<path class="st2" d="M116.9,96.9c0,0-0.1,0.4-0.1,0.8"/>
	<path class="st2" d="M118.7,97.4c0,0-0.1,0.7,0.3,1c0.3,0.2,0.8,0.5,1.3,0.5c0.5-0.1,0.9-0.3,1-0.7c0.1-0.4-0.1-1.2-0.4-1.3
		c-0.3-0.1-0.9-0.3-0.9-0.2c-0.1,0-0.3,0.4-0.5,0.4c-0.2,0-0.7,0.1-0.7,0.1L118.7,97.4z"/>
	<path class="st2" d="M149.9,101.3c0,0,0.6,1,0.3,1.7c-0.2,0.7-0.8,1.6-1.1,1.8c-0.3,0.2-0.4,0.4-0.4,0.4"/>
	<path class="st2" d="M148.7,101.7c0,0,0.7,0.6,0.6,1c-0.1,0.4-0.2,0.8-0.5,0.9c-0.3,0.1-0.8,0.2-0.9,0.2c-0.1,0-0.3-0.1-0.3-0.1"/>
	<path class="st2" d="M147.4,101.9c0,0,2.5-0.9,3.6-0.9c1.1,0,3.4,0.2,3.9,0.4c0.5,0.2,1.9,0.9,1.9,0.9"/>
	<path class="st2" d="M148.5,105.3c0,0,2.5,0.8,3.6,0.5c1.1-0.2,3.1-1.5,3.2-2"/>
	<path class="st2" d="M155,101.9c0,0,0.2,1,0,1.9"/>
	<path class="st2" d="M156.2,100.5c0,0,0.4,0.7,0.9,1.4"/>
	<path class="st2" d="M155.7,100.5c0,0-3.6-0.9-7.2,0.5"/>
	<path class="st2" d="M149,95.7c0,0,2.4-1.4,3.9-2.1c1.5-0.7,4.1-1,4.7-1.1c0.6-0.2,0.9,0,0.9,0s0.6-1.9-0.9-1.4
		c-1.6,0.4-4.3,1.4-5.5,2c-1.2,0.6-2.9,1.3-3.1,1.7C148.7,95.1,149,95.7,149,95.7z"/>
	<path class="st2" d="M134.7,92.2c-0.2-0.1-6.2-3.3-8.9-4.9c-2.7-1.7-4.2-2.9-5.8-2.7c-1.6,0.2-5.6,1.4-6.7,2.6
		c-1.1,1.2-1.5,2-1.5,2s2.1-3.9,4.4-4.6c2.3-0.7,4.2-1.7,6.3-1.2c2.1,0.5,5.5,2.5,6.7,3.4c1.2,0.9,3.7,2.6,4.2,3
		C133.7,90.2,134.7,92.2,134.7,92.2z"/>
	<path class="st2" d="M86.2,85.1c0,0-6.2-0.3-8,3.6c-1.7,3.9-3.4,10-2.9,12.5c0.6,2.5,3.5,8.5,5.4,10c1.8,1.5,3,3.1,5,3.2
		c2,0.1,3.4,0.2,3.8-2.3"/>
	<path class="st2" d="M85.9,87.7c0,0-6.1,0.8-7,4.1c-0.8,3.3-1.7,10-0.7,12c1,2.1,3.4,4.5,4.9,5.1"/>
	<path class="st2" d="M86.3,94.7c0,0-3.2,0.5-3.3,3.3c-0.1,2.8-0.3,4.9,1.7,5.8c1.9,1,1.9,1,1.9,1"/>
	<path class="st2" d="M122.4,155.5c0,0-7.4,9.7-6.8,16.6c0.6,6.9,2.4,19.1,5.2,22.5c2.7,3.5,12.5,23.1,15.9,28.8
		c3.5,5.7,19.6,30.6,20.2,35.2c0.5,4.6,1.3,20.3-9.5,26.6c-10.8,6.2-16.9,6.6-23.8-1.8c-7-8.4-10.8-17.4-13-25.7"/>
	<path class="st2" d="M135.2,289.8c0,0,1.8,25.1,1.8,27.8c0,2.7,0,2.7,0,2.7"/>
	<path class="st2" d="M44.9,200.1c0,0-4.6,9.3-6.4,10.4c-1.7,1.1,7.2-5.2,7.2-5.2s-3,10.5-3.7,12.6c-0.7,2.1-2.3,10.5-3.7,12.3
		c-1.4,1.8,2.3,0,2.3,0s-0.9,7.6-2.6,10.5c-1.7,2.9-0.9,3.4-0.9,3.4s5.7-8.4,6.7-10.5c1-2.1-3.2,18.6-3.8,20
		c-0.6,1.5-3.4,10.6-6.8,13.4c-3.4,2.8,9-6.4,10.3-9.4c1.2-3.1-2.3,12.7-5.3,16.3c-2.9,3.5,10.1-12.8,10.1-12.8s-1.2,10.4-5.6,19.9
		c-4.4,9.5,5.7-4.2,5.6-4.9c-0.1-0.7-0.4,10.6-2.2,15.4c-1.8,4.8,5.4-4,5.6-8.2c0.2-4.2,2.7,12.5-1.1,20.9
		c-3.8,8.4-6.6,11.9-7.2,12.5c-0.6,0.6,8-1.5,9.3-4.5c1.3-3.1,0,6.2,0,6.2"/>
	<path class="st2" d="M94.2,189.3c0,0,2.8,11.6,4.6,19.9c1.8,8.2,1.7,16.7,1.7,19.4c0,2.7-0.9,12.5-1.3,18.3
		c-0.4,5.9-1.5,22.5-1.8,24.6c-0.4,2-1.6,7,0,9.5c1.6,2.6-8.8-14.1-7.9-19.4c0.9-5.3,4.9,30.4,8.6,36.3c3.7,5.9-7-7.7-7.5-10.4
		c-0.6-2.8,5.7,17.6,9.9,24.6c4.2,7,1.1,8.4,1.1,8.4s-4.9-2.2-8.1-9"/>
	<path class="st2" d="M79.5,267.2c0,0-4.9,11,0.9,23.6c5.7,12.6-0.3-8.4,5.7-15.8"/>
	<path class="st2" d="M80.5,210.8c0,0-0.2,15.2,4.2,20.5c4.4,5.3,1-7.8,1.7-14.3"/>
	<path class="st2" d="M62.3,226.2c0,0-1.5,13.4,6.2,24.2c7.7,10.8,0.4-16.1,0-22.5"/>
	<path class="st2" d="M79.5,239.6c0,0,0.9,10.8,7,20.5c6.1,9.7,0.3-2.4,0-15.2"/>
	<path class="st2" d="M65.9,256.6c0,0-2.2,9.5,2.6,21.8c4.8,12.3,6.1,4.4,6.5-10.9"/>
	<path class="st2" d="M59.7,256.6c0,0-3.3,7.3,0.9,16.3c4.2,9,4.8,8.1,4.8,8.1s-2.2-13.5-0.6-17.4"/>
	<path class="st2" d="M50.4,268.8c0,0,2,12.2,4.2,20.2c2.2,8.1,2.9-11.8,3.9-15.4"/>
	<path class="st2" d="M51.8,252.9c0,0-2.4,6.8-4,8.8"/>
	<path class="st2" d="M53.4,223.6c0,0,4.3,18.3,0,24.9c-4.3,6.6,8.1-1.5,8.8-15"/>
</g>
<g>
	<path class="st4" d="M69.6,194.4l1.1,0.1l-0.8,6.2l6.3-4.9l0.5,0.6l-0.1,0.6l-7,6L68,216.4l-1.1-0.1l1.7-13.5l-5.8-8.1l1.1,0.1
		l5,5.7L69.6,194.4z"/>
</g>
</svg>
