<?xml version="1.0" encoding="utf-8"?>
<!-- Generator: Adobe Illustrator 22.1.0, SVG Export Plug-In . SVG Version: 6.00 Build 0)  -->
<svg version="1.1" id="Réteg_1" xmlns="http://www.w3.org/2000/svg" xmlns:xlink="http://www.w3.org/1999/xlink" x="0px" y="0px"
	 viewBox="0 0 726.9 726.9" style="enable-background:new 0 0 726.9 726.9;" xml:space="preserve">
<style type="text/css">
	.st0{fill:none;stroke:#FFFFFF;stroke-miterlimit:10;}
</style>
<g>
	<circle class="st0" cx="363.4" cy="363.4" r="343.9"/>
	<g>
		<g>
			<path class="st0" d="M472.2,576c-6.2,0-12.3-2.6-16.7-7.4l-78.3-84.3c-8.5-9.3-7.9-23.8,1.4-32.3c9.2-8.5,23.5-7.9,32,1.4
				l10.5,9.7c10.1,11.2,28.6,3.9,28.6-11.2V225.8c0-16.1-12.9-29.2-28.9-29.2l-15.8,0c-12.1,0-22.7-9.2-23.5-21.4
				c-0.8-13.3,9.6-24.3,22.6-24.3l68.1,0c12.6,0,22.7,10.3,22.7,23l0,378.7c0,7.7-3.5,15.3-9.9,19.6C481,574.7,476.6,576,472.2,576z
				"/>
		</g>
		<path class="st0" d="M277.3,260.2L277.3,260.2c0-10.6,12.8-15.8,20-8.1l48.8,51.8c8.9,9.5,24,9.5,33-0.2c8.3-9,7.6-23.1-0.8-32
			L271.1,158c-7.6-8.1-20.2-9.6-29.6-2.8c-6.1,4.4-9.4,11.7-9.4,19.2l0,377.9c0,12.2,9.1,23,21.2,23.7c13.1,0.8,24-9.7,24-22.8V420
			c0-16.1,19.6-23.8,30.3-11.9l34,35.7c4.5,4.9,10.6,7.4,16.7,7.4c5.5,0,11-2,15.3-6c9.2-8.5,9.8-23,1.4-32.3l-66.3-71.2
			C279.4,307.6,277.9,315.1,277.3,260.2z"/>
	</g>
</g>
</svg>
