<?xml version="1.0" encoding="utf-8"?>
<!-- Generator: Adobe Illustrator 22.1.0, SVG Export Plug-In . SVG Version: 6.00 Build 0)  -->
<svg version="1.1" id="Layer_1" xmlns="http://www.w3.org/2000/svg" xmlns:xlink="http://www.w3.org/1999/xlink" x="0px" y="0px"
	 viewBox="0 0 198.4 343" style="enable-background:new 0 0 198.4 343;" xml:space="preserve">
<style type="text/css">
	.st0{fill:none;stroke:#76B72D;stroke-miterlimit:10;}
	.st1{clip-path:url(#SVGID_2_);fill:none;stroke:#AFAFAE;stroke-width:0.8504;stroke-miterlimit:10;}
	.st2{clip-path:url(#SVGID_2_);fill:none;stroke:#AFAFAE;stroke-miterlimit:10;}
	.st3{clip-path:url(#SVGID_2_);fill:none;stroke:#AFAFAE;stroke-width:0.7591;stroke-miterlimit:10;}
	.st4{fill:none;stroke:#AFAFAF;stroke-miterlimit:10;}
</style>
<g>
	<path class="st0" d="M178.9,330.8H21.3c-7.3,0-13.1-5.9-13.1-13.1V26.2c0-7.3,5.9-13.1,13.1-13.1h157.6c7.3,0,13.1,5.9,13.1,13.1
		v291.5C192,324.9,186.1,330.8,178.9,330.8z"/>
	<g>
		<defs>
			<rect id="SVGID_1_" x="21.3" y="25.3" width="157.6" height="291.5"/>
		</defs>
		<clipPath id="SVGID_2_">
			<use xlink:href="#SVGID_1_"  style="overflow:visible;"/>
		</clipPath>
		<path class="st1" d="M81,27.1c0,0,7,17.2,11.2,18.4c4.3,1.2,13.8,2.5,17,2.1c3.2-0.4,12.1-0.8,16.5-11.3c4.4-10.5,2.7-9.9,2.7-9.9
			"/>
		<path class="st1" d="M100.2,34.4c0,0,4.6,1.2,7.2,0.6"/>
		<path class="st1" d="M65.5,26.4c0,0-2.3,41.5-5.9,45.3"/>
		<path class="st1" d="M149.8,27.1c0,0,1.2,13.8,1.6,27.1c0.4,13.3-3.7,17.7,1.2,19.9"/>
		<path class="st1" d="M69.6,27.1c0,0,1.5,35.6-3.3,41.8"/>
		<path class="st1" d="M74.8,28.3c0,0-0.8,26.3-4.9,34.8c-4.1,8.5-9.3,10.1-9.3,10.1"/>
		<path class="st1" d="M78.8,28.3c0,0,4.8-1.5,0,17.5c-4.8,19-5.7,21.5-7,22.4c-1.2,0.9-4.9,3.1-5.5,3.5"/>
		<path class="st1" d="M80.3,27.1c0,0,6.5,18.8,2.1,29.6c-4.4,10.8-5.8,13.8-8.7,14.4c-2.9,0.7-9.7-0.3-11.7,0.5
			c-2,0.8-6.7,2.5-6.7,2.5"/>
		<path class="st1" d="M76.7,27.1c0,0,3.3,6.4,0,17.4c-3.3,10.9-2.3,13.7-5.1,17.2c-2.8,3.5-3.2,4.8-6.6,6.5
			c-3.4,1.7-9.8,3.5-9.8,3.5"/>
		<path class="st1" d="M70.4,26.4c0,0,0.9,9.1,0.6,16.8c-0.2,7.7-0.6,13.2-2.3,18c-1.7,4.9-2,4.6-3.7,6.9"/>
		<path class="st1" d="M68.1,25.3c0,0,0.8,15.7-0.4,25.4c-1.2,9.7-0.9,12.8-2.2,15.3c-1.3,2.5-2.2,4.8-2.4,5.3"/>
		<path class="st1" d="M131.7,28.3c0,0-6.1,12.7-3,23.7c3.1,11.1,4,15.4,8,17.9c4,2.6,8.4,4.2,8.4,4.2"/>
		<path class="st1" d="M134.2,26.4c0,0-1.8,0.8,0,14.4c1.8,13.7-0.4,27.8,4.2,30.1c4.5,2.3,11.5,3.2,11.5,3.2"/>
		<path class="st1" d="M132.3,26.4c0,0-3.2,20.3,0,31.5c3.2,11.1,8.5,14.4,9.2,14.7"/>
		<path class="st1" d="M136.3,27.1c0,0,0.4,23.7,2.6,31.8c2.2,8.1,2.6,11.3,3.5,12c1,0.7,2,1.7,2,1.7"/>
		<path class="st1" d="M139.4,26.8c0,0-0.2,43.2,6.5,46.6"/>
		<path class="st1" d="M142.7,27.1c0,0-0.4,44.3,5.6,47.6"/>
		<path class="st1" d="M145.5,28.3c0,0,3.2,44.4,7.1,46.7"/>
		<path class="st1" d="M106,204.8c0,0-1.6,5.1-0.6,7.4"/>
		<path class="st1" d="M105.6,207c0,0,0.4,1.3,0.2,2c-0.1,0.7-0.7,1.4-0.7,1.4"/>
		<line class="st1" x1="106" y1="197.7" x2="106" y2="177.5"/>
		<path class="st2" d="M116.3,181.5l3.8,5.1c0,0-6.7,10.7-7.2,11c-0.5,0.3-6.5-10.3-6.5-10.3l-6.3-10.9h-4.4l7.8,14.3
			c0,0-6.3,3-6.1,2.1c0.2-0.9,3,5.5,3,5.5l3.6-3.9l2.1,3.8l-5.6,7.2l-5.9-11c0,0-0.1,2.4-3,3c-2.9,0.6-3.6,1.1-4.2,2.7
			c-0.6,1.7-4.9,3.3-6.5-0.4c-1.6-3.6-0.3-4.6-1.1-5.1c-0.9-0.5-3.6,1.2-4-0.8s-1.5-8.3,0.6-9.3c2.1-1.1,5.8,0.1,5.9-1.7
			c0.1-1.8-0.1-3.6-1.5-4.1c-1.3-0.5-6.2-1.8-7.2-4.1c-1.1-2.4-0.1-4.7-1.2-5.5c-1.1-0.9-2.5-2.5-1.7-4.9c0.8-2.5,3.3-3.7,5.4-4.3
			c2.1-0.6,3.9,0.2,2.7-2.3c-1.2-2.5-5.4-1.4-6.6-2.4c-1.2-1.1-13-8.4-13-10.5c0-2.1,7.3,5.5,12,5.3c5.3-0.2,5.8,0,9.3-1.2
			c3.6-1.2,2.4-0.3,4.1-1.5c1.7-1.3,2.4-1.5,3.9-2.1c1.5-0.6,2.4-2.8,4.1-2.8c1.6,0,3.1-4.4,3-2c-0.1,2.3,4.5-2.3,6.5-2.2
			c1.9,0.1-3.4,3.3-2,3.8c1.4,0.5,3.4,1.8,4.1,0.1c0.7-1.6,0.5-3.4,1.9-3.8c1.4-0.4,5.6,3,5.6,5.2c0,2.1,1,4.7,1.7,5.6
			c0.7,0.9,1.6,2.2,0,2.5c-1.6,0.2-4.2,1.1-3.7,2.1c0.6,1.1,1.9,2.1,3.7,1.8c1.7-0.4,2.3-0.3,2.9,0.2c0.6,0.6,1.3-0.1,0.5,0.9
			c-0.8,0.9-3.1,3.6-3.3,3.8c-0.2,0.3-0.6,1-0.6,1H88.4l3.1,7.6l3.1-0.3l-1.1-4l17.8-0.2c0,0-0.7,5.7-0.8,6.1c0,0.4,5.7,0.5,5.7,0.5
			l-1.1,3.3l-4.7,0.1l3.3,3.9l-5.5,8.8l2.3,3.5L116.3,181.5z"/>
		<path class="st2" d="M110,232.8c0,0,4,0.4,4.5-0.9c0.5-1.1,1.2-1.4,2.2-1.9c0.9-0.5-0.9-0.7,0.1-2.5c1.1-1.9,4.8-2,4.1-3
			c-0.7-1.1-3.1-0.9-2.1-1c2.4-0.2,11.5-8.7,11.2-9.4c-0.2-0.7-9.2,6.5-9.5,5.8c-0.4-0.7-1.3-2.7-0.5-3.4c0.8-0.7,2.7-2.1,2.7-3.9
			c0-1.8-1.9-3.7,0-4.2c1.9-0.5,5.3-0.5,6.3-3.2c1.1-2.7,0.3-7-0.9-6.2c-1.3,0.8-2.9,1.1-2.9-0.1c0-1.2-3,0.7-4.1,1.5
			c-1.1,0.8-2.9,3.2-4.1,4.1c-1.2,0.9-2.2,1.9-2.8,3.8c-0.6,1.9-1.2,3.5-3.1,5.4c-1.9,1.9-2.5,3.6-3.3,5.3c-0.8,1.6-1.6,2.3-2.7,3.9
			c-1.1,1.5-4,3.6-2.8,4.9c1.2,1.3,4.4,2.2,4.7,4.4C107.4,234.3,106.6,232.3,110,232.8z"/>
		<path class="st2" d="M128.5,229.5c0,0-1.9,2.3-0.6,3.1c1.3,0.8,3.6,0.8,3.4-1.3C131,229.2,130,228.4,128.5,229.5z"/>
		<path class="st2" d="M134.2,204.3c0,0-1.4,0.8-0.5,1.6c0.9,0.8,2,0.4,1.7-0.6C135.1,204.4,135.2,204.3,134.2,204.3z"/>
		<path class="st2" d="M103.8,231.1c0,0-3.9-1.7-5.6-2.4c-1.6-0.7-3.2-0.7-3.7-1.7c-0.5-0.9-1.3,0.2-2.5-0.9
			c-2.5-2.2-1.1-2.2-2.8-2.6c-1.6-0.4-5.6-1.6-6.5-4.1c-0.9-2.4-1.5-2.4-3.7-2.4c-2.1,0-24.5-18.4-24.1-20.9
			c0.5-2.5,18.3,12.2,19.1,10.9c0.8-1.3,11.5,0.7,11.6-1.1c0.1-1.8,0.5,0,2.7,0c2.2,0,1.2-2.2,1.8-4.2c0.6-2,0.6-5,1.7-6.4
			c1.2-1.4,1.2-1.4,1.2-1.4l6.2,11.5l5.3-7.7l-1.8-4l-4,3.9l-2.9-5.3c0,0,1.3-0.5,2.6-0.5s4.2-1,3.4-2.3c-0.8-1.4,8.8,15.4,8.8,15.4
			l20.7-33.9h-8l-1.1,3l3.5,0.5l-7.4,11.6c0,0-1.6-2.8-2-3.1c-0.5-0.4-2-1.6-1.8-2c0.3-0.4-5.7,9.2-5.7,9.2l-2.3-3.5l5.6-8.9
			c0,0-4.1-3.8-3-3.8c1.2,0,4.3-0.1,4.3-0.1l0.6-3.3l-5.3-0.1c0,0,0.5-6,1.6-6.6c1.2-0.6-18.7,0.2-18.7,0.2l1.1,4l-3.3-0.4l-2.8-6.9
			h24.5c0,0,1-2.1,2.2-3.2c1.2-1.1,1.9-1.4,1.9-2.8c0-1.4-2-6.2,0.4-8.5c2.3-2.2-2.7-4.5-1.2-4.9c1.5-0.5,7.9,5.9,9.9,7.8
			c2,1.9,5.9,0.3,5.7,1.8c-0.2,1.5,0.1,1.6,0.5,2.2c0.4,0.6,0,2.5,0.8,2.2c0.8-0.2,2.6-0.7,3,0.2c0.4,0.9,0.7,3.4,0,5.2
			c-0.7,1.8-0.2,2.8,0.4,4.3c0.6,1.5,1,5.9,0.4,5.8c-0.6-0.1,1.5,0.8,3.9,0s3.5,0.5,3.7,4.6c0.2,4.1-0.7,9.8-2.2,10.3
			c-1.5,0.5-2.1,2.9-3.9,0.9c-1.8-2-1.8-4.3-3.3-4.8c-1.5-0.5-4.1,2.1-3.9,3.5c0.2,1.4,1.4,2-0.8,2.6c-2.2,0.6-3.9,0.8-4.5,2.7
			c-0.6,2,1.4,2.2,2.7,1.7c1.3-0.5,1.4,3.4,0,6.7c-1.4,3.3-5.3,5.4-6.5,6.2c-1.2,0.8-3.9,2.6-6.3,5.1c-2.4,2.5-5.2,5.2-5.5,7.2
			c-0.2,2-0.2,7.9-1.2,9.3C106.2,228.4,100.6,228.1,103.8,231.1z"/>
		<path class="st2" d="M136.8,191.1c0,0-1.8,1.4-0.6,2.1c1.1,0.7,2.9,0,2.3-1.1C137.9,191.1,136.8,191.1,136.8,191.1z"/>
		<path class="st2" d="M137.9,159.8c0,0-2.2,2.1-1.4,3.6c0.8,1.6,1.6,2.2,2.4,1c0.8-1.2,0.6-1.8,0.6-1.8s1.3,1.1,1.6,0.9
			c0.3-0.2,1.4-1.5,0.4-2.1c-1-0.6-1.9-0.4-2-0.2C139.4,161.4,138.9,159.5,137.9,159.8z"/>
		<path class="st2" d="M138.3,155.9c0,0-1.7,1.4-0.7,1.8c0.9,0.4,2.3,0.6,2.1-0.5C139.4,156.2,139.2,156.2,138.3,155.9z"/>
		<polygon class="st3" points="80.1,170 114.6,170.6 113.5,173.8 85.8,174.3 98.9,198.2 102.6,193.6 104.5,197.6 99.2,205.4 		"/>
		<polygon class="st3" points="94,175.8 98.4,175.8 111,197.7 125.7,174.4 122.2,173.9 123.3,170.9 131.3,170.9 110.5,204.8 		"/>
		<polygon class="st3" points="106.6,186.7 108.9,190.2 126.8,161.3 86.7,160.8 89.8,168.4 92.9,168.1 91.8,164.1 120.8,163.8 		"/>
		<path class="st2" d="M61.4,159.2c0,0-3,1.5-1.7,2.5c1.4,1,3,0.8,3.1,0C62.8,161,62.8,159.1,61.4,159.2z"/>
		<path class="st2" d="M64.3,151.9c0,0-1.6,1.1-0.7,1.6c0.9,0.4,1.6,0,1.5-0.6C65.1,152.3,64.8,151.8,64.3,151.9z"/>
		<path class="st2" d="M68.8,158.7c0,0-0.9,0.1-0.6,0.7c0.3,0.5,1,0.3,1,0C69.2,159.1,68.8,158.7,68.8,158.7z"/>
		<path class="st2" d="M97,135.7c0,0-2,0.7-1.7,1.5c0.3,0.9,1.2,1.8,2.1,0.9c0.9-0.9,1.2-1.8,0.7-2.2C97.6,135.5,97,135.7,97,135.7z
			"/>
		<path class="st2" d="M77.8,134.2c0,0-1.2,0.2-0.8,1.1c0.4,0.8,1.2,0.4,1.2,0C78.3,134.8,77.8,134.2,77.8,134.2z"/>
		<path class="st2" d="M61.1,142.3c0,0,6.2,7.1,13,5c6.9-2.1,12.1-2,13.8-5.8c1.7-3.8,5.5-10.5,7.3-12.9c1.8-2.4,1.2-2.1,3.1-4.9
			c1.8-2.8,1.5-6.5,0.5-8.9c-1-2.4,1.1-6.5,3.2-7.8c2.1-1.3,5.5-3.7,3.1-8.3c-2.4-4.6-2.7-2.3-3.2,0c-0.5,2.3,0.3,4.4-1.9,6
			c-2.2,1.6-4.4,3.2-4.8,5.1c-0.4,1.9,3.5,10.6-1.7,10.4c-5.2-0.2-5.4-4.6-8.3-3.5c-2.9,1.2-7.1,3.2-6.3,6.7
			c0.8,3.5,4.4,7.5,1.1,8.6c-3.3,1.1-9.3-1.7-10.6-3.5c-1.3-1.9-3.2-0.9-4.6,2.3c-1.4,3.2-2.3,6-1.6,7.7c0.7,1.8-3.7,3.1-4,0
			c-0.4-3.1-2.1-4.7-2.6-6.5c-0.5-1.9-2.5-2.2-1.5-6.4c1-4.2,5-7.7,4.1-9.3c-0.8-1.6-4.2-3.5-2.6-6.5c1.6-3-0.5-1.7-0.5-2.2
			c0-0.5-0.2-1-0.3-1.7c-0.1-0.7-0.4,0-0.5,1c0,1-0.1,1.7,0.3,2s0.1,0,0,1.7c-0.2,1.6,0.2,3.4,0.4,3.6c0.3,0.2,0.6,0.3,0.6,0.3
			s0.5,0.5,0.3,0.7c-0.2,0.2-4.8,9.2-3.8,12.6c1,3.4,2.4,8.6,3.5,10.3C57.8,139.7,61.1,142.3,61.1,142.3z"/>
		<path class="st2" d="M123.2,146.5c0,0,6.4,4.2,14.4,0.7c8-3.5,8.2-2.7,8.4-4.1c0.2-1.4,2.2-3.4-0.8-6.2c-3-2.8-6.1-0.8-8-4.2
			c-1.8-3.4-5.2-6.5-2.8-12c2.4-5.5,8.6-9,12.4-9.9c3.9-0.9,7.8,1.8,8.8-3.2c1-5.1,2.7-6.2-1.2-12.3c-3.9-6-5.6-11.9-7.4-15.8
			c-1.9-3.9-0.7-4.7-1.8-5.1c-1.1-0.3-10.3-3.6-10.7-3.7s-3.3-1.6-4.6-3.6c-1.3-2-2.1-4.9-2.7-6.5c-0.5-1.6-3.8-6.8-5.2-9.7
			c-1.4-2.9-2.3-4.9-2-5.5c0.2-0.6,2.5-1.9,2.8-2.3c0.3-0.4,1-1.9,1.1-2.2c0.1-0.3,0-0.3,0-0.3s-2.1,2.8-4.2,4.2
			c-2.1,1.4-4.9,2.4-5.4,2.5c-0.5,0.1,2.1-0.3,2.6-0.2c0.5,0.2,2.4,0.5,2.6,1c0.2,0.5,0.5,5.7,3.7,11c3.2,5.3,4.2,7.4,4.7,12.4
			c0.6,5,2.4,5.9,8.6,10.1c6.3,4.2,11.6,5.6,9.4,13.1c-2.2,7.5,2.5,8.4-5.7,10.5c-8.1,2.1-16.9-1.9-16.9,5.1
			c0,6.9-0.7,14.1,4.5,20.6c5.2,6.5,14.3,8.8,7.6,10.6c-6.6,1.9-12.4,4.7-13.1,3.1c-0.8-1.5,0.2-1.1-0.8-3.1c-1-2.1-2.9-3.5-3.1-3.4
			c-0.2,0.1,2.2,1.8,2.1,3.4C120.6,143,121.4,145.6,123.2,146.5z"/>
		<path class="st2" d="M145.9,144c0,0,6.2-4,6.7-7c0.5-3.1,1.5-5.8,1.2-7.5s0.4-4.9-0.4-7.3c-0.8-2.4-1.6-6.4-2.8-6.6
			c-9-1.7-1.4-1.7,0.6-2.1c2-0.5,2.8-0.7,3.2-1.5c0.4-0.8,1.1-3.9,1.1-4.3c0.1-0.3,0.3,3.2-6,3.4c-6.2,0.2-7.8,0.9-8.5,1.8
			c-1.7,2.3,4.4,2.3,5.4,5.5c0.3,0.9,1.4,3.2,1.2,4c-0.7,3.2,2.3,2.2-1.6,4.6c-2.9,1.8-2.5-1.9-6.3,3c-2.5,3.2-1.3,3.7,0.2,4.7
			c1.5,1,3.9,1.2,5.1,2.7c1.2,1.5,1,4.9,0.8,5.8C145.9,144,145.9,144,145.9,144z"/>
		<path class="st2" d="M144.3,279c-0.5,1.1-4,2-1.5,4.2c2.5,2.2,6.2,1.9,5.4-1.2C147.4,278.9,144.3,279,144.3,279z"/>
		<path class="st2" d="M139.5,273.1c-1,2.5,2.6,3.4,2.4,1.5C141.6,272.7,139.9,272,139.5,273.1z"/>
		<path class="st2" d="M159.6,234.7c2.1,11.5-5.6,9.7-7.7,13.3c-2.2,3.6,1.9,2.8,2.9,6.9c1.1,4.1-0.5,1.8-4.3,3
			c-3.9,1.2-6-0.2-7.1,3.2c-1.1,3.4,0.6,3.6,3.4,3.7c2.8,0.2,4,0.8,9.3,11.3c4.4,8.9-1.6,5.2-7.8,8.9c-0.1,0-0.4,0.1-0.8,0.1
			c-0.4,0-1.2,0.4-1.9,0.6c-0.7,0.1-2.3-1.1-2.7-1.5c-0.4-0.4-1.2-0.8-1.6-1c-0.4-0.1-1.4-0.1-0.6,0.6c0.8,0.8,0.8,2.8,0.2,3.9
			s-3.2,1.4-6-0.8c-2.8-2.2-6.5-5.3-8.8-6s-6-0.3-8.3-1.9c-2.3-1.5-2.2-3.7-4.6-4.5c-2.5-0.8,0.5,6.2,3.2,7.4
			c2.8,1.2,5.2,1.4,6.3,3.1c1.1,1.7-4.1,4,8.7,5.9c10.6,1.6,10.9,4.7,10.9,4.7s0.7,2.6,2.1,3.2c1.4,0.5,2.6,0.4,4.1,1.9
			c0.8,1.1,1.4,2.4,1.7,4.1c1.4,8.5-3.9,12-3.9,12h13.3c0,0,0.3-2.2,0.7-6c0.5-3.7,4.5-37.4,4.3-45.6
			C164.6,257,157.4,223.2,159.6,234.7z"/>
		<path class="st2" d="M100.1,313.7c0,0-0.7-3.7-2.7-5s-4.3-0.9-4.9-2.7c-0.6-1.7-0.6-4.2-0.3-4.9c0.2-0.7,0.2-3.1-0.2-3.6
			c-0.5-0.5-0.9-1-0.9-1s-0.3-1.2-0.5-3.1c-0.2-1.9-0.2-4.5,0.1-5.9c0.3-1.4,0.5-3.9,0.9-4.1c0.3-0.1,0,4.4,0.3,5.8
			c0.4,1.4,1.2,7.7,1.5,9.4c0.2,1.7,0.7,6.7,1.4,7.1c0.8,0.4,2.2,1.1,2.6-0.2c0.4-1.3-0.3-3.3-0.2-4.6c0.1-1.3-0.6-5.8-0.8-7.5
			c-0.2-1.7-0.5-5.2-0.5-5.2s0.5-0.9,0.5-0.5c0.1,0.4,1.3,8,1.4,8.9c0.1,0.9,1,7.7,1.4,8.4c0.3,0.7,0.9,1,1.2,1.2
			c0.3,0.2,1,1.2,0.9,1.7c-0.1,0.5-0.6,6.1-0.6,6.1s0.1,1.4,0,1.5C100.7,315.6,100.1,313.7,100.1,313.7z"/>
		<path class="st1" d="M87,41.3c0,0,0.6,23.3-3.1,26.8C80.1,71.6,69.7,74,65,74.7c-4.8,0.7-16.6-2.5-22.6,4.1
			c-6,6.6-13.2,24.7-13.3,28c-0.1,3.3-7.1,25.8-7.1,29.9"/>
		<path class="st1" d="M22,202.1c0,0,22.6,16.1,35.3,24.5c3.5,2.3,6.2,4,7.6,4.7c6.3,3.2,22.5,11.1,24.7,12.6c2.2,1.5,6.8,9,8,9.9
			c1.3,1,11,8.2,11.1,8.6c0.1,0.4,8.3,8.5,8.8,8.7c0.5,0.2,2.7,1.9,3.7,0.9c1-1,0.7-2.8-1-4.7c-1.7-1.9-3.8-4.4-3.8-4.4
			s1.2,0.9,1.8,1.4c0.6,0.5,6.9,6.1,7.9,5.1c1-1.1,3.1-2.6-1.3-5.9c-4.4-3.3-5.4-4.5-5.5-5c-0.1-0.5,1-0.8,1.6-0.5
			c0.5,0.3,8,5.3,8,5.3s0.9,0.5,1.9-0.9c1-1.4,0.9-3-0.6-4.8c-1.5-1.8-6.6-5.8-6.6-5.8s0.8-1.9,2.3-0.7c1.5,1.3,7.4,5,7.4,5
			s1.5,0,2.1-1.9c0.6-1.9,1.6-2-3.1-4.9c-4.7-2.8-8.6-5.6-9.4-5.9c-0.7-0.3-2.6-1.2-2.6-1.2s6.1,4.4,8.1,3.3c2-1.1,1-1.9-2.1-4.1
			c-3.1-2.2-9.7-6.3-12-6.9c-2.3-0.6,3.1,0-2.3-0.6c-5.4-0.6-14.1-3.8-23.5-9.3c-9.4-5.5-30.4-22.6-34.3-27.3
			c-3.9-4.7-12.7-11.7-16.9-13.3c-4.2-1.6,0,2,2.2-6.4c2.2-8.4,12.5-50.9,12.7-53.4c0.2-2.5,2.1-19.5,2.1-19.5s0.7-2,0.3-3.1"/>
		<path class="st1" d="M55.9,101.9c0,0-1,1.5-1.1,3.3c-0.1,1.8-4.2,24-1.1,30c3.1,5.9,10.5,14.4,17.6,14c7.1-0.4,15.1-0.5,19.4-9.8
			c4.3-9.3,5-10.7,5-10.7"/>
		<path class="st1" d="M91.8,137c0,0,3.1-2,3.8-3.3"/>
		<path class="st1" d="M56,138.9c0,0,1.5,21.9,0,34.8c-1.5,12.9-2.8,22.4-2.8,22.4"/>
		<path class="st1" d="M47.6,220.1c0,0-8.4,29.4-5.3,51c3.1,21.6,9.6,64.3,9.6,64.3"/>
		<path class="st1" d="M157.3,222.6c0,0,9.1,36.9,7.4,52.1c-1.7,15.2-7.4,60.7-7.4,60.7"/>
		<path class="st1" d="M110.9,130.3c0,0,7.5,19.7,18.7,18.9c11.2-0.8,23.7-4.3,24.8-17.2c1.1-12.9-2.4-16-3.2-17.3"/>
		<path class="st1" d="M154.5,126.4c0,0,0.4-8.8-0.7-11.2"/>
		<path class="st1" d="M155.6,120.8c0,0,1.5-25.3,1.2-28.7"/>
		<path class="st1" d="M158.5,90.9c0,0-1,6.8-1.9,9"/>
		<path class="st1" d="M52.5,125.5c0,0,0.6-6.6,4.2-10.8"/>
		<path class="st1" d="M110.9,136.6c0,0,4.2,2,4.8,2.9"/>
		<path class="st1" d="M151.9,139.5c0,0-3.2,47.5-2.4,53.1"/>
		<path class="st1" d="M153.8,137c0,0,1.2,49.3,0,52.9c-1.2,3.5-22.9,23.9-28.3,30.2c-5.4,6.4-11.1,14.6-11.1,14.6"/>
		<path class="st1" d="M98.9,254.8c0,0-10.2,16.4-10.7,20.7c-0.5,4.3-1.7,14.8-1.7,15.9c0,1,1.1,10.4,1.8,11.3
			c0.7,0.9,1.7,1.7,2.3,0c0.6-1.7-0.4-10-0.5-11.6c-0.1-1.6,1.5-9.2,1.7-10c0.2-0.8,0.1,9.6,0.8,13.3c0.8,3.6,1.4,11.3,2.4,11.7
			c1,0.4,3.2,1.2,2.4-3.3c-0.7-4.4-1.1-8.1-1.1-8.1s0.1-2.1-0.2-3.2c-0.4-1.2-0.1-6.4-0.1-6.4s1.7,9.9,2.2,13.8
			c0.5,3.9,0.9,7.8,2.3,7.5c1.5-0.3,2.1-1.2,1.1-8.6c-1-7.4,0-9.4-0.1-9.8c-0.1-0.4,1.2,17.4,2.4,18.4c1.2,1,2.6,0.6,2.2-3.2
			c-0.4-3.8,1.1-13.3,0.1-15.5c-1-2.2,0.4-3.1,0.4-3.1s0.2,11.7,0.5,12.2c0.4,0.5,1.5,1.3,1.8,0.8c0.4-0.5,2-7.3,1.6-12.9
			c-0.4-5.6-0.2-18.3,0.1-19.1"/>
		<path class="st1" d="M85.3,73.2c0,0,12.1,0.3,13.8,0.9c1.7,0.7,2.6,2.7,2.8,3.4"/>
		<path class="st1" d="M129.5,75.3c0,0-13.4,0.5-14.1,1.5c-0.6,1-1,2.7-1,2.7"/>
		<path class="st1" d="M106.5,299c0,0,0,33.6,4.1,38.3"/>
		<path class="st1" d="M101.3,306.8c-1.8,24.2-1.8,24.2-2.6,28.6"/>
		<path class="st1" d="M131.5,248.8c0,0,33.9-34.7,40.5-45.9c6.6-11.2,4-4.9,4.6-14.3c0.5-9.4,0-42.1,1.1-52.1
			c1.1-9.9,0-27.5,0-32.5c0-5-0.8-17-4.4-20.5c-3.6-3.5-12.9-8.3-18.9-8.7c0,0-3.9,0-4.5,0c-0.6,0-8.9-2.2-14.5-4.4
			c-5.6-2.2-6.8-6.1-9.2-16.6c-2.3-10.5,3.2-28.6,3.2-28.6"/>
		<use xlink:href="#SVGID_1_"  style="overflow:visible;fill:none;stroke:#76B72D;stroke-miterlimit:10;"/>
	</g>
	<path class="st0" d="M34.6,208.3c-7.1-8.2,5-11.5,4.4-17.1c-0.6-5.6-7.5-9.3-6.7-12.9c0.8-3.6-1.5-3.9-2.3-7.3
		c-0.8-3.4-2.1-0.8-3-6.6c-0.9-5.9-2.1-12.2,0-14.5s3.3-3.9,3.2-6.5c-0.1-2.6-0.4-5.2,2.2-3.7c2.6,1.5,3.1,2.9,2.9,5.6
		c-0.2,2.6-0.6,4.9-1.1,7.6c-0.5,2.6-0.3,5.4,0,6c0.3,0.6,1.7,1.2,2.3,2.8c0.6,1.5,2.2,3.1,0.9,5.6c-1.2,2.5-3.4,3.9-0.9,6.6
		c2.5,2.7,3.5,2.8,3.1,4.1c-0.4,1.3-1.7,4.1-1.7,4.1s-1.6,1.6-2.3,1.8c-0.6,0.3,3.3,1,5.1,2.2c1.8,1.2,6.1,4.8,6.9,10.9
		c0.8,6-3.5,4,2.2,11.4c5.7,7.4,9.2,7.9,9.6,10.4c1.1,6.2,6.3,2,10.3,6c2.3,2.3-9.5,3.1-11.3-2.4c-1.5-4.7-4.9-6.7-8.3-9.7
		C46.7,209.5,37.2,211.2,34.6,208.3z"/>
	<path class="st0" d="M21.5,142.1c0,0,5.4-8.1,5.7-12.3s3-7.2,1.2-10.2c-1.9-3,3.1-6.9,3.6-9.3c0.5-2.3,5.1-18.1,10.1-19.2
		s6.4-4.9,8.5-8.6c2.1-3.7,8.3,5.4,11,2.4c3.3-3.8-3.2-3.9-3.9-6c-0.7-2.1,1.2-4.3,3-4.2c1.8,0.1-14.3-2.6-20.2,6.6
		C31.8,94.6,27,113.9,25,123.1C23,132.3,20.8,136.6,21.5,142.1z"/>
	<path class="st0" d="M74.3,229.2c0,0,0,2.6,2.1,2.3c2.1-0.2,1.5-2.5-0.5-2.9C73.9,228.2,74.7,229.9,74.3,229.2z"/>
	<path class="st0" d="M73.4,220.7c0,0-0.5-0.1-0.3,1c0.1,1,1.3,1.7,2.1,1.3s0.8-2.4-0.8-3C72.9,219.4,75.1,220.9,73.4,220.7z"/>
	<path class="st0" d="M96.8,253.3c0,0,0.8,1.4-1.4,2.1c-2.2,0.7-4.1,1.8-5.6,0.8c-1.5-0.9-1.2-0.2-2-1.3c-0.9-1.1-1.5-1.6-2.2-1.6
		c-0.6-0.1-1.9,0.3-2.2,0c-0.3-0.3-0.5,0.1-1.3,0c-0.8-0.1-1.2,0.2-1.9-0.1c-0.7-0.3-1.2-0.2-1.5-0.4s-0.5-0.3-0.5-0.9
		c0-0.6,0-1.2,0-1.2s0.2-0.4,0.4-0.7s1.5-4.9,0.2-6c-1.2-1.2-4.2-2.3-4.2-2.3s-1-0.5-2.2-0.6c-1.2-0.1,0.6,0.3,0.9,0.6
		c0.3,0.3,0.6,1.3,0.7,1.6c0.2,0.3,0.6,1.7,0.6,2.1c0,0.4,0,0.2,0,0.5c0,0.3,0.1,0.2,0.1,0.6s0,0.9,0,1.2c0,0.3-0.1,0.4-0.1,0.6
		c0,0.1-0.6,1.9-0.7,2.3c-0.1,0.4-0.2,1.9-0.2,1.9c0.1,0,0.4,0,0.5,0.2c0.1,0.2,0.6,2.3,0.7,2.5c0.1,0.2,1.5,2.1,1.7,2.3
		c0.2,0.2,1.1,0.7,2.9,0.8c1.8,0.1,2.3,1.1,2.7,1.9c0.4,0.8,0.5,1.6,0.5,2.2c0,0.6,0,0.8,0.4,1.6c0.4,0.8,0.4,1.2,0.9,1.7
		c0.5,0.5,0.6,0.5,0.8,0.8c0.2,0.2,0.3,0.2,0.6,0.5c0.2,0.3,0.7,0.5,0.8,0.7c0.1,0.2,0.3,0.8,0.4,1c0.1,0.2,0.6,0.6,0.4,0.9
		c-0.2,0.3-0.2,0.4-0.2,0.8c0,0.4,0,1,0.7,1.5c0.7,0.5,0.9,1,0.9,1s1.9-3.5,2-4s3.1-5.7,3.6-6.7c0.5-1,2.9-4.9,3.4-5.7
		c0.5-0.8,1.3-1.4,0.8-1.7C97.9,254.5,97.9,253.8,96.8,253.3z"/>
	<path class="st0" d="M169.4,81.3c0,0,4.6,16.8,3.1,21.5c-1.5,4.8-2.5,8.3-4,11.1c-1.5,2.8-2.2,5.1-3.7,6.5
		c-1.5,1.4-4.6,0.9-4.8,3.1c-0.2,2.2,0.3,2.9,1.2,3.7c0.9,0.8,2.2,0.6,0.3,1.5c-1.9,0.9-2.5,0.6-3.4,1.7c-0.9,1.1-4.6,1.8-3.6,2.6
		c1.1,0.8,0.3,0.6,3.2,0c2.9-0.6,3.2-0.9,5.1-1.5c1.9-0.6-1.2,0.3,4.3-2.3c5.6-2.6,6.5-3.2,6.9-3.6c0.5-0.3,2.9-0.5,2.5,1.7
		c-0.5,2.2-2,3.2,0.1,4c2.1,0.8,1.3-11.6,1.2-15.4c-0.2-3.9-1.4-23.5-1.9-25.5C175.6,88.5,174.8,83,169.4,81.3z"/>
</g>
<path class="st4" d="M97.3,28.5c0,0,1.2-1.3,2.4-1.8c1.2-0.5,3.4-1.1,4.5-1.1s1.9-0.2,2.5,0.2c0.6,0.4,1.1,0.7,1.6,0.8
	c0.6,0.1,0.9,0,1.1,0c0.2,0,1.5-1.1,2.4-1.1c0.9,0,1.1-0.1,2.1,0.4c1,0.6,1.9,1.1,2.3,1.5c0.4,0.4,0.4,0.5,1,1
	c0.6,0.5,0.5,0.5,0.9,0.8c0.4,0.4,0.5,0.5,0.6,0.5c0.1,0,0.4,0,0.4,0s-4.7-0.9-5.3-1c-0.6,0-1.8,0-2.1,0.1c-0.2,0.1-0.5,0.3-0.8,0.5
	c-0.3,0.2-1.7,0.6-3.2,0.2s-2.3-1.4-3.2-1.4s-2.3,0.4-2.5,0.4c-0.2,0.1-1.5,0.2-1.9,0.2s-0.9,0-1.2,0c-0.3,0-1.6-0.1-1.6-0.1h-0.6
	C96.7,28.9,96.9,28.9,97.3,28.5z"/>
<path class="st4" d="M96.9,28.9c0,0,1.9,1.5,2.4,1.9c0.5,0.4,5.5,1.7,7.4,1.6c2-0.1,6.2-0.4,7.1-0.7c0.8-0.3,2.4-1.5,2.9-1.6
	c0.5-0.1,1.2-0.2,1.4-0.3c0.2-0.2-0.3-0.1-2.3-0.4c-2-0.3-3.6-0.4-4-0.2c-0.4,0.2-1.9,1-2.9,0.8c-1.1-0.1-3.4-1.6-4.6-1.5
	c-1.2,0.1-3.9,0.7-5.2,0.6C97.8,28.9,96.9,28.9,96.9,28.9z"/>
</svg>
