<?xml version="1.0" encoding="utf-8"?>
<!-- Generator: Adobe Illustrator 22.1.0, SVG Export Plug-In . SVG Version: 6.00 Build 0)  -->
<svg version="1.1" xmlns="http://www.w3.org/2000/svg" xmlns:xlink="http://www.w3.org/1999/xlink" x="0px" y="0px"
	 viewBox="0 0 395.8 575.3" style="enable-background:new 0 0 395.8 575.3;" xml:space="preserve">
<style type="text/css">
	.st0{fill:none;stroke:#FFFFFF;stroke-width:0.7087;stroke-miterlimit:10;}
	.st1{fill:none;stroke:#FFFFFF;stroke-width:1.1339;stroke-miterlimit:10;}
	.st2{fill:none;stroke:#FEFEFF;stroke-width:0.8984;stroke-linejoin:round;stroke-miterlimit:10;}
	.st3{fill:none;stroke:#76B72D;stroke-width:0.8984;stroke-linejoin:round;stroke-miterlimit:10;}
	.st4{fill:none;stroke:#FEFEFF;stroke-width:0.8986;stroke-linejoin:round;stroke-miterlimit:10;}
	.st5{fill:none;stroke:#76B72D;stroke-width:0.8986;stroke-linejoin:round;stroke-miterlimit:10;}
	.st6{fill:none;stroke:#76B72D;stroke-width:1.0148;stroke-miterlimit:10;}
	.st7{font-family:'Rune';}
	.st8{font-size:117.1729px;}
	.st9{display:none;}
	.st10{display:inline;fill:none;stroke:#FFFFFF;stroke-width:0.7639;stroke-miterlimit:10;}
</style>
<g id="Layer_1">
	<path class="st0" d="M36.8,518.4"/>
	<path class="st1" d="M356.3,284.1"/>
	<path class="st1" d="M356.3,399.7"/>
	<g>
		<path class="st2" d="M395.3,378.4C395.3,270,307.4,182,199,182C90.5,182,2.6,270,2.6,378.4S90.5,574.8,199,574.8
			C307.4,574.8,395.3,486.9,395.3,378.4z"/>
		<path class="st2" d="M348.8,378.4c0-82.8-67.1-149.9-149.9-149.9c-82.8,0-149.9,67.1-149.9,149.9c0,82.8,67.1,149.9,149.9,149.9
			C281.7,528.3,348.8,461.2,348.8,378.4z"/>
		<path class="st2" d="M337,378.4c0-76.2-61.8-138-138-138s-138,61.8-138,138c0,76.2,61.8,138,138,138S337,454.6,337,378.4z"/>
		<path class="st3" d="M290.7,378.4c0-50.6-41.1-91.7-91.7-91.7c-50.6,0-91.7,41.1-91.7,91.7s41.1,91.7,91.7,91.7
			C249.6,470.1,290.7,429.1,290.7,378.4z"/>
		<path class="st2" d="M337,316.8c0,0,6.5,3.8,8.3,4.5c1.8,0.8,3.3,11.3,7,19.6c3.8,8.3,13.1,20.9,13.1,20.9s-4.8,4-6,7.1
			c-1.3,3.1-12.4-15.1-13.5-20.2C344.8,343.6,337,316.8,337,316.8z"/>
		<path class="st2" d="M322,516.6c0,0-5,17-24.9,20.9c-19.9,3.9-26.8,1-28.1,0c-1.3-1-6.7,1.3-4.9,4.4c1.8,3,16.3,10.7,23.7,8.7
			c7.4-2,33.9-18.8,33.9-18.8s11.7-6.9,12.2-15.3L322,516.6z"/>
		<g>
			<path class="st2" d="M372.7,357.8c0,0-13.6,4.3-15.3,17.4c-1.8,13.1-2.8,18.1-1.8,21.1c1,3,3,3,5.3,0c2.3-3,5-9.6,6-14.6
				c1-5,7.5-12.8,8.8-8.3c1.3,4.5,7.3,17.4,7.5,9.1C383.5,374.1,385.8,358.3,372.7,357.8z"/>
			<path class="st2" d="M367.1,380.8c0,0,2.5,10.7,4.8,12.2c2.3,1.5,8.4-0.4,8.6-4.8c0.2-4.3-2.2-13.8-4.8-14.8
				C373.2,372.4,368,377.3,367.1,380.8z"/>
			<path class="st2" d="M365.4,383.4c0,0,8.6,9.1,6.8,13.2c-1.8,4-11.1,18.1-12.6,16.4c-1.5-1.8-4-9.6-2.8-12.8
				c1.3-3.3,6.8-4.7,7.2-9.5C364.5,384.5,365.4,383.4,365.4,383.4z"/>
			<path class="st2" d="M367.1,407.1c0,0,19.2,7.8,23.7-11.1c4.5-18.9,1.8-46.8-3.8-55.1c-5.5-8.3-9-5.1-9-5.1s2,4.6,0.6,7.1
				c-1.3,2.5-1,6.5-1,6.5s-3.9,1.6,2.8,8.3c5.7,5.7,5.3,16.1,4,20.4c-1.3,4.3-3,13.6-6.3,15.3c-3.3,1.8-6,3-6,3
				S369.7,405.6,367.1,407.1z"/>
			<path class="st2" d="M349.5,356.7l9.1,13.7c0,0-7.5,17,1,42.5c0.9,2.6-7,6.5-7.3,7.8c-0.3,1.3-7.1-5.9-5.7-16.7
				c1.5-10.8,2.7-29.6,2.2-33.7C348.4,366.4,345.1,349.5,349.5,356.7z"/>
			<path class="st2" d="M357.9,434c0,0,3.3,13.3,3.3,16.9c0,3.5,10.1-1.5,9.6-6.5c-0.5-5-1.8-13.3-3.5-15.9
				C365.4,426,357.4,432,357.9,434z"/>
			<path class="st2" d="M357.8,440l-11.4,6.6c0,0,1.6-18.7,4.6-23.1c3-4.4,9.8-12.5,16.1-10.4c6.3,2.1,10.1,8,9.6,14.8
				c-0.5,6.9-2.2,13.1-4.3,13.4c-2.1,0.4-2.8-16.1-6.5-15.3C362.1,426.7,354.5,429.1,357.8,440z"/>
			<path class="st2" d="M378.2,408.7c0,0,5.9,37.2-17.1,42.2c-3.3,0.7-12.3,11.1-12.3,11.1s6.2,5.6,18.3,0
				c12.1-5.6,20.4-19.3,20.2-27.8c-0.3-8.5-0.4-22.6-0.8-29.6C386.3,401.1,389.3,407.8,378.2,408.7z"/>
			<path class="st2" d="M357.8,440l3.5,11.6c0,0-15.5,11.6-15.5,13.4c0,1.9,0-17.5,0-17.5S355.3,441.2,357.8,440z"/>
			<path class="st2" d="M345.8,408.7c0,0,3.5,12.3,5,12.1c1.5-0.1-5.2,11.2-4.4,23.8c0.8,12.6-1.4,18.9-0.7,21.6
				c0.8,2.8-0.2,1.5-0.2,1.5s-10.7-0.3-11.4,2.4c-0.8,2.7-0.7-18.5,0-23.5c0.7-5,3.3-10.7,4.6-14.1
				C340,429.1,345.8,408.7,345.8,408.7z"/>
			<path class="st2" d="M316.7,491.7c0,0,10.3,3.3,13.7,0c3.4-3.3,10.6-13.6,11.9-12.3c1.3,1.3,0.9,9.9,0.9,11.2
				c0,1.3-1,4.9,0.1,5.2c1.1,0.3,11-11.6,10.9-14.2c-0.1-2.6,0.8-9.3-2-11.3c-2.8-2-16.9-4.6-22.9,3.8
				C323.3,482.3,316.7,491.7,316.7,491.7z"/>
			<path class="st2" d="M331.6,490.4c0,0,0.2,10.5,0,11.8c-0.2,1.3,11.3-3.1,11.7-6.5c0.5-3.4-1.2-15.1-1.2-15.1L331.6,490.4z"/>
			<path class="st2" d="M357.8,465.1c0,0-0.2,16.2-9,26.4c-8.8,10.2-13.8,12.7-17.2,12.5c-3.4-0.3-14.5,0.3-16,2.5
				c-1.5,2.3,2,9.8,8.3,9.9c6.3,0.1,15.5,2.2,27.4-14c11.9-16.2,20.4-25.8,17.8-41.4L357.8,465.1z"/>
			<path class="st2" d="M333.7,456.4l0.3,13.6c0,0-15.1,12.6-19.4,21.5c-4.4,8.9-7.4,16.8-7.5,19.3c-0.2,2.5-5.7-4.4-11.6-1.3
				c-5.9,3,4.3-13.9,8.1-20.6c3.8-6.7,15.4-22.1,20.8-25.3C329.6,460.3,333.7,456.4,333.7,456.4z"/>
			<path class="st2" d="M330.4,491.7c0,0,1.2,12.3,0,12.3c-1.2,0-21.8,0.6-22.5,2.9c-0.7,2.2,5.1-12.3,5.8-13.8
				C314.5,491.5,327.7,492,330.4,491.7z"/>
			<path class="st2" d="M293.6,510.4c0,0-27.8,15.8-34.4,27.5c-1.7,3-10.1-6-8.7-7.7c1.3-1.7,8.3-10.1,13.9-14.9
				c5.6-4.9,24-15.6,27.7-16c3.7-0.3,6.3-1.9,4.6,1.7C294.9,504.7,291.6,508.1,293.6,510.4z"/>
			<path class="st2" d="M274,523.3c0,0,8.6,4.2,15.3,2.4c6.7-1.8,11.9-4.5,11.7-1c-0.2,3.5-0.4,9.2-2.2,10.2c-1.8,1-2.2,2.6-2.2,2.6
				s20.2-7.3,18.6-14.5c-1.6-7.2-4.8-10.7-8-11.7c-3.1-1-13.2-4-24.9,6C270.7,527.4,274,523.3,274,523.3z"/>
			<path class="st2" d="M288.6,525.9c0,0-7,9.6-7.2,12.7c-0.2,3.1,12.9,1.1,15.7-2c2.8-3.1,4.5-7,3.9-10.6
				c-0.6-3.7-11.7-0.2-11.7-0.2"/>
			<path class="st2" d="M287.5,526.1c0,0-6.5,10.2-6,12.5c0.5,2.3-19.2-1.1-19.6-2.4c-0.4-1.4,10.8-12.1,12.8-11.9
				C276.6,524.4,287.5,526.1,287.5,526.1z"/>
			<path class="st2" d="M250.3,534.6c0,0-0.2,0-0.6,0c-2.4-0.1-11.2-0.6-18.1,0c-8,0.8-11.4,1.7-16.7,4c-5.3,2.3-12,6.7-12,6.7
				s-6.2-4.8-9.8-5.2c-3.6-0.4,10.9-8.3,13.7-9.3c2.8-1,17.7-5.4,22.3-5.5c4.5-0.1,19.2-1.3,21.2-1.1c2,0.2,5.3,0,5.3,0
				s-5.6,3.9-5.2,6.1c0.5,2.2,2.7,5,2.7,5L250.3,534.6z"/>
			<path class="st2" d="M273.7,548c0,0-17.1,12.1-22.5,13.1c-5.4,1-19.1,0.8-28.5-4c-9.4-4.9-9.9-6.7-11.1-5.4
				c-1.2,1.3-1.2,9.1,3.4,13.6c4.5,4.5,10.2,10.9,33.6,3.2c23.4-7.7,33.5-10.4,35.9-17.6C284.5,550.9,274.6,549.8,273.7,548z"/>
			<path class="st2" d="M221.4,539.3c0,0,19-5.9,25.3-4.9c6.4,0.9,18.5,7.3,17.1,12.8c-1.5,5.5,0.5,8.1-6,11
				c-6.5,2.9-13.8,4.6-17.3,3.3c-3.5-1.4,9.8-7.3,7.2-10.6c-2.5-3.3-13.4-3-19.1-5.6C222.9,542.7,221.4,539.3,221.4,539.3z"/>
			<path class="st2" d="M237,547.4c0,0-10.9,4.5-11.2,8.2c-0.3,3.7,9.1,6.4,13.6,4.5c4.5-1.9,8.9-6.4,8.7-7.8
				C247.7,550.9,237,547.4,237,547.4z"/>
			<path class="st2" d="M218.2,538.5c0,0,11.1,8.3,15.8,8.8c4.6,0.5-8.8,8.5-10,8.5c-1.1,0-21.1-9.2-21.2-10.7
				C202.8,543.8,215.2,540,218.2,538.5z"/>
			<path class="st2" d="M210,561.9c0,0-19,6.6-32,0.7c-13.1-5.9-18.3-13.6-18.3-13.6l-6.4-5c0,0-4.7-0.9-4.5,3.2
				c0.2,4.2,2.9,12,9.4,16.4c6.5,4.4,11.6,7.7,15.6,8.5c4,0.8,26.3,1.9,29.1,1.6c2.8-0.3,15-5.7,15-5.7l-5.5-6.7L210,561.9z"/>
			<path class="st2" d="M205.5,560.7c0,0,2.5-7.1,0.8-9.8c-1.7-2.7-8.2-12.1-21.8-13.3c-13.6-1.3-13.4,0.2-13.6,1
				c-0.2,0.8,7.4,8.6,11.6,10.3c4.2,1.7,8.1,2.2,8.2,3.9c0.2,1.7-5.2,6-6.7,6.1c-1.5,0.1-4.6,2-2.3,3.8
				C183.9,564.4,202.6,566.5,205.5,560.7z"/>
			<path class="st2" d="M190.7,552.7c0,0-9.2-5.7-13.8-3.5c-4.5,2.2-10.6,3.2-9.1,6.7c1.5,3.5,11.1,4.9,14.8,3.3
				C186.5,557.5,191.5,555.6,190.7,552.7z"/>
			<path class="st2" d="M151.1,538.5c0,0,9.4-3.1,13.3-1.5c3.9,1.6,12.6,12.1,12.6,12.1s-7.9,2.7-9.3,3.5
				C166.2,553.6,153.8,541.1,151.1,538.5z"/>
			<path class="st2" d="M199,528.3c0,0,1.8,4.4,0,6c-1.8,1.6-12.3,3.6-22,2.3c-9.7-1.3-20.1,0.1-23,0.4c-2.9,0.3-8.1,3.5-8.8,0
				c-0.8-3.5-5.8-8.9,12.1-10.1c17.9-1.3,22,0,22,0S195.1,529.4,199,528.3z"/>
		</g>
		<path class="st2" d="M61.4,503.5c0,0-17-5-20.9-24.9c-3.9-19.9-1-26.8,0-28.1c1-1.3-1.3-6.7-4.4-4.9c-3,1.8-10.7,16.3-8.7,23.7
			c2,7.4,18.8,33.9,18.8,33.9s6.9,11.7,15.3,12.2L61.4,503.5z"/>
		<path class="st2" d="M144,539.3c0,0-13.3,3.3-16.9,3.3c-3.5,0,1.5,10.1,6.5,9.6c5-0.5,13.3-1.8,15.9-3.5
			C152,546.9,146,538.8,144,539.3z"/>
		<path class="st2" d="M154,559.9c0,0-21.9,5.8-26.9-17.3c-0.7-3.3-11.1-12.3-11.1-12.3s-5.6,6.2,0,18.3
			c5.6,12.1,19.4,18.6,27.9,18.4c8.5-0.3,11.6,2.2,18.6,1.8C166,568.6,154.9,570.9,154,559.9z"/>
		<path class="st2" d="M138,539.3l-11.6,3.5c0,0-11.6-15.5-13.4-15.5c-1.9,0,17.5,0,17.5,0S136.9,536.8,138,539.3z"/>
		<path class="st2" d="M169.3,527.2c0,0-23.3,0.5-23.2,2c0.1,1.5-0.1-2.2-12.7-1.3c-12.6,0.8-18.9-1.4-21.6-0.7
			c-2.8,0.8-1.5-0.2-1.5-0.2s0.3-10.7-2.4-11.4c-2.7-0.8,18.5-0.7,23.5,0c5,0.7,10.7,3.3,14.1,4.6
			C148.9,521.5,169.3,527.2,169.3,527.2z"/>
		<path class="st2" d="M86.3,498.2c0,0-3.3,10.3,0,13.7c3.3,3.4,13.6,10.6,12.3,11.9c-1.3,1.3-9.9,0.9-11.2,0.9
			c-1.3,0-4.9-1-5.2,0.1c-0.3,1.1,11.6,11,14.2,10.9c2.6-0.1,9.3,0.8,11.3-2c2-2.8,4.6-16.9-3.8-22.9
			C95.7,504.7,86.3,498.2,86.3,498.2z"/>
		<path class="st2" d="M87.6,513.1c0,0-10.5,0.2-11.8,0c-1.3-0.2,3.1,11.3,6.5,11.7c3.4,0.5,15.1-1.2,15.1-1.2L87.6,513.1z"/>
		<path class="st2" d="M112.9,539.3c0,0-16.2-0.2-26.4-9c-10.2-8.8-12.7-13.8-12.5-17.2c0.2-3.4-0.3-14.5-2.5-16
			c-2.3-1.5-9.8,2-9.9,8.3c-0.1,6.3-2.2,15.5,14,27.3c16.2,11.9,25.8,20.4,41.4,17.8L112.9,539.3z"/>
		<path class="st2" d="M121.6,515.1l-13.6,0.3c0,0-12.6-15.1-21.5-19.4c-8.9-4.4-16.8-7.4-19.3-7.5c-2.5-0.2,4.4-5.7,1.3-11.6
			c-3-5.9,13.9,4.3,20.7,8.1c6.7,3.8,22.1,15.4,25.3,20.8C117.7,511,121.6,515.1,121.6,515.1z"/>
		<path class="st2" d="M86.3,511.9c0,0-12.3,1.2-12.3,0c0-1.2-0.6-21.8-2.9-22.5c-2.2-0.7,12.3,5.1,13.8,5.8
			C86.5,496,86,509.2,86.3,511.9z"/>
		<path class="st2" d="M67.6,475c0,0-15.8-27.8-27.5-34.4c-3-1.7,6-10.1,7.7-8.7c1.7,1.3,10.1,8.3,14.9,13.9
			c4.9,5.6,15.6,24,16,27.7c0.3,3.7,1.9,6.3-1.7,4.6C73.3,476.3,69.9,473.1,67.6,475z"/>
		<path class="st2" d="M54.7,455.4c0,0-4.2,8.6-2.4,15.3c1.8,6.7,4.5,11.9,1,11.7c-3.5-0.2-9.2-0.4-10.2-2.2c-1-1.8-2.6-2.2-2.6-2.2
			s7.3,20.2,14.5,18.6c7.2-1.6,10.7-4.8,11.7-8c1-3.1,4-13.2-6-24.9C50.6,452.2,54.7,455.4,54.7,455.4z"/>
		<path class="st2" d="M52.1,470.1c0,0-9.6-7-12.7-7.2c-3.1-0.2-1.1,12.9,2,15.7c3.1,2.8,7,4.5,10.6,3.9c3.7-0.6,0.2-11.7,0.2-11.7"
			/>
		<path class="st2" d="M51.9,468.9c0,0-10.2-6.5-12.5-6c-2.3,0.5,1.1-19.2,2.4-19.6c1.4-0.4,12.1,10.8,11.9,12.8
			C53.6,458.1,51.9,468.9,51.9,468.9z"/>
		<path class="st2" d="M43.4,431.7c0,0,0-0.2,0-0.6c0.1-2.4,0.6-11.2,0-18.1c-0.8-8.1-1.7-11.4-4-16.7c-2.3-5.3-6.7-12-6.7-12
			s4.8-6.2,5.2-9.8c0.4-3.6,8.3,10.9,9.3,13.7c1,2.8,5.4,17.7,5.5,22.3c0.1,4.5,1.3,19.2,1.1,21.2c-0.2,2,0,5.3,0,5.3
			s-3.9-5.6-6-5.2c-2.2,0.5-5.1,2.7-5.1,2.7L43.4,431.7z"/>
		<path class="st2" d="M30,455.2c0,0-12.1-17.1-13.1-22.5c-1-5.4-0.8-19.1,4-28.5c4.9-9.4,6.7-9.9,5.4-11.1
			c-1.3-1.2-9.1-1.2-13.6,3.4c-4.5,4.5-10.9,10.2-3.2,33.6c7.7,23.4,10.4,33.5,17.6,35.9C27.1,465.9,28.2,456.1,30,455.2z"/>
		<path class="st2" d="M38.7,402.9c0,0,5.9,19,4.9,25.3c-0.9,6.4-7.3,18.5-12.8,17.1c-5.5-1.5-8.1,0.5-11-6
			c-2.9-6.5-4.6-13.8-3.3-17.3c1.4-3.5,7.3,9.8,10.6,7.2c3.3-2.5,3-13.4,5.6-19.1C35.3,404.4,38.7,402.9,38.7,402.9z"/>
		<path class="st2" d="M30.6,418.5c0,0-4.5-10.9-8.2-11.2c-3.7-0.3-6.4,9.1-4.5,13.6c1.9,4.5,6.4,8.9,7.8,8.7
			C27.1,429.2,30.6,418.5,30.6,418.5z"/>
		<path class="st2" d="M39.5,399.7c0,0-8.3,11.1-8.8,15.8c-0.5,4.6-8.5-8.8-8.5-10c0-1.1,9.2-21.1,10.7-21.2
			C34.2,384.2,38,396.6,39.5,399.7z"/>
		<path class="st2" d="M17.3,386.9c0,0,7.1,2.5,9.8,0.8c2.7-1.7,12.1-8.2,13.3-21.8c1.3-13.6-0.2-13.4-1-13.6
			c-0.8-0.2-8.6,7.4-10.3,11.6c-1.7,4.2-2.2,8.1-3.9,8.2c-1.7,0.2-6-5.2-6.1-6.7c-0.1-1.5-2-4.6-3.8-2.3
			C13.6,365.4,11.6,384.1,17.3,386.9z"/>
		<path class="st2" d="M74,241c0,0,5-17,24.9-20.9c19.9-3.9,26.8-1,28.1,0c1.3,1,6.7-1.3,4.9-4.4c-1.8-3-16.3-10.7-23.7-8.7
			c-7.4,2-33.9,18.8-33.9,18.8s-11.7,6.9-12.2,15.3L74,241z"/>
		<path class="st2" d="M38.2,323.5c0,0-3.3-13.3-3.3-16.9c0-3.5-10.1,1.5-9.6,6.5c0.5,5,1.8,13.3,3.5,15.9
			C30.7,331.6,38.7,325.5,38.2,323.5z"/>
		<path class="st2" d="M38.2,317.6l11.4-6.6c0,0-1.6,18.7-4.6,23.1c-3,4.4-9.8,12.5-16.1,10.4c-6.3-2.1-10.1-8-9.6-14.8
			c0.5-6.9,2.2-13.1,4.3-13.4c2.1-0.4,2.8,16.1,6.5,15.3C33.9,330.8,41.5,328.5,38.2,317.6z"/>
		<path class="st2" d="M18.1,346.4c0,0-6.3-34.7,16.8-39.7c3.3-0.7,12.3-11.1,12.3-11.1s-6.2-5.6-18.3,0
			c-12.1,5.6-20.4,19.3-20.2,27.8C9,331.8,9.2,346,9.6,353C9.8,356.5,7.1,347.3,18.1,346.4z"/>
		<path class="st2" d="M38.2,317.6L34.8,306c0,0,15.5-11.6,15.5-13.4c0-1.9,0,17.5,0,17.5S40.8,316.4,38.2,317.6z"/>
		<path class="st2" d="M50.3,348.9c0,0-3.5-12.3-5-12.1c-1.5,0.1,5.2-11.2,4.4-23.8c-0.8-12.6,1.4-18.9,0.7-21.6
			c-0.8-2.8,0.2-1.5,0.2-1.5s10.7,0.3,11.4-2.4c0.8-2.7,0.7,18.5,0,23.5c-0.7,5-3.3,10.7-4.6,14.1C56,328.5,50.3,348.9,50.3,348.9z"
			/>
		<path class="st2" d="M79.3,265.9c0,0-10.3-3.3-13.7,0c-3.4,3.3-10.6,13.6-11.9,12.3c-1.3-1.3-0.9-9.9-0.9-11.2
			c0-1.3,1-4.9-0.1-5.2c-1.1-0.2-11,11.6-10.9,14.2c0.1,2.6-0.8,9.3,2,11.3c2.8,2,16.9,4.6,22.9-3.8
			C72.8,275.2,79.3,265.9,79.3,265.9z"/>
		<path class="st2" d="M64.5,267.1c0,0-0.2-10.5,0-11.8c0.2-1.3-11.3,3.1-11.7,6.5c-0.5,3.4,1.2,15.1,1.2,15.1L64.5,267.1z"/>
		<path class="st2" d="M38.2,292.4c0,0,0.2-16.2,9-26.4c8.8-10.2,13.8-12.7,17.2-12.5c3.4,0.3,14.5-0.3,16-2.5
			c1.5-2.3-2-9.8-8.3-9.9c-6.3-0.1-15.5-2.2-27.4,14c-11.9,16.2-20.4,25.8-17.8,41.4L38.2,292.4z"/>
		<path class="st2" d="M62.4,301.1l-0.3-13.6c0,0,15.1-12.6,19.5-21.5c4.4-8.9,7.4-16.8,7.5-19.3c0.2-2.5,5.7,4.4,11.6,1.3
			c5.9-3-4.3,13.9-8.1,20.6c-3.8,6.7-15.4,22.1-20.8,25.3C66.5,297.3,62.4,301.1,62.4,301.1z"/>
		<path class="st2" d="M65.6,265.9c0,0-1.2-12.3,0-12.3c1.2,0,21.8-0.6,22.5-2.9c0.7-2.2-5.1,12.3-5.8,13.8
			C81.6,266.1,68.3,265.6,65.6,265.9z"/>
		<path class="st2" d="M102.5,247.1c0,0,27.8-15.8,34.4-27.5c1.7-3,10.1,6,8.7,7.7c-1.3,1.7-8.3,10.1-13.9,14.9
			c-5.6,4.9-24,15.6-27.7,16c-3.7,0.3-6.3,1.9-4.6-1.7C101.2,252.8,104.4,249.5,102.5,247.1z"/>
		<path class="st2" d="M122.1,234.3c0,0-8.6-4.2-15.3-2.4c-6.7,1.8-11.9,4.5-11.7,1c0.2-3.5,0.4-9.2,2.2-10.2c1.8-1,2.2-2.6,2.2-2.6
			s-20.2,7.3-18.6,14.5c1.6,7.2,4.8,10.7,8,11.7c3.1,1,13.2,3.9,24.9-6C125.3,230.2,122.1,234.3,122.1,234.3z"/>
		<path class="st2" d="M107.4,231.7c0,0,7-9.6,7.2-12.7c0.2-3.1-12.9-1.1-15.7,2c-2.8,3.1-4.5,7-3.9,10.6c0.6,3.7,11.7,0.2,11.7,0.2
			"/>
		<path class="st2" d="M108.6,231.5c0,0,6.5-10.2,6-12.5c-0.5-2.3,19.2,1.1,19.6,2.4c0.4,1.4-10.8,12.1-12.8,11.9
			C119.4,233.2,108.6,231.5,108.6,231.5z"/>
		<path class="st2" d="M145.8,223c0,0,0.2,0,0.6,0c2.4,0.1,11.2,0.6,18.1,0c8.1-0.8,11.4-1.7,16.7-4c5.3-2.3,12-6.7,12-6.7
			s6.2,4.8,9.8,5.2c3.6,0.4-10.9,8.3-13.7,9.3c-2.8,1-17.7,5.4-22.3,5.5c-4.5,0.1-19.2,1.3-21.2,1.1c-2-0.2-5.3,0-5.3,0
			s5.6-3.9,5.2-6.1c-0.5-2.2-2.7-5-2.7-5L145.8,223z"/>
		<path class="st2" d="M122.4,209.6c0,0,17.1-12.1,22.5-13.1c5.4-1,19.1-0.8,28.5,4c9.4,4.9,9.9,6.7,11.1,5.4
			c1.2-1.3,1.2-9.1-3.4-13.6c-4.5-4.5-10.2-10.9-33.6-3.2c-23.4,7.7-33.5,10.4-35.9,17.6C111.6,206.7,121.4,207.7,122.4,209.6z"/>
		<path class="st2" d="M174.7,218.3c0,0-19,5.9-25.3,4.9c-6.4-0.9-18.5-7.3-17.1-12.8c1.5-5.5-0.5-8.1,6-11
			c6.5-2.9,13.8-4.6,17.3-3.3c3.5,1.4-9.8,7.3-7.2,10.6c2.5,3.3,13.4,3,19.1,5.6C173.2,214.9,174.7,218.3,174.7,218.3z"/>
		<path class="st2" d="M159.1,210.2c0,0,10.9-4.5,11.2-8.2c0.3-3.7-9.1-6.4-13.6-4.5c-4.5,1.9-8.9,6.4-8.7,7.8
			C148.3,206.7,159.1,210.2,159.1,210.2z"/>
		<path class="st2" d="M177.9,219c0,0-11.1-8.3-15.8-8.8c-4.6-0.5,8.8-8.5,10-8.5c1.1,0,21.1,9.2,21.2,10.7
			C193.3,213.7,180.9,217.6,177.9,219z"/>
		<path class="st2" d="M186.1,195.6c0,0,19-6.6,32-0.7c13.1,5.9,18.3,13.6,18.3,13.6l6.4,5c0,0,4.7,0.9,4.5-3.2
			c-0.2-4.2-2.9-12-9.4-16.4c-6.5-4.4-11.6-7.7-15.6-8.5c-4-0.8-26.3-1.9-29.1-1.6c-2.8,0.3-15,5.7-15,5.7l5.5,6.7L186.1,195.6z"/>
		<path class="st2" d="M190.6,196.9c0,0-2.5,7.1-0.8,9.8c1.7,2.7,8.2,12.1,21.8,13.3c13.6,1.3,13.4-0.2,13.6-1
			c0.2-0.8-7.4-8.6-11.6-10.3c-4.2-1.7-8-2.2-8.2-3.9c-0.2-1.7,5.2-6,6.7-6.1c1.5-0.1,4.6-2,2.4-3.8
			C212.1,193.1,193.5,191.1,190.6,196.9z"/>
		<path class="st2" d="M205.4,204.8c0,0,9.2,5.7,13.8,3.5c4.5-2.2,10.6-3.2,9.1-6.7c-1.5-3.5-11.1-4.9-14.8-3.3
			C209.6,200,204.5,202,205.4,204.8z"/>
		<path class="st2" d="M245,219c0,0-9.4,3.1-13.3,1.5c-3.9-1.6-12.6-12.1-12.6-12.1s7.9-2.7,9.3-3.5C229.9,204,242.3,216.4,245,219z
			"/>
		<path class="st2" d="M197.1,229.3c0,0-1.8-4.4,0-6c1.8-1.6,12.3-3.6,22-2.3c9.7,1.3,20.1-0.1,23-0.4c2.9-0.3,8.1-3.5,8.8,0
			c0.8,3.5,5.8,8.9-12.1,10.1c-17.9,1.3-22,0-22,0S201,228.1,197.1,229.3z"/>
		<path class="st2" d="M334.6,254.1c0,0,17,5,20.9,24.9c3.9,19.9,1,26.8,0,28.1c-1,1.3,1.3,6.7,4.4,4.9c3-1.8,10.7-16.3,8.7-23.7
			c-2-7.4-18.8-33.9-18.8-33.9s-6.9-11.7-15.3-12.2L334.6,254.1z"/>
		<path class="st2" d="M252.1,218.2c0,0,13.3-3.3,16.9-3.3c3.5,0-1.5-10.1-6.5-9.6c-5,0.5-13.3,1.8-15.9,3.5
			C244,210.7,250.1,218.7,252.1,218.2z"/>
		<path class="st2" d="M242.1,197.7c0,0,21.9-5.8,26.9,17.3c0.7,3.3,11.1,12.3,11.1,12.3s5.6-6.2,0-18.3
			c-5.6-12.1-19.4-18.6-27.9-18.4c-8.5,0.3-11.6-2.2-18.6-1.8C230.1,189,241.1,186.6,242.1,197.7z"/>
		<path class="st2" d="M258,218.3l11.6-3.5c0,0,11.6,15.5,13.4,15.5c1.9,0-17.5,0-17.5,0S259.2,220.8,258,218.3z"/>
		<path class="st2" d="M226.8,230.3c0,0,23.3-0.5,23.2-2c-0.1-1.5,0.1,2.2,12.7,1.3c12.6-0.8,18.9,1.4,21.6,0.7
			c2.8-0.8,1.5,0.2,1.5,0.2s-0.3,10.6,2.4,11.4c2.7,0.8-18.5,0.7-23.5,0c-5-0.7-10.7-3.3-14.1-4.6
			C247.2,236.1,226.8,230.3,226.8,230.3z"/>
		<path class="st2" d="M309.7,259.4c0,0,3.3-10.3,0-13.7c-3.3-3.4-13.6-10.6-12.3-11.9c1.3-1.3,9.9-0.9,11.2-0.9c1.3,0,4.9,1,5.2,0
			c0.3-1.1-11.6-11-14.2-10.9c-2.6,0.1-9.3-0.8-11.3,2c-2,2.8-4.6,16.9,3.8,22.9C300.4,252.8,309.7,259.4,309.7,259.4z"/>
		<path class="st2" d="M308.5,244.5c0,0,10.5-0.2,11.8,0c1.3,0.2-3.1-11.3-6.5-11.7c-3.4-0.5-15.1,1.2-15.1,1.2L308.5,244.5z"/>
		<path class="st2" d="M283.2,218.3c0,0,16.2,0.2,26.4,9c10.2,8.8,12.7,13.8,12.5,17.2c-0.3,3.4,0.3,14.5,2.5,16
			c2.3,1.5,9.8-2,9.9-8.3c0.1-6.3,2.2-15.5-14-27.3c-16.2-11.9-25.8-20.4-41.4-17.8L283.2,218.3z"/>
		<path class="st2" d="M274.5,242.4l13.6-0.3c0,0,12.6,15.1,21.5,19.4c8.9,4.4,16.8,7.4,19.3,7.5c2.5,0.2-4.4,5.7-1.3,11.6
			c3,5.9-13.9-4.3-20.6-8.1c-6.7-3.8-22.1-15.4-25.3-20.8C278.4,246.5,274.5,242.4,274.5,242.4z"/>
		<path class="st2" d="M309.7,245.7c0,0,12.3-1.2,12.3,0c0,1.2,0.6,21.8,2.9,22.5c2.2,0.7-12.3-5.1-13.8-5.8
			C309.6,261.6,310.1,248.4,309.7,245.7z"/>
		<path class="st2" d="M328.5,282.5c0,0,15.7,27.8,27.5,34.4c3,1.7-6,10.1-7.7,8.7c-1.7-1.3-10.1-8.3-14.9-13.9
			c-4.9-5.6-15.6-24-16-27.7c-0.3-3.7-1.9-6.3,1.7-4.6C322.8,281.2,326.2,284.5,328.5,282.5z"/>
		<path class="st2" d="M341.4,302.1c0,0,4.2-8.6,2.4-15.3c-1.8-6.7-4.5-11.9-1-11.7c3.5,0.2,9.2,0.4,10.2,2.2c1,1.8,2.6,2.2,2.6,2.2
			s-7.3-20.2-14.5-18.6c-7.2,1.6-10.7,4.8-11.7,8c-1,3.1-4,13.2,6,24.9C345.4,305.4,341.4,302.1,341.4,302.1z"/>
		<path class="st2" d="M343.9,287.5c0,0,9.6,7,12.7,7.2c3.1,0.2,1.1-12.9-2-15.7c-3.1-2.8-7-4.5-10.6-3.9
			c-3.7,0.6-0.2,11.7-0.2,11.7"/>
		<path class="st2" d="M344.1,288.7c0,0,10.2,6.5,12.5,6c2.3-0.5-1.1,19.2-2.4,19.6c-1.4,0.4-12.1-10.8-11.9-12.8
			C342.5,299.5,344.1,288.7,344.1,288.7z"/>
		<path class="st2" d="M379.2,324.8c-1-5.4-13.1-22.5-13.1-22.5c1.9-0.9,2.9-10.8,2.9-10.8c7.2,2.4,9.9,12.4,17.6,35.9
			c0,0,0.8,8.3,0.8,13.9c0,2.8-1.8-5.9-7.2-6.1C377.3,335.1,379.2,324.8,379.2,324.8z"/>
		<path class="st2" d="M357.4,354.7c0,0-5.9-19-4.9-25.3c0.9-6.4,7.3-18.5,12.8-17.1c5.5,1.5,8.1-0.5,11,6
			c2.9,6.5,4.6,13.8,3.3,17.3c-1.4,3.5-7.3-9.8-10.6-7.2c-3.3,2.5-3,13.4-5.6,19.1C360.7,353.2,357.4,354.7,357.4,354.7z"/>
		<path class="st2" d="M363,350c0,0-6.5,5.6,3.2,11.3c3.2,1.9,13.9-19.9,11.9-24.5c-1.9-4.5-6.4-8.9-7.8-8.7
			C368.9,328.4,363,350,363,350z"/>
		<path class="st2" d="M375.1,350"/>
		<path class="st2" d="M18,392.5c0,0-9.1-17.1-3.4-27.2c5.6-10,12.6-17.5,14.4-20.8c1.8-3.3-6.8-4.9-6.8-4.9l-4.8,8.1
			c0,0-7.3,2.5-7.8,5.3c-0.5,2.8-7,6.5-7,17.3c0,10.8,4.5,29,6.1,30C10.4,401.3,11.6,392.4,18,392.5z"/>
		<path class="st2" d="M47.2,388.2c0,0,2.9-17.6,2.4-23.1c-0.5-5.5,6.3-10.6-6.3-28.7c-1.5-2.1,0.9,5-6.8,6.5c-7.6,1.6,4.1,2,4.1,11
			c0,9,1.4,10.9,0.3,16c-1.2,5.1-2.7,4.8-2.7,4.8S44.3,380.6,47.2,388.2z"/>
		<line class="st2" x1="225.7" y1="470.1" x2="238.7" y2="508.6"/>
		<line class="st2" x1="242.7" y1="461" x2="263.8" y2="498.2"/>
		<line class="st2" x1="240.7" y1="480.3" x2="266.2" y2="479.6"/>
		<polyline class="st2" points="202.9,472.8 216.5,485.8 205.1,498.7 		"/>
		<polyline class="st2" points="202.9,483.9 190.8,499.4 202.9,513.1 		"/>
		<polyline class="st2" points="181,500.9 165.2,508.6 174.6,468.9 163.2,477.4 		"/>
		<polyline class="st2" points="143.9,455 143.9,464.3 159.2,462.9 139.7,500.9 136,485.7 121.6,489.4 		"/>
		<line class="st3" x1="132.9" y1="445.4" x2="104.7" y2="475"/>
		<polyline class="st3" points="94.1,462.9 115.4,463.8 114.3,483.9 		"/>
		<polyline class="st2" points="119.8,429.2 99.2,431.7 109.5,447.9 83.8,449.9 		"/>
		<polyline class="st2" points="89.4,426 71,421 84.8,405.5 		"/>
		<line class="st2" x1="110.3" y1="408.9" x2="74.5" y2="420.4"/>
		<polyline class="st2" points="107.3,392.5 62.4,393.5 74.5,373.9 86.3,390.8 98.2,375.2 104.8,390.3 		"/>
		<polyline class="st2" points="104.8,368 62.4,359.6 80.8,350.2 68.4,333.5 110.3,346.6 		"/>
		<polyline class="st4" points="113.9,339.6 74.5,318.7 110.3,314 89.4,297.9 99.1,329.7 		"/>
		<line class="st2" x1="124.3" y1="322.1" x2="89.4" y2="297.9"/>
		<polyline class="st4" points="130.3,314.2 98.9,285.3 118.7,289.5 		"/>
		<polygon class="st2" points="128.6,272.9 128.6,288.8 144.4,293.1 144.4,277 		"/>
		<polygon class="st5" points="142.8,252.4 160.9,295 168.5,243.8 182.8,288.1 		"/>
		<polyline class="st2" points="189.2,287.2 208.8,256.6 198.1,242.2 189.2,257 208.8,285.3 		"/>
		<line class="st2" x1="216.8" y1="286.7" x2="226.8" y2="243.8"/>
		<line class="st2" x1="222.8" y1="260.9" x2="238.3" y2="247.4"/>
		<line class="st2" x1="219.9" y1="273.7" x2="249.1" y2="251.9"/>
		<polyline class="st2" points="238.3,293.1 257.6,255.1 264.2,283 253.8,301.1 		"/>
		<line class="st2" x1="261.2" y1="308.6" x2="289.4" y2="277"/>
		<polyline class="st2" points="282.7,285.6 284.3,305.4 268,301.9 		"/>
		<polyline class="st2" points="276.2,326.2 312.1,301.1 308.2,324.3 		"/>
		<line class="st2" x1="298.1" y1="310.9" x2="296.8" y2="327.5"/>
		<polyline class="st2" points="286.5,347.9 328.2,330 320.2,354.9 303.6,341.9 291.7,365.5 		"/>
		<polyline class="st2" points="290.7,386 314.3,369.2 336.8,386 		"/>
		<line class="st3" x1="290.7" y1="391.2" x2="327.1" y2="427.9"/>
		<line class="st3" x1="283.2" y1="414.7" x2="333.7" y2="403.6"/>
		<polyline class="st4" points="280.3,420.8 301.1,432 321.2,442.6 301.1,452.5 300.7,434 300.7,432.9 		"/>
		<line class="st2" x1="255.6" y1="452.1" x2="286.8" y2="481.9"/>
		<line class="st2" x1="269.5" y1="438.5" x2="302.2" y2="468.1"/>
		<line class="st2" x1="267.1" y1="463.1" x2="292.1" y2="459"/>
		<path class="st3" d="M214.2,403.6c0,0-4,12.4-2.3,21.2c1.8,8.8,6.1,30.4,20.3,25.2c14.2-5.3,28.6-17.4,31.6-24.9
			c3-7.5,1.2-3-1.5-4.5c-2.8-1.5-11.3-7.1-13.6-11.7c-2.3-4.6,1.6-4.7-6-5.1c-7.6-0.5-11.6-2.5-14.4-3.7c-2.8-1.3-3.8-4.3-10.1,0
			C211.9,404.1,214.2,403.6,214.2,403.6z"/>
		<path class="st3" d="M138.7,427.6c0,0,11.6,12.6,19.8,16.6c8.2,4,24.5,6.5,26-3.5c1.5-10.1,0-31.5,0-34.1c0-2.5-8.1-9.1-12.4-9
			c-4.4,0.1-12.9-0.4-15.9,5.3c-3,5.7-1,7.7-3.7,11.7C149.8,418.7,134.8,425.7,138.7,427.6z"/>
		<path class="st3" d="M125.1,403.8c0,0,4,14.4,6.9,14.1c2.9-0.3,10.7-4,10.6-9c-0.2-4.9-4.4-5.1-8.1-5.1
			C130.8,403.8,124.7,402.3,125.1,403.8z"/>
		<path class="st3" d="M276.9,401.1c0,0-3.4,10.2-4.9,10.4c-1.5,0.2-16.3-4.7-16.6-8.4c-0.3-3.7,2.9-4.3,2-5.5
			c-0.8-1.2-1.7-5.9-7.4-5.8c-5.7,0.2-15.6,1.3-18.6-2c-3-3.4-3.9-8.9,1-8.9c4.9,0,15.6,3.7,18.3,5c2.7,1.3,4.4,4.7,7.4,6.9
			c3,2.2,7.9,4.5,11.4,6C273.1,400.4,276.9,401.1,276.9,401.1z"/>
		<path class="st3" d="M278.9,376.9c0,0,0.5,13.8-0.7,15.4c-1.2,1.7-10.4-0.8-12.2-2.7c-1.8-1.8-6.2-5.4-2.2-8.7
			c4-3.4,3.7-4.2,7.7-4C275.6,377.1,278.9,376.9,278.9,376.9z"/>
		<path class="st3" d="M123.2,388v7.5c0,0,18.4,3.8,21.8,0c3.4-3.8,7.3-6,10.9-6.7c3.6-0.6,8-8.3,5.7-9.7c-2.3-1.4-7.3-3.4-10.8,1.5
			c-3.5,4.9-7.3,7.8-10.7,8.1c-3.4,0.2-13.7-1.4-13.7-1.4S123.2,386.9,123.2,388z"/>
		<path class="st3" d="M122.5,364.6v16.1c0,0,16.6,1.5,18.6-1.5c2-3,3.3-5.8-1-7.5c-4.3-1.8-5-4-8.2-5.2c-3.1-1.1-5.9-1.3-7.7-1.3
			C122.5,365.2,122.5,364.6,122.5,364.6z"/>
		<path class="st3" d="M128.4,349.6c0,0-3.3,5.7-3.3,7c0,1.4,6.9,0.9,8.6,1.4c1.6,0.5,6.7,6.4,9.1,6.5c2.4,0.1,10.8-1.5,14,0
			c3.1,1.5,5.9,5.4,8.2,4.5c2.3-0.9,4.8-6.8,6.8-5.3c2,1.5,3.4,2.1,4,5.4c0.6,3.3-0.9,10.8,1,12.6c1.9,1.8,9.2,2.8,10.1-3.4
			c0.9-6.2-0.1-7.1-6.8-12c-6.7-5-7.8-8.2-11.8-8.2c-4,0-13.2-0.4-16.5-2.1c-3.3-1.8-6.2-2.4-12.5-2.9c-6.3-0.5-7.3-2.1-7.9-2.4
			C130.6,350.5,128.1,348.5,128.4,349.6z"/>
		<path class="st3" d="M137.9,333c0,0-8.9,8.7-6.7,10.3c2.3,1.6,11.6,4.9,11.7,1.6C143,341.7,142,333.6,137.9,333z"/>
		<path class="st3" d="M150.7,320.8c0,0-9,4.8-6.9,6.6c2.1,1.8,6.4,4.9,8.1,8.6c1.7,3.6,2,10.9,5.9,11.7c3.9,0.8,10.3-0.7,9.3-5.6
			c-1-4.9-8.1-14.8-9.8-15.9C155.6,325.3,150.7,320.8,150.7,320.8z"/>
		<path class="st3" d="M275.5,355.4c0,0,3.8,9,3.5,11.6c-0.3,2.6-2,1.8-4.6,1.8c-2.5-0.1-9.9-0.5-12.8,1.3c-2.9,1.8-5.3,4.1-7.8,4.5
			c-2.5,0.4-11.9-2-10.4-6.1c1.5-4.1,2.8-4.1,5.3-4.1s10.2,1,14.4-1.2C267.4,361.1,273.1,355.9,275.5,355.4z"/>
		<path class="st3" d="M217.5,362c0,0-11.2,3.9-11.4,9.7c-0.2,5.9,0,12.4,11.4,3.9c11.4-8.6,6-5.4,10.2-6.4c4.2-1,4.5-4.5,5.7-10.4
			c1.2-5.9,0.8-9.2,6-8.6c5.2,0.7,1.8,6,9.9,6.5c8.1,0.5,17.1-4.2,19.1-5.9c2-1.7,4-5.4,3-6.9c-1-1.5-4-2-6.2-0.8
			c-2.2,1.2-7.9,5.8-10.4,6.1c-2.5,0.3-9.6,0-14.9-1.5c-5.4-1.5-7.8-0.7-11,3.7C225.8,355.8,220.4,360.8,217.5,362z"/>
		<path class="st3" d="M258.5,327.5c0,0,5.8,5,5.8,6.7c0,1.6-3.9,4.3-5.8,5.8c-1.9,1.5-8.9,3.9-9.6,1.4c-0.6-2.5-2.1-6.8,2.9-9.6
			C256.8,329,257,329.4,258.5,327.5z"/>
		<path class="st3" d="M245.9,314.5c0,0,5.9,4.7,5.8,6.3c-0.1,1.6-8.3,8.2-10.3,10.3c-2,2.1-3.5,4-3.8,5.2c-0.3,1.1-0.9,2.6-2.1,1.1
			c-1.3-1.5-4.2-6.9-2.4-8.9C234.8,326.5,245.9,314.5,245.9,314.5z"/>
		<path class="st3" d="M167.1,309.1c0,0-9.8,4-9.8,7.5c0,3.4,8.3,9.2,9.8,11.2c1.6,1.9,5.5,4.6,6.2,7.8c0.7,3.2,3.2,11.3,4.6,13.4
			c1.4,2.1,13.4,5.3,13.2-2.9c-0.3-8.2-4.4-12.5-5.9-14.5c-1.5-2-10.1-6.4-11-10.2C173.3,317.4,168.3,308.6,167.1,309.1z"/>
		<path class="st3" d="M187.7,301.1c0,0-9.7,0-10.1,4.2c-0.3,4.3,3.5,13.2,5.9,15.4c2.4,2.3,7.1,4.8,7.6,1.3
			c0.6-3.5,1.3-10.6,0.8-13C191.4,306.6,193.9,302,187.7,301.1z"/>
		<path class="st3" d="M203.4,299.8c0,0-5.9-2-4.4,4.2c1.4,6.2,2.6,14.4,2.1,18.1c-0.5,3.7,4,7.8,5.9,4.2c1.8-3.5,0-12,0-13.8
			c0-1.8-1.8-12.2-1.8-12.7C205.1,299.2,206.3,300,203.4,299.8z"/>
		<path class="st3" d="M214.7,304.3c0,0-1.7,6.1,0,8.2c1.7,2,2.8,3.4,4,1.7c1.2-1.7,5-5.7,4.2-7.5c-0.8-1.8-2.7-2.3-3.2-2.3
			C219.2,304.3,217.2,303.1,214.7,304.3z"/>
		<path class="st3" d="M230.8,307.6c0,0,9.6,3.3,7.6,4.8c-2,1.5-15,16.3-15.3,17.5c-0.3,1.2-2.3,7.9-3.1,9.7c-0.8,1.8-2.2,9-4.9,9.6
			c-2.7,0.6-7.9,4.6-8.9,2c-1-2.6-1.9-9.3,0-11.6c1.9-2.4,6.3-7.5,12.4-13.4c6.1-5.9,8.1-9.5,9.6-13.8
			C229.6,308.1,228.3,306.7,230.8,307.6z"/>
		<path class="st2" d="M30.6,361.3c0,0-4.5-2.5-8.5-6.2c-1.2-1.1-5.2,3.5-4.8,5.6c0.4,2,1.2,3.7,2.9,5.5c1.7,1.8,6.6,7.6,7.8,2.6
			C29.1,363.9,29.2,363.2,30.6,361.3z"/>
	</g>
	<text transform="matrix(1 0 0 1 143.3775 101.9465)" class="st6 st7 st8">h</text>
</g>
<g id="Layer_2" class="st9">
	<path class="st10" d="M104.9,325.9c0-8.4,6.8-15.3,15.3-15.3"/>
	<path class="st10" d="M129.6,350.6c-13.7,0-24.7-11.1-24.7-24.7"/>
	<path class="st10" d="M129.6,350.6c22.1,0.1,40.1-17.7,40.2-39.8"/>
	<path class="st10" d="M169.8,310.6c0.1-35.7-28.8-64.8-64.5-64.9"/>
	<path class="st10" d="M105.3,245.7c-57.8,0-104.7,46.9-104.7,104.7"/>
	<path class="st10" d="M169.8,520C76.2,520,0.4,444.2,0.4,350.6"/>
	<rect x="0.4" y="245.7" class="st10" width="169.4" height="274.3"/>
	<rect x="0.6" y="245.7" class="st10" width="169.2" height="104.7"/>
	<rect x="104.9" y="245.7" class="st10" width="64.9" height="104.9"/>
	<rect x="104.9" y="310.8" class="st10" width="64.9" height="39.8"/>
	<rect x="104.9" y="310.8" class="st10" width="24.7" height="39.8"/>
	<rect x="105.3" y="310.8" class="st10" width="24.3" height="19.6"/>
	<rect x="120.1" y="310.6" class="st10" width="9.4" height="19.8"/>
</g>
</svg>
