<?xml version="1.0" encoding="utf-8"?>
<!-- Generator: Adobe Illustrator 22.1.0, SVG Export Plug-In . SVG Version: 6.00 Build 0)  -->
<svg version="1.1" id="Layer_1" xmlns="http://www.w3.org/2000/svg" xmlns:xlink="http://www.w3.org/1999/xlink" x="0px" y="0px"
	 viewBox="0 0 589.9 1229.8" style="enable-background:new 0 0 589.9 1229.8;" xml:space="preserve">
<style type="text/css">
	.st0{fill:none;stroke:#FFFFFF;stroke-width:0.8504;stroke-miterlimit:10;}
	.st1{fill:none;stroke:#76B72D;stroke-width:0.8504;stroke-miterlimit:10;}
	.st2{fill:none;stroke:#EF7D09;stroke-width:0.8504;stroke-miterlimit:10;}
</style>
<g>
	<g>
		<g>
			<path class="st0" d="M219.9,449.5c0,0-9.9,14,4.8,20.4c14.7,6.4,48.9,15.4,60.1,13c11.2-2.4,19.8-18.4,21.6-34.3
				c1.8-15.8,6.7-29.6,0.7-58.3c-6.1-28.7-25-68.9-25-68.9s-38.4-12-45.4-9.8c-6.9,2.3-9.2,0.6-9.2,0.6"/>
			<path class="st0" d="M191,308.8c0,0-58.4,6.6-62.3,12.9c-3.9,6.3-29.4,67.3-30.7,75c-1.4,7.8-18.4,70.2-2.4,67.8
				c16-2.4,20.4-6.2,20.4-6.2s10.4,1,12.7-0.8c2.3-1.8,20.8-2.3,21-0.8c0.2,1.5,8.3,4.2,10.8,3.8c2.5-0.4,20.3,0.5,20.3,0.5
				s7.7-21.3,7-21.9"/>
			<path class="st0" d="M202.9,83c0,0-8.2-3.8-12.9-4.2c-4.7-0.4-10.7,1.2-12.2,1.7c-1.5,0.4,5,3.7,9.9,4
				C192.6,84.8,201.7,83.3,202.9,83z"/>
			<path class="st0" d="M239.1,87.2c0,0,5.3-1.1,8.2-0.7c2.9,0.4,10.2,3.4,12.7,4.8c2.5,1.4,3.7,4.1,4.3,4.6
				c0.5,0.4-11.4-1-13.2-1.8C249.4,93.3,241.4,90.9,239.1,87.2z"/>
			<path class="st0" d="M195.3,71.2c0,0-13.6-2-16.5-0.3c-2.9,1.6-6.9,4.3-8.1,5.2"/>
			<path class="st0" d="M254.3,79.8c0,0,10.7,4.1,12.3,6c1.6,2,7.1,11,7.1,11"/>
			<path class="st0" d="M276.3,84.5c0,0-5.9-12.9-15.8-16.6c-9.8-3.7-16.2-4.6-16.2-4.6l-3.4,7.3c0,0,10.5,0.2,16.4,1.1
				c5.9,1,9.6,3.9,11.2,5.2c1.6,1.3,6.1,6.5,6.5,7.4C275.5,85.2,276.3,84.5,276.3,84.5z"/>
			<path class="st0" d="M207,58.1l-1.3,6.2c0,0-12.8-3.4-18-3.9c-5.2-0.5-13.4,2.4-15.8,4.3c-2.3,1.9-7.6,6.2-7.6,6.2
				s4.8-5.7,8.7-9.2c4-3.4,9.8-5.2,15.3-6.1C193.9,54.8,204.4,57.3,207,58.1z"/>
			<path class="st0" d="M210.4,103.7c0,0-1-1.2-2.1-1.3c-1.1-0.1-3.3,1.5-3.5,2.6c-0.2,1.1,0.2,2.9,0.7,2.9c0.6,0,1.7-1.1,2.1-1.8
				C208,105.3,210.2,106.1,210.4,103.7z"/>
			<path class="st0" d="M221.3,104.2c0,0-2.2-0.4-2.8,1c-0.6,1.4,0.2,2.5,0.2,2.5s-0.4,1.5,0.2,1.7c0.5,0.2,2.3,1.1,2.7,0.6
				c0.4-0.5,1.7-3.5,1.3-4.4C222.6,104.6,221.3,104.2,221.3,104.2z"/>
			<path class="st0" d="M203.5,100.3c0,0-3.2,1.7-4.1,4.3c-0.9,2.6-0.1,6.9,1.6,7.3"/>
			<path class="st0" d="M227.9,104.6c0,0,1.2,4,1.1,5.9c-0.2,1.9-3.1,4.8-4.6,4.7"/>
			<path class="st0" d="M212.3,93.4c0,0,2.6-0.5,5,0.2c2.4,0.7,4.3,3.8,4.3,3.8"/>
			<path class="st0" d="M187.7,133.8c0,0,6.6-12.1,9.5-14.2c2.9-2.1,10.2-2.5,12.7-2c2.5,0.5,11,1.9,12.6,2.7
				c1.7,0.8,5.7,7.1,6.1,9.3c0.4,2.1,1.1,8.1,1.2,9.3c0.2,1.2-4.2-2.4-4.7-3.1c-0.5-0.6-5.6-6.4-10.2-7.4c-4.6-1-8.7-2.1-9.9-1.5
				c-1.2,0.5-10.5,5-11.6,5.4C192.3,132.8,187.7,133.8,187.7,133.8z"/>
			<path class="st0" d="M188.3,135.4c0,0,12.6,5.6,14,5.9c1.4,0.3,16.3,3.3,19.5,2.8c3.2-0.5,8.5-3.2,8.5-3.2s-4.9-4.4-7.8-4.8
				c-2.9-0.4-5.6-1.2-5.6-1.2s-13.1-3.2-14.5-3.1c-1.4,0-6.2-1-9.5,0.9C189.5,134.4,188.3,135.4,188.3,135.4z"/>
			<path class="st0" d="M282.5,73.2c0.7,2.7,4.4,21.6,4.4,21.6s0,0-1.8,16.3c-1.8,16.3-8.8,32.6-15.2,40.5c-6.4,7.9-18,25.6-25.8,29
				c-7.8,3.5-62.2-6.1-62.2-6.1s-10.7-1.9-16-3.4c-5.2-1.6-10.3-3.9-12.5-14.7c-2.2-10.8-4.4-50.4-3.4-57.2c1-6.8,8.6-39.6,8.6-39.6
				s16.5-19.1,27-25.4c10.6-6.3,10.6-6.3,10.6-6.3"/>
			<path class="st0" d="M262,161.9c0,0-14.8,58.9-10,72.8c4.7,13.9,9.1,25.6,11.3,29.5c2.2,3.9,14.1,12.5,16.1,12.9"/>
			<path class="st0" d="M237.6,287.1c0,0,17.6-6.1,25.6-6.9c7.9-0.9,30-5.6,31.9-6.4"/>
			<path class="st0" d="M194.8,252.1c0,0,7.9,31.4,9.3,34.7"/>
			<path class="st0" d="M152.1,271.3c0,0,26.6,6.6,30.9,9.2"/>
			<path class="st0" d="M279.7,277.3c0,0,26.3-20.1,45.2-30.2c18.9-10.1,73.4-29.3,81.8-34.4c8.4-5.1,76.4-43.3,82.6-46"/>
			<path class="st1" d="M457.5,184c0,0-27.5,0.2-66.1-6.2c-38.6-6.4-71.1-11.1-71.1-11.1"/>
			<path class="st1" d="M319.6,118.5c0,0,59.7,6.3,76.9,6.3c17.2,0,63.3,1.5,79.7,3.2c16.4,1.7,49.7,6.8,53,7.5
				c3.3,0.7,14.2-0.2,17.7,7.8c3.4,8,5.6,18.1,0,30.1c-5.6,12-57.1,75.3-122.3,116.3c-65.2,41-58.6,40.2-62.5,52.7
				c-4,12.5-9.9,30.1-9.9,30.1s-10.8-37.6-42.9-50.5c-32-12.9-61.8-16.4-70.8-16.6c-9-0.2-22.8,2-24.8,1.5c-2.1-0.4-21.7-7-38.9-5
				c-17.2,2-28.1,4.7-28.1,4.7"/>
			<path class="st0" d="M329.9,335.4c0,0,4.8-18.3,10.4-26.1c5.6-7.8,13.9-16.8,14.9-25.2c0.9-8.4,5.6-16,5.6-16"/>
			<path class="st0" d="M367.5,324.6c0,0,12.7-29.1,15.5-31.9"/>
			<path class="st0" d="M352.1,372.4c0,0,3.4,11.9-6.4,21.4c-9.8,9.5-35.6,17.7-35.6,17.7"/>
			<path class="st0" d="M11.1,286.8c0,0-5,27.3-4.4,40.3c0.6,13-0.6,26.5-3.1,42.3c-2.5,15.8-3.7,73.1-2.2,77.8
				c1.6,4.6,21.3,28.7,38.1,18.5c16.8-10.1,37-44,51.8-72.8c14.8-28.9,44.5-94.7,52.1-106c7.6-11.3,8.1-13.3,8.1-13.3
				s3.3-4.8,7.2-5.8c3.9-0.9,18.9-4.8,24.1-9.5c5.2-4.7,13.1-9,12.7-10.3"/>
			<path class="st0" d="M197.1,241.3c0,0-2,7.9-0.2,10c1.8,2,3.9-11.4,3.9-11.4S197.5,239.6,197.1,241.3z"/>
			<path class="st0" d="M200.8,239.8c0,0,2.2-2.2,3.4-6.9c1.2-4.8,1.4-12.6,1.8-13c0.4-0.4-0.1-2.1-1.6-4.5
				c-1.6-2.4-1.9-5.9-6.9-6.7c-5-0.8-20.2-4.4-20.2-4.4s-4.8-1.5-7.5,1.1c-2.7,2.6-8.8,7.4-8.8,7.4"/>
			<path class="st0" d="M220.1,246.2l3.7,9.2c0,0,1.4-5,1.3-10.4c-0.1-5.3-0.1-5.3-0.1-5.3l-2.4-0.2c0,0-2.9,4.5-2.4,7.5
				c0.2,1.3-5.1-10.6-5.7-13c-0.6-2.4-0.2-6.3-1-6.8c-0.7-0.4-7.2-11.4-7.2-11.4"/>
			<path class="st0" d="M224.9,239.7c0,0-0.8-8.4-1.6-12.8c-0.8-4.4-6.9-20.4-7.8-21.9c-1-1.5-9.3-5.5-10.2-5.7
				c-0.9-0.2-11.6-0.9-11.6-0.9s-8.3,0.2-9.5,0.5"/>
			<path class="st0" d="M193.7,198.4c0,0,12.1-2.2,14.5-3.5c2.4-1.3,11.5,1.2,13.5,1.6c2,0.4,6.2,2.6,8.1,2.9
				c1.9,0.2,6.4,5.3,6.4,5.3s4.6,4.2,6.8,4.4c2.2,0.2,6.2,0.5,6.2,0.5"/>
			<path class="st0" d="M242.5,205c0,0,7.6,4.5,10.5,4.6c2.9,0.1-6.7-5.8-6.7-5.8L242.5,205z"/>
			<path class="st0" d="M245.6,203.7c0,0-5.7-9.6-8.2-11.1c-2.5-1.5-13.7-7.5-15.9-7.9c-2.2-0.5-13.4-3.7-17.3-2.6
				c-3.9,1.1-33.3,7.8-33.3,7.8s-5.8,3.2-8,6.6c-2.2,3.4-13.7,18.8-14.6,21.2c-0.8,2.4-16.9,20.9-16.9,20.9s-17.7,23.2-19.1,25.6
				C111,266.3,89.1,293,73,312.2c-16.1,19.2-53.7,54.6-55.2,58.5c-1.5,3.9-6.3,11.2-6.3,11.2"/>
			<line class="st0" x1="69.1" y1="303.4" x2="65.3" y2="320.9"/>
			<path class="st0" d="M143.4,266.8c0,0,11.6-1.9,18.7-10c7.1-8.1,10.4-20.3,11-22.9c0.5-2.6,2.4-15.1,2.4-15.1s12.3,2.7,15.6,1.7
				c3.3-0.9,1.2-0.9,1.2-0.9s2.6,5.2,3.9,6c1.3,0.8,1-0.8,1-0.8s-1.5,2.3-2.2,6.6c-0.8,4.3,0.6,9.2,1.1,10.4"/>
			<path class="st0" d="M202.9,239.3c0,0,11.1-7.7,11.1-7.9"/>
			<path class="st0" d="M224.1,226.4c0,0,13.4-7.7,14.1-10.9c0.7-3.2-1.5-5-2.3-5.2c-0.8-0.2-8.2-1.4-10.4-0.4
				c-2.1,1-6.7,3.3-6.7,3.3"/>
			<polyline class="st0" points="238.3,215 244.3,209.4 235.6,209.4 			"/>
			<path class="st0" d="M170.3,189.4c0,0,18.1-22.8,25.1-35.4c7-12.7,10.9-19.9,11.4-19.8c0.5,0.1,4.5,1,4.5,1l3-4.3
				c0,0,3.6,2,2.4,7.4c-1.2,5.4-8,18.5-8.4,20.3c-0.4,1.8-8.4,20.4-9,21.9c-0.6,1.5-1.4,3.1-1.4,3.1L170.3,189.4z"/>
			<path class="st0" d="M211.2,135.1c0,0,2.3-3.3,3-4.3c0.7-1,0-15.8-0.6-12.5c-0.6,3.3-6.9,15.9-6.9,15.9L211.2,135.1z"/>
			<path class="st0" d="M149.2,102.1c0,0-9.5,23.8-9.9,31c-0.5,7.2-0.1,13.5,2.4,13.8c2.5,0.3,10-5.1,9.8-6.5
				C151.4,139,149.2,102.1,149.2,102.1z"/>
			<path class="st0" d="M286.1,101.7c0,0,0.1,43.8-1.1,47.7c-1.3,3.9-9.5,17.3-11.7,18.6c-2.2,1.2-10.2-2.5-10.7-4.2
				c-0.5-1.8,12.1-16.3,12.8-20.8C276.1,138.5,285.7,113.1,286.1,101.7z"/>
			<path class="st1" d="M191.3,346.1c0,0-6.5-1.4-6-6.9c0.5-5.5,0.8-5.8,3-6.5c2.2-0.7,5,2.7,5.4,3.6c0.5,0.8,1.2,5.3,0.8,6
				C194.3,343.1,193.4,346.1,191.3,346.1z"/>
			<path class="st1" d="M188.1,334.7c0,0-1.3,1.8-1.1,5c0.2,3.2,2,3.6,2.4,3.9c0.5,0.3,2.4,1,3,0c0.6-1,0.4-4.5,0.3-5.1
				c-0.2-0.6-1.1-2.7-2-3.2C189.7,334.8,188.5,334.5,188.1,334.7z"/>
			<path class="st1" d="M203.9,312.5c0,0-13-5.7-12.8-1.3c0.2,4.4-4.5,20.9-4.5,20.9s-3.5,3.6-5.2,5.4c-1.7,1.8-8,10-9.1,14.6
				c-1.2,4.6-1.3,18.8-1.3,18.8c0.7,3,8.3-4.7,8.3-4.7s2.7-8.8,2.6-12c-0.1-3.2,9.5-8,9.5-8s2.2-3.8,2.4-5.5c0.3-1.7,0.7-9,0.7-9
				s3.7-0.5,3.5-2c-0.2-1.5-3-10.7-1-13.7c2-3,6.2-3.5,6.2-3.5l0.5-0.2"/>
			<path class="st1" d="M170.9,370.9c0,0-2.6,13.6-4.1,18.8c-1.4,5.2-2.3,9.2,0,15.2c2.3,6,5.9,12.9,6,14.2c0,1.3,0.1,0.7,3.2,0.7
				c3.1,0,9-1.9,9.3-3.2c0.3-1.2,5.9-16.7,5.9-17c0.1-0.4,3.4-5.5,4.5-7.2c0,0-0.1-5.5-1.6-7.4c-1.5-1.9-8.7-2.2-10.1-6.7
				c-1.4-4.5-4.8-12-4.8-12S174.2,372,170.9,370.9z"/>
			<path class="st1" d="M193.6,333.6l3.5-2.6c0,0-0.1-8.7-0.1-12.9c0-4.2,1-3.7,2.1-5.2c1.1-1.6,6-0.1,6-0.1l0.2,13.9l3.7-0.8
				l7.7-2.5c0,0,4.8-8.6,5.5-11.2c0.7-2.5,7.6,1.6,7.6,1.6l-7.6,13c0,0,0.4-1.8,1.8-5.4c1.4-3.6,6.5-6,7.4-4.9c0.9,1.2-1,3.1-1,3.1
				s0.7,0.2,10.6,2.3c9.9,2.1,6.3,12.8,4.6,17.6c-1.7,4.8-9.1,0.3-10.9-0.4c-1.8-0.7-13.9,1.5-22,6.5c-8.2,5-9.1,16.7-9.1,18.8
				c0,2-0.8,16.5-1.9,21.7c-1.1,5.2-6.1,2.9-6.1,2.9s-2.8-4.1-7.1-7.5c-4.3-3.4-9.1-15.4-9.1-15.4s2.8-11.6,3.3-12.6
				c0.5-1,11.5-10,11.5-10l-0.3-9.5"/>
			<path class="st1" d="M201.5,386.2c0,0,3,5.4,7.7,6c4.7,0.6,21.9-4.4,22.4-8.2c0.5-3.8-2.1-21.8-1.3-23.9c0.8-2.1,8-4.3,9.9-5.4
				c1.9-1.1,7.8-6.1,7.7-7.3c-0.1-1.2-2.5-5.9-2.5-5.9s-5.1,1.2-8-0.6c-2.9-1.8-11,0-14.7,1c-3.7,1-16.7,7-16.7,9.2
				c0,2.2-4,26.2-3.5,27.7C203,380.3,201.5,386.2,201.5,386.2z"/>
			<path class="st1" d="M230.3,364c0,0,17.1,13,19.6,17.5c2.6,4.4,9.7,26.9,8.5,47.3c-1.2,20.4-18.6,22.1-46.6,20.3
				c-28-1.8-37.2-28.9-37.2-28.9s8,0,9.6-2.6c1.6-2.6,6.5-17.3,7.5-19c1-1.6,3.9-7.2,3.8-8.3c-0.1-1.2,3.4-0.8,3.4-0.8
				s1.3-1.5,5.8,0.6c4.5,2.1,13.5,1,16.7-0.1c3.1-1.1,10.6-2.6,10.3-7.9c-0.3-5.2-1-12.7-1-12.7L230.3,364z"/>
			<path class="st0" d="M217.8,321.3l2.3-10.8c0,0-11.6-1.5-13.3,0.4c-1.7,1.9-1.5,15.8-1.5,15.8"/>
			<path class="st0" d="M220.1,310.5c0,0,45.1,4.8,56,7.9c10.9,3.1,41.1,14.3,41.1,14.3s-22.1-12.7-25.3-14.1
				c-3.3-1.3-52.7-11.4-52.7-11.4S219,306.5,220.1,310.5z"/>
			<path class="st0" d="M210,309.5c0,0-0.4-2.9-9.5-3.2c-9.1-0.3-33.6-0.2-37.9,1.5c-4.2,1.7-25.6,6.7-29.5,6.5
				c-3.8-0.1-2.4,5.7-2.4,5.7l28.8-6.9l37.1-4.8C196.7,308.4,206.4,312.2,210,309.5z"/>
			<path class="st0" d="M339.6,357.6c0,0-1.6,23.7-10,31.3c-8.4,7.6-20.7,11.8-20.7,11.8l2.3,6c0,0,18.5-4.9,25.8-16.1
				c7.3-11.3,6-28,6-28l-1.6-4.5L339.6,357.6z"/>
			<path class="st0" d="M271.2,168.2c0,0-12.4,40.7-12.6,44.3c-0.1,3.7-3.6,27.8-3.6,27.8l0.1,4c0,0-6.8-15.9-3-33.2
				c3.8-17.3,4.7-30.6,6.2-34c1.5-3.4,4.4-15,4.4-15S265.7,169.3,271.2,168.2z"/>
			<path class="st1" d="M140.2,54.1c0,0,23-42,38-47s54-14,74,4s28,29,39,55s1.3,17.1,12.6,30.7c1.2,1.4,2.5,8,4,9.2
				c1.5,1.2,6.8,3.9,7.3,4.4c0.5,0.5,3.7,8.6,3.9,8.8c0,0-0.5-15.2,4-18.2c4.5-3,7.9,6.8,7.9,6.8s-0.9-0.4,4.4,2.1
				c5.3,2.5,9.5,12.6,9.3,15.8c-0.2,3.2-3.1,9.2-4,11.2c-0.9,2.1-0.4,8-0.2,10.1c0.2,2.1,8,2.4,9.3,1.7c1.3-0.7,9.4-0.2,12.3,1.4
				c2.9,1.6,3.6,9.3,3,13c-0.6,3.7-4.6,7.9-5.7,7.5c-1.1-0.3-4.7,11.9-7.5,14.7c-2.8,2.9-9.4,5.9-9,7c0.4,1.1-3.6,12.8-6,19.1
				c-2.4,6.2-6.3,10.3-6.3,10.3s-8,7.3-9.6,8.4c-1.5,1.1-5.5,13.3-6.1,17.1c-0.6,3.7-7.1,10.1-10,8.6c-2.9-1.5,2.9-5.4,4.7-8.1
				c1.9-2.7,5.8-14,5.8-14s-7.3,10.9-11.1,14.6c-3.8,3.7-11.5,5.7-11.5,5.7s1.9,3,5.3,6.5c3.3,3.5-5.8,2.7-5.8,2.7s-2.3-7.8-3-9.9
				c-0.6-2.1-4.4,0.3-4.4,0.3s4.9,9.9,6.3,11.6c1.3,1.7-1.2,2.4-3.6,3.7c-2.4,1.3-5.5-2.3-5.6-4.1c-0.1-1.7,2.8-0.9,1.9-1.8
				c-0.8-0.9-0.2-9.2-4.1-9.2c-3.9,0-8.6-10-8.9-6.4c-0.3,3.6,10.2,28.7,10.2,28.7s-9.3-3.9-16.4-10.1c-7.1-6.2-9.4-21.9-9.4-21.9
				s2.3-21.8,3-27.4c0.7-5.6,13-48.7,13-48.7s0,0,3.3-1.4c3.3-1.4,10.5-17.4,11.2-27.9c0.8-10.4,1.2-43.3,1.2-43.3"/>
			<path class="st0" d="M335.1,149.1c0,0-4,10.3,2.7,10.4c6.7,0.2,11.7-1.2,14.3,1c2.6,2.2,2.4,7.5,3.7,7.7c1.3,0.2,5.7-2,5.7-6.1
				c-0.1-4.1-1.1-9.1-6-9.4c-4.9-0.3-8.2,3.7-11.1,2.2c-2.9-1.5-6.2-1.9-7.7-3.8C335.1,149.1,335.1,149.1,335.1,149.1z"/>
			<path class="st1" d="M332.8,144c0,0-2.4-6.7-6.5-10.1c-4.1-3.5-4.6-3.4-4.6-3.4s3.4,7.3,4.6,9C327.4,141.2,330.5,144,332.8,144z"
				/>
			<path class="st1" d="M335.4,131.8c0,0,2-6.7-0.6-9.3c-2.6-2.6-7-4.2-6.7-5.6c0.3-1.4-0.2-3.4-0.8-6.2c-0.5-2.8-2.8-5.9-2.8-5.9
				s-7.8,3.8-6.8,8.4c1,4.6,3.7,9.7,8.6,12.7C331.2,128.8,335.4,131.8,335.4,131.8z"/>
			<path class="st0" d="M333.6,164.7c0,0,4.9,11.7,6.3,15.6c1.4,3.9,1.7,5.8,1.7,5.8s9.9-5,10.4-10.2c0.5-5.2-1.7-5.5-1.7-5.5
				s1.8-3,1.2-5.1c-0.5-2-2-3.4-6.4-3.1C340.7,162.7,333.6,164.7,333.6,164.7z"/>
			<path class="st1" d="M315.5,139.7c0,0,6.3,13.5,5.9,16.1c-0.4,2.7-7.2,12.6-4.5,17.2c2.7,4.6,6.8,10.5,7.6,13.3
				c0.9,2.8,6.2,16.2,6.3,18c0.1,1.8,5-8.4,4.6-11.4c-0.5-3-4.4-19.1-4.4-19.1l-6.1-16.4L315.5,139.7z"/>
			<path class="st1" d="M309.9,172.3c0,0-0.7,14,2.1,17c2.9,3,8.7,12,9.1,16.6c0.4,4.6-0.4,10.6-0.4,10.6s5.5-13.4,4.8-14.9
				C325,200,309.9,172.3,309.9,172.3z"/>
			<path class="st1" d="M303.1,179.6c0,0,0.7,7.2,5.1,13c4.4,5.8,8.6,10.8,9.2,14.9c0.5,4.1-1.7,9.2-2.9,13.3
				c-1.2,4-4.4,3.2-6.5,2.9c-2.1-0.3-6.9-3.8-7.5-6.1c-0.5-2.4-2.9-4.1-3.2-3.4c-0.3,0.7-1.2,7.1-0.2,8.5c1,1.5,8.3,6.1,11,6
				c2.8-0.1,5.5-0.6,5.5-0.6s-4.1,6.9-10.9,5c-6.8-2-10.1-12.7-10.6-13.3c-0.5-0.6-3.2-1.1-3.4-0.3c-0.2,0.8,1.4,11,3.4,13.1
				c2,2.1,8.8,5.3,10.4,5.6c1.6,0.3,5.5,0.5,5.5,0.5s-5.1,7-6,7.4c-1,0.4-11.6,2.4-12.6,0.2c-1.1-2.2-4.7-14.2-4.3-15.5
				c0.4-1.3-0.1-12.3,1-15.7c1.1-3.4,4-11.9,6.9-15.2C295.9,196.5,302.9,183.6,303.1,179.6z"/>
			<path class="st0" d="M287.5,249.1c0,0-4.8-7.7-5-8.8c-0.2-1.1,0.1,8.4,0.6,9C283.7,249.8,284.1,250.1,287.5,249.1z"/>
			<path class="st0" d="M279,247.7c0,0-6.9-4.1-6.7-7c0.2-3,4.4-22.7,5.5-25.7c1.1-3,1.7,30.2,1.4,31.5c-0.3,1.2-0.5,2.1-0.5,2.1"/>
			<path class="st1" d="M267.4,239.6c0,0,3-30.3,6.5-35.8c3.5-5.5,14.8-15.9,16-19.8c1.3-3.8,5.3-23.4,4.5-27.8
				c-0.8-4.5-1.4-2.7-1.4-2.7s-3.6,20.7-5.8,26.7c-2.2,6-12.2,14.5-13.7,17.8c-1.6,3.2-6.9,21.2-7,26.3
				C266.6,229.5,267.4,239.6,267.4,239.6z"/>
			<path class="st1" d="M156.6,68c0,0-3.8,13.6-4.4,20.3c-0.5,6.6-5.3,19.9-11.1,35.5c-5.8,15.6,0.6,23.1,0.6,23.1
				s1.1,12.1,5.5,18.2c4.5,6.1,17.1,19.2,17.8,21c0.7,1.9-2.2,10.2-2.2,10.2l-3.3-4.3c0,0-1.4-7-4-9.8c-2.6-2.8-13-13.6-12-9.1
				c1,4.5-7.8,29.1-14.6,35.9c-6.9,6.9-23.7,9.2-23.7,9.2s1.3,8,1.2,8.6c-0.1,0.6,3.1-3.4,3.1-3.4l2,0.9c0,0-2.5,5.7-3.8,7.8
				c-1.3,2.2,12,20.1,12,20.1l-5,8.4l-7.9-3.4c0,0-6.4,14.7-6.3,15.4c0.1,0.7-15.4,15.7-17.5,16.4c-2.1,0.7-17.8,8.6-26.8,8.8
				c-9.1,0.2-9.4-1.2-10.4-1.6c-1-0.4-0.9,1.1-5.8,0.9c-4.9-0.2-15.2,6.6-15.2,6.6l-1.9-2.3c0,0,5.7-3.3,7-4
				c1.3-0.7,10.7-3.1,13.9-4.1c3.2-1,4.8,1.7,9.8,2.5c5,0.9,1.7-0.7,21.9-6.8c20.2-6.1,28.8-34.1,28.8-34.1s-2.1-0.2-2.8,0
				c-0.7,0.3-14.3,21.6-15.3,21.7c-1,0.1-14.7,6.9-18.8,7.9c-4.1,1-13.5-5.4-14.6-4.2c-1.1,1.3-17.1,4.6-17.1,4.6l-1.5,4.9l-3.4-2.1
				l0.2-3.8l-3.5-0.8c0,0-7.8-1.8-14.6-4.1c-6.8-2.3-0.4,15.6-5.9,13.3C1.4,290.1,8,274.4,8,274.4s-3.1-19.3-2.7-21.5
				c0.5-2.3,8.8-7.1,8.8-7.1l-0.3,2.3c0,0-3.9,4.3-6.2,6.8c-2.3,2.5,4.2,15.2,4.2,15.2l3-1.2c0,0-0.4-6.1-0.1-7.7
				c0.3-1.6,2.3-0.6,2.9-0.3c0.6,0.3,0.9,5.6,0.9,5.6s6.6-3.5,7.5-3.8c0.9-0.2,1.5-6.8,1.5-6.8l3.2,0.9l1.5,4.8
				c0,0,10.4,0.7,12.7,1.7c2.4,0.9,10.3,2.2,10.3,2.2s3.5-2.5,2.7-3.5c-0.8-1,0.1-8.6,0.1-8.6l1.6-2.2l2.5,0.5l0.5,8.5
				c0,0,7.3-8.1,11-12.9c3.6-4.8-0.2-11.2-0.2-11.2s-6.9-13.5-8.2-19.5c-1.3-6,3.6-16.7,3.6-16.7s-3.4-0.4-5-10.6
				c-1.7-10.2,4.4-16.3,6.5-15.7c2.2,0.5,2-0.1-1.8,9.8c-3.8,9.8,2.3,11.3,2.6,9.9c0.3-1.5,5.8-10.8,5.8-10.8s0.5-6.5,3.1-6.8
				c2.5-0.3,1.9,5.5,1.9,5.5s-0.6-7.4-0.6-11c-0.1-3.7,5.9-7.5,9-9.9c3.1-2.3,13.6,4.7,15.7,6.8c2.1,2.2,4.7-3.7,4.9-6.6
				c0.2-2.9-8-14.7-9.5-17.6c-1.5-2.9,4.5-10.4,4.5-10.4s6.8-8.2,6.9-10.6c0.1-2.3,14.4-37,14.4-37s-1.2-36.8,41.9-36.8"/>
			<path class="st0" d="M116.2,130.7c0,0-0.7,18.1,0,22.1c0.6,4-10.1-8.2-8.6-11C109,139,116.2,130.7,116.2,130.7z"/>
			<path class="st0" d="M99.3,172.1c0,0-0.1-0.1-0.3-0.4c-1-1.3-4.8-5.7-8.2-4.4c-4,1.5-5.8,3.7-6.1,6.5c-0.3,2.8-0.3,4.9-0.3,4.6
				C84.5,178.2,99.3,172.1,99.3,172.1z"/>
			<path class="st0" d="M87.7,182.7c0,0-0.1,2.4,0.4,3.2c0.5,0.8,25.5-11.1,26.1-12.5c0.6-1.4-11.6,2.3-14.9,4.3
				C96.1,179.6,87.7,182.7,87.7,182.7z"/>
			<path class="st0" d="M78.7,189.7c0,0-3.1,1.4-4.3,5.2c-1.2,3.8-1.4,6.3-1.4,6.3s3.6,3.3,4.9,2.5c1.3-0.8,4.3-9.1,3.9-10
				C81.4,192.8,78.7,189.7,78.7,189.7z"/>
			<path class="st0" d="M78.3,208.6c0,0-5.5-1.8-5.7-2.3c-0.2-0.5-0.4,5.3,0.3,6.8c0.6,1.5,3.9,10.3,4,10
				C76.8,222.8,78.1,209.2,78.3,208.6z"/>
			<path class="st0" d="M84.7,196.9c0,0-0.1,0.2-0.2,0.4c-0.7,1.8-3.1,9.1-2,9.5c1.3,0.4,3.7,1,3.7,0.8c0-0.2,0.1-8.6,0.2-9
				C86.6,198.1,84.7,196.9,84.7,196.9z"/>
			<path class="st0" d="M86.2,212.1c0,0-3.4-0.7-3.2-0.2c0.2,0.6,0.8,10.6,1.5,11.8c0.7,1.2,2.1,3.8,2.1,3.5c0.1-0.3,1-5.2,0.5-6.5
				C86.7,219.3,86.2,212.1,86.2,212.1z"/>
			<path class="st0" d="M78.5,229.5c-0.4-0.2-5.8-6.1-5.8-6.1s2.8,10.2,3.8,11.1c1,1,1.7,1.5,1.3,1.3
				C77.5,235.5,78.5,229.5,78.5,229.5z"/>
			<path class="st0" d="M90.7,235.2c0,0-6.7-0.8-6.8-1.1c-0.1-0.3-0.6,4.7-0.6,4.7s5.2,4.9,5.6,5c0.4,0.1,0.9,0.5,0.9,0.2
				C89.9,243.7,90.7,235.2,90.7,235.2z"/>
			<path class="st0" d="M97.9,234.9c0,0-1.2,8.6-1.3,9.9c-0.1,1.3-0.2,3.6-0.2,3.6l1.7,0c0,0,2.5-8.8,2.6-9.6
				c0.1-0.8,0.8-3.5,0.8-3.5l-3.4-0.1L97.9,234.9z"/>
			<path class="st0" d="M98.7,217l-3.9-0.4l1.3,12.1c0,0,2.2,0.6,2.2,0.5C98.4,229.1,98.7,217,98.7,217z"/>
			
				<rect x="94" y="205.5" transform="matrix(0.2112 -0.9774 0.9774 0.2112 -126.5103 257.8906)" class="st0" width="5.1" height="3.6"/>
			<path class="st0" d="M108.2,208l-1.8,4c0,0,15.3-3,17.6-5.4c2.3-2.5-9.5,2.1-11.9,2C109.7,208.7,108.2,208,108.2,208z"/>
			<polygon class="st0" points="102.2,197.1 99.1,195.6 110.9,189.1 102.8,197.2 			"/>
			<path class="st0" d="M136.3,166.7c0,0-12.8,26.3-16.6,29.2c-3.9,3-6.3,4.4-6.3,4.4l3.5,1.7l-1.9,2l-5-1.6l-0.5,2.4
				c0,0,12.8,3.4,17-4.8c4.2-8.2,9.1-26.5,9.1-26.5L136.3,166.7z"/>
			<path class="st0" d="M99.9,200.2l-3.5-0.8c0,0-0.7,0.5-0.3,1.2c0.5,0.7,2.5,2,2.7,1.8C99,202.3,99.9,200.2,99.9,200.2z"/>
			<path class="st0" d="M88.7,192.5l-1.4-0.3c0,0-0.5,1.3-0.4,1.5c0.2,0.2,1.8,2.5,1.8,2.5l2-1.4L88.7,192.5z"/>
			<path class="st0" d="M97.2,187.2c-0.5-0.1-5.8,1.8-5.8,1.8s-0.6,1.8,0.2,2c0.8,0.2,1.7-0.1,2.3-0.7
				C94.4,189.7,97.2,187.2,97.2,187.2z"/>
			<path class="st0" d="M85.8,188.6l-2.7-3.8c0,0-0.3-1.1-0.7-0.2c-0.4,0.9,1.1,4.7,1.1,4.7L85.8,188.6z"/>
			<path class="st0" d="M106.5,243.4C106.5,243.4,106.5,243.4,106.5,243.4c-0.3-0.4-0.9-1.2-0.9-1.1c0,0.1-1.6,2.2-1.8,2.8
				c-0.2,0.6-0.4,3.9-0.4,3.9v0.8l0.9,0.5c0,0,1.8-3,1.8-3.2C106,246.9,106.5,243.4,106.5,243.4z"/>
			<path class="st0" d="M109.6,246.1l-0.8,3.7l2.6,1.4l-0.4,2c0,0-1.3,0.5-1.5,0.4c-0.3-0.1-1.8-0.4-1.8-0.4l0.6,2.1
				c0,0,4.2,2.5,4.9,2.5c0.8-0.1,2.8-2.3,2.8-2.9c0-0.6,2.4,0.2,0-1.8C113.5,250.9,109.6,246.1,109.6,246.1z"/>
			<path class="st0" d="M98.2,252.7l-3.8-0.8c0,0-5.9,11.5-9.6,13.3C81,267,76,268,75.6,268c-0.4-0.1-5.9-0.1-6.9,0.7
				c-1,0.7-2.5,3.7-2.5,3.7s7,2.4,8.3,1.8c1.3-0.6,13.4-4.7,15-7.3c1.6-2.7,6.8-9.4,6.8-9.7C96.4,256.8,98.2,252.7,98.2,252.7z"/>
			<path class="st0" d="M88.3,250.3c0,0-4.5-3.6-4.9-4.1c-0.4-0.5-2.4-1.9-2.4-1.9s-2.4,11.3-2.9,12c-0.5,0.7-3.5,6.5-3.5,6.5
				s6.1-0.8,7.2-2.4c1.1-1.7,5.7-7.6,5.7-7.6L88.3,250.3z"/>
			<path class="st0" d="M75.7,277.8c0,0-7.2-1.1-8.8-1.9c-1.5-0.8-4.3-0.7-5.5-0.1c-1.2,0.6-1.6,3.1-1.6,3.1s3.2,0.9,6.2,1.3
				C69,280.6,75.7,277.8,75.7,277.8z"/>
			<polygon class="st0" points="72.7,255.4 69.3,265 65.2,264.1 			"/>
			<polygon class="st0" points="63.1,268 61.3,266.5 57,269.4 61.5,271.3 			"/>
			<polygon class="st0" points="56.4,272.1 53.4,270 47.9,272.9 54.4,274.3 			"/>
			<path class="st0" d="M46.8,266.8c0,0-8-1.8-12.2-1.3c-4.2,0.5,5.7,2.7,5.7,2.7S46,269.5,46.8,266.8z"/>
			<path class="st0" d="M49.9,278.3c0,0-4.1-1-6.4-1.4c-2.3-0.4-6.3,3-6.3,3l8.1-0.5L49.9,278.3z"/>
			<path class="st0" d="M41.7,272.7c0,0-7.7-1.1-9.1-2c-1.4-0.8-7.3-2.7-7.3-2.7s-6.8,5.5-6.6,5.8c0.2,0.2,6.5,3.6,6.5,3.6
				s4.6,1.6,5.7,1.2C31.9,278.2,41.7,272.7,41.7,272.7z"/>
			<path class="st0" d="M14.9,269c0,0-7.6-26.5,32-34.1l23.4-5.1"/>
			<g>
				<path class="st2" d="M215.6,512.7c0,0-28.5-4.4-46.4,0.3c-17.9,4.8-64.8,15.1-71.5,36.8c-6.7,21.7,12.1,42,18.7,43.7
					c6.7,1.7,41.4,16.5,51.2,15.8c0,0,27-2.4,30.5-2.2c3.5,0.2,23.7-1.7,27.6-2c3.9-0.3,31.9,3.3,44.6-0.2
					c12.7-3.5,50-15.3,53.7-18.6c3.7-3.3,22.4-19.7,20.3-36.5c-2.1-16.8-12.9-28.2-20.4-30.6c-7.6-2.5-40.8-13.1-60.3-12.1
					c-19.4,1-34,3.8-37.8,4.9C222.1,513.1,215.6,512.7,215.6,512.7z"/>
				<path class="st0" d="M204.7,521.1c0,0-18.2-4.2-29.8-3.4c-11.6,0.8-44.1,10-50.4,13.1c-6.3,3.1-23,18.9-22.5,26.3
					c0.5,7.4-3,3.5,4.8-5.9c7.8-9.3,9-10.4,13.9-14c4.9-3.6,20.8-9.6,27.8-11.4c7-1.8,21.5-4.5,26.6-5.2c5.2-0.7,5.2-0.7,5.2-0.7
					s10.2,1.2,12.5,2.3c2.4,1.1,7.3,2.1,8.6,6.2c1.3,4.1,3.2,17,9.6,16.5c6.5-0.5,19.3-3,19.8-9.2c0.5-6.2,0.8-12.1,6.1-15.1
					c5.3-3,18.7-6.2,26.8-6.5c8.1-0.3,21.2,0.7,34.5,4.7c13.3,3.9,20.2,5.3,21.3,7.4c1.1,2.1-5.1-7.9-8.1-8.7
					c-3-0.8-26.9-6.8-33.9-7.3c-7-0.5-21.8,1.3-29.2,2.1c-7.4,0.9-19.7,6.3-19.7,6.3s-5.8,0.7-6.8,0.2c-1-0.6-4.1-0.7-4.1-0.7
					l-0.3-4.1l-4.7,0.3l1.3,4.6L204.7,521.1z"/>
				<path class="st0" d="M204.7,524.4c0,0,2.1-2.5,3.1-2c1,0.5,5.2,2.8,5.2,2.8s5.8-1.1,6.9-1.5c1.1-0.3,2.8-2.7,3.6-2.9
					c0.8-0.2,3.1,2.8,3.3,3.4c0.2,0.6,1.1,6.2,0.5,7.3c-0.6,1.1-7.7,2.8-9.8,3.1c-2.1,0.3-11.5,0.6-12-3.2
					C205.1,527.6,204.4,525.4,204.7,524.4z"/>
				<path class="st0" d="M205.7,534.6c0,0,7.9,2.5,10.2,2.3c2.3-0.2,10-2.9,10.8-3"/>
				<path class="st0" d="M206,537.6c0,0,7.2,1.4,9.6,1.3c2.4-0.2,10.8-2.7,10.8-2.7"/>
				<path class="st0" d="M207.6,540.7c0,0,6.6,1.6,8.9,1c2.3-0.7,10-3,10-3"/>
				<path class="st0" d="M244.8,527.5c0,0-5.2,6.4-4.6,7.7c0.5,1.3,1.7,6.6,0.6,8.2c-1.2,1.6-12.9,1.6-13.7,2.1
					c-0.8,0.5-5.4,3-4.9,4.3c0.5,1.3,7.3,6.4,7.3,6.4s15.3-1.3,20.2-0.4c4.8,0.9,24.8,13.2,24.8,13.2l14.5,6.3
					c0,0,24.8,7.1,28.6-2.9c3.8-10,5.1-16.4-6.9-29.6c-12-13.2-28.2-18.5-29.2-17.8c-1,0.7-25,1.8-25,1.8L244.8,527.5z"/>
				<path class="st2" d="M247.7,531.2c0,0-4.4,2.4-3.7,5.7c0.7,3.2-0.4,10-0.4,10s-3.3,2-4,2c-0.6,0-10.7-0.5-10.7-0.5
					s3,4.8,5.1,4.6c2.2-0.2,15.1-0.4,15.1-0.4s10.6-0.5,12.5,1.9c1.9,2.5,7.2,6.8,7.2,6.8s1.9-4.7,2.5-3.6c0.6,1,2.4,5,2.4,5l4.7,2
					l2.2-2.5l2.3,2.2l0.2,2.6c0,0,3.2,1.7,2.7,0.9c-0.5-0.8-1.5-5.3-1.5-5.3l4,1.7l1.6,3.6l7.1,5.5l-1.8-4.4l4.3-0.1l4.7,5.1
					c0,0,1.6,1,1.5-0.1c-0.1-1.1-0.5-6.7-0.5-6.7l5.4,2.2c0,0,0.7-2.2,0.9-2.9c0.2-0.7-0.1-1.7-0.1-1.7l2-2.1c0,0,1.4-4,0.9-5.7
					c-0.6-1.7-5.1-4.6-5.1-4.6s-2.2,2.4-1.5,0.1c0.7-2.3-0.7-7.1-1.2-7.8c-0.5-0.6-7.2-9.4-10.8-11c-3.6-1.6-14.2-4.7-14.8-4.5
					c-0.6,0.3-15.2-0.4-15.2-0.4L247.7,531.2z"/>
				<path class="st0" d="M222.2,550.8c0,0-6.7-3.7-7.9-4.8c-1.2-1.2-6.8-0.6-11.1-6.2c-4.3-5.5-11.4-11.1-16.7-11.6
					c-5.2-0.5-34.7,0.1-37.4,1c-2.8,0.8-19.3,8.7-24.4,12.8c-5.1,4.1-14.2,18.8-13.5,28.7c0.7,9.9,6.6,22.3,16.5,24.8
					c9.9,2.5,28.7,7.7,36.3,5.2c7.6-2.5,37.1-2.2,39.7-2.5c2.6-0.3,27.3,3.3,27.3,3.3s18.3-4.8,18.9-5.1c0.6-0.3,21-9.5,28.4-11.2
					c7.5-1.6,14.3-6.6,14.3-6.6l-1.1-2.8c0,0-20-9.9-31-15c-11-5.1-29.2-4.9-29.2-4.9L222.2,550.8z"/>
				<path class="st2" d="M227.8,556c0,0-5.1-2.7-7.6-3.6c-2.5-0.9-6.9-5.5-7.6-5.5c-0.6,0-8.3-0.5-8.3-0.5l-4.7-3.5l-8.6-10.1
					c0,0-9.5-2.4-12.7-2.1c-3.2,0.3-28.5,2.1-28.5,2.1s-20.8,8.4-22.6,11.5c-1.7,3.1-10.3,16.8-9.7,21.9c0.6,5.1-2,11.2,1.2,16.3
					c3.2,5.2,14.9,10.8,16.2,11.4c1.3,0.6,14.3,2.9,16.1,3.2c1.8,0.3,25.3-1,27.6-2c2.3-1,26.6-1.4,26.6-1.4l15.7,4.4
					c0,0,10.7,0.5,12.8,0.4c2.2-0.2,20.8-6,22.8-7.9c2-1.9,24.7-11.5,25.4-11.1c0.7,0.4,6.3-2.6,6.3-2.6"/>
				<path class="st2" d="M189.3,557.8c0,0-0.2,0.3-0.5,0.8c-0.7,1.1-1.9,3-1.2,3.9c0.9,1.2,2.8,2.7,4.7,2.7c1.9-0.1,8.3-2.7,7.6-4.3
					c-0.6-1.6-5.1-3.4-5.1-3.4L189.3,557.8z"/>
				<path class="st0" d="M194.3,546.5c0,0-2.6,4.4-1.4,5.3c1.2,0.9,5.7,3.7,6.6,3.6c0.9-0.1,6.5-0.9,7.1-2c0.6-1.1,0.2-2.2,0.2-3.1
					c0-0.9-7.4-4.1-7.4-4.1L194.3,546.5z"/>
				<path class="st0" d="M200.9,567c0,0-2.8,0.5-3,2.8c-0.2,2.3-0.5,4.4-0.5,4.4s0.6,1.3,1.1,1.2c0.5,0,3.1-5.1,3.1-5.1L200.9,567z"
					/>
				<path class="st0" d="M193.6,579.2c0,0-4.5,0.6-5,0.4c-0.5-0.3-2.4-1.2-2.6,0.3c-0.2,1.5,2.5,2.4,4,1.8c1.5-0.6,2.5-1.8,3.1-1.6
					c0.5,0.2,0.5-1.6,0.5-1.6L193.6,579.2z"/>
				<path class="st0" d="M198,582l-2.9,0.2c0,0,1.1,1.7,1.6,2.4c0.5,0.8,1.6,1.5,1.6,2c0,0.5,0.9,2.9,1,2.4
					C199.5,588.6,198.8,582,198,582z"/>
				<path class="st2" d="M217.5,568.6c0,0-2.1,2.6-2,3.6c0.1,1,0.2,2.7,0.2,2.7l3.8-0.3c0,0,0.8-1,1.2-0.1c0.4,0.9,1.6,2.8,1.3,3.5
					c-0.3,0.8,0.4,2.2,0.2,3.2c-0.2,1,1.3,1.4,1.3,1.4l1.5-0.1l1.9-2.5c0,0,2.6-1.8,2.5-0.2c-0.1,1.6,0.4,6.4,1.1,7.1
					c0.7,0.7,1.3,2.6,2.1,2.5c0.8-0.1,1.8-0.1,1.8-0.1s0.1-3.3-0.3-4.2c-0.4-0.9-0.9-1.1-1.3-2.1c-0.4-1,0.4-3.5,0.4-3.5l0.8,2.5
					c0,0,3.1-2.7,3.7-2.8c0.6-0.1,3.4,0.1,2.7-0.9c-0.7-1-1.7-2.7-2.6-2.8c-1-0.1-2.9,0.4-3.4,0.2c-0.5-0.1-5.1,1.8-7,0.5
					c-1.9-1.3-6.7-5-6.7-5S219.4,567.9,217.5,568.6z"/>
				<path class="st0" d="M211.1,569c0,0-4.2,3-4.3,3.8c-0.1,0.8,0.3,2.1,1.8,1c1.5-1.1,4-2.4,4-2.4S214.4,567.7,211.1,569z"/>
				<path class="st0" d="M207.6,584.1c0,0-0.9,3.2,0.3,3.6c1.2,0.4,2,0.7,2.5-0.2c0.4-0.8,0.5-2.2,0.4-2.9c-0.1-0.7-1.5-2.4-1.5-2.4
					L207.6,584.1z"/>
				<path class="st0" d="M237.7,585c0,0,4.5,3.7,6.3,3.6c1.8-0.1,4.4-2.3,3.3-2.3c-1.1,0-8.5-2.4-8.5-2.4L237.7,585z"/>
				<path class="st0" d="M268.9,570.4c0,0-7.8-3.8-7.2-3.6c0.5,0.2,3-0.6,1.9-0.9c-1.2-0.2-2.8,0.1-4.3-0.6
					c-1.5-0.6-4.3-1.2-4.3-1.2s-2.5,1.2-0.9,1.6c1.7,0.4,2.7,0.9,4.4,1.8c1.7,0.9,6.2,2.9,6.9,3.2
					C266,570.9,268.9,570.4,268.9,570.4z"/>
				<path class="st2" d="M179.7,560.6c-1.3-0.1-6.3,0.1-7.7-0.8c-1.4-1-1.4-1.3-2.2-0.6c-0.8,0.7-0.3,0.1-1.4,1.1
					c-1.1,1-3.4,2.8-5.8,2.6c-2.4-0.1-3.5,0.6-6.1,0.4c-2.6-0.1-1.1,0.4-4.5,0.3c-3.4-0.1-0.5-0.6-3.4-0.1c-2.9,0.5-6.8,0.3-4.1,1.2
					c2.7,0.9,4.6,0.9,7,1.7c2.3,0.8,6.7,1.1,8.2,1c1.4-0.2,6-2.8,8.2-3.6c2.2-0.8,0.1-0.9,3-1c2.9-0.1,4-0.3,4-0.3L179.7,560.6z"/>
				<path class="st2" d="M177.1,553.4c-2.3-0.3-3.6,1.9-5.6-0.7c-2-2.5-0.7,1.8-2.4-3.7c-1.7-5.4-2.4-6-3.7-6.1
					c-1.3-0.1-9.2-1.8-9.9-1.8c-0.7,0-4.5-1.5-5-1.1c-0.5,0.3-3.5-1.3-3.5-1.3s1.3-0.6,1.9-0.6c0.7,0.1,9.4,0.7,11,1.2
					c1.5,0.5,8.9,1.8,8.9,1.8s4.1,0.6,3.5,1.3c-0.6,0.7-0.9,0.8-1.4,1.3c-0.5,0.5-1.1,0.7-0.5,1.6c0.6,0.9,1.5,2.5,2.9,2.5
					c1.5,0.1,5.5,1.4,5.5,1.4s0.5,2.6-0.6,2.9C177.2,552.6,177.1,553.4,177.1,553.4z"/>
				<path class="st0" d="M223.1,562.9c0,0-4.2,0.7-4.2,1.7c-0.1,1,1.5,2,1.5,2L223.1,562.9z"/>
				<path class="st2" d="M169.2,574.4c0,0-11.5,7-13.2,6.9c-1.6-0.1-8.2,3.2-8.2,3.2s-1.1,2.6,0.1,2c1.3-0.6,6-1.8,6.5-2.1
					c0.5-0.3,2.8-1.7,2.8-1.7l-0.2,2.3c0,0,2.6-2.8,3.2-3.2C160.9,581.4,169.2,574.4,169.2,574.4z"/>
				<path class="st0" d="M140.7,587.1c0,0,1.6,1.9,1.2,2.6c-0.4,0.6-2.5,2.6,0.2,1.2c2.7-1.3,3.5-0.2,3.3-2
					c-0.2-1.8-2.3-2.5-2.6-2.9C142.4,585.7,140.7,587.1,140.7,587.1z"/>
				<path class="st0" d="M156.6,557c-0.7-0.4-7.7-2.1-11.4-0.9c-3.7,1.2-6.1,6.6-3.3,4.8c2.8-1.8,2.4-2.7,4.2-2.5
					c1.8,0.2,2.1-0.8,3.2-0.2c1.2,0.5,1.6,1.6,2.8,0.7C153.4,557.9,156.6,557,156.6,557z"/>
				<path class="st0" d="M129.7,555.8c-0.5-0.2-2.3,1.4-4.1,1.4c-1.8,0-5.6,3-2.8,2.2c2.9-0.8,3.5-0.5,5.1-1.1
					c1.6-0.6,1.6-0.6,1.6-0.6L129.7,555.8z"/>
				<path class="st0" d="M130.5,567.2c-1.4,0.3-2.4,0.2-2.4,0.2"/>
				<path class="st0" d="M129.7,573.1"/>
				<path class="st0" d="M149.5,570.7c0,0,4.2-1.6,3.8-0.3c-0.4,1.3-4.8,1.3-4.8,1.3"/>
				<line class="st0" x1="186.8" y1="568.2" x2="189.8" y2="567.2"/>
				<path class="st0" d="M96.9,565.4c0,0,7.3,31.6-25.2,73.8c-32.5,42.2-60.8,70.3-68.2,123.7c-7.4,53.4,1,121.3,1,121.3
					s5,12.7,22.5,16.7c17.5,3.9,60.1,8,73.2,5.4c13.1-2.6,51.5-15.4,55.8-24.5c4.2-9.1,2.6-31.1,2.4-34"/>
				<path class="st0" d="M201.1,854.5c0,0,18.7,33.4,20.4,34.3c1.7,0.9,11.8-16.1,53.7-39.6c41.9-23.5,57.2-27.9,70.7-28.8
					c13.6-1,29.1-2.1,29.1-2.1s-34.7-48.9-40.8-61.4c-6.1-12.6-20.6-51.2-19.9-68.1c0.7-17,15-34.9,22-73.7
					c6.9-38.9,8.9-54.2,8.9-54.2"/>
				<path class="st0" d="M221.5,888.8c0,0,45.2,55.8,57,69.2c11.8,13.5,76.6,87.9,81.5,93.4c4.9,5.5,37.5,41.5,35.1,45.6
					c-2.3,4.1,0.5,7.1,0.5,7.1"/>
				<path class="st0" d="M375,818.2c0,0,48.3,83.6,54.7,100.1c6.4,16.4,51.2,124.4,51.2,124.4s16,50.8,16.9,54"/>
				<path class="st2" d="M23.8,900c0,0-10.5,9.6-9.9,17.1c0.5,7.4,24,62.9,24,62.9S71.2,991,78,990.8c6.8-0.2,48.3-2.2,64.5-12.1
					c16.2-9.9,31.4-24.7,31.3-25.7c-0.1-1-2.6-35.6-2.9-40.4c-0.3-4.9-11-27.6-16.5-28.6"/>
				<path class="st0" d="M79.3,990.9c0,0-36.9,23.6-26.1,40.6c10.8,17,30.5,22.9,48.9,19c18.5-3.9,76.8-21.1,76.3-32.4
					c-0.5-11.2-2.3-23.7-11-30.4c-8.7-6.7-31.1-6.1-31.1-6.1"/>
				<path class="st0" d="M54.2,1033.1c0,0,28.5,83.9,36,109.7c7.5,25.9,18.3,72.8,18.3,72.8"/>
				<path class="st0" d="M178.5,1018.1c0,0,21.9,119.3,24.7,139.5c2.8,20.2-2.1,72.1-2.1,72.1"/>
				<path class="st2" d="M20.9,938.2c0,0,17.4,16.4,35.6,16.1c18.2-0.3,8.2,1.4,14.4,0.9c6.1-0.4,19.5-4.7,24-5.6
					c4.5-1,13.8-2.3,18.3-2.6c4.5-0.3,19-2.8,28.4-7.2c9.4-4.4,30.5-16.4,28.8-29.2"/>
				<path class="st2" d="M25.6,901.5c0,0-6.7,5.7-6.4,13.1c0.4,7.5,0.4,11.7,4.9,17.8c4.6,6.2,14.6,12.6,17.9,13.3
					c3.3,0.7,9.1-0.2,10.9,0.4c1.8,0.5,1.8,4.4,13.4,3.3c11.6-1.2,24-3.4,25-5.1c1-1.7,5.1-5.4,4-8.2c-1.2-2.8-4.2-12.5-5.9-16
					c-1.7-3.5-9.6-9.7-9.6-9.7s6.5,2.6,7.8,4s9.6,18.5,9.6,18.5s3.6,6.7,7.8,6.6c0,0,12.3-0.7,13.9-0.8c1.6-0.1,18.6-3.6,21.9-5.5
					c3.3-1.9,8.4-5.5,6.2-6c-2.1-0.5-17.7-1.8-17.7-1.8s-11.8-1.7-13-1.7c-1.1,0.1-9.9-2.6-9.9-2.6"/>
				<path class="st2" d="M126.3,922.8c0,0,15.6,0,18.6,1.1c3,1.1-12.1-5.1-13.5-6.8c-1.4-1.7-9.8-5.1-9.8-5.1"/>
				<path class="st2" d="M125.6,911.6c0,0,8.2,5.3,11,6.1c2.8,0.9,10.5,4.4,10.5,4.4c0,0,3.5,3.2,4.1,3.1c0.6,0,6.9,0.8,10.2-5.5
					c3.3-6.3,2.3-10.7,1.1-14.4c-1.2-3.6-12.2,4.5-12.2,4.5"/>
				<path class="st2" d="M160.8,901c0,0-0.1-6-1.7-8.3c-1.6-2.3-5.5-6.3-5.5-6.3"/>
				<path class="st2" d="M55.2,906.8c0,0,2.6,9.2,8.3,9.3c5.7,0.1,17.4-4.9,16.8-5.3"/>
				<path class="st2" d="M62.6,908.1c0,0,0.8,3.8,5.9,3.1c5.1-0.8,6.6-2.8,6.6-2.8"/>
				<path class="st2" d="M148.5,907.4c0,0-30.9,1.1-34.5,2.5c-3.6,1.3-14.7,6.5-18.1,3.9"/>
				<path class="st2" d="M96,916c0,0,11,2.2,12.6,0.6c1.6-1.6,5.3-4.2,7.1-4.2c1.7,0.1,30.7-1.3,30.7-1.3"/>
				<path class="st0" d="M92.4,1006.1c0,0-8.6,5.4-6.2,7.8c2.4,2.4,7.4,5.4,11.8,3.1c4.4-2.3,10.3-5.5,8.5-10.2
					c-1.8-4.7-6.4-4.2-7.8-3.9C97.4,1003.1,92.4,1006.1,92.4,1006.1z"/>
				<path class="st0" d="M94.5,1007.6c0,0-4.3,4-3,5.3c1.2,1.2,3.4,1,5.9-0.4c2.5-1.4,4.3-2.9,3.7-4.1c-0.6-1.2-1.3-1.7-2.1-1.6
					C98.2,1006.7,94.5,1007.6,94.5,1007.6z"/>
				<path class="st0" d="M58.7,1009.6c0,0-3.8,15.1-0.4,21c3.4,5.9,19.9,15.1,22.5,14.8c2.6-0.3,2.6-0.3,2.6-0.3s0.6-7.4,2.8-10.3
					c2.2-2.9,13.5-17.3,13.5-17.3"/>
				<path class="st0" d="M101.8,1017.3c0,0-14,18.1-15.2,22.5c-1.2,4.3,1.6,6.9,1.6,6.9s19.2,1.7,23.6-1.7c4.5-3.4,8-6.1,7.9-8.4
					c-0.2-2.3-7.4-14.9-7.9-15.4c-0.5-0.4-6.7-7.3-6.7-7.3"/>
				<path class="st0" d="M108.6,1013.6c0,0,9.5,12.5,10.4,13.2c0.9,0.8,4,8,4.5,8.1c0.5,0.1,16.9,0.4,19.3-0.3
					c2.4-0.7,18.1-8.5,18.3-9.4"/>
				<path class="st0" d="M164.7,1020.6c2.2-1.1,10.3-3.5,9.2-9.3c-1.1-5.8-4-13.2-5-14.8c-0.9-1.6-7.9-8.4-9.8-9.2
					c-1.8-0.8-10-3.5-10-3.5"/>
				<path class="st0" d="M111.8,1015.3c0,0,12.4,2.4,15.1,1.5"/>
				<path class="st0" d="M109.6,1009.4c0.5,0.6,11.4,4.8,17,3.9"/>
				<path class="st0" d="M121.6,1018.4c0,0,18.1,3.2,24.2,3.6c6,0.4,16.3,3.3,16.3,3.3"/>
				<path class="st0" d="M154.8,1020.9c0,0-25.9-3.2-27.3-4"/>
				<path class="st0" d="M161.8,1020.8c0,0.3-10.4-9.1-12.7-9.1c-2.3,0-5.2-0.6-5.2-0.6"/>
				<path class="st0" d="M153,1019.2c0,0-6.9-5-10.8-6c-4-1-11.7-0.1-11.7-0.1"/>
				<path class="st0" d="M130.4,1010.6c0,0,15.6-2,21.1-2.7c5.5-0.7,15-4.3,15-4.3"/>
				<path class="st0" d="M151.1,1010.6c0,0,14.2-3.3,15.1-4.2"/>
				<path class="st0" d="M110.4,1009.1c0,0,28.2-5.6,31.1-13c2.9-7.4,3.5-5.5,6.5-5.7"/>
				<path class="st0" d="M111.7,1005.5c0,0,22.7-3.3,26.1-10.4c3.4-7.1,3.3-6.1,3.3-6.1"/>
				<path class="st0" d="M113.6,1003.5c0,0,15.5-7.5,19.4-10.7c3.8-3.2,4.8-3.6,4.8-3.6"/>
				<line class="st0" x1="113.3" y1="999.8" x2="132.7" y2="989.6"/>
				<path class="st0" d="M106.6,1006.1c0.6-0.5,2.8-3.7,2.1-8.5"/>
				<path class="st1" d="M173.8,843.9c0,0-0.2,0-0.4,0c-1.5,0.1-6.6,0.5-5.5,3.1c1.3,2.9,10.6,8.7,13.6,7.7c3-1,11.3-7,11-10.4
					c-0.4-3.4-0.9-3-0.9-3s-3,4.8-6.8,4.7C180.9,845.9,173.8,843.9,173.8,843.9z"/>
				<path class="st1" d="M173.2,842.5c0,0-1.2-4.4-6.2-6.1c-5-1.7-9.4-3-9.7-3.4c-0.2-0.4,0.1,5.3,2.7,8.5c2.6,3.2,7.9,7.3,7.9,7.3"
					/>
				<path class="st1" d="M156.8,837.2c-0.6-1.2-12.1-14.7-16.6-15.6c-4.5-0.9-11.6-0.1-11.6-0.1s-6.3-0.2-2.3,2.3
					c4,2.5,16.5,9.9,17.9,10.9c1.4,1.1,11.8,11.7,14.1,12.3c2.3,0.6,7.7,1.4,7.7,1.4"/>
				<path class="st1" d="M156.7,847.2c0,0-27.5-13-31.6-21.1c-4-8.2-11.6-27.5-11.2-30c0.4-2.4,4.4-3.1,4.9-2.3"/>
				<path class="st1" d="M131,820.8c0.1-1-14.6-24.6-10.2-27.5c0,0,5.7-2.6,8.3,0.9c2.6,3.5,16.8,18.9,16.8,18.9"/>
				<path class="st1" d="M135.2,820.5c-0.6-0.9-17.6-26.4-15.5-28"/>
				<path class="st1" d="M155.7,833c0,0-11.9-27.4-10.6-30.1c1.3-2.7,13.7,6.4,14.6,7.6"/>
				<path class="st1" d="M138.7,805.3c0,0-2.6-6.4-0.5-7.2c2.1-0.8,8.2,3,8.2,3"/>
				<path class="st1" d="M146.6,802.5c0,0,6.5,9.4,7.9,10.4"/>
				<path class="st1" d="M147.4,801c0.1-1.2-6.9-29.3-3.1-30.3c3.8-0.9,15.3,10.8,19.1,15.5c3.8,4.7,3.4,7.6,3.4,7.6"/>
				<path class="st1" d="M145.2,770.7c0,0,11.3,16.2,13.3,22.8"/>
				<path class="st1" d="M167.7,806.5c0.4-0.4-2-21.1,1.3-22.3c3.3-1.2,8.6,3,9.1,4.9c0.6,1.9,2.9,6.9,2.9,6.9"/>
				<path class="st1" d="M171,780.7c0,0,3.4-19.1,7.6-17.7c4.2,1.4,11.3,24.1,11.5,24.3"/>
				<path class="st1" d="M184.6,798.3c0,0,10.7-22.8,16.5-23.4c5.8-0.6,4.5,2,5,6.6c0.6,4.7-0.5,11.6-0.5,11.6"/>
				<path class="st1" d="M184.6,772.7c1.1-0.4,2.8-3.8,4.1-3.9c1.3-0.1,5.9,3,6.6,6.4"/>
				<path class="st1" d="M207.6,778.1c0.8-0.7,11.4-10,13.3-8.1c1.9,1.8,1.4,13.8,1.3,18.1c-0.1,4.3-1.8,7.6-1.8,7.6"/>
				<path class="st1" d="M194.8,804.5c0,0,8.6-11,12.4-9.3c3.8,1.7,3.6,5.8,3.5,9.3c-0.2,3.5-5.4,9.3-5.4,9.3"/>
				<path class="st1" d="M207.2,811.3c0,0,12.3,0,14.4,1.3c2,1.3-1.3,6.3-1.3,6.3s-9.4,13.7-11.5,14.3"/>
				<path class="st1" d="M212.9,799.9c0,0,11.7-9.6,17.5-9.2c5.9,0.4,6,2.1,6,2.1s-10.3,16.1-11.7,17.2"/>
				<path class="st1" d="M215.5,806.5c0,0,16.8-11.8,17.9-13.5"/>
				<path class="st1" d="M225.9,813.9c0,0,18.9-22.1,21.1-21.8c2.2,0.3,6,4.6,4.1,11.9c-1.9,7.3-11,20.7-11,20.7"/>
				<path class="st1" d="M250.5,806c0,0-15.4,15.6-19.2,16.8c-3.8,1.1-9.1,3.3-9.1,3.3"/>
				<path class="st1" d="M214.8,826.5c0.6-0.7,28.2-2.3,29-0.8c0.8,1.5,0.2,11.7-6.9,14.8c-7.1,3.1-48.4,13.8-49.4,12.4"/>
				<path class="st1" d="M244,828c0,0-19.4,10.6-20,10.9"/>
				<path class="st1" d="M207.2,835.3c1.1,0.3,9.6-4.6,11.7-2.8c2.1,1.8,4.6,6.2,2.5,7.8c-2,1.7-8.9,5.7-8.9,5.7"/>
				<path class="st1" d="M195.5,849.8c0,0,10.1-5.6,15.2-5.6"/>
				<path class="st1" d="M196.2,845.2c0.6-0.5,11-9,11-9"/>
				<path class="st1" d="M157.1,830.4c0,0-1.4-9.6-0.7-8.7c0.7,0.9,1.3,1.3,1.3,1.3l-0.7-10.3c0,0,2.8-0.6,2.9-0.2
					c0,0.4,0.3,3.5,0.3,3.5s0-8.8,1.7-9.1c1.7-0.3,1.1,3.7,1.7,4.3c0.6,0.6,1.8,2.9,1.8,2.9s2.1,0.3,2.7-2.1
					c0.6-2.4,3.1-16.4,3.4-12.7c0.2,2.7,2,7.7,2.9,10.4c0.4,1.1,0.7,1.8,0.7,1.8s1-9.4,1.9-8.9c0.8,0.5,0.8,7,0.6,7.6"/>
				<path class="st1" d="M178.8,811.1c0.7,0.2,3-4.1,3.4-3.5c0.5,0.6,0.1,7.8,0.1,7.8l-1,4.5"/>
				<path class="st1" d="M182.1,805.4l0.5-8.7c0,0,0.5,0.6,1.1,3c0.6,2.3,0.2,2.9,0.4,5.5"/>
				<path class="st1" d="M185.4,808.7c0,0,1.3,0.6,1.2,1.9c-0.1,1.3-0.1,4.6-0.6,6.2c-0.5,1.7-1.2,4.3-1.6,5"/>
				<path class="st1" d="M186.8,803.3l2.6-0.2c0,0,0.8,1,0.3,3.9c-0.5,2.9-0.3,4.5-0.7,5.7"/>
				<path class="st1" d="M192.4,806.8c0,0,0.2-1,0.5-2.3c0.5-2.7,1.3-6.7,1.5-6.9c0.2-0.4,1.9-0.9,1.6-0.1
					c-0.3,0.7-1.3,11.4-1.3,11.4l-1.8,4.1"/>
				<path class="st1" d="M198.5,807.8c0,0,0.1,2-0.4,4.8c-0.6,2.8-0.8,2.3-0.8,3.9c0,1.6,0.2,3.3,0.2,3.3"/>
				<path class="st1" d="M203.7,816c-0.4,1.4-0.7,5.6-1.1,6.7c-0.4,1.1-4.6,4-4.5,5.1c0.1,1.1-1.4,3.6-1.4,3.6"/>
				<path class="st0" d="M211.4,677.2c0,0-5.7,5.2-6.7,8.7c-1,3.5-2.8,8.9-0.1,10c2.7,1.1,6.5-2.6,5.9-3.9"/>
				<line class="st0" x1="214.5" y1="654.9" x2="210.9" y2="670.4"/>
				<path class="st0" d="M232.2,759.1c0,0,14.4-12.2,26.6-16.3"/>
				<path class="st0" d="M85,709.1c0,0,34.7,32.6,38.3,40.8"/>
			</g>
			<path class="st0" d="M191,31.9c0,0,18.9,5.2,23.5-5.2"/>
			<path class="st0" d="M244.8,29"/>
			<path class="st0" d="M224.4,26.7c0,0,5.9,9.9,11.3,9.2c0,0,18.8,7,31,13.6c12.2,6.6,12.3,12.2,15.9,23.6"/>
			<path class="st0" d="M589.9,102.1"/>
			<path class="st0" d="M212.7,29.9c0,0,0.5,5.1,3.9,4.9c3.4-0.2,11.5-1,10.8-2.9"/>
			<path class="st0" d="M244.8,29c0,0,1.3,9.8,13.8,16.6"/>
			<path class="st1" d="M172.8,419"/>
		</g>
	</g>
</g>
</svg>
