<?xml version="1.0" encoding="utf-8"?>
<!-- Generator: Adobe Illustrator 22.1.0, SVG Export Plug-In . SVG Version: 6.00 Build 0)  -->
<svg version="1.1" id="Layer_1" xmlns="http://www.w3.org/2000/svg" xmlns:xlink="http://www.w3.org/1999/xlink" x="0px" y="0px"
	 viewBox="0 0 413.7 586" style="enable-background:new 0 0 413.7 586;" xml:space="preserve">
<style type="text/css">
	.st0{fill:none;stroke:#76B72D;stroke-width:0.7857;stroke-miterlimit:10;}
	.st1{fill:none;stroke:#FFFFFF;stroke-width:0.7857;stroke-miterlimit:10;}
	.st2{fill:#FFFFFF;stroke:#FFFFFF;stroke-width:0.7857;stroke-miterlimit:10;}
	.st3{stroke:#FFFFFF;stroke-width:0.8504;stroke-miterlimit:10;}
	.st4{font-family:'Rune';}
	.st5{font-size:43.768px;}
</style>
<g>
	<g>
		<g>
			<path class="st0" d="M141.2,217.5c0,0,13.4-7.7,20.8-9.2c7.4-1.6,11.9-1.3,14.3-0.6c2.4,0.6,4.3,3.3,5.5,4
				c1.2,0.7,4.6,2.5,6.1,3.4c1.5,0.8,4.4,2.9,5.1,3.5c0.7,0.5,2.4,2,2.4,2"/>
			<path class="st0" d="M144.6,217.8c0,0,3.9,0.2,6.8,0.7c2.9,0.5,3.5,1,8.7,2.5c5.2,1.5,7,1.7,11.3,1.4c4.3-0.3,9.7-2.6,11-3
				c1.4-0.4,3.8-0.5,5.4-0.5c1.6,0,4.4,1,4.4,1"/>
			<path class="st1" d="M187.2,215.5c0,0,0.4,0.6-0.1,1.6c-0.5,0.9-1.1,1.3-1.1,1.3"/>
			<path class="st1" d="M147.7,219.8c0,0,2.9,0.8,7.1,2.5c4.2,1.7,7.9,3.1,11,2.9c3.1-0.1,9.5-0.1,12.5-1c3-0.9,4.1-2.1,6.1-2.4
				c2-0.3,3.4-0.9,3.4-0.9"/>
			<path class="st1" d="M137.1,215.4c0,0,14.7-7.5,17.3-8.5c2.6-1.1,8.6-2.8,12.7-3c4.1-0.2,6.8-0.4,6.8-0.4"/>
			<path class="st1" d="M176.2,204.4c0,0,5,2.5,10.7,6.2c5.7,3.7,7.1,5.1,8.6,6"/>
			<path class="st1" d="M203.8,214.9c0,0,2.8-4.9-8.5-9.7c-11.3-4.7-18.9-6.5-28.1-5.6"/>
			<path class="st1" d="M199.7,213.6c0,0,0.3,0.4,0.4,2.3"/>
			<path class="st0" d="M241.6,217.9c0,0,5.3-4.8,9.4-6.8c4.1-2,7.1-3.6,11-4.1c3.9-0.5,8.3,0.2,11.8,1.3c3.5,1.1,5.9,1.4,8,2.9
				c2.1,1.5,3.6,2.5,6.5,4.7c2.9,2.2,3.5,2.4,3.5,2.4"/>
			<path class="st0" d="M242.6,219.2c0,0,6.4,0.6,8.3,0.6c1.8,0.1,2.1,0.4,8.1,1.3c6,0.9,11.4,1.3,14,0.1c2.6-1.3,6.8-4.4,8.3-4.8
				c1.5-0.4,4.8-0.5,5.2-0.5"/>
			<path class="st1" d="M247.8,213.9c0,0-0.1,2.9,0.4,3.8c0.4,0.8,0.7,0.9,0.7,0.9"/>
			<path class="st1" d="M281.9,211.8c0,0-0.1,1.1-0.1,1.9c0,0.8-0.1,0.8-0.4,1.4"/>
			<path class="st1" d="M237.2,216.3c0,0,7.5-6.8,12.7-9.1c5.2-2.3,10.4-3.4,10.4-3.4s13.2,1.5,14.6,1.5c1.3,0,5,0.5,8.2,1.8
				c3.1,1.3,5.6,1.5,7.1,3.2"/>
			<path class="st1" d="M254.3,223.8c0,0,13.3,2.9,17.8,2.7c4.5-0.3,8.5-1,10.4-2.2c1.8-1.3,2.4-2.7,2.5-3.1
				c0.1-0.4,0.1-2.1,0.1-2.1"/>
			<path class="st1" d="M283.3,211.1c0,0,3.4,0,5,0.8c1.7,0.8,1.4,2.1,2.4,3.4c1,1.3,1.5,4.1,4.3,4.3c2.8,0.3,4.2,0.3,4.2,0.3"/>
			<path class="st1" d="M300.1,216.1c0,0,1.8-0.3,2.5-1.4c0.7-1.1,1.3-2,1.3-2"/>
			<path class="st1" d="M299.1,218.9c0,0,4.1-1.8,6-4.1"/>
			<path class="st1" d="M137.1,218.9c0,0-2.4,2.1-5,1.4"/>
			<path class="st1" d="M191,225.3c0,0,4.6,10.1-16.4,12.4c-21,2.3-22.7,3.2-22.7,3.2"/>
			<path class="st1" d="M190.8,236.8c0,0-10.9,10.9-19.3,12c-8.4,1.1-14.7,0-14.7,0"/>
			<path class="st1" d="M242.5,236c0,0,6.5,10.3,21.4,12.4c14.9,2.1,10.3-2.3,15.1-2.7"/>
			<path class="st1" d="M245.9,231.6c0,0,1.5,2.7,14.9,3.2c13.4,0.4,15.7-1.3,15.7-1.3"/>
			<path class="st1" d="M231.6,221.1c0,0-2.3-5.3,0.4-8.6c2.7-3.4,10.5-8.2,10.5-8.2"/>
			<path class="st1" d="M190.1,197.2c0,0-3.9-1.6-6.6-2.1c-3.6-0.7-5.2-2.1-8.1-1.5c-2.9,0.6-19.2-1.5-20.4-1.4
				c-1.3,0.1-5.7-0.1-7.6,0.7c-1.8,0.8-2.8,0.8-4.3,1.5c-1.5,0.7-4.6,1-5.7,2.2c-1.1,1.3-5,4.1-5.7,4.6c-0.7,0.6-2.9,3.2-2.9,3.2
				s-2.4,0.3,1.7,0c4.1-0.3,5,0,6.2,0c1.1,0,3.8,0.7,7.4-0.8c3.6-1.5,13.2-2.4,13.6-2.7c0.4-0.3,3.9-0.8,6.2-1.8
				c2.2-1,2.5-1.8,4.6-1.8c2.1,0,11.9-1.1,14.1-0.6c2.2,0.6,6,1.5,6,1.5L190.1,197.2z"/>
			<path class="st1" d="M299.4,194.7c-0.4-0.1-3.2-1.3-7.1-2.1c-3.9-0.8-6.9-2.1-9.7-1.5c-2.8,0.6-4.2,0.6-6.6,0.7
				c-2.4,0.1-4.1-0.6-6.6,0c-2.5,0.6-5.9,0-9.7,1.7c-3.8,1.7-7.8,2.8-9,3.6c-1.1,0.8-3.6,2.7-3.6,2.7s0.1,1.1,1.4,1.1
				c1.3,0,9-0.6,11.8-0.6c2.8,0,3.5-0.7,6.4,0c2.9,0.7,2.1,1.1,5.3,1.1c3.2,0,2.9-0.4,6.7-0.7c3.8-0.3,3.9-0.6,5.3-0.3
				c1.4,0.3,4.1,1.1,5.1,0.8c1-0.3,5.7-0.7,6.4-0.6c0.7,0.1,2.5,0.1,2.5,0.1l1.4-1.8c0,0,0.8-1,0.3-1.4c-0.6-0.4-1.3-1.4-1.3-1.4
				L299.4,194.7z"/>
			<path class="st1" d="M305.1,158.9c0,0-1.5,12.4-1.1,15.8c0.4,3.4,1.1,6.9,1.7,9c0.6,2.1,1.5,8.4,1.5,9.5c0,1-0.4,4.2-0.4,4.2
				l-1.7,2.1"/>
			<path class="st1" d="M136,181c0.8,0,6.2-12,6.2-13.2c0-1.1-1.7-13.2-1.7-14.3c0-1.1,0.3-12.9,0.3-12.9"/>
			<path class="st1" d="M196.6,269.2c0,0-9.5,2.9-10.2,7.1c-0.7,4.2-1.5,9.4,0.3,12.3c1.8,2.9,5.2,6.4,8.3,7.8c3.1,1.4,5,1.7,5,1.7"
				/>
			<path class="st1" d="M238.1,274.2c0,0-0.8-5.1,0.9-5.6c1.8-0.4,5.1,0.3,6.2,1.7c1.1,1.4,3,4.6,3.6,7.8c0.5,3.2,0,8.4,0,9
				c0,0.6,0.1,3.8-0.6,4.3c-0.7,0.5-2.6,1.4-3.3,1.7c-0.6,0.3-4.8,2.8-4.8,2.8"/>
			<path class="st1" d="M196.3,288.2c0,0,7.5,7.8,11.4,10.2c4,2.4,6.9,5.1,12.9,4.3c6-0.8,11.4-4.4,13.9-7c2.4-2.6,6.1-5.7,6.1-5.7"
				/>
			<path class="st1" d="M207.4,219.3c0,0-2.5,9.5-3.4,13c-0.8,3.5-9.2,18.6-9.7,21c-0.4,2.4-0.8,6.4-0.8,6.4"/>
			<path class="st1" d="M229,219.9c0,0,5,16.9,7.4,22.7c2.4,5.7,7.3,16.8,7.1,18.1"/>
			<path class="st2" d="M219,222.1c0,0-2.1,7.6-2.1,15.5c0,8,0,11.1,0,16.2c0,5,0.8,11.5,0.8,13c0,1.5,0.4,6.7,0.4,6.7v4.4
				c0,0,1.3,1.7,2.1,1.1c0.8-0.6,2.1-8.6,2.1-11.1c0-2.5,1.1-16,1.1-16.8c0-0.8-1.1-15.5-1.1-15.5S220,223.6,219,222.1z"/>
			<path class="st1" d="M307.4,256.1c0,0-16.8,21.2-20.8,29.8c-4,8.6-6.9,16.2-6.9,16.2"/>
			<path class="st1" d="M131.5,262.7c0.8,3.1,6.2,8.7,10.9,19.3c4.8,10.6,6.2,21.8,6.2,21.8"/>
			<path class="st1" d="M181.4,330.1c0,0,16.9-2.9,18.8-3.5c1.8-0.6,9.9-0.4,12-0.4c2.1,0,4.5,0.3,4.9,0.4c0.4,0.1,7.7-0.4,8.3-0.4
				c0.6,0,12.3,1.8,12.3,1.8s12.9,1.7,13.3,1.8c0.4,0.1,7.1,1.4,7.1,1.4l0.7,1.7l-24.5,1l-16.1-0.1h-20.9l-16-0.6l-1.5-0.4
				C179.8,332.7,177.6,331.6,181.4,330.1z"/>
			<path class="st1" d="M178.7,341.7c0,0,21.4,2,24.8,2.8c3.4,0.8,16.8,1.8,20.7,1.5c3.9-0.3,19.2-2.8,19.7-2.8
				c0.6,0,6.9-3.2,8.1-3.9c1.3-0.7,6.2-3.1,6.2-3.1s1.7,0.1,1-0.4c-0.7-0.6,0-1-1.3-0.8c-1.3,0.1-57.6-0.1-57.6-0.1l-19.2,0.6
				l-5.5,2c0,0-0.3,0.4-0.4,0.8c-0.1,0.4,0.8,2.1,1.3,2.2C177,340.6,178.7,341.7,178.7,341.7z"/>
			<path class="st1" d="M201.5,298.3l-2,3.9l-10.6,0.6c-1.4,2.8-2.8,3.4-2.8,3.4s-2.2,2.2-2.8,0.8c-0.6-1.4-0.6-1.4-0.6-1.4
				l-6.4,0.6c0,0,0.6-1.1-1.1,0c-1.7,1.1-5,4.2-5,4.2s-0.3,0-1.7,0.3c-1.4,0.3-2.8,2-5.9,5c-3.1,3.1-7.6,7-7.8,7.8
				c-0.3,0.8,0.8,4.2-2.2,3.9c-3.1-0.3-4.2-2.5-4.2-2.5l-11.2-7c0,0,1.1-3.9,0.3-4.5c-0.8-0.6-13.4-5.9-13.4-5.9s9-4.5,7-4.8
				c-2-0.3-12.3-3.9-12.3-3.9l-0.6-7.8l-7.3-5.3l2.8,8.4c0,0,1.1,2,2,4.2c0.8,2.2,2.8,3.4,2,4.2c-0.8,0.8-3.1,3.6-2.2,4.2
				c0.8,0.6,1.7,2.2,1.7,2.2s2.2,1.1,2.5,3.9c0.3,2.8,0.6,5.6,1.1,7c0.6,1.4,2.2,3.9,2.2,3.9s1.4-0.3,0.6,1.1
				c-0.8,1.4-2.5,3.6-1.7,3.6c0.8,0,0.6,0.6,1.4,1.1c0.8,0.6,3.4,1.7,3.1,3.4c-0.3,1.7-0.3,3.6-0.3,3.6l2,2.5l-0.8,4.8
				c0,0,10.1-1.4,6.7,1.4c-3.4,2.8-5.6,7.8-5.6,7.8l4.2-0.3l0.8,4.5c0,0,0.6,0.3,1.1,1.4c0.6,1.1,2.8,6.4,2.8,6.4s-0.6,4.2,0.6,4.5
				c1.1,0.3,1.7,0.6,3.1,1.4c1.4,0.8,4.5-0.3,3.4,2c-1.1,2.2-2,4.8-0.6,5.3c1.4,0.6,3.9,1.7,3.9,1.7s-0.6,3.4,0.8,2.8
				c1.4-0.6,1.4-0.6,1.4-0.6s0.3,3.1,1.1,3.6c0.8,0.6,4.2,2.8,4.5,3.9c0.3,1.1,3.1,4.5,3.1,4.5l3.6,0.6c0,0,3.1,2.8,3.9,4.5
				c0.8,1.7,2.2,2.8,2.2,2.8l2.8-0.6c0,0,1.7,7,2.5,7.6c0.8,0.6,3.4,2.8,3.4,2.8l3.1,1.1l-1.1-3.6c0,0,1.4,1.1,2,1.9
				c0.6,0.8,5,0.6,6.4,2.3c1.4,1.7,2.8,2.2,3.6,2.8c0.8,0.6,3.4,0,3.4,0l1.1-0.8l4.8,2.5l2.8-1.4l3.6,0.6l6.7-0.8l1.1-2
				c0,0,4.5-0.3,4.5,1.7c0,2,2.2,1.1,2.2,1.1l4.8-2l3.4-0.6c0,0,1.4-2.8,1.7-2c0.3,0.8,0,3.4,0,3.4l6.5-2l4.2-0.8
				c0,0,1.1,1.1,0.8,2.2c-0.3,1.1,3.1,0,4.5-0.6c1.4-0.6,6.2-4.8,6.2-4.8l3.4,0.3c0,0,4.2-4.8,5-4.8c0.8,0,5-4.8,5-4.8l6.2-5
				c0,0,3.4-5.6,3.4-4.8c0,0.8,0,7,0,7l2.5-3.1v-7.3l3.1-3.9l4.8-2.2l-0.6-4.2l1.7-5.9l2-3.6l5.3-4.2l2.8-3.1l1.7-5.6l3.6-5.3
				l0.6-1.7c0,0-1.4-5,2-5.3c3.4-0.3,3.6-3.9,3.6-3.9l-0.6-3.6l3.6-4.2c0,0,0.8-5.3,1.7-5.6c0.8-0.3,3.4-5,3.9-5.9
				c0.6-0.8,4.8-8.4,4.8-8.4l-2-6.7l0.8-4.2v-2l0.3-15.4c0,0-0.6-6.2-0.6-7c0-0.8,0.3-4.2,0.3-5.3s-2.5-8.1-2.5-8.1l1.7,21.6
				l-2.2,4.8c0,0-1.7,2.8-1.1,4.2c0.6,1.4,0.6-0.6,0.6,1.4c0,2,0.3,3.6-0.3,5.6c-0.6,2-2,3.4-2.8,4.8c-0.8,1.4-4.8,3.1-4.8,3.1
				s-5.6,1.7-4.8,2.5c0.8,0.8,3.9,1.1,2.8,2c-1.1,0.8-4.5,1.7-4.5,2.8s0.3,3.4,0.3,3.4s1.4,0.6-2,1.7c-3.4,1.1-8.1,0.6-7.3,3.9
				c0.8,3.4,1.1,6.2-0.9,5.3c-2-0.8-4.2-2.8-4.5-5c-0.3-2.2-4.2-2-4.2-2s-2.5-0.6-3.4-2.8c-0.8-2.2-1.7-5-1.7-4.2c0,0.8,0.8,2,0.8,2
				l-7.6-4.8c0,0-1.4-0.8-2.8-1.7c-1.4-0.8-9-4.2-9-4.2l0.8,2c0,0-1.4-1.1-2.5-1.4c-1.1-0.3-6.2-1.4-6.2-1.4s-2.5-0.8-4.2-1.4
				c-1.7-0.6-4.8-1.1-5.6-1.4c-0.8-0.3-4.8-2.2-4.8-2.2l-1.1-2.2l-2-1.4"/>
			<path class="st1" d="M270.1,342.8c0,0-2-3.6-2.8-4.2c-0.8-0.6-3.1-4.2-3.1-4.2s-1.1-0.3-2-0.3c-0.8,0-3.5-1.3-3.5-1.3l-2.9-3.2
				l-3.1-0.8c0,0-1.1-0.3-2-0.3c-0.8,0-3.6-0.8-3.6-0.8l-6.2-3.1l-2,2.2c0,0-3.4-1.1-4.2-1.1c-0.8,0-3.4-2-3.4-0.6
				c0,1.4,2.5,1.4,0,1.4c-2.5,0-6.2-0.4-6.2-0.4l-2.8-1c0,0-5.9-0.6-6.7,0c-0.8,0.6-2.2,0.8-2.2,0.8s-1.7-1.7-2.5-1.4
				c-0.8,0.3-1.4,1.1-2.8,1.4c-1.4,0.3-8.1-0.6-8.1-0.6L192,326l-1.4,0.6l-1.7,0.3l-5.3,2.5h-6.4c-0.3,2.5-2.2,3.9-2.2,3.9l0.4,4.9
				c0,0-0.7,0.1-1.3,1c-0.6,0.8-0.8,2.8-0.8,2.8l0.6,2.5l7.6,4.2l11.8,0.3l1.4-2.8c0,0-4.8,1.1,2,1.7c6.7,0.6,7.8,0.3,8.7,1.1
				c0.8,0.8,2,1.7,2.8,1.1c0.8-0.6,1.7-2.2,1.7-2.2l4.2,2.2l2.8-2.2l1.1,0.3l8.4-0.6l3.9-0.6l6.7,1.1l3.9-2c0,0,5.9-1.1,7-0.3
				c1.1,0.8,5,3.4,5,3.4l0.3-3.4v-3.1l9.5,2.2c0,0-1.7-2.8-1.7-3.6c0-0.8,0.6-5,2.5-3.9c2,1.1,3.1,2.5,3.1,2.5L270.1,342.8z"/>
			<path class="st1" d="M130.1,357.4c0,0,2.5,30.3,0,46.6c-2.5,16.4-4.6,20.2-5.9,21.4"/>
			<path class="st1" d="M300.7,370c0,0,0.6,28,2.2,47c1.7,19,1.1,31.9,2.8,38.6c1.7,6.7,6.2,27.5,9,31.4c2.8,3.9,15.1,4.5,18.5,3.9
				c3.4-0.6,12.3-1.1,12.3-1.1"/>
			<path class="st1" d="M196.2,473.9c0.3,0.8,6.7,35.8,12,41.7c5.3,5.9,6.4,9,6.4,9l-21.1-4.4"/>
			<path class="st1" d="M244.4,475.3c0,0-2.8,14.3-4.8,26.3c-2,12-3.1,17.4-5.6,19.6c-2.5,2.2-5,3.6-5,3.6"/>
			<path class="st1" d="M288.6,411.4c0,0-16.5,59.4-24.6,77c-8.1,17.6-10.6,26.6-10.6,26.6"/>
			<path class="st1" d="M258.1,413.7c0,0-4.5,19.9-8.4,29.1c-3.9,9.2-4.2,11.2-4.2,11.2"/>
			<path class="st1" d="M210.8,422.1c0,0-0.8,4.5,2.2,8.7"/>
			<path class="st1" d="M230.9,421.8c0,0,0,5.9-2.2,9.2"/>
			<path class="st1" d="M179.7,419c0,0-0.8,18.8,4.2,27.7"/>
			<path class="st0" d="M128.2,353.2c0,0,0,1.7-1.7,2.8c-1.7,1.1-3.4,5.6-6.7,8.4c-3.4,2.8-10.1,15.1-25.2,22.4
				c-15.1,7.3-7.8,5-3.9,15.7c3.9,10.6,2.8,7.8,0,5.6c-2.8-2.2-7.8-11.8-11.2-17.9c-3.4-6.2-3.9-24.1-4.5-31.9
				c-0.6-7.8,0-14.6-2.8,5c-2.8,19.6,5,41.4,5,41.4l-7.8-10.6c0,0-1.7-11.8-1.7-28.6c0-16.8-3.9-21.8-5.6-24.1
				c-1.7-2.2-5,10.6-5.6,12.3c-0.6,1.7-1.1,9-1.1,22.4c0,13.4,10.1,31.4,10.1,31.4s-1.7-5.1-2.8-6.7c-1.1-1.7-12.3-16.8-15.1-28
				c-2.8-11.2,5-30.3,5-30.3s0,9-2.8,16.2c-2.8,7.3-2.8,6.2-5,8.4c-2.2,2.2-16.2,24.6-16.2,24.6s2.2-6.7,4.5-11.8
				c2.2-5-0.6-8.4-0.6-10.6c0-2.2,10.1-41.5,11.8-50.4c1.7-9,3.4-1.7,7.8-6.7c4.5-5,4.5-7.3,7.3-12.9c2.8-5.6,9.5-24.1,9.5-24.1
				l-2.2,4.5c0,0-3.9,2.2-17.4,15.1c-13.4,12.9-30.2,9-30.2,9s5,0,12.9-3.4c7.8-3.4,12.9-8.4,16.8-17.9c3.9-9.5,10.6-12.9,15.1-17.9
				c4.5-5,1.7-11.8,1.7-22.4c0-10.6-2.8-15.1-3.4-17.9c-0.6-2.8-2.2-5-2.2-5s5-14.6,2.8-21.3c-2.2-6.7,3.4-35.8,5-44.8
				c1.7-9,12.3-26.3,12.3-31.4c0-5,9.5-9,10.6-19.6c1.1-10.6,4.5-11.2,7.3-15.1c2.8-3.9,12.9-9.5,15.1-13.4
				c2.2-3.9,12.9-11.8,16.2-17.9c3.4-6.2,6.2-5,7.8-7.3c1.7-2.2,26.9-12.3,32.5-15.7c5.6-3.4,16.8-7.8,25.2-12.3c8.4-4.5,28,0,28,0
				s8.1,2.5,12.3,13.4c4.2,10.9,7.6,27.7,7.6,31.1c0,3.4,0.8,8.4,0.8,8.4"/>
			<path class="st0" d="M234.3,23.9c0,0,17.6,2.5,27.7,7.6c10.1,5,13.4,8.4,26,16c12.6,7.6,22.7,26.9,23.5,29.4
				c0.8,2.5,7.6,4.2,10.9,10.1c3.4,5.9,5.9,8.4,8.4,14.3c2.5,5.9,20.2,22.7,20.2,30.2c0,7.6-2.5,9.2,3.4,16.8
				c5.9,7.6,5.9,7.6,5.9,7.6s-0.8,1.7-6.7-0.8c-5.9-2.5-10.9-5.9-10.9-5.9s0.8,5,4.2,12.6c3.4,7.6,8.4,15.1,10.9,20.2
				c2.5,5,3.4,5.9,9.2,14.3c5.9,8.4,8.4,10.9,10.1,21.8c1.7,10.9,5,52.9,5,52.9s-4.2,16.8-5,26c-0.8,9.3,1.7,9.3,9.2,26
				c7.6,16.8,10.9,19.3,13.4,26.1c2.5,6.7,11.8,8.4,2.5,6.7c-9.2-1.7-14.3-5-14.3-5s8.4,10.9,10.9,11.8c2.5,0.8,2.5,0.8,2.5,0.8
				s-6.7,4.2-9.2,4.2c-2.5,0,5,5-7.6-0.8c-12.6-5.9-8.4-4.2-12.6-5.9c-4.2-1.7-21-11.8-21-11.8l-1.7-3.4c0,0,23.5,18.5,31.9,26
				c8.4,7.6,10.1,12.6,12.6,13.4c2.5,0.8-2.5-0.8-2.5-0.8s-8.4-4.2-5.9,1.7c2.5,5.9,0.8,9.2,0.8,11.8c0,2.5-0.8,7.6-0.8,7.6
				s-6.7-2.5-13.4,0.8c-6.7,3.4-13.4,2.5-14.3,6.7c-0.8,4.2-0.8,7.6-7.6,9.2c-6.7,1.7-6.7,1.7-6.7,1.7L341,433c0,0-8.4-2.5-10.9-9.2
				c-2.5-6.7-5-10.1-7.6-18.5c-2.5-8.4-5-8.4-5.9-17.6c-0.8-9.2-4.2-14.3-5.9-17.6c-1.7-3.4-2.5-8.4-3.4-14.3
				c-0.8-5.9-0.8-5.9-0.8-5.9"/>
			<path class="st0" d="M184.7,82.2c0,0-41.6-3.8-44.1,14.7c-2.5,18.5-6.7,57.1-5,64.7c1.7,7.6,0,25.2-3.4,30.2
				c-3.4,5-7.6,21.4-7.6,24.8c0,3.4-1.7,5.9-2.5,13c-0.8,7.1-6.7,16-5,27.7c1.7,11.8,5.5,18.9,5.5,26.5c0,7.6,1.3,7.6,3.4,12.2
				c2.1,4.6,0.8,0,2.1,4.6"/>
			<path class="st1" d="M271.7,87.3c0,0,7.1,6.3,14.3,14.7c7.1,8.4,8,7.6,13.9,16c5.9,8.4,13.9,25.2,15.1,34
				c1.3,8.8,3.4,12.2,2.5,18.1c-0.8,5.9-1.7,10.9,1.3,20.2c2.9,9.2,4.6,18.9,5,28.6c0.4,9.7,5.5,7.1,5,22.7
				c-0.4,15.5,0,14.3-0.8,23.5c-0.8,9.2,2.5,2.1-0.8,19.7c-3.4,17.6-4.2,24.8-4.6,30.7c-0.4,5.9,1.3,10.1,4.2,16"/>
			<path class="st0" d="M187.5,76.8c0,0,8.1-10.6-20.4-9c-28.6,1.7-42.8,7.3-45.4,14.3c-2.5,7-8.7,13.4-8.7,21.6
				c0,8.1-2.2,54.6,0.3,73.1c2.5,18.5,3.4,32.8,0,41.2c-3.4,8.4-5.9,9.2-12.6,18.5C94,245.6,78.9,244,80.6,265
				c1.7,21,20.2,31.9,27.7,41.2c7.6,9.2,15.7,12.9,14.6,17.6c-1.1,4.8-7.8,22.7-7.8,22.7l-10.9,19.3"/>
			<path class="st0" d="M204.9,72.6c0,0-6.7-15.1-34.4-15.1c-27.7,0-50.1,2.5-53.8,24.4c-3.6,21.8-12.6,77.3-10.1,93.3
				c2.5,16,6.7,28.6,2.5,35.3c-4.2,6.7-10.9,21-10.9,21s-37.8,31.1-17.6,61.3c20.2,30.2,31.9,15.1,26.9,36.1c-5,21-16,30.2-16,44.5"
				/>
			<path class="st0" d="M222.5,65.9c0,0-10.1-26-40.3-25.2c-30.2,0.8-36.1,4.2-42.9,16.8c-6.7,12.6-10.9,20.2-10.9,20.2
				s-5.9,15.1-5.9,24.4c0,9.2-0.8,37-2.5,46.2c-1.7,9.2-0.8,6.7-1.7,17.6c-0.8,10.9,1.7,21-3.4,31.1c-5,10.1-12.6,21.8-12.6,24.4"/>
			<path class="st0" d="M232.6,74.3c0,0,13.4-30.2-17.6-36.1c-31.1-5.9-44.5-7.6-65.5,7.6c-21,15.1-45.4,112.6-45.4,126
				c0,13.4-8.4,34.4-11.8,38.6c-3.4,4.2-17.6,14.3-17.6,14.3l-5.9,4.2"/>
			<path class="st0" d="M215.8,74.3c0,0,2.5-17.6-25.2-21.8c-27.7-4.2-41.2-10.9-51.2,5c-10.1,16-35.3,46.2-37,58.8
				c-1.7,12.6-4.2,25.2-6.7,40.3c-2.5,15.1-7.6,26-9.2,29.4c-1.7,3.4-10.1,12.6-10.1,12.6l-5,3.4"/>
			<path class="st0" d="M110.8,81c0,0-16.8,21-23.5,62.2c-6.7,41.2-12.6,49.6-14.3,55.5c-1.7,5.9-4.2,10.9-4.2,10.9l-3.4,7.6"/>
			<path class="st1" d="M111.6,235.6c0,0-21-3.4-17.6,21c3.4,24.4,5.6,24.9,14.3,38.7c8.7,13.7,8.4,18.5,9.2,26"/>
			<path class="st1" d="M112.5,249.8c-2.5,0-13.4-4.2-10.1,9.2c3.4,13.4,10.1,11.8,10.1,31.1c0,19.3,1.7,28.6,1.7,31.1"/>
			<path class="st0" d="M229.3,75.1c0,0,4.2-23.5-13.4-29.4c-17.6-5.9-74.8,27.7-80.7,44.5c-5.9,16.8-11.8,46.2-11.8,46.2
				s0.8,17.6-1.7,26.9c-2.5,9.2-14.3,35.3-16,39.5c-1.7,4.2-28.6,83.2-26.9,86.5c1.7,3.4,2.5,12.6,2.5,15.1c0,2.5-9.2,15.1-5.9,26.9
				c3.4,11.8,10.1,29.4,10.1,40.3"/>
			<path class="st1" d="M74.7,283.4c0,0-1.7,4.2-7.6,22.7c-5.9,18.5-9.2,23.5-9.2,26"/>
			<path class="st1" d="M81.4,304.5c0,0,2.5-31.9,6.7,10.1c4.2,42,6.7,48.7,5,53.8c-1.7,5.1-2.5,13.5-2.5,13.5"/>
			<path class="st0" d="M267.6,82.1c0,0,26.3-2.2,37.5,5.6c11.2,7.8,19,6.2,20.2,32.5c1.1,26.3,0,36.4,3.9,45.4
				c3.9,9,12.3,17.4,21.8,25.8c9.5,8.4,12.3,6.7,15.7,14.6c3.4,7.9,15.1,10.6,15.1,10.6"/>
			<path class="st1" d="M250.3,68.1c0,0,2.2-0.6,11.8-6.7c9.5-6.2,12.3-10.6,16.8-10.6c4.5,0,6.7,0,8.4,0.6c1.7,0.6,5,3.4,5,3.4"/>
			<path class="st1" d="M247.5,68.7c0,0,0-10.6,6.2-21.3c6.2-10.6,12.3-12.9,12.3-12.9l7.3,2.2"/>
			<path class="st1" d="M245.8,72.6c0,0-0.6-2.2,0.6-15.7c1.1-13.4-7.9-2.3,4.5-24.6c2.8-5,3.9-2.2,7.3-0.6"/>
			<path class="st1" d="M251.9,77.6c0,0,25.2-12.9,38.6-12.9c13.4,0,14.6,0,17.9,6.7"/>
			<path class="st1" d="M260.4,81c0,0,27.4,0,32.5,0c5,0,16.2,1.7,28.6,12.3c12.3,10.6,12.3,10.6,12.3,10.6"/>
			<path class="st0" d="M269.3,84.9c0,0,12.3-5.6,28.6,16.8c16.2,22.4,15.1,33,15.7,36.4c0.6,3.4-1.7,14,9,31.4
				c10.6,17.4,16.8,12.9,27.4,19c10.6,6.2,13.4,13.4,16.8,17.4c3.4,3.9,28,10.1,28,10.1"/>
			<path class="st0" d="M317.5,170c0,0-13.4-8.4,4.5,15.7c17.9,24.1,30.8,28.6,32.5,29.7c1.7,1.1,2.2,1.7,3.9,2.2
				c1.7,0.6,9.5,10.1,16.3,9.5"/>
			<path class="st0" d="M259.8,72c0,0,6.7-5,23.5,4.5c16.8,9.5,21.8,0,26.3,22.4c4.5,22.4,9,34.2,9,42.6c0,8.4,2.2,10.1,5.6,30.8
				c3.4,20.7,7.8,44.2,8.4,47c0.6,2.8,4.5,15.1,5.6,18.5c1.1,3.4,0,15.7,4.5,19.6c4.5,3.9,6.7,3.4,8.4,14
				c1.7,10.6,1.1,12.9-3.4,21.3c-4.5,8.4-0.6,6.7-9,13.4c-8.4,6.7-15.1-1.7-11.2,14.6c3.9,16.2,5.6,63.9,13.4,74.5
				c7.8,10.6,13.4,15.1,13.4,15.1"/>
			<path class="st0" d="M266.5,77.1c0,0,17.9,0.6,34.2,19.6c16.2,19,17.4,25.8,21.8,38.1c4.5,12.3,10.1,37.5,11.2,45.9
				c1.1,8.4,5.6,34.7,10.6,45.4c5,10.6,10.1,28.6,11.2,35.3c1.1,6.7,3.9,11.8,1.1,20.2c-2.8,8.4-2.8,9-6.2,15.7
				c-3.4,6.7-9,11.8-9,11.8s-5.6,9.5-5.6,11.2c0,1.7,13.4,45.4,20.7,51.5c7.3,6.2,11.8,12.3,11.8,12.3"/>
			<path class="st0" d="M249.7,75.4c0,0,30.8-6.7,48.7,8.4c17.9,15.1,32.5,25.8,36.4,47.6c3.9,21.8-0.6,19,5.6,35.8
				c6.2,16.8,17.4,20.2,17.4,20.2l7.8,3.9"/>
			<path class="st0" d="M340.4,203.1c0,0,14.6,7.8,17.4,32.5c2.8,24.6,5,32.5,2.8,42c-2.2,9.5-21.3,16.2-11.2,40.3
				c10.1,24.1,27.4,42.6,27.4,42.6l10.6,5"/>
			<path class="st0" d="M358.9,221.6c0,0,8.4,35.8,8.4,43.7c0,7.8,2.2,15.1,0,20.7c-2.2,5.6,2.2,3.9-4.5,9.5
				c-6.7,5.6-16.2,9-18.5,15.1c-2.2,6.2-16.2,34.2-15.7,52.1c0.6,17.9,4.5,35.3,5,37.5c0.6,2.2,4.5,6.7,6.2,10.1"/>
			<path class="st0" d="M362.8,307.8c5,14,10.1,25.2,16.2,35.3c6.2,10.1,11.2,14,11.2,14"/>
			<path class="st1" d="M157.9,128c0,0,39.2,3.4,42.6,3.9c3.4,0.6,11.8,2.8,23.5,5c11.8,2.2,17.9-0.6,23.5-0.6c5.6,0,9-1.1,17.4,1.1
				c8.4,2.2,17.4,2.2,17.4,2.2"/>
			<path class="st1" d="M156.2,152.7c0,0,24.1,0,32.5,0c8.4,0,28-0.6,28-0.6s-2.2,3.4,7.8,3.4c10.1,0,14.6,0,21.3,0
				c6.7,0,6.7-1.1,15.1-0.6c8.4,0.6,17.4,0.6,21.3,2.2c3.9,1.7,10.1,3.9,10.1,3.9"/>
			<path class="st1" d="M155.6,172.8c0,0,35.8,1.7,39.2,1.7c3.4,0,16.2,3.9,16.2,3.9"/>
			<path class="st1" d="M221.7,172.3c0,0,31.9-3.9,38.1-4.5c6.2-0.6,11.8-1.7,22.4-1.7c10.6,0,14.6,0.6,14.6,0.6"/>
			<path class="st1" d="M294.8,227.7c0,0-6.2,8.7-9,11.8"/>
			<path class="st1" d="M137.4,233.3c0,0,5.9,4.8,7.3,5.9"/>
			<path class="st1" d="M176.1,355.7c0,0-0.3,6.7-8.1,12c-7.8,5.3-7.8,2.2-12.3,7.8"/>
			<path class="st1" d="M192,363c-0.3,3.4,0,11.2-6.7,12.9c-6.7,1.7-14,4.8-14.6,7"/>
			<path class="st1" d="M227.9,358.2c6.2,4.8,14.6,6.2,17.9,11.5c3.4,5.3,10.6,15.4,9.5,18.5c-1.1,3.1-0.8,5-3.9,9"/>
			<path class="st1" d="M190.3,378.1c-2,1.7-8.7,8.1-8.7,13.4c0,5.3,0.6,9.5,1.4,12.6c0.8,3.1,2.8,6.7,2.8,6.7"/>
			<path class="st1" d="M195.4,387.4c-1.7,7-3.1,14-2.5,16.5c0.6,2.5,1.7,5.6,2.5,7.3"/>
			<path class="st1" d="M208.5,380.4c-2.8,5.9-4.5,11.8-3.6,17.9c0.8,6.2,0.3,9.8,0.6,12c0.3,2.2-0.6,3.9-0.6,3.9"/>
			<path class="st1" d="M229.5,384.3c-3.9,2.8-10.1,5.3-12,7.8"/>
			<path class="st1" d="M212.7,382c1.4,9.2,1.7,14.8,3.1,18.2c1.4,3.4,1.1,7.6,0.3,9.2"/>
			<path class="st1" d="M241.3,383.7c4.2,7,5.9,13.2,5,14.6c-0.8,1.4-3.4,3.9-5,6.7c-1.7,2.8-4.8,4.5-4.8,4.5"/>
			<path class="st1" d="M230.1,387.1c-0.8,4.8-1.1,10.4-2.5,13.4c-1.4,3.1-4.2,6.4-4.2,7.6"/>
			<path class="st1" d="M204.3,357.4c0,2.2,0.8,2.5-2.8,6.5c-3.6,3.9-3.4,2.2-5.3,6.2c-2,3.9-4.5,4.2-5.6,10.4
				c-1.1,6.2-2,8.4-0.8,12.3c1.1,3.9,1.4,7,1.7,9.5"/>
			<path class="st1" d="M224.8,362.1c2,4.8,4.8,9,5.3,10.6"/>
			<path class="st1" d="M251.9,352.3c0.3,1.1,3.4,5.9,3.4,10.4"/>
			<path class="st1" d="M273.8,364.1c-0.3,9.5-3.6,16-4.8,18.5"/>
			<path class="st1" d="M265.1,379.2c-1.7,3.9-4.5,9.8-5.3,12.3"/>
			<path class="st1" d="M277.7,373.1c0,3.4-0.8,7.6-1.1,10.9"/>
			<path class="st1" d="M259.5,400.5c-7.8,4.2-10.9,6.4-12,7"/>
			<path class="st1" d="M205.2,368.3c-1.4,2.3-4.8,4.8-4.2,9.8c0.6,5,0.6,7.8,0.6,11.8"/>
			<path class="st1" d="M165.7,379c-2,3.9-1.4,5.9-0.8,7.8"/>
			<path class="st1" d="M208.3,308.1c-2,3.4-2,2.8-2.8,7.3c-0.8,4.5-1.1,6.2-1.1,6.2"/>
			<path class="st1" d="M199.9,309.2c-0.6,2-1.1,5.3-2.5,8.4"/>
			<path class="st1" d="M190.1,308.9c0,0-2.5,7.3-3.4,9c-0.8,1.7-0.6,1.7-1.4,4.2"/>
			<path class="st1" d="M175.5,326.3c-0.8,2.2-2.5,7.6-2.5,9"/>
			<path class="st1" d="M165.7,323.5c-0.3,2,0,0.8-1.7,6.4c-1.7,5.6-1.1,8.4-1.7,10.4"/>
			<path class="st1" d="M157.6,351.5c-1.4,2-2.8,5.3-4.5,7.3c-1.7,2-2.5,3.1-2.5,3.1"/>
			<path class="st1" d="M213.3,308.1c0,0-2,3.4-3.4,4.5c-1.4,1.1-3.4,4.5-3.4,4.5"/>
			<path class="st1" d="M244.1,311.5c2,4.2,3.1,5.9,3.9,8.4c0.8,2.5,0.8,2.5,0.8,2.5"/>
			<path class="st1" d="M256.7,313.1c2.8,4.5,5.6,9,6.4,12.3c0.8,3.4,1.7,3.4,2.5,3.9"/>
			<path class="st1" d="M270.4,331.3c2.2,4.8,3.6,2.2,3.6,6.4c0,4.2,0.6,7.6,0.6,7.6"/>
			<path class="st1" d="M269,318.7c0.8,0.8,3.9,2.5,4.8,6.4c0.8,3.9,1.4,5.6,1.4,6.4"/>
			<path class="st1" d="M283.3,341.1c1.1,6.7,1.1,7.8-0.3,10.9c-1.4,3.1-2,2.5-2.8,5.3"/>
			<path class="st1" d="M264.3,346.2c0.6,0.8,2.5,2.5,3.4,6.4c0.8,3.9,1.1,5.6,1.1,6.4"/>
			<path class="st1" d="M260.4,358c0,0.8,0.3,3.1-0.3,7c-0.6,3.9-0.8,2.8,0,8.1"/>
			<path class="st1" d="M292.8,332.7c1.4,3.1,3.1,6.4,3.1,9.5c0,3.1,0.3,1.7,0,3.1"/>
			<path class="st1" d="M282.5,323.2c1.1,1.7,3.4,3.4,2.8,7.8c-0.6,4.5-0.6,6.2-0.6,6.2"/>
			<path class="st1" d="M142.5,333.6c-3.1,2.5-6.2,6.7-6.7,8.1"/>
			<path class="st1" d="M142.2,329.9c-0.8,0-5.6-1.4-5.6-1.4"/>
			<path class="st1" d="M151.7,355.4c-2,3.1-4.8,9-4.2,10.6c0.6,1.7,0.8,4.5,0.8,4.5"/>
			<path class="st1" d="M239.6,310.3c0,0,2.5,4.8,2.5,7.6c0,2.8,0,2.8,0,2.8"/>
			<path class="st1" d="M220.3,310.9c0.3,1.7,0.3,5,0.8,7.8c0.6,2.8,0.6,2.8,0.6,2.8"/>
			<path class="st1" d="M229.5,313.7c0.6,3.4,1.1,5.3,1.4,7"/>
			<line class="st0" x1="374.9" y1="405" x2="391.7" y2="405"/>
		</g>
		<path class="st1" d="M135,367.9c0,0,11.9,26.3,15.6,36c3.8,9.7,15.6,58.5,17.2,65.7c1.6,7.2,12.2,29.4,15.3,36
			c3.1,6.6,10.6,15.6,10.6,15.6s5.9-2.2,7.2-1.9c1.3,0.3-10-34.4-12.2-46.6c-2.2-12.2-0.3-24.4-2.2-41.3
			c-1.9-16.9-8.8-22.2-8.8-22.2"/>
		<path class="st1" d="M190.3,415.1c0,0-2.5,9.7-2.5,10.9c0,1.3,0,1.3,0,1.3l-1.2,2.2"/>
		<path class="st1" d="M188.1,460.5c5-9.7,12-42.3,12-42.3"/>
		<path class="st1" d="M200.6,421.7c0,0-2.5,37.2-3.4,46c-0.9,8.8-3.8,22.5-3.8,22.5"/>
		<path class="st1" d="M206.9,419.5c0,0,1.9,53.5,0,67.9c-1.9,14.4-5,31.9-4.1,33.8c0.9,1.9,4.7,3.1,4.7,3.1"/>
		<path class="st1" d="M217.8,418.9c0,0-0.6,37.5-0.6,45.4s0.3,28.5,0.9,32.2c0.6,3.8,2.5,15.9,2.5,17.8c0,1.9-2.2,8.5-3.1,9.1"/>
		<path class="st1" d="M227.8,416.1c0,0,2.2,29.1,2.5,42.8c0.3,13.8,0.6,21.6,1.9,27.5c1.2,5.9,1.2,6.9,0.3,9.7
			c-0.9,2.8-9.4,24.1-11.3,27.2"/>
		<path class="st1" d="M247.2,416.1c0,0-8.4,42.8-9.7,51.3c-1.2,8.4-3.1,13.1-3.4,15.6"/>
		<path class="st1" d="M282.3,395.1c0,0-16.9,46.9-20,60.1c-3.1,13.1-7.5,26.6-12.2,36.3c-4.7,9.7-8.4,17.8-9.4,19.4l12.7,4.2"/>
		<path class="st1" d="M229.1,416.1c0,0,2.2,21.3,5.6,29.1c3.4,7.8,2.8,11.6,2.8,11.6"/>
		<path class="st1" d="M240,414.2c0,0-2.2,8.8,1.2,12.5c3.4,3.8,3.4,3.8,3.4,3.8"/>
		<path class="st1" d="M260.1,468.7l4.5,6.9l0.1,7.9c-1.6-1.3-6.6-8.4-6.6-8.4"/>
		<polyline class="st1" points="263.5,452.3 267.6,459.5 269.1,461.1 271.6,463 		"/>
		<path class="st1" d="M282.7,482.2c0,0,12.8,10.6,15,13.5c2.2,2.8,8.3,7,14.7,8.3"/>
		<path class="st1" d="M282,498.3c0,0,4.5,5.2,10.8,6.1c6.3,0.9,20.2,1.4,20.2,1.4h5"/>
		<path class="st1" d="M294.2,379.2c0,0,0.6,14.4-3.4,38.5c-4.1,24.1-10.3,74.8-9.4,82.3c0.9,7.5,0.9,7.5,0.9,7.5l-7-21.1l-2-22.9"
			/>
		<path class="st1" d="M285.2,389.6c0,0-14.3,50-15.2,57.5c-0.9,7.5-2.3,12.4-2.3,12.4"/>
		<path class="st1" d="M291.7,420.8c0,0,6.1,32.6,10.3,42c4.2,9.4,5.4,14.5,5.9,15.5c0.5,0.9,6.1,12.7,6.1,12.7l10.3,9.6"/>
		<path class="st1" d="M285.4,465.2c0,0,2.8,8.7,4,14.1c1.2,5.4,2.3,9.4,2.3,9.4"/>
		<path class="st1" d="M143,462.6c0,0-5.6,21.8-8.4,26.7c-2.8,4.9-3.8,7.3-6.8,8.4c-3,1.2-6.3,2.6-6.3,2.6"/>
		<path class="st1" d="M138.1,419c0,0-10.6,52.8-22,64c-11.5,11.3-13.1,15.2-13.1,15.2"/>
		<path class="st1" d="M124.7,413.3c0,0-18.8,51.8-20.6,60.5c-1.9,8.7-4.5,17.3-6.1,20.6"/>
		<line class="st1" x1="168.6" y1="478.8" x2="163.4" y2="485.3"/>
		<path class="st1" d="M134.8,387.3c0,0-0.9,9.8,1.4,18.3c2.3,8.4,9.1,74.6,8.4,85.6c-0.7,11-0.7,11-0.7,11"/>
		<path class="st1" d="M136.9,375.1c0,0,16.9,49.7,20.2,73.2c3.3,23.5,7,49.3,8.7,53.5l-17.1-34.6l-4.9-9.8"/>
		<path class="st1" d="M143,483.7c0,0-5.2,10.1-13.4,13.4"/>
		<polyline class="st1" points="161.1,471.3 164.6,465.4 196.9,512.8 		"/>
		<path class="st1" d="M145.4,499.9c0,0-4.2,2.1-6.6,3.3"/>
		<path class="st1" d="M303.9,410.4c0,0,13.8,37.5,18.1,59.4c4.4,21.9,4.4,26.3,8.1,32.5"/>
	</g>
	<g>
		<path class="st1" d="M201.8,512.8c0,0,0.8,4.1-1.2,4.5c-2,0.4-6.9,0.8-6.9,2.9c0,2,0,6.1,1.2,6.9c1.2,0.8,3.7,1.2,5.3,2
			c1.6,0.8,4.1,0.4,4.5,1.6c0.4,1.2,0.4,9.4,2.4,11.4c2,2,8.6,1.2,9.8,1.2c1.2,0,0.8-2.4,2.9-1.2c2,1.2,3.7,2.4,4.9,2.4
			c1.2,0,10.6-1.6,12.2-3.7c1.6-2,2.9-6.1,2.9-6.1l5.3-1.6c0,0,1.6-0.4,2.9-1.2c1.2-0.8,5.7-4.9,5.7-4.9s-2-8.6-3.7-8.6
			c-1.6,0-10.2-2-11.4-3.3c-1.2-1.2-2-4.1-2-4.1"/>
		<path class="st1" d="M237.3,521.4c0,0,1.6,3.7-4.5,4.5c-6.1,0.8-11.4,0.8-11.4,0.8"/>
		<path class="st1" d="M238.1,531.6c-1.2,0.8-4.1,2.9-4.1,2.9s-0.8,1.2-0.8,2.4"/>
		<path class="st1" d="M247.1,520.2c0,0,2,6.1,1.6,7.3c-0.4,1.2-0.8,4.5-0.8,4.5"/>
		<path class="st1" d="M203.8,519.4c0,0-2,1.2-2,2.4c0,1.2,0.4,3.7,0.4,3.7"/>
		<path class="st1" d="M203,538.9c0,2,0.8,6.1-1.2,7.8c-2,1.6-1.6,2.5-3.7,2.5c-2,0-9.4-2-10.2,0.8c-0.8,2.9-1.6,6.9,1.2,8.2
			c2.9,1.2,6.9,0.8,11,1.2c4.1,0.4,5.7,0.4,5.7,2.4c0,2-0.8,6.5,0.4,6.9c1.2,0.4,11,2.9,16.7,2.9c5.7,0,13.5,0,15.1-2
			c1.6-2,2.4-4.5,3.3-6.9c0.8-2.5,1.2-2.9,3.7-2.9c2.5,0,8.6-2.5,10.2-4.5c1.6-2,5.7-5.7,2-6.1c-3.7-0.4-11.4-2-11.8-0.8
			c-0.4,1.2-2.9,0.4-4.1,0c-1.2-0.4,0.8,3.3-1.2-0.4c-2-3.7-3.3-6.9-3.3-6.9"/>
		<path class="st1" d="M246.2,550c0,0-3.7,2.9-5.7,2.9c-2,0-5.3-0.4-5.3-0.4"/>
		<path class="st1" d="M207.5,545.5c0,0,4.5,4.5,6.1,4.1c1.6-0.4,7.3-0.4,9.4-0.4c2,0,2,0,4.9,0c2.9,0,4.9-0.4,6.1-0.8
			c1.2-0.4,2.4-2.5,2.4-2.5"/>
		<path class="st1" d="M240.9,557.7c0,0-2.9,2.9-4.1,5.3c-1.2,2.4-1.2,2.4-1.2,2.4"/>
		<polyline class="st1" points="203.8,556.5 206.7,558.9 208.7,563 		"/>
	</g>
	<polygon class="st1" points="147.9,494 147.1,516.9 155.2,527.5 	"/>
	<path class="st1" d="M111.1,501.4c-5.7,1.6-18,9-18,9s-2.4,6.5,0,6.5c2.4,0,11.4,0.8,15.5,0c4.1-0.8,8.2-0.8,9-3.3
		C118.5,511.2,111.1,501.4,111.1,501.4z"/>
	<polygon class="st1" points="316,503 337.3,512.8 342.2,507.9 	"/>
	<polygon class="st1" points="258.1,520.2 259.7,539.8 266.2,543 	"/>
	<polygon class="st1" points="269.9,483 264.6,495.7 272.4,509.1 	"/>
</g>
<text transform="matrix(1 0 0 1 220.9802 117.7139)" class="st3 st4 st5">i</text>
</svg>
