<?xml version="1.0" encoding="utf-8"?>
<!-- Generator: Adobe Illustrator 22.1.0, SVG Export Plug-In . SVG Version: 6.00 Build 0)  -->
<svg version="1.1" id="Layer_1" xmlns="http://www.w3.org/2000/svg" xmlns:xlink="http://www.w3.org/1999/xlink" x="0px" y="0px"
	 viewBox="0 0 487.4 547.1" style="enable-background:new 0 0 487.4 547.1;" xml:space="preserve">
<style type="text/css">
	.st0{clip-path:url(#SVGID_2_);}
	.st1{fill:#FFFFFF;stroke:#FFFFFF;stroke-width:2;stroke-miterlimit:10;}
	.st2{fill:none;stroke:#FFFFFF;stroke-width:2;stroke-miterlimit:10;}
	.st3{fill:#76B72D;stroke:#FFFFFF;stroke-width:2;stroke-miterlimit:10;}
</style>
<g>
	<defs>
		
			<ellipse id="SVGID_1_" transform="matrix(0.7071 -0.7071 0.7071 0.7071 -128.3523 255.6225)" cx="244.4" cy="282.7" rx="234.7" ry="234.7"/>
	</defs>
	<clipPath id="SVGID_2_">
		<use xlink:href="#SVGID_1_"  style="overflow:visible;"/>
	</clipPath>
	<g class="st0">
		<g>
			<path class="st1" d="M310.7,318.4c0,0-10.5-1.4-11.8-1.3c-1.4,0.1-3.8-0.7-9,0.7c-5.2,1.3-8.3,1.9-11.2,1.9
				c-2.9-0.1-8.9-0.6-11.4,0.7c-2.5,1.3-5.3,2.5-5,2.7c0.3,0.2,3.3,2.9,4.8,2.1c1.5-0.7,3.8-2.2,4.5-3.4c0.7-1.2-0.5,2,1.1,2.9
				c1.6,0.8,10.8,1.7,10.9,0.7c0.1-1,0-1.4,0-2.8c0-1.5,0-2.5,0-2.5s0.7-0.2,0.7,0.2c0,0.4,0.6,5.2,2.1,5c1.4-0.2,8.4-0.3,8.9-1.2
				c0.5-0.9,1.7-1.1,1.6-2.6c-0.1-1.5,0.5-2.1,0.5-2.1s-1.4,1.6,1.3,2.7c2.7,1.1,5.5,0.6,5.5-0.6c0-1.2,0.3-2.1,0.3-2.1
				s0.5,2.9,2.2,3c1.7,0.1,2.9-0.4,3.7-0.9C311.5,320.9,310.7,318.4,310.7,318.4z"/>
			<path class="st1" d="M266.2,327.4l1-0.7c0,0,14.7,0.2,17.1,0c2.4-0.2,15.7-2.5,16.1-2.7c0.4-0.2,3.4,0.2,3.4,0.2
				s-0.4,1.1-0.6,1.1s-7,3.8-16.3,4.2C277.5,329.8,274.5,329.4,266.2,327.4z"/>
			<g>
				<path class="st2" d="M349.6,152c0,0,4.4-12.5,2.9-14c-1.5-1.5-2.9,7.6-4.9,8.6s-3.4,4.4-11.3,3.9c-7.9-0.5,7.1,1.5,7.1,1.5
					s-3.2,2.9-4.4,4.2c-1.2,1.2,7.4,1.5,8.1,0c0.7-1.5-1.7,3.4,0.2,11.1c2,7.6,2.2-3.4,2.2-3.4s3.8,8.1,3.3,12.3
					c-0.5,4.2-1.5-14-1.5-15.2c0-1.2-0.2-5.7-0.2-5.7l-1.7-1.5L349.6,152z"/>
				<path class="st2" d="M352.1,158.2l1.5,2.6v2.3l1.1,1v1.8l1.1,1v1.8h1.3l-0.8,1.6h0.8c0,0-1.6,1.1-0.8,1.3c0.8,0.2,1.6,1,1.6,1
					v1.3v2.1h1c0,0-2.5,1.3-1.5,1.6c1,0.3,1.5,1.1,1.5,1.1v1.8l1,1.6v0.8v0.8c0,0-0.7,1.3,0,1.6c0.7,0.3,1,1.5,0.8,2s-1.2,3.6,0,3.6
					c1.3,0,1.6-0.2,1.3,1.5c-0.3,1.6-0.4,1.8,0.1,2.3c0.5,0.5,0.7,2.3,0.7,2.3s-0.3,0.3,0,0.8c0.3,0.5,0,1.3,0,1.3s0.3,0.7,0.1,1.5
					c-0.1,0.8,0,3.3,0,3.3l-5.5-1.5l-1.7-4.6c0,0-1.8-3.6-1.3-4.4c0.5-0.8,1.8-1.8,0.7-2c-1.1-0.2-2.3-3.8-2.3-3.8l0.7-3.1l-1.5-3.6
					c0,0-0.2-2.1,0-2.6c0.2-0.5-2.1-1.5-1.8-2.6s1.9-2.8,0-3.8c-1.9-1-1.8-2.2-1.8-2.2l1.4-5.4l2.9,11.6
					C352.8,176.1,349.6,159.1,352.1,158.2z"/>
				<path class="st2" d="M169,255c0,0-3.2-3.9-2.2-4.4s2.3-2.2,1-5.2c-1.3-2.9-0.9-3.7-1.2-8.4c-0.3-4.7-1-6.6-1.3-9.3
					c-0.2-2.7,0-6.1,0-8.4c0-2.2,0.8-3.4-0.1-6.9c-0.9-3.4,0-7.1,0-7.1s0.1,0.7-0.4-5.7c-0.5-6.4,1-8.6,1-8.6s-0.4-5.2,1.1-5.2
					c1.4,0,2.1-5.7,2.1-5.7s-1.7-2.7,0-6.4c1.7-3.7,3.2-6.1,3.7-8.6c0.5-2.5,0.5-7.1,1.2-5.2s1.7,7.6,2.9,14c1.2,6.4,0,16.5,0,17.9
					s-2.7,5.4-3.7,7.4c-1,2-1.8,6.9-2.1,7.9c-0.3,1-1.3,2.7-1.3,2.7s1.7,42,2.5,42.5c0.7,0.5,2.5,2.2,1,2.5
					C171.7,255.2,169.4,252.8,169,255z"/>
				<path class="st2" d="M348.4,144.4c0,0-3.2-10.6-5-14.3c-1.7-3.7-1.7-3.7-1.7-3.7v6.4c0,0-13-15.5-13.8-16
					c-0.7-0.5-19.2-12.3-19.9-13c-0.7-0.7-14.5-8.6-15-9.8c-0.5-1.2-14.7-12.5-14.7-12.5l5.2,6.1c0,0-18.2-9.1-20.4-9.8
					c-2.2-0.7-8.8-2.2-8.8-2.2h-7.1c0,0,7.1,9.1,5.2,8.8c-2-0.2-6.9-2-6.9-2L226,79.8l-7.4,2.5l4.2,1l-17.2-0.7l-16.7,2.9l-2.2,3.9
					h11.8l15.2,4.4l-12.8,2.7L186.6,98l5.9,3.9l-16.5,6.6l-2.7,3.2c0,0,5-2.9,4-1.7c-1,1.2-2.8,5.9-2.8,5.9s8.6,0.7,6.4,1.7
					c-2.2,1-5.4,2.7-5.4,2.7l6.6,2.2c0,0-3.7,5.2-2.7,4.9s7.1-2.7,5.7-0.7c-1.5,2-16,11.5-16,11.5l-0.7,2l-2.8,4.1l6.1-1.8
					c0,0-4.1,4.6-2.6,4.6c1.5,0,4.9-1.8,4.9-1.3s-5.9,6.6-5.9,6.6l-0.2,2.6c0,0,5.7-6.7,7.2-6.2c1.5,0.5-0.8,6.2-0.8,6.2
					s4.1-1.3,2.3,0c-1.8,1.3-6.4,4.6-6.4,4.6l-0.3,1.8c0,0,3.5-2.8,3.9-1.3c0.5,1.5,2.2,0.2,3.5-1.1c1.3-1.3-2.8,3.6-2.8,3.6
					s4.1,16.4,4.1,16.9s-1.3,5.4-1.3,5.4l13.7-19l9.3-15.1c0,0,21.6-11.1,23.6-11.3c2-0.2,7.1-2.2,7.1-2.2l-2.9,4.4l12-6.6
					c0,0,6.6-3.2,9.8-3.4c3.2-0.2,9.8-3.7,10.6-3.7s21.6,2.3,21.6,2.3s-16.2-7.5-3.4-5c12.8,2.5,19.2,5,19.2,5s13.3,3.4,15.5,5.1
					c2.2,1.7,12.8,4.3,10.8,2.5c-2-1.8,3.7,2.1,5.4,3.1s3.4,8.1,6.1,8.1c2.7,0,4.2,0,4.2,0S349.8,148.7,348.4,144.4z"/>
				<path class="st2" d="M269,121.8c0,0-27-17.2-45.5-10.8c-18.4,6.4,18.7-1.2,29,6.9"/>
				<path class="st2" d="M314.9,120.3c0,0-13.8-14.3-45.9-16.7c-32.2-2.5,10.4,1.1,42.8,23.3"/>
				<path class="st2" d="M264.2,119.1"/>
				<path class="st2" d="M273.5,114.9c-6.9-3.8-25.2-10.7-36.4-12c-11.1-1.3-11.1-1.3-11.1-1.3"/>
				<path class="st2" d="M334,130.2c0,0-25.2-22.4-34.7-24.7c-9.5-2.3-19-3.9-19-3.9s-12.1-4.9-30.6-5.6s-18.5-0.7-18.5-0.7"/>
				<path class="st2" d="M262.3,121.8c0,0-24.9-10.2-40.6-9"/>
				<path class="st2" d="M218.4,133.1c0,0-21,4.5-42.6,24.2"/>
				<path class="st2" d="M229.9,126.9c0,0-24.1,1.6-52.5,17"/>
				<path class="st2" d="M238.7,121.8c-1-0.8-27.5-7.7-62.9,13.6"/>
				<path class="st2" d="M209.6,104.9"/>
				<path class="st2" d="M235.1,127.7c0,0-46.4,9.6-54,25"/>
				<path class="st2" d="M215.5,119.1c0,0-15.6-3.1-30.3,7.6"/>
				<path class="st2" d="M171,209.5c0,0,0.6,11.1,1.6,12c1,1,4.8,8.6,4.7,12.5c-0.1,3.9,4.1,23.1,8.1,28.3
					c3.9,5.2,17.4,13.5,32.4,12.3c15-1.2,31.3-4.2,39.3-18.7c7.9-14.5,12.1-27.5,13.8-30.2s6.9-2.7,7.4-2.2c0.5,0.5,3.2-3.9,10.3,13
					s15.7,28.5,25.3,31c9.6,2.5,19.9,2.9,27.8,0.7c7.9-2.2,19-5.9,21.4-17.2c2.4-11.3,3.4-33.9,5.1-35.4c1.7-1.5,3.4-4.9,2.7-8.3
					c-0.7-3.5-20.4-5.7-27.5-6.7c-7.1-1-37.6,1.3-47.2,3.4s-27,2-31.9,2.3c-4.9,0.2-9.3-3.2-32.7-4.2s-40.8,3.5-49.9,5.2
					C172.6,209,171,209.5,171,209.5z"/>
				<path class="st2" d="M264.3,207.3c0,0,4.7,12.5,4.7,15.7"/>
				<path class="st2" d="M289.6,207.3c0,0-5.2,10.6-5.2,15.7"/>
				<path class="st2" d="M261.8,219.3c0,0-4.9-11-24.3-12c-19.4-1-36.3-1.2-40.4,0c-4.1,1.2-16.9,6.9-16,20.1
					c0.8,13.3,1.1,31.9,13.4,38.1c12.3,6.1,38.8,8.6,48.7,0s19.9-26.5,19.9-33.9S264.8,223.3,261.8,219.3z"/>
				<path class="st2" d="M294.3,213.2c0,0-7.1,4.2-4.7,13.3c2.5,9.1,6.6,30.5,23.6,36.9c16.9,6.3,30.9,1.2,35.2-1
					c4.3-2.2,16.4-12,14.7-32.4c-1.7-20.4-4.7-22.3-13.5-23.4c-8.8-1.2-26.3-2-37.3,0C301.2,208.5,294.3,213.2,294.3,213.2z"/>
				<path class="st2" d="M260.1,256.2c0,0,0.2,11.1-2,14.9c-2.2,3.8-5.9,9.7-4.4,12.6s4.9,7.4,8.8,7.4"/>
				<path class="st2" d="M305.6,269.7c0,0,3.9,7.1,2.2,10.3c-1.7,3.2-6.6,7.1-8.1,7.1"/>
				<path class="st2" d="M272.2,289.6c0,0-5.4-7.4-11.8-4.7c0,0,2.3,2.1,5.9,2.2"/>
				<path class="st2" d="M289.6,288.1c0,0,2.2-5.2,6.1-6.9c3.9-1.7,5.2-0.5,3.9,1.7"/>
				<path class="st2" d="M173.6,258.7c0,0-5.4-2.9-10.8,0c-5.4,2.9-7.1,7.1-6.4,16.1c0.7,9,0.7,8.5,3.9,16.3
					c3.2,7.9,9.3,21.4,10.7,24.3c1.4,2.9,7.5,10.8,11.5,8.4"/>
				<path class="st2" d="M174.1,269.7c0,0-9.8-8.1-12.5-4.7c-2.7,3.4-2.9,9.1-2.2,13.4c0.7,4.3,3.9,14.9,3.9,14.9"/>
				<path class="st2" d="M166.6,300.9c0,0,3.9,11.5,6.1,9.6c2.2-2,3.2-2.7,1.5-4.7c-1.7-2-5.7-4.9-5.7-4.9"/>
				<path class="st2" d="M166.6,299.9c0,0-2.7-8-1.9-13c0.8-5,0.7-16,1.9-17.3"/>
				<path class="st2" d="M178.8,280.5c0,0-11.3,5.2-10.8,12.9c0.5,7.6,2.4,5.2,5.4,4.7c3-0.5,3.8-4.2,4-4.7"/>
				<path class="st2" d="M181.1,273.7c0,0,1.1,11.3,0,17.4"/>
				<path class="st2" d="M367.7,244.3c0,0,6.6-4.8,9.3,0c2.8,4.8,3.8,3.4,1.8,22.8c-2,19.3-6.6,37-8.4,38.7
					c-1.8,1.6-4.3,4.1-6.2,2.8c-2-1.3-2-1.3-2-1.3"/>
				<path class="st2" d="M377,248.6c0,0-11.3,4.1-11.8,13.3c-0.5,9.2,1.6,18.2,0,23.6"/>
				<path class="st2" d="M374.7,253.5c0,0,0,9.8,0.8,13.5"/>
				<path class="st2" d="M377,251.2c0,0-0.2,17.9-1.5,24.4c-1.3,6.4-1.4,7.4-4.5,7.8"/>
				<path class="st2" d="M369,258.3c0,0,4.9,17.5,2.1,21.3"/>
				<path class="st2" d="M245.6,326.2c0,0,11.3,0.2,13.8-2c2.5-2.2,7.9-5.6,11.7-5.9c3.8-0.2,10.7,0.5,13.9,0
					c3.2-0.5,7.4-3.4,11.8-2.7c4.4,0.7,17.4,2.7,21.4,2c3.9-0.7,6.1-3.9,6.1-3.9"/>
				<path class="st2" d="M282.7,304.1"/>
				<path class="st2" d="M258,327.2c0,0,19.6,4.9,28.7,4.2c9.1-0.7,23.3-7.9,28.3-10.1s9.3-3.9,9.3-3.9"/>
				<path class="st2" d="M255.9,336.8c0,0,11.8,14,22.4,13.3c10.6-0.7,14.7,1.5,25.6-5.4c11-6.9,13.4-17,13.4-17"/>
				<path class="st2" d="M293.1,268.9c0,0,5.4,10.5-2.1,11.6"/>
				<path class="st2" d="M222.3,179.6c0,0,46.2-14.4,77.8-5.6"/>
				<path class="st2" d="M191.6,346.4c0,0-3.4,39.3,0,58c3.4,18.7,12.3,37.3,12.3,37.3s29,11.3,36.9,13.8s40.6,7.9,50.3,4.9
					c9.7-2.9,36.7-23.6,40.1-28.5c3.4-4.9,12.8-21.6,12.8-21.6v-47.2"/>
				<path class="st2" d="M200.4,371c0,0,21.6,33.4,47.7,39.3"/>
				<path class="st2" d="M263.6,423c0,0,37.1,8.4,53.8-9.8"/>
				<path class="st2" d="M187.1,331.5c0,0-16.2,7.1-21.6,12.5c-5.4,5.4-22.1,29-26.6,32.9c-4.4,3.9-38.3,31.9-46.2,36.4
					c-7.9,4.4-14.3,11.7-14.3,11.7"/>
				<path class="st2" d="M190,338.9c0,0-12.5,7-19.3,14.4c-6.7,7.4-27.4,26.5-35.7,34.4c-8.4,7.9-48.7,35.4-49.6,42.3
					c-1,6.9,40.2,25.1,52.3,29.5c12.1,4.4,52.4,23.6,55.3,25.1c2.9,1.5,11.8-3.9,11.3-13.8c-0.5-9.8-7.4-28-3.9-28.5"/>
				<path class="st2" d="M208.1,443.4c0,0,8,12.1,5.6,21.5s-5.6,19.9-5.6,19.9"/>
				<path class="st2" d="M194.3,487.4c0,0,7,1.8,7.2,5.4"/>
				<path class="st2" d="M191.6,487.4c0,0-7.2,6.2-4.4,9.3c2.8,3.1,7,4.6,12,0"/>
				<path class="st2" d="M205.2,497.4c0,0,2.6,5.1,3.6,7.7"/>
				<path class="st2" d="M82.5,446.1c0,0,72.2,34.4,82.1,38.6c9.8,4.2,44.7,19.4,49.6,26.3"/>
				<path class="st2" d="M78.5,455c0,0,110.4,41.1,131.1,59.8"/>
				<path class="st2" d="M359,335.9c0,0,27.8,23.9,46.5,30.1c18.7,6.2,37.7,11.5,37.7,15.1s-8.2,19.7-22.9,35.1
					c-14.7,15.4-31.8,30.5-34.4,32.8c-2.6,2.3,0,6.9-3.6,6.1c-3.6-0.8-2.9-1.8-5.9,0c-2.9,1.8-24.6,57.2-23.9,69.9s-1.6,18-1.6,18"
					/>
				<path class="st2" d="M378.8,454c0,0-3.8-5.4-6.7-4.7c-2.9,0.7-7.2,1.3-8.8-1.6c-1.6-2.9-12.5-15.4-15.1-18.7
					c-2.6-3.3-4.3-22.9-4.3-22.9"/>
				<path class="st2" d="M347.5,399.8c0,0,3.9,16.7,5.2,21.9c1.3,5.2,3.6,12.8,12.5,17.7c8.8,4.9,11.5,1.7,13.6,3.9
					c2.1,2.3,7,5.6,7,5.6"/>
				<path class="st2" d="M383.5,443.4c0,0,21-16.4,25.2-22.6c4.3-6.2,22.3-32.1,23.6-35.7"/>
				<path class="st2" d="M434,383.7c0,0-20-10.5-28.2-14.1c-8.2-3.6-32.8-17.1-36.4-19.5c-3.6-2.4-13.4-11.2-13.4-11.2"/>
				<path class="st2" d="M443.2,381.1c0,0,24.6,16.7,24.6,18.7c0,2-20.3,22.3-24.6,27.5c-4.3,5.2-35.1,9.2-43.6,44.6
					s-8.5,87.1-4.6,130.4"/>
				<path class="st2" d="M328.8,464c0,0-28,34.4-39.2,41.1"/>
				<path class="st2" d="M224.2,464c0,0,51.5,17.1,87.6,0"/>
				<path class="st2" d="M222.3,478.6c0,0,10.8-5.1,19.4,13.1"/>
				<path class="st2" d="M255.9,294c0.7,0.7-4.9,5.7-6.4,6.9c-1.5,1.2-3.7,2.7-5.7,3.2c-2,0.5-12.5,3.7-13,4.8
					c-0.5,1.1-2.9,7.5-3.9,8.5s1,18.3,0,18.5c-1,0.2,2.2,2.4,2.2,6.1"/>
				<path class="st2" d="M236,338.9c0,0,2.5-9.2,2.7-12.7c0.2-3.4,3.9-2.1,4.7-1.8c0.7,0.3,1,0.4,2.2,0c1.2-0.4,2.5-2.1,2.5-2.1
					l5.3-2.3l2.5-3.6l2-2.7l2.4-4.8l3.2-6l3.4,1.2c0,0,7.2,0.5,7.2,0c0-0.5,2.2-1,1.7-3.2"/>
				<path class="st2" d="M300.1,299.9l3.8,9h6.3c0,0,1.7-0.9,2.2,0c0.5,0.9,2.5,1.8,2.5,1.8l9.3-1.8l4.4-3.1l2.5,3.1
					c0,0,1.2,7.7,1.5,8.5c0.2,0.7,2.5,4.5,2.5,7c0,2.5,0.5,6.2,0,8.2"/>
				<path class="st2" d="M308.2,288.1c0.5,0.5,6.2,3.4,7.4,5.9s4.7,0,4.7,0s3.4-0.8,3.9,1.1c0.5,1.9,5.2,2.6,5.2,2.6s1-10.8,2.9-3.7
					s5.7,13,5.7,14.9c0,1.8,4.4,7.5,4.7,9.1c0.2,1.6,3.7,6.2,3.7,6.2"/>
				<path class="st2" d="M185.7,294c-0.2,2-0.5,17.7-1.5,19.7c-1,2-2,3.9-2.9,6.3c-0.8,2.3,8.7,5.3,8.7,5.3s-2.4,1.2-2.9,2.5
					s2.9,2.5,2.9,2.5s0.4,2.7,0,4.4c-0.4,1.7-1.1,4.2,0.2,5.7c1.3,1.5,3.1,5.9,3.3,6.1c0.2,0.2,6.9,7.1,6.9,7.1s-2.2,6.9,0,8.8
					c2.2,2,7.1,4.7,7.6,6.6c0.5,2,2.2,3.9,2.2,3.9s3.4,1.7,3.4,2.5c0,0.7-1.7,3.7,0,4.4s4.9,2.2,5.7,3.9c0.7,1.7,4.7,6.6,4.9,6.9
					s5.4-1.2,5.4,0s1.5,7.4,2.5,8.1s13.8,6.7,14.5,7.3c0.7,0.6,4.7-0.8,4.9,0c0.2,0.8,0.9,4.3,4.5,4.3c3.6,0,3.4-2.7,6.6,0
					c3.2,2.7,3.9,3.2,9.6,2.9c5.7-0.2,6.6-1,7.6,0c1,1,0,2.8,5.2,0.1c5.2-2.8,14.9-3.3,15.2-4c0.3-0.7,0.3-4.3,2.5-3.3
					c2.2,1.1,3.9,2.9,4.2,0c0.2-2.9,1.4-3.9,1.4-3.9l12.3-5.2c0,0,2,1,3.7-2c1.7-2.9,0.5-0.5,1.7-2.9c1.2-2.5,3.2-2.5,3.9-4.2
					c0.7-1.7,0-4.2,0-4.2s6.6-8.8,7.4-8.8c0.7,0,3.4,3.9,3.9-1.7c0.5-5.7,2.7-6.6,2.7-6.6s1.2-1.2,1.2-2.9c0-1.7,0.7-0.4,1.2-2.3
					c0.5-1.9,4.4-15.9,4.4-15.9s5.7,3.9,3.9-2c-1.7-5.9,0.7-6,0.3-7.5c-0.3-1.6,0.1-2.1,0-4.4c-0.1-2.3,0-3.8,0-3.8l-1.8-3.3
					c0,0,4.4-14.2,4.4-15.5c0-1.4,4.6-10.2,4.6-10.2s-1.1-10.5-1.1-11.8c0-1.3,0.8-2,1.1-4.6c0.3-2.6,1-6.8,1-6.8"/>
				<path class="st2" d="M334.1,334.8c0,0-1,8.1-1.5,10.3c-0.5,2.2-2.9,6.6-2.9,6.6c-1.2,0.7-3.7,1.7-3.7,4.9s-1.7,5.7-1.7,5.7
					s-4.9-2-6.9,0s-4.9,3.7-4.9,3.7s-1.2,1.2-2,0c-0.7-1.2-7.4-1.5-8.1-1.2c-0.7,0.2-2.2-2.6-2.7-3.5c-0.5-0.9-2-4.6-2-4.6L295,352
					v-1.3"/>
				<path class="st2" d="M273.4,353c0,0-3.9,8.6-4.2,9.3c-0.2,0.7-0.7,3.3-1.2,4.2c-0.5,0.9-2.9,9-2.9,9s-4.7-6.4-4.7-7.6
					c0-1.2,3.6-2.8-2.4-1.4c-6,1.4-4.2,3.2-4.6,0c-0.4-3.3,1.6-1.3-1.9-2.3s-2.7,2.7-5.9-1.5s-0.7-4.7-4.3-5.7
					c-3.6-1-6.5-0.5-5.3-1.7c1.2-1.2,0.7-10.1,0-10.3c-0.7-0.2,0-4.7,0-4.7"/>
				<path class="st2" d="M226,342c-1.3-0.5-11.5-0.8-12.4-1.5c-1-0.7-6.2,0.3-9.2-7.9c-3-8.2-9.2-13.4-10.5-16.3"/>
			</g>
		</g>
		<path class="st3" d="M478.6,239c-3.2-15.5-7.9-30.5-13.9-44.8c-6-14.3-13.4-27.9-22-40.6c-8.6-12.7-18.4-24.5-29.2-35.3
			c-10.8-10.8-22.6-20.6-35.3-29.2c-12.7-8.6-26.3-16-40.6-22c-14.3-6-29.3-10.7-44.8-13.9c-15.5-3.2-31.6-4.9-48.1-4.9
			c-16.5,0-32.6,1.7-48.1,4.9C181,56.3,166,61,151.7,67.1c-14.3,6-27.9,13.4-40.6,22c-12.7,8.6-24.5,18.4-35.3,29.2
			c-10.8,10.8-20.6,22.6-29.2,35.3c-8.6,12.7-16,26.3-22,40.6c-6,14.3-10.7,29.3-13.9,44.8c-3.2,15.5-4.9,31.6-4.9,48.1
			c0,16.5,1.7,32.6,4.9,48.1c3.2,15.5,7.9,30.5,13.9,44.8c6,14.3,13.4,27.9,22,40.6c8.6,12.7,18.4,24.5,29.2,35.3l15,1.4L75.2,455
			h3.3l3.9-8.8l-1.6-5.4l-2.4-12.1V423l36.1-30.5l30.2-23.9l21.7-28.2l20.6-9v-3.8l-2.4-2.3l-3.2,0.3l-8.9-3.4l-11.1-23.5l-6.7-20.7
			l1.5-15.9l9.4-7.2l-1-4.1l1-2.5v-6.6l-2.2-8.4l1.2-12.1l-2.5-14.9l2.5-15.3v-5.6l2.1-0.8l0.5-3.5l-0.8-2.9l1-5.6l3.6-9.5l-3.9,2.8
			l0.3-6.5l3.6-1.7l2.9-5.9l-8.3,6.6v-6.6l4-2.8l-1.8-0.2l-1-3.9l-2.2,1.3l2.4-11.1l11.5-5.2l-1.2-5.7l-6.3-2.8l4.8-4.5l-4.8,1.4
			v-3.8l-3.9,2.4l6.9-10.4l13.8-5.2l-6.6-6.2l26.2-0.3l-1.6-3.7l-20.5-2l3.7-4.1l14.8-4.8h11.8l10.5-3.3l20.8,5.6l-1.7-8.8l9.2,1.5
			l21.5,8.2L269,71.5l37,30.2l23.3,14l10.8,14.6v-10.1l2,2.6l6.5,16.4l4.3-3.2c0,0,1.3,0.2,1.5,2s-2.9,15.5-2.9,15.5l5.4,11.8
			l2.2,2.7l0.5,3.4c0,0,0.2,1,0.5,1.8c0.2,0.7,3.2,3.8,3.2,3.8s-2.5,0.9-2.5,2.9c0,2,4.3,22.3,4.3,22.3s4.4,1,5.3,2.2s3,5.4,3.5,7.7
			c0.5,2.3-5,6.2-5,6.2l-3.8,24.3c0,0,4.4-1.4,6.8-2c2.4-0.7,2.8-1,5,2c2.2,3,5.7,5.9,5,16c-0.7,10.2-8.7,46.8-9.7,49.1
			s-5.4,3.1-6.6,3.2c-1.2,0.1-5.7-2.3-5.7-2.3l-1,1.7c0,0-1.5,6.4-3,8.5c-1.6,2.1,0.3,1.4,0,5.2c-0.3,3.8,0,2.1,0,4.1
			c0,2-1,3.8-1,3.8l6.3,4.4c0,0,25.7,20.8,31.1,24c5.4,3.3,35.9,10.8,44.2,15.7c8.4,4.9,4.6,3.3,6.5,5.5c1.1,1.3,9.8,5.6,16.5,10
			c2.7-5.5,5.2-11.2,7.4-17c3.5-9,6.5-18.2,8.9-27.7c2.4-9.5,4.3-19.2,5.5-29.1c1.2-9.9,1.9-20,1.9-30.2
			C483.5,270.7,481.8,254.6,478.6,239z"/>
	</g>
	<use xlink:href="#SVGID_1_"  style="overflow:visible;fill:none;stroke:#FFFFFF;stroke-width:2;stroke-miterlimit:10;"/>
</g>
</svg>
