<?xml version="1.0" encoding="utf-8"?>
<!-- Generator: Adobe Illustrator 22.1.0, SVG Export Plug-In . SVG Version: 6.00 Build 0)  -->
<svg version="1.1" id="Layer_1" xmlns="http://www.w3.org/2000/svg" xmlns:xlink="http://www.w3.org/1999/xlink" x="0px" y="0px"
	 viewBox="0 0 500 864.3" style="enable-background:new 0 0 500 864.3;" xml:space="preserve">
<style type="text/css">
	.st0{fill:none;stroke:#FFFFFF;stroke-miterlimit:10;}
	.st1{fill:none;stroke:#FFFFFF;stroke-width:1.1339;stroke-miterlimit:10;}
	.st2{fill:none;stroke:#D81516;stroke-miterlimit:10;}
	.st3{clip-path:url(#SVGID_4_);}
	.st4{fill:#76B72D;stroke:#FFFFFF;stroke-width:0.7079;stroke-miterlimit:10;}
	.st5{fill:#8C1913;stroke:#FFFFFF;stroke-width:0.7079;stroke-miterlimit:10;}
	.st6{fill:none;stroke:#FFFFFF;stroke-width:0.7079;stroke-miterlimit:10;}
	.st7{fill:none;stroke:#76B72D;stroke-width:0.8504;stroke-miterlimit:10;}
	.st8{font-family:'Rune';}
	.st9{font-size:83.2498px;}
</style>
<g>
	<g>
		<defs>
			<rect id="SVGID_1_" x="35.7" y="37.7" width="428.6" height="750"/>
		</defs>
		<clipPath id="SVGID_2_">
			<use xlink:href="#SVGID_1_"  style="overflow:visible;"/>
		</clipPath>
		<use xlink:href="#SVGID_1_"  style="overflow:visible;fill:none;stroke:#FFFFFF;stroke-width:0.8504;stroke-miterlimit:10;"/>
	</g>
</g>
<path class="st0" d="M304.9,85.9"/>
<path class="st1" d="M383.8,315.1"/>
<path class="st1" d="M383.8,430.8"/>
<path class="st2" d="M228.1,842.1"/>
<path class="st2" d="M249.5,643.1"/>
<path class="st0" d="M230.6,633"/>
<g>
	<defs>
		<rect id="SVGID_3_" x="33.7" y="35.5" width="428.6" height="750"/>
	</defs>
	<clipPath id="SVGID_4_">
		<use xlink:href="#SVGID_3_"  style="overflow:visible;"/>
	</clipPath>
	<g class="st3">
		<path class="st4" d="M423.2,591.5c0,0-0.6-2.7-4.5-5.9c-3.9-3.3-14.9,1.8-52,3.9c-37.2,2.1-80.9-23.5-80.9-23.5s6.1-3.7,10.4-3.9
			c0,0,53.8,1.5,60.7-1.5c6.8-3,18.7-4.5,26.2-3.3c7.4,1.2,9.2,1.9,9.2,1.9s10.6,5.7,8.6,4.1c0,0,8.9,8.2,11.9,10
			c3,1.8,9.3,13,9.3,13L423.2,591.5z"/>
		<path class="st5" d="M162.1,802c0,0-1.3-4.9-1.3-8c0-3.1-0.9-34.3-0.9-34.3"/>
		<path class="st4" d="M194,794.7c0,0-5.8-14-4.1-16.1c1.7-2.1,5.1-9.6,6.2-15c1-5.5,9.9-56.8,9.9-56.8l3.4-16.8l-0.7-14.4
			c0,0-2.4-11.3-2.4-12.3c0-1-4.4-7.2-4.4-9.2c0-2.1-1-20.5-1-20.5s-1.7-8.5-2.4-9.6c-0.7-1-10.9-24.8-14.1-28.5
			c-3.2-3.6-13-12.1-13-12.1s-4.3,21.6-5.2,29.3c-0.9,7.7-1.2,66.7-2.6,78.3c-1.4,11.6-4.8,72.7-4.8,72.7s-5.2,18.9-5.9,22.1
			c-0.7,3.2-4.7,12.1-3.6,13.7c1,1.6,10,2.8,19.4,1.5c9.3-1.4,23.8-4.7,23.8-4.7L194,794.7z"/>
		<path class="st6" d="M429,613.3c0,0-2-7.4-2.9-12c-0.9-4.7-1.8-6-2.2-7.6c-0.4-1.6-1.6-2-1.3-4.9c0.2-2.9,0-3.8-1.3-6.5
			c-1.3-2.7-2.9-3.8-4.9-6.5c-2-2.7-7.1-4.7-8.5-5.4c-1.3-0.7-2.9-1.3-4.6-3.9c-1.7-2.6-3.1-5.7-4.3-6.4c-1.2-0.7-5.8-1.2-6.7-1.1
			c-0.9,0.1-4.1-3.9-5.5-5.8c-1.3-1.9-3.7-4.4-6-3.8c-2.3,0.6-2.8,1.8-7.8-2.7c-5.1-4.5-3-7.7-1.2-11.9c1.8-4.2,4.2-6.5,4.8-12.8
			c0.6-6.2-3-8.6-2.7-11c0.3-2.4,8.3-2.1,16.4-9.5c8-7.4,14.9-18.1,16.7-30c1.8-11.9,0.6-15.5-5.1-26.2
			c-5.7-10.7-17.8-14.3-23.8-14.3c-5.9,0-28.2,6.8-29.1,7.1c-0.9,0.3-1.5-1.5-2.1-3.9c-0.6-2.4-4.8-4.8-6.5-5.3
			c-1.8-0.6-7.7-0.3-13.4-1.8c-5.7-1.5-11.3,1.2-13.7,1.5c-2.4,0.3-6-2.1-10.1-3c-4.2-0.9-10.4,1.2-13.4,2.7
			c-3,1.5,1.5,7.1-1.8,14.6c-3.3,7.4-7.7,20.2-7.1,26.2c0.6,5.9-1.8,7.1-1.8,7.1s-4-3.3-4.7-4.4c-0.7-1-1.8-2.7-2.6-5.1
			c-0.8-2.5-9.3-9.3-10.5-11.5c-1.2-2.2-21.1-16.9-22.2-17.6c-1.1-0.7-2.7-1.8-7.6-2.7c-4.9-0.9-11.1-4.5-12.5-4.9
			c-1.3-0.4-1.6-0.9-2.7-3.3c-1.1-2.5,1.8-2-4.2-7.1c-6-5.1-8.7-6.2-8.7-6.2s-6-1.1-10.3-2.7c-4.2-1.6-9.8,1.1-11.6,0.7
			c-1.8-0.4-4,1.1-14.3,3.8c-10.3,2.7-8.7,5.4-10,8.7c-1.3,3.3-8.5,8.5-13.4,9.8c-4.9,1.3-8.7-4.2-10.5-5.8
			c-1.8-1.6-11.8-15.6-12.7-16.3c-0.9-0.7-6.2-14.9-7.1-17.8c-0.9-2.9-4.7-12-4.9-13.2c-0.2-1.1-0.2-3.8-4-6.9
			c-3.8-3.1-11.8-2.2-18.1-1.3c-6.2,0.9-12,4-21,8.9c-8.9,4.9-14.3,11.8-17.6,15.8c-3.3,4-1.6,12-1.6,12l11.2,15.4
			c0,0,8.4,8,13.6,16.7c5.2,8.6,36.4,31.1,41,35.8c4.6,4.8-3.3,9.2-4.8,14c-1.5,4.8-8.3,22.2-9.6,24c-1.3,1.8,0.4,10.6,1.9,13
			c1.5,2.4,9.2,10.7,22.9,24.1c13.7,13.4,41.9,25,46.4,27.1c4.5,2.1,0,2.7,0,10.7c0,8-4.8,35.4-4.8,41c0,5.7,0,46.4,0,52.9
			c0,6.5-1.5,20.2-3.3,36.3c-1.8,16.1-1.8,41.9-2.7,49.1c-0.9,7.1-7.4,21.4-9.2,29.7c-1.8,8.3,44.3-2.4,45.8-3
			c1.5-0.6,4.2,0.3,4.2,0.3s10.4,1.2,12.2,0.6c1.8-0.6,17.8-1.8,22.6-2.1c4.8-0.3,10.7,0.9,11.9,1.2c1.2,0.3,15.5,0.9,27.9,4.5
			c12.5,3.6,20.2,1.5,22.9,1.2c2.7-0.3,28.2-6.8,29.4-8c1.2-1.2,33.6-3.4,33.2-3.7c-0.4-0.3,2.1-0.2,5.2,0.4
			c3.1,0.6,14.6-3.9,14.6-3.9l4.6-1.2c0,0,2.1-0.9,11.4,0.9c9.4,1.8,23.8-2.8,27.4-3.9c3.6-1,2.7-3.9,2.2-4.3
			c-0.4-0.4-2.1-2.1-2.1-3.4c0-1.3-0.3-9.2,0.6-10.9c0.9-1.6,1.6-3.3,1.6-5.1c0-1.8,0.4-7.7,0.3-8.8c-0.1-1,0.7-2.8,1-4.2
			c0.3-1.3,1.6-1.9,2.2-3c0.6-1,0.3-3.1,0.3-3.1l-2.2-2.2l-1.6-1.8c0,0,0-3-0.6-8.9c-0.6-6,0.6-21.4,0-25.6
			c-0.6-4.2-0.6-26.2-0.6-26.2l1.3-11.1c0,0,2-1.8,2.7-2.5c0.7-0.7,1.3-10,1.3-10s0-2.2,0-3.3c0-1.1,0.2-3.1,0-4.7
			c-0.2-1.6,0.2-11.1,0.2-11.1l0.7-1.8c0,0,0.4-4.5,0.4-7.1C430.1,620.7,429,613.3,429,613.3z M270,494.9c-2.4,0-11.9,4.2-13.4,6.5
			c-1.5,2.4,0.6,11.3-1.2,12.2c-1.8,0.9-10.7,6.2-12.2,5.6c-1.5-0.6-15.5-6-21.7-8c-6.2-2.1-11-2.4-16.9-0.9
			c-5.9,1.5-3,5.6-19.3,4.2c-16.4-1.5-28.2-3-29.4-3.6c-1.2-0.6-5.9-3.6-5.9-3.6s-0.9,0.3-0.9-1.8c0-2.1-1.2-3.6,0.6-4.8
			c1.8-1.2,8.6-1.5,8.9-7.4c0.3-5.9,1.5-9.8,1.8-11.9c0.3-2.1,8.3-4.2,16.9-10.4c8.6-6.2,10.1-10.1,12.5-8.6c2.4,1.5,3.3,3.3,9.2,3
			c5.9-0.3,8.6-2.7,8.9-3.9c0.3-1.2-1.5-2.4,0.6-3c2.1-0.6-0.3-2.4,7.7-1.5c8,0.9,17.8,5.1,21.4,7.7c3.6,2.7,13.7,6.5,15.8,8.9
			c2.1,2.4,10.1,9.5,11,11c0.9,1.5,6.5,5.3,6.5,5.3l0.9,1.8C271.8,491.9,272.4,494.9,270,494.9z M359.5,483.9
			c0.3-8.9,0-14.9,1.5-16.6c1.5-1.8,11.9-10.7,16.7-8.6c4.8,2.1,8,5.3,7.7,10.4c-0.3,5.1-0.9,16.1-7.4,22c-6.5,5.9-8.3,4.8-8.3,4.8
			S359.2,492.8,359.5,483.9z"/>
		<path class="st6" d="M170.1,513c0,0,9.4,6.9,11.6,8.9c2.2,2,9.6,8.7,12.3,10.7c2.7,2,8.9,6.5,9.8,6.7c0.9,0.2,6.2,0.4,8,1.6
			c1.8,1.1,3.8,2.2,3.8,2.2"/>
		<path class="st6" d="M228.1,543.3c0,0-17.4-4.7-20.5-7.6c-3.1-2.9-15.6-16.1-15.6-16.1s-7.4-4.2-9.1-4.9c-1.8-0.7-3.8-1.6-3.8-1.6
			l-1.1,1.6c0,0,12,7.1,13.8,9.6c1.8,2.5,9.8,11.2,11.1,12c1.3,0.9,7.4,3.3,7.4,3.3l6.2,2.5l4.9,0.9l4.9,1.6"/>
		<path class="st6" d="M188.7,514.9c0,0,6.1,4.6,6.5,4.6c0.4,0,10.4,4.8,12.6,7.1c2.2,2.4,5.9,5.8,8.3,7.9c2.4,2.1,2.1,5.5,5.5,6.2
			c3.4,0.7,21.8,6.4,24.4,5.8c2.5-0.6,4-1.6,4-1.6s4-1.2-6.1-2.8c-10.1-1.6-20.4-2.8-21-3.4c-0.6-0.6-1.5-2.7-3.9-5.3
			c-2.4-2.7-7.4-7.9-12.5-10.9c-5.1-3-11.7-5.5-12.3-6.5c-0.6-1-2.5-2.2-2.5-2.2L188.7,514.9z"/>
		<path class="st6" d="M217.3,529.4c0,0,1.6-5,3.3-5.1c1.8-0.1,3.4,0,5.1,1.2c1.7,1.2,3.9,1.8,2.2,2.4c-1.7,0.6-2.9,0.7-3.5,0.6
			c-0.6-0.1-1.1-0.1-1-0.4c0.1-0.3,4.7-1.9,0.3-3c-4.4-1-3.6,1.3-3.1,3.6c0.4,2.2,6.2,5.6,8.5,3.5c2.2-2.2,5.2-3.3,3.4-5.7
			c-1.8-2.4-4.4-5.3-7.4-5.2c-3,0.1-3.7,0.6-5.2,1.1c-1.5,0.5-3.4,1.4-4,2.7c-0.6,1.3-1.1,2.2-1.1,2.5c0,0.4,0.6,1.9,0.6,1.9
			l0.9,0.8l1.4,0.7L217.3,529.4z"/>
		<path class="st6" d="M206.6,515.2c0,0-1.1,1-0.5,1.5c0.6,0.5,1.6,0.6,1.8,0.4c0.2-0.1,0.7-0.4,1.1-0.6c0.4-0.2,0.9,0.4,0.8,0.5
			c-0.2,0.1-4.1,0.3-4.4,0.1c-0.4-0.2,0.2,0-1-0.4c-1.2-0.4-2.5-1.3-2.9-1.1c-0.5,0.2-1,0.1-1.7,0.6c-0.6,0.4-0.7,0.6-0.7,0.6
			l-0.2,0.7l2.6,1.7c0,0,2.9-0.4,3.2-0.3c0.3,0.1,2.8,0.7,4.1,0.4c1.3-0.2,1.1-0.1,1.7-0.3c0.6-0.1,1.3-0.4,1.5-1
			c0.2-0.5,0.3-2-0.1-2.5c-0.4-0.5-1.2-1-1.8-1.1c-0.6,0-1.5-0.3-1.7-0.3c-0.3,0-1.6,0.5-1.6,0.5L206.6,515.2z"/>
		<path class="st4" d="M203.8,510.3c0,0,6-3.1,17.8,0.9c11.7,4,22.1,17.2,30.6,27c8.5,9.8,10,17.2,13.8,21.2
			c3.8,4,14.3,2.5,14.3,2.5l4.5,4.9c0,0,0.9,1.8-3.3,2.2c-4.2,0.4-16.7-8.7-16.7-8.7s-7.4-4.9-11.4-12c-4-7.1-21.9-24.1-27.2-28.8
			c-5.4-4.7-21.5-9.1-21.5-9.1"/>
		<path class="st6" d="M233.9,544.4c0,0,6.2,6.7,6,9.1c-0.2,2.5-2,8.5-3.8,15.2c-1.8,6.7-13.2,26.8-14.7,30.6
			c-1.6,3.8-15.2,34.6-16.9,37.2c-1.8,2.7-2,4.9-2,4.9s-0.2,0.7-1.1,0.7s-1.1-4.7-1.1-4.7l1.3-2.2"/>
		<line class="st6" x1="201.8" y1="636.1" x2="201.4" y2="632.5"/>
		<path class="st6" d="M206.3,542.9c0,0,1.8,2.5,0,11.6c-1.8,9.1-3.6,17.6-5.6,23.2c-2,5.6-4,11.6-5.1,15.2
			c-1.1,3.6-0.4,4.9-2.2,8.5c-1.8,3.6-2.9,4.2-2.9,4.2"/>
		<path class="st6" d="M266.5,564.7l-4.5,18.1c0,0,13.4,1.5,14.6,4.5c1.2,3,1.8,7.4-2.4,8.9c-4.2,1.5-21.4-2.4-21.4-2.4l-8.3,30.3
			l-3.6,13.7c0,0,17.5,0.9,22.6,2.7c5.1,1.8,12.2,5.1,13.1,9.2c0.9,4.2,3.9,7.4,3.9,7.4s-3.3,0.3-6.3,1.9c-3,1.6-3.2,4.1-5,4.8
			c-1.8,0.7-28.4-1.2-32.9-3c-4.5-1.8-20.2-4.7-21.3-12c-1.2-7.2-2.6-15.3-2.2-17.8c0.4-2.5,5.4-19.9,8.5-24.1
			c3-4.2,13.2-23,16.4-30.9c3.3-7.9,8.5-23.5,8.5-23.5"/>
		<path class="st6" d="M367.7,601.3c0,0-7.6,17.6-7.4,25.2c0.2,7.6,0.7,21-0.4,26.3c-1.1,5.3-4,21-12.3,22.3
			c-8.2,1.3-51.3-7.1-54.2-8.7c-2.9-1.6-8.5-6.5-8.5-8.7c0-2.2,7.4-10.5,9.6-10.5c2.2,0,19.2,2,21.6,4c2.5,2,8,3.8,8,3.8
			s1.1-2,1.1-2.9c0-0.9,5.6-33.2,6.7-36.8s-0.7-4.7-2-4.9c-1.3-0.2-12.3-2.7-13.2-6c-0.9-3.3-2-8.5,5.1-8.2c7.1,0.2,12,1.3,14.1,2.2
			c2,0.9,2.7,0,2.7,0l4-8.7l0.7-3.3c0,0,19.6,4.5,22.1,4.5c2.5,0,5.3,9.8,5.3,9.8L367.7,601.3z"/>
		<path class="st6" d="M268.7,566.1c0,0-3.6,12.9-3.1,13.8c0.4,0.9,9.8,2.5,11.8,4c2,1.6,4,7.1,3.1,8.9c-0.9,1.8-5.3,6.2-7.8,6.9
			c-2.5,0.7-16.7-2.7-16.9-1.8c-0.2,0.9-1.6,3.3-1.8,5.1c-0.2,1.8-7.6,27.6-7.6,27.6l0.1,3c0,0,10.7,1,15.9,2.2
			c5.2,1.2,12.2,5.5,13.1,7c0.9,1.5,4.6,5.6,5.1,7.7c0.4,2.1,0,5.5,1.6,4.2c1.6-1.3,6.7-9.7,9.4-10.4c2.7-0.7,14.9-0.4,16.9-0.1
			c2.1,0.3,8.8,1.9,10,2.5c1.2,0.6,1.6,1,2.1,1.3c0.4,0.3,1,0.4,1,0.4l6.5-27.9c0,0,1.5-5.8,1-6.8c-0.4-1-2.2-1.7-6.2-3
			c-4-1.3-10.3-2.9-10.3-5.6c0-2.7,0-10.1,3.7-11.3c3.7-1.2,9.7-0.9,11.4-0.7c1.8,0.2,7.1,1.6,7.1,1.6s0.9,1.2,1.4-0.2
			c0.5-1.4,3.8-10.1,3.8-10.1"/>
		<path class="st6" d="M293.2,598.6c0,0-12-1.6-14.3,9.8c-2.2,11.4-3,14.4-2.2,16.2c0.7,1.8,3.9,8.8,7.4,9.2
			c3.6,0.4,11.6-1.3,14.4-9.5c2.8-8.2,4.3-15.8,4.3-18S300.4,599.8,293.2,598.6z"/>
		<path class="st6" d="M293.8,603.8c0,0-8.6-2.1-10.7,5.5c-2.1,7.6-3.7,11.9-2.7,14.6c1,2.7,3.3,4.8,4.2,4.9
			c0.9,0.1-0.9-2.1-1.2-5.1c-0.3-3,0.7-6.4,2.2-11.2c1.3-4.2,2-6.8,5.2-6.4c3.1,0.4,3.7,0.2,3.7,0.2L293.8,603.8z"/>
		<path class="st6" d="M285.2,596.1c0,0-9,2.3-10.9,13.2c-1.9,10.8-3.7,13.7-2.2,18.4c1.4,4.7,7.4,12.2,12.4,11.9
			c5-0.2,15.7-3.8,19.4-10.8c3.7-7,5.2-22.2,3.8-26c-1.4-3.8-7.9-7.1-11-7.9C293.5,594.1,285.2,596.1,285.2,596.1z"/>
		<path class="st6" d="M291.7,596.8c0,0-10.4,1.7-12.2,7.1c-1.8,5.5-4.5,11.3-3.9,17.8c0.6,6.6,3.5,10.5,5,11.4
			c1.6,0.9,6.5,5.1,12.2-0.6c5.7-5.7,8.8-12,9.6-17.3c0.8-5.2,1.3-10.8,0.4-12.5C301.9,601.2,300.1,599.1,291.7,596.8z"/>
		<path class="st6" d="M260.2,612.9c0,0,0.7,2.1-0.2,2.1c-0.9,0-2.1,0.9-2.7-0.8c-0.6-1.7-1.3-2.6-0.7-3.3c0.7-0.8,1.4-1.2,2.5-1.2
			c1,0,2,0,2.5,0.3c0.4,0.3,1.3,0.9,1.4,1.2c0.1,0.3,0.6,0.9,0.6,1.4c0,0.6,0.2,1.5,0,2.1c-0.2,0.7-0.7,1.6-1.2,2
			c-0.6,0.4-0.3,0.8-1.8,1.6c-1.4,0.8-0.9,1-2.5,1.2c-1.6,0.2-1.7,0.4-2.5,0.2c-0.8-0.2-2.6-2.2-2.9-3.1c-0.3-0.9-0.6,0-0.4-1.6
			c0.1-1.6,0.1-1.8,0.2-2.5c0.1-0.7,0.7-5.3,0.7-5.3"/>
		<path class="st6" d="M318.1,623.5l-2,0.8c0,0,0,0.4,0,0.9c0,0.4,0.7,1.2,0.7,1.2l1.1,0.4h0.6c0,0,1.6-0.9,1.8-1.2
			c0.2-0.3,0.7-0.6,0.6-1.6c-0.1-1,0.4-0.2-0.1-1c-0.6-0.8,0-0.4-0.6-0.8c-0.6-0.3-1.2-0.6-1.6-0.6c-0.3,0-4.5,0.6-4.9,0.8
			c-0.4,0.2-1.7,3.3-1.7,3.3s0.6,1.7,0.8,2.5c0.2,0.8,1,1.2,1.6,1.6c0.6,0.3,1.2,0.8,1.6,0.8c0.3,0,2.1,0,2.8-0.1
			c0.7-0.1,0,0.2,0.7-0.1c0.7-0.3,1-0.2,1.7-0.6c0.7-0.3,1-0.6,1.2-1c0.2-0.4,0.4-1,0.4-1s0.7-0.2,0.7-0.9c0-0.7,0.1-1.5,0.1-1.5
			l0.4-1.3"/>
		<path class="st6" d="M257.2,601.1c0,0-2.7,0.6-1.8,1.7c0.9,1.1,3.2,0.7,3.2-0.1C258.7,601.9,257.2,601.1,257.2,601.1z"/>
		<path class="st6" d="M252.4,627.9c0,0-2.7,0.6-1.8,1.7c0.9,1.1,3.2,0.7,3.2-0.1C253.9,628.7,252.4,627.9,252.4,627.9z"/>
		<path class="st6" d="M263.2,629.1c0,0-2.7,0.6-1.8,1.7c0.9,1.1,3.2,0.7,3.2-0.1C264.7,629.8,263.2,629.1,263.2,629.1z"/>
		<path class="st6" d="M267.7,602.1c0,0-2.7,0.6-1.8,1.7c0.9,1.1,3.2,0.7,3.2-0.1C269.1,602.9,267.7,602.1,267.7,602.1z"/>
		<path class="st6" d="M315.5,612c0,0-2.7,0.6-1.8,1.7c0.9,1.1,3.2,0.7,3.2-0.1C317,612.8,315.5,612,315.5,612z"/>
		<path class="st6" d="M300.6,580.6c0,0-2.7,0.6-1.8,1.7c0.9,1.1,3.2,0.7,3.2-0.1C302,581.3,300.6,580.6,300.6,580.6z"/>
		<path class="st6" d="M312.2,580.1c0,0-2.7,0.6-1.8,1.7c0.9,1.1,3.2,0.7,3.2-0.1C313.6,580.9,312.2,580.1,312.2,580.1z"/>
		<path class="st6" d="M289.4,573.2c0,0-2.7,0.6-1.8,1.7c0.9,1.1,3.2,0.7,3.2-0.1C290.9,574,289.4,573.2,289.4,573.2z"/>
		<path class="st6" d="M325.2,614.8c0,0-2.7,0.6-1.8,1.7c0.9,1.1,3.2,0.7,3.2-0.1C326.7,615.6,325.2,614.8,325.2,614.8z"/>
		<path class="st6" d="M309.3,638c0,0-2.7,0.6-1.8,1.7c0.9,1.1,3.2,0.7,3.2-0.1C310.7,638.8,309.3,638,309.3,638z"/>
		<path class="st6" d="M320.2,640.2c0,0-2.7,0.6-1.8,1.7c0.9,1.1,3.2,0.7,3.2-0.1C321.7,641,320.2,640.2,320.2,640.2z"/>
		<path class="st6" d="M275.6,574.4c0,0-0.1,1.6,1.1,1.3c1.2-0.2,1.6-1.5,0.9-2.2c-0.7-0.7,0.2-1.5-2.2-1c-2.3,0.4-3.3,0-2.9,1.7
			c0.4,1.7,1.2,2.7,2.5,4.2c1.3,1.4,4.5,3.4,6.5,4.2c2,0.8,13.8,2.3,14.7,2.5c0.9,0.2,1.1,8.4-3.6,6.6c-4.7-1.8-6.2-5.1-4.9-5.1
			c1.3,0,3.3-1.6,4.5,0c1.1,1.6,0.4,2.5,0.4,2.5s-2-0.2-2-0.9"/>
		<path class="st6" d="M326.9,585.9c0,0-0.9-1.8,0.9-1.6c1.8,0.2,2.7,2.2,2.2,2.9c-0.4,0.7-1.1,2-1.8,2.2c-0.7,0.2-1.3,0.2-2.5,0.2
			c-1.1,0-11.8-1.8-13.6-2c-1.8-0.2-5.4-2.9-7.1-1.3c-1.8,1.6-1.6,7.1-0.2,7.8c1.3,0.7,4.9,0,5.4-1.3c0.4-1.3,0.7-4-1.3-3.8
			c-2,0.2-3.6,1.3-2.7,2.2c0.9,0.9,1.8,1.1,1.8,1.1"/>
		<path class="st4" d="M243.3,519.2c0,0,10,11.8,13.6,17.4c3.6,5.6,2.2,8,4.5,10.7l0,3.4c0,0-11.1-16.2-17.8-22.9
			c-6.7-6.7-14.9-13.8-14.9-13.8L243.3,519.2z"/>
		<path class="st6" d="M292.6,564.7c0,0,24.1,13.7,37.2,16.1c13.1,2.4,50.8,4.5,60.1,3.9"/>
		<path class="st6" d="M310.2,573.4c0,0,36.3,3.9,58.9,0.3c22.6-3.6,32.4-4.8,36-3.6"/>
		<path class="st6" d="M378.3,549.6c0,0-11.6,4.8-18.1,9.2L378.3,549.6z"/>
		<path class="st6" d="M302.4,563.5c0,0,8.9,6.5,31.8,3.6c22.9-3,26.5-8.6,38.4-8"/>
		<path class="st6" d="M367,590.6c0,0,12.5,23,16.8,26.2c4.3,3.1,4.8,3.4,15.2,5.9c10.4,2.5,25.4,7.1,26.9,7.7
			c1.5,0.6,2.5,1.3,2.5,1.3s3.1-3.7,1-4c-2.1-0.3-26.2-7.9-26.2-7.9s3.6-4.5,4.3-8.6c0.7-4.2,3.7-14.3-7.6-16.9
			c-11.3-2.7-12.5,1.3-12.8,2.8c-0.3,1.5,0.6,11.3,2.1,12c1.5,0.7,5.4,2.1,8.2,0.4c2.8-1.6,6.5-5.3,3-8.6c-3.6-3.3-5.2-3.7-6.2-2.8
			c-1,0.9-2.7,4-0.4,4c2.2,0,2.2-0.7,2.2-0.7s-2.1-1.8-0.9-1.6c1.2,0.2,3.6,0.6,2.4,3c-1.2,2.4-3.3,4-4.8,2.4
			c-1.5-1.6-2.8-7.4-0.3-8.3c2.5-0.9,9.7-1.8,11.2,5.4c1.5,7.1,1.6,12.8-3.4,13.5c-5.1,0.7-7.7,2.8-11.7,0
			c-4-2.8-17.7-26.2-17.7-26.2"/>
		<path class="st6" d="M420.5,597.8c0,0,0.8,2.9,0.1,3.9c-0.7,1-2,1.5-2.5,0.9c-0.5-0.5-0.6-1.1-0.6-1.1l0.3-0.6
			c0,0-0.5-0.5-0.4-0.5c0.1,0,1.3,0,1.3,0s1.5-3.8-1.4-2.9c-2.9,0.9-3.5,2.8-2.8,3.7c0.7,0.9,2.6,4,3.2,4.1c0.6,0.1,1.2,0,2-0.3
			c0.8-0.3,0.6-0.1,1.1-0.9c0.5-0.7,1.6-2.8,1.6-3.6c0-0.9-0.1-1.5-0.5-1.8C421.6,598.3,420.5,597.8,420.5,597.8z"/>
		<path class="st6" d="M422.1,614.8c0,0,0.9-0.1,1,0.4c0.1,0.4,0.1,1-0.1,1.1c-0.3,0.1-0.6-0.1-0.6,0.3c0,0.4-0.5,1.8,0,2
			c0.5,0.2,1.1,0.2,1.5,0.1c0.4-0.2,1.3-0.4,1.3-1.2c0-0.7-0.1-3.7-0.4-4c-0.3-0.3-2-0.7-2.8-0.4c-0.8,0.3-1.3,0.1-2.3,1.2
			c-1,1.1-0.7,1.1-1,2.7c-0.2,1.6-0.1,3.7,0.5,4.2c0.6,0.4,0.9,1.2,1.6,1.4c0.7,0.2,2.2,0.4,2.8,0.2c0.6-0.1,1-0.3,2.2-0.8
			c1.1-0.5,1.8-0.4,2.1-2c0.3-1.6,1.2-1,0.6-2.7c-0.6-1.8-1.8-5.7-1.9-6.3c-0.2-0.7-0.4-1-0.4-1l-0.2,9.4c0,0,0.2,0.1-0.8,0.4
			c-1,0.4-1.2,0.4-1.6,0.4c-0.4,0,0,0.5-0.8-0.1c-0.8-0.6-2.4-1.8-2-2.6c0.4-0.8,0.3-0.9,0.6-1.3
			C421.6,615.6,422.1,614.8,422.1,614.8z"/>
		<path class="st6" d="M385.7,619.3c0,0,4.5,19.5,10.3,22.4c5.8,3,23.6,5.8,26.9,6c3.3,0.1,4.5,0.3,4.5,0.3h0.6"/>
		<path class="st6" d="M390.2,620.8c0,0,8.5,16.8,9.5,17.5c1,0.7,3,1.8,5.4,2.1c2.4,0.3,5.5,0.9,7.6,1.3c2.1,0.4,11.4,1.5,11.9,1.5
			c0.4,0,1.9-0.1,1.9-0.1l2.4,0.4"/>
		<path class="st6" d="M396,642.8c0,0,1.2,13.5,10.9,16.6c9.7,3.1,16.5,3.6,17.7,3.1c1.2-0.4,3-1,3-1"/>
		<path class="st6" d="M427.5,659.7c0,0-12.6-1.6-18.1-3.7c-5.5-2.1-8.6-2.2-9.1-4.8c-0.4-2.5-1-8-1-8"/>
		<path class="st6" d="M396.3,629.5c0,0-0.6-4.8,2.1-4c2.7,0.7,3.3,2.5,2.4,2.8c-0.9,0.3-1.8,0.9-1.8,0.9"/>
		<path class="st6" d="M406.7,638.8c0.7-0.3,4.8-3,3.7-4.8c-1-1.8-2.7-1.5-3.1-0.7c-0.4,0.7-0.6,2.8-0.6,2.8"/>
		<path class="st6" d="M415.9,642.6c0-0.4,4.2-9.1,1-8c-3.1,1-3,3.1-3,3.1"/>
		<line class="st6" x1="425.4" y1="642.2" x2="426.4" y2="638"/>
		<path class="st6" d="M423.6,641.1c-1.3-0.3-3.9,0-3.3-1.8c0.6-1.8,0.9-2.2,1.6-2.2"/>
		<path class="st6" d="M426.1,653.6c0,0-0.1,2.5-1.2,2.5c-1,0-2.5,0.6-2.5-0.6c0-1.2,0.7-1.9,0.7-1.9"/>
		<path class="st6" d="M415.7,656.7c0,0,1.6,0.2,1.6-2.4s0-3.3-0.7-3c-0.7,0.3-1.3,1.6-1.3,1.6"/>
		<path class="st6" d="M409.3,654.1c0,0,1.6-3,1.3-4.2c-0.3-1.2-0.6-2.8-1.5-1.5c-0.9,1.3-0.7,3.3-0.7,3.3"/>
		<path class="st6" d="M370.4,657.7c0.7,0.2,21-13.4,24.1-13.8"/>
		<path class="st6" d="M375.5,605.3c0,0-8.7,28.3-8,37.9c0.7,9.6,1.6,18.3,2.5,19.8c0.9,1.6,2.7,4.9,3.1,5.6
			c0.4,0.7,1.6,1.1,1.3,1.8c-0.2,0.7-2.5,3.1-2.7,3.8c-0.2,0.7-4.9,18.1-5.6,18.5c-0.7,0.4-2.9,8.5-3.3,9.4
			c-0.4,0.9-2.5,2.5-3.1,4.9c-0.7,2.5-1.6,5.1-1.6,5.1v1.6"/>
		<path class="st6" d="M372.6,604.6c0,0-9.4,27.2-8,45.5c1.3,18.3,7.1,22.5,7.1,22.5"/>
		<path class="st6" d="M368.8,679.6l-13.4-2.9c0,0,6-16.5,6.7-20.1c0.7-3.6,0.4-23.4,1.1-29.7c0.7-6.2,6.5-25,6.5-25"/>
		<path class="st6" d="M367.9,683.4c0,0-40.8-4.5-47.7-6.5c-6.9-2-25.6-6.7-28.3-6.7c-2.7,0-4.2-0.7-4.2-0.7s-0.7-4-4.2-6
			c-3.6-2-10.3,1.1-10.3,1.1s2,2.9-1.6,3.1c-3.6,0.2-34.8-1-43.3-3.1c-8.5-2.1-14.9-10.6-16.4-16.4c-1.4-5.8-1.9-18.6-1.9-18.6
			l2.5-8.5"/>
		<path class="st6" d="M202.6,642.1c0,0-2.9,12.3,1.5,14.2c4.3,1.9,15.5,4.7,15.5,4.7"/>
		<path class="st6" d="M206.7,658c0,1.1-0.4,10,2,12.4c2.5,2.3,18.8,8.9,18.8,8.9s38,8,41.6,7.3c3.6-0.7,6.1-4.5,8.9-3.9
			c2.8,0.6,6.1,6.1,13.5,7.1c7.4,1,63,3.4,66.9,3.3c3.9-0.2,7.7-0.4,7.7-0.4"/>
		<path class="st6" d="M365.3,690.1c0,0-24.4,0-32.9-1c-8.5-1-25.4-1.8-32.7-2.7s-14.4-3.4-18.4-6.1c-4-2.7-4.3-1.6-6.1-1.2
			c-1.8,0.4-3.6,3-7.6,3c-4,0-11.5-0.9-23-2.9c-11.6-2-31.7-7.1-32.6-8.2c-0.9-1.1-4.2-3.1-4.2-3.1"/>
		<path class="st6" d="M210.4,681.6c0,0,17.7,10.7,23.9,12.3c6.2,1.6,17.8,3.1,17.8,3.1s3.7,0,8.8,0.7c5.1,0.7,9.8-1.9,12.3-2.4
			c2.5-0.4,5.4,0,7.9,1.6c2.5,1.6,3.7,2.7,6,3.6c2.2,0.9,28.4,4.2,35.5,4.9c7.1,0.7,11.1,0.9,11.1,0.9l2.4-0.4"/>
		<path class="st6" d="M335.2,709.5c0,0-40.9-1.3-49.7-4.9c-8.8-3.6-4-5.2-11-4.9c-7,0.3-8.3,1.9-10.4,1.8c-2.1-0.1-22.7-2.1-32-5
			c-9.3-2.9-21.9-9.6-21.9-9.6"/>
		<path class="st6" d="M208.3,672.1c0,0,0.2,8.1,0.6,10.1c0.3,2,0.7,5.9,0.8,6.6c0.1,0.7-8,43.9-8.2,46.3c-0.3,2.4-3,12.5-3.6,16.9
			c-0.6,4.5-1.2,10.4-2.7,15.2c-1.5,4.8-0.6,6.8-1.8,8.3c-1.2,1.5-2.4,7.1-2.4,7.1l2.7,14"/>
		<path class="st6" d="M165.2,513.4c0,0,0,0,1.3,0.2c1.3,0.2,14,10.3,17.6,14.3c3.6,4,16.5,12,18.5,13.4c2,1.3,24.5,3.8,24.5,3.8
			s6.2,1.3,8.5,7.1c2.2,5.8-9.8,29.4-14.7,37.9c-4.9,8.5-19.2,44.2-19.6,42.4c-0.4-1.8-7.6-21-10.7-25c-3.1-4-4.9-11.1-8-13.4
			c-3.1-2.2-12.5-12.5-12.5-12.5l-0.9,35.2c0,0-0.6,39.1-0.6,52.8c0,13.7,13.4,68.4,14.9,76.1c1.5,7.7,8.6,49.9,8.6,49.9"/>
		<path class="st6" d="M185.3,792.2c0,0-15.6-73.6-16.5-85.2c-0.9-11.6-4-28.5-4-28.5"/>
		<path class="st6" d="M210.9,703c0,0,7.1,6.2,13.7,8.8c6.5,2.5,18.3,7,22.4,7.6c4.2,0.6,13.7-2.2,16.4-4.3c2.7-2.1,8-5.5,8-5.5
			s1.5-5.3,2.5-5.3c1,0,3.1-1,2.8,1.5c-0.3,2.5,1.6,4.5,2.1,5.2c0.4,0.7,19.2,17.5,21.3,18c2.1,0.4,5.9,1.9,5.9,1.9s16.8-1,19.8-1.3
			c3-0.3,16.8-5.1,16.8-5.1s-3.7-1.8-4.8-3.9c-1-2.1-2.7-10.4-2.1-11.6c0.6-1.2,1.5-4.6,1.5-4.6s-0.9-5.7,1.5-7.3
			c2.4-1.6,8.6-2.7,8.6-2.7l7.1,1.3c0,0,2.5,2.1,2.4,3.6c-0.1,1.5-0.7,13.5-0.7,13.5s4.9,11,5.2,11.6c0.3,0.6,2.2,4,2.2,4.6
			c0,0.6,0.1,2.8,0.1,3.6c0,0.7-3.1,10.3-6.1,10.9c-3,0.6-8.2-1-9.5-2.1c-1.3-1-1.6-0.9-2.1-2.1c-0.4-1.2-1.3-9.5-1.3-10.3
			c0-0.7,0-1-0.3-2.2c-0.3-1.2-0.7-2.1-0.7-2.1"/>
		<path class="st6" d="M355.5,712.2c0,0-1.8,4.6-3.9,6.2c-2.1,1.6-4.6,2.5-4.9,3c-0.3,0.4-5.1-6.5-2.5-10.1c2.5-3.6,2.5-3.6,2.5-3.6
			s-0.4-3.1,0.3-5.2c0.7-2.1,1.9-4.6,3-4.9c1-0.3,3-0.7,3-0.7l3,0.6"/>
		<line class="st6" x1="345.7" y1="706.4" x2="337.8" y2="705.7"/>
		<path class="st6" d="M346.2,722.6c-0.6,0-6.1-0.9-6.1-0.9"/>
		<path class="st6" d="M355.7,715c0,0-3.7,9.1-8.9,10c-5.2,0.9-2.5,0-2.5,0"/>
		<path class="st6" d="M357.3,719.8c0,0-1.8,7.3-5.2,8c-3.4,0.7-6.2,0.6-6.2,0.6"/>
		<path class="st6" d="M360.6,725.1c0,0-1.9,7.3-5.8,8c-3.9,0.7-7.1-0.6-7.1-0.6"/>
		<path class="st6" d="M363.2,730.2c0,0-3.6,7.9-7.6,8.3c-4,0.4-6.5,0.1-7.1-0.2c-0.6-0.3-0.9-1.3-0.9-1.3"/>
		<path class="st6" d="M345.9,741.2c0,0-4,14.2-3,14.8c1,0.7,10.5,1.2,10.5,1.2s14.5-26.2,15.5-28.5c1-2.3,3.2-5.6,2.8-5.9
			c-0.4-0.3-9.5-2.8-9.5-2.8l-1.7-0.1"/>
		<path class="st6" d="M371.9,724.3c0,0,0.2,4.9,0.2,7.1c0,2.2,0.1,3-1,5.8c-1.1,2.8-13.7,25.8-13.9,26.1c-0.2,0.3-2.8,2.1-4.7,1.8
			c-1.9-0.3-3.1-0.6-5.1-0.6c-2,0-4.1-1.1-4.1-1.1l-1.1-7.7"/>
		<path class="st6" d="M354.2,757.8c-0.1,0.3,0.3,5.4,0.3,5.4"/>
		<path class="st6" d="M369.6,743.4c0,0-1.5,7.4-2.8,9.2c-1.3,1.8-6.4,2.7-7,3.4"/>
		<path class="st6" d="M370.2,741.9c0,0,3,10.1,2.7,12.3c-0.3,2.2-0.5,3.7-1.5,5.6c-1,1.9,1.8,2.8-5.1,5.6
			c-6.8,2.8-11.6,4.8-11.6,4.8l-1.3-3.9"/>
		<path class="st6" d="M356,772c0,0,1.2,2.8,1.6,3c0.4,0.2,0.1,1.3,0.9,3.6c0.7,2.2,0.6,1.5,1,3.3c0.4,1.8,2.5,6.7,2.5,6.7"/>
		<path class="st6" d="M373.8,757.2c0.1,0.4,3.9,12.6,4,13.1c0.1,0.4,1,3.6,1,4.9c0,1.3,1,6.1,1.5,6.7c0.4,0.6,1.2,2.2,1.2,2.2"/>
		<path class="st6" d="M388.1,742.2c0,0,12.2,3.1,23.5,3.7c11.3,0.6,13.8,0.6,13.8,0.6"/>
		<path class="st6" d="M387.8,734.6c0,0,14.9,1.3,17.3,1.9c2.4,0.6,6.7,0.4,8.8,0.4c2.1,0,3.9-0.6,7.3,0c3.4,0.6,3.4,0.6,3.4,0.6"/>
		<polyline class="st6" points="400,746.4 418.1,777.8 423.2,764.5 		"/>
		<polyline class="st6" points="421.4,746.7 398.8,779.8 390.5,762.6 		"/>
		<line class="st6" x1="398.6" y1="746.2" x2="388.8" y2="760.4"/>
		<path class="st6" d="M399.8,756.1c0,0-1.8,4-1.6,6.4c0.2,2.4-1.5,7.3,0.7,6.5c2.2-0.7,4-5.6,4-6.8
			C402.9,761,402.2,755.2,399.8,756.1z"/>
		<path class="st6" d="M418.7,757.1c0,0-2.7,5.2-2.8,6.1c-0.1,0.9-0.3,2.5,0,3.3c0.3,0.7,2.1,1.6,2.5,1.5c0.4-0.1,2.4-5.8,2.4-6.7
			C420.8,760.4,420.9,755.5,418.7,757.1z"/>
		<polyline class="st6" points="404.6,778.7 410.5,769.7 414.4,777.9 		"/>
		<polyline class="st6" points="404.3,747.6 410.4,757.2 416.2,749.2 		"/>
		<path class="st6" d="M393,780.3c0,0,8.2,2.2,19,0.6c10.9-1.6,11.9-3,11.9-3"/>
		<path class="st6" d="M244.8,721.1l-0.9,19.9c0,0-27.4-10.9-29.6-12.9s-3.9-2.2-3.9-3.4c0-1.2-0.7-8.9-0.3-14.4
			c0.4-5.5,0.7-6.4,0.7-6.4"/>
		<path class="st6" d="M302.3,732.4l-0.1,22.2c0,0,35.1-3.4,37.8-4.9c2.7-1.5,3.6-2.4,3.6-2.4"/>
		<path class="st6" d="M302.9,733.3c0,0,33-1.8,37.6-3.9"/>
		<path class="st6" d="M303.6,751.6c0,0,32.4-3,36.6-4.3"/>
		<path class="st6" d="M243.1,722.3c0,0-21.7-7-23.9-9.1c-2.2-2.1-6.5-5.3-6.5-5.3"/>
		<path class="st6" d="M241.2,737.8c0,0-29.9-12.5-30.3-12.8"/>
		<path class="st6" d="M278.8,721.5c0,0-0.5,2.8-2.2,1.5c-1.6-1.3-1.4-4.3,0.5-4.2c1.9,0.1,4.4,3.9,7.8,9.6
			c3.4,5.7,2.1,8.9,6.3,10.1c4.2,1.2,6.8,2.9,6.7,0.6c-0.1-2.3-0.8-3.9-1.9-3.3c-1,0.6-1,1.3-1,1.3"/>
		<path class="st6" d="M294.5,748.7c0,0,3.3,0.5,3.3-0.4c0-0.9,0.5-2.9-1-3.3c-1.6-0.4-2.1-1.9-4.6,1.9c-2.5,3.8-8.4,13-11,14.3
			c-2.6,1.3-5.3,1.8-6,1.3c-0.7-0.5-1-2.2-1-2.2s1.5-0.7,2-0.3c0.5,0.4,0.7,0.7,0.7,0.7"/>
		<path class="st6" d="M265.3,758.6c0,0,1.3,0.5,1.3,1c0,0.4-0.6,1.6-0.7,1.8c-0.1,0.2-1.3,0.2-1.3,0.2s-2.5,0.2-5.5-6.7
			c-3-6.9-4-13-4.7-14.8c-0.7-1.8-4.3-2.8-5-2c-0.7,0.8-0.9,2.8-0.1,3.1c0.8,0.3,2.3-1,2.1-1.2"/>
		<path class="st6" d="M251.7,730.1c0,0-1.4-1.9-2.1-1c-0.7,0.9-0.4,3,0.3,3.1c0.8,0.1,2.3,0.7,2.8,0.1c0.5-0.6,9.9-8.9,10.5-10.5
			c0.6-1.6,3.2-4.3,3.8-4.2c0.7,0.2,3,0.6,3.2,1.5c0.2,0.9,0,2.1-0.9,2.2c-0.9,0.1-1.2-0.3-1.2-0.3"/>
		<path class="st6" d="M244.3,743.3l4.3,3.3c0,0,4.3,4.2,5.9,8.8c1.6,4.6,2.8,9.1,4.3,9.1c1.5,0,25.9,3.3,25.9,3.3s0.3-8,4-9.1
			c3.7-1,11.1-3,11.1-3l1.5-0.9"/>
		<path class="st6" d="M246.6,722.5c0,0,6.7,0.6,11.4-1.6c4.8-2.2,14.3-9.2,15.5-9.5c1.2-0.3,2.5,0.9,3.1,1.5
			c0.6,0.6,20.5,17.2,22.4,18.4"/>
		<line class="st6" x1="274.4" y1="706.8" x2="273.6" y2="709.5"/>
		<line class="st6" x1="255" y1="735.4" x2="254.9" y2="737"/>
		<line class="st6" x1="298.6" y1="742.1" x2="298.6" y2="743.7"/>
		<path class="st6" d="M271.8,729.4c0,0-9.1-1.2-10.4,7.4c-1.3,8.6,0.1,14.3,3,16.5c2.8,2.2,15,5.9,17.1-2.7
			c2.1-8.6,1.6-12.5,0.7-14.3C281.3,734.6,282.7,732,271.8,729.4z"/>
		<path class="st6" d="M272.7,726.5c0,0-9.7-0.7-11.9,4.6c-2.2,5.4-3,13.7-2.1,17.2c0.9,3.6,6.5,9.2,11,10c4.5,0.7,14-3,14.7-8.3
			c0.7-5.4,2.5-14.3-0.3-16.3C281.3,731.5,281.2,727.8,272.7,726.5z"/>
		<path class="st6" d="M342.3,753.6c0,0-40.8,19-44.2,19.8"/>
		<path class="st6" d="M262,776.1c0,0-42.1-26.8-47.7-44.4"/>
		<path class="st6" d="M259.6,793.5c0,0-50-41.3-53.7-50.6c-3.8-9.4-3.3-12.9-3.3-12.9"/>
		<path class="st6" d="M210.9,729.6c0,0,13.2,21.9,19.3,26.8c6.1,4.9,28.8,21.7,30.7,22.8c1.9,1.1,2-0.9,2.2,4.2
			c0.2,5.1,0.9,8.6,0.9,8.6s-16.1-9.4-19.1-12.6c-3-3.2-32.7-29.1-33.6-33.6c-0.9-4.5-6.5-20.3-5.8-22.5"/>
		<path class="st6" d="M305.9,774c0,0,24.5-10.3,29-12.7c4.6-2.4,5.7-3.7,5.7-3.7"/>
		<path class="st6" d="M343.4,768c0,0-16.1,8.8-18.1,10.1c-2,1.3-6.6,3.8-6.6,3.8"/>
		<path class="st6" d="M320.7,783.7c0,0,23.9-12.4,25-14.3"/>
		<path class="st6" d="M323.9,772.6c0,0-1.9,1-0.5,1.6c1.3,0.6,1.7-0.4,1.5-1.3C324.6,771.9,324.9,772.3,323.9,772.6z"/>
		<path class="st6" d="M336.9,764.9c0,0-2.1,0.3-1.1,1.3c1,1,1.7,1.3,1.8,0.5C337.7,766,337.8,764.7,336.9,764.9z"/>
		<path class="st6" d="M246.1,773.4c0,0-1.6,0.9-0.9,1.4c0.7,0.6,0.4,1.2,1.1,0.6C247,774.8,246.1,773.4,246.1,773.4z"/>
		<path class="st6" d="M232,762.1c0,0-1.3-0.4-1.1,0.2c0.2,0.5,0.6,1,0.8,0.9C231.9,763.1,232,762.1,232,762.1z"/>
		<path class="st6" d="M219.8,749.2c0,0-0.7,0.4-0.6,0.6c0.2,0.3,0.4,0.6,0.5,0.3c0.1-0.3,0.1-0.5,0.1-0.7
			C219.8,749.3,219.8,749.2,219.8,749.2z"/>
		<path class="st6" d="M212.4,739.3c0,0-0.2,0.4-0.1,0.7c0.2,0.2,0.4,1.3,0.6,0.2c0.2-1.1-0.2-1.2-0.2-1.2L212.4,739.3z"/>
		<path class="st6" d="M287.6,786.8c0,0,6.2-0.2,9-0.1c2.8,0.1,2.3-0.9,2.8,0.1c0.4,1,0.8,1.2,0.6,2.2c-0.2,1-0.1,1.2-0.5,1.3
			c-0.4,0.1-10.5,1-11.3,1c-0.8,0-1.4,1.3-2.1-0.2c-0.6-1.5-0.9-1.9-0.6-2.6c0.3-0.8,1.7-2.2,1.7-2.2L287.6,786.8z"/>
		<path class="st6" d="M293.1,779.8c0,0-15.6,2.6-20.5,2.5c-4.9-0.1-4.9-0.1-4.9-0.1s0-3.1,0.3-3.1c0.3,0,1-0.1,9.5-0.3
			c8.5-0.1,11.3-0.5,12.7-0.8c1.4-0.3,1.1-0.3,1.9-0.3C292.9,777.7,294.1,778.7,293.1,779.8z"/>
		<path class="st6" d="M295.2,795.9c0,0-11.5,2.8-20.6,2c-9.1-0.8-7.2-2.2-5.9-2.6c1.3-0.4,7.5,0.2,9,0.4c1.5,0.2,13.6-1.3,15-1.3
			c1.4-0.1,2.1-0.2,2.1-0.2L295.2,795.9z"/>
		<path class="st6" d="M267.7,778c0,0,0,13.6-0.1,15.2c-0.1,1.6-0.1,2.9-0.1,2.9s25,2.5,27.2,1.3c2.2-1.3,2.6-5.6,2.6-5.6"/>
		<path class="st6" d="M296.4,785c0,0-0.7-6.8-2.6-7.5"/>
		<path class="st6" d="M263,779.4c0,0-1.4-3.2,0-3.9c1.4-0.7,6.9-2.3,18.1-2.5c11.2-0.1,16.3,1.1,16.3,1.1s1.6,1.9,1.9,3.9
			c0.3,1.9,0.8,4.9,0.8,5.8c0,0.9,0.1,2.2,0.1,2.2s0,10.9,0,11.3c0,0.4-0.1,1.4-0.6,2"/>
		<path class="st6" d="M299.6,776.6c0,0,12.6-0.9,13.8,5.4c1.2,6.2-3.4,12.3-4.6,13.2c-1.2,0.9-4.5,3-4.5,3"/>
		<path class="st6" d="M313.3,778.9c0,0,9.2,4.8,10.7,7.4c1.5,2.7,1.9,3.6,1.5,5c-0.4,1.5-1.3,2.2-1.3,2.2"/>
		<path class="st6" d="M321.6,788.3c0,0-0.6,1.6-0.2,1.9c0.4,0.3,1.8,1.9,1.5,0.4c-0.3-1.5,0.2-2.1-0.6-2.2c-0.7-0.2-1-0.7-1-0.7
			L321.6,788.3z"/>
		<path class="st6" d="M304.5,785c0,0,1,3.9,1.6,3.3c0.6-0.6,0.9-0.3,0.6-1.5c-0.3-1.2,0.4-0.9-0.3-1.2
			C305.7,785.3,304.5,785,304.5,785z"/>
		<path class="st6" d="M112.9,483.4c0,0,7.3,14.9,21.9,16.5c14.6,1.6,14.4,1.2,16.1,0.1"/>
		<path class="st6" d="M157.5,493.4c-0.4,0.1-10.3,5.6-16.9,3.6c-6.7-2.1-18.6-6.4-21.6-9.5c-3-3.1-4.9-4.9-4.9-4.9v-1.8"/>
		<path class="st6" d="M159.7,479.7c0,0-17.2,7.3-36.7,1.2c-19.5-6.1-12.5-6.1-12.5-6.1"/>
		<line class="st6" x1="144.1" y1="483.9" x2="144.7" y2="492.5"/>
		<line class="st6" x1="141" y1="490.8" x2="140.6" y2="484.5"/>
		<path class="st6" d="M138.3,491c-0.3-1-1-5.2-1-5.2l-5.1,2.7"/>
		<line class="st6" x1="135.6" y1="483.3" x2="127.5" y2="487.3"/>
		<path class="st6" d="M129.3,483.6"/>
		<path class="st6" d="M279.1,477.1c0,0,7.2,8.8,8,9.8c0.8,1,3.6,5.3,3.7,5.7c0.1,0.3,1.8,2.9,0.3,4.4c-1.5,1.4-8.4,6.1-11.9,1.9
			c-3.6-4.2-8.2-8.7-8.2-8.7"/>
		<path class="st6" d="M278,498.3c0,0,0.8,8,5.7,8.1c4.9,0.1,10.1-2.2,11.3-4c1.1-1.8,1.9-8.2,1.1-10c-0.8-1.8-4.3-5.1-5.9-5.5
			c-1.6-0.3-2.6-0.3-2.6-0.3"/>
		<path class="st6" d="M291.4,490.6c0,0,2.1,2.8,1.9,5c-0.2,2.2-1.3,4.6-2.3,5.1c-1,0.6-5.5,1.9-5.8,2c-0.3,0.1-3.1,0-3.1,0"/>
		<path class="st6" d="M298.1,463.9c0,0,0.6,1.6,0,3s-5.5,4.1-6.1,5.3c-0.7,1.2-2.3,4.1-2,5.2c0.3,1.1,0.3,3.2,0.4,3.9
			c0.1,0.7,0.2,1.9,0.3,2.3c0.1,0.4-1,1.8,0,2.5"/>
		<path class="st6" d="M306.6,481.4c0.1,0.8,0.4,3,0.1,3.2c-0.3,0.2-1.5,0.7-1.5,0.7l-0.8,0.2"/>
		<path class="st6" d="M298.9,481.6c0,0,0.3,2,0.9,2.2c0.6,0.2,1.7,0.8,1.2-0.2C300.6,482.6,298.9,480.3,298.9,481.6z"/>
		<path class="st6" d="M293.2,482.2c0,0,0.1,2.1,0.2,2.5c0.1,0.3-0.6,0.1,0.1,0.3c0.7,0.2,0.4-1.5,0.4-1.5S293.1,481.1,293.2,482.2z
			"/>
		<path class="st6" d="M292.9,477.1c0,0,1.2-0.8,2.5-0.1"/>
		<path class="st6" d="M305.1,469.6c0,0,2.2,6.1,2.7,8.3"/>
		<path class="st6" d="M295,468.5c0,0-1.4-1.9-4.7-1.8c-3.3,0.1-3.8,2.1-4.1,2.5"/>
		<path class="st6" d="M285.8,469.8c0,0,2.7,1.9,3.6,2.2c0.9,0.2,2,0.2,2,0.2"/>
		<path class="st6" d="M290.6,469.1c0,0-0.4,0.8,0.1,0.8c0.4,0,0.4-0.6,0.4-0.6L290.6,469.1z"/>
		<path class="st6" d="M314.8,470.1c0,0,4.6-1,5.8-0.9c1.2,0.1,3.1,0.9,3.8,1.5c0.8,0.6,2.9,1.8,3.1,2.1c0.2,0.2,1.1,1.1,1.1,1.1"/>
		<path class="st6" d="M314.7,471.9c0,0,1.6,2.3,3.7,2.8c2.1,0.6,4.8,0.4,5.5,0.3c0.7-0.2,2.2-0.9,2.2-0.9"/>
		<path class="st6" d="M319.9,471.2c0,0-0.2,0.9-0.1,0.9c0.2,0.1,0.5,0.4,0.6,0.1c0.1-0.4,0.1-0.8,0.1-0.8L319.9,471.2z"/>
		<path class="st6" d="M313.2,466.5c0,0,4.5-1,10,0.7c5.5,1.8,7.3,3.6,7.3,3.6"/>
		<path class="st6" d="M295.2,465c0,0-4.3-1.9-6.1-1c-1.8,0.9-2.8,1.9-2.8,2.5"/>
		<path class="st6" d="M283.6,472.6c0,0-0.3-6.7,0.6-10c0.9-3.3,3.3-5.8,3.9-7.1c0.6-1.3,1.5-3.3,2.2-4c0.7-0.7,1.2-2.2,1.2-2.2"/>
		<path class="st6" d="M309.1,478.5c1,0.9,2.4,2.1,3,3.4"/>
		<path class="st6" d="M310.5,463c0,0,3.6,0.1,7.9-0.2c4.3-0.3,7.6,0.3,8.6,0.9c1,0.6,2.2,2.5,2.2,2.5"/>
		<path class="st6" d="M295.5,462c-0.4,0.3-1-0.4-2.8-0.6c-1.8-0.1-6.4,0.6-6.7,1.6c-0.3,1-1,4-1,4"/>
		<path class="st6" d="M283.1,474.2c-0.6,1.2-1.9,4.5-1.9,4.5"/>
		<path class="st6" d="M288.6,450.4c0,0,2.1-4.6,4.8-2.2c2.7,2.4,3.7,8.8,5.8,8.8c2.1,0,7.9-2.2,8.3-2.7c0.4-0.4,9.8-6.2,16.2-4.2
			c6.4,2.1,15,4.2,15.3,11c0.3,6.8,0.6,6.4,0.6,9.4s0.1,2.4-0.6,5.1c-0.7,2.7-0.3,2.4-1.9,4.5c-1.6,2.1-3.7,2.2-3.7,2.2
			s0.1,3.4,0.1,5.1c0,1.6-3.1,10.1-4.6,13.5c-1.5,3.3-9.4,9.8-10.3,10.4c-0.8,0.6-1.4,0.4-0.1,2.1c1.3,1.7,9,7,12.3,7.1
			c3.3,0.2,6.3-6,6.3-6l13.7-29.6c0,0,4.3,4.8,6.5,6.1c2.2,1.3,4.2,2.1,4.6,1.5c0.4-0.6,0.4-0.6,0.4-0.6"/>
		<path class="st6" d="M342.4,473.1c0,0,3.2,5.3,7,9.9"/>
		<path class="st6" d="M359.8,435.6c0,0,4.2,5.8,5.8,9.6c1.6,3.8,1.4,5.5,1.4,8.1c0,2.7,0.2,6.9,0.2,7.2"/>
		<path class="st6" d="M348.4,439.6c0,0,6.6,6.2,7.5,13.5c0.9,7.2,0.4,7.6,2,10.1c1.6,2.6,2.9,3.3,2.9,3.3"/>
		<path class="st6" d="M364.1,434.4c0,0,6.1,8.1,5.9,12.3c-0.2,4.1-0.2,6.7-0.2,7.5c0,0.8,1.1,4,1.1,4"/>
		<path class="st6" d="M368.9,433.6c0,0,3,5.8,3.3,10.3c0.3,4.5,0.2,5.7,0.2,7.5c0,1.8,0.1,3,0.3,4c0.2,1,0.9,2.3,0.9,2.3"/>
		<path class="st6" d="M374.5,432.4c0,0,2,4,2.1,6.2c0.1,2.2,0.7,3.7,0.3,5.3c-0.3,1.7,0.6,0.2-0.7,4.7c-1.2,4.5-1.1,6.4-1.1,7"/>
		<path class="st6" d="M379.6,432.1c0,0,2.3,6.4,2.1,8.3c-0.2,1.9-0.2,2.5-1.1,4.8c-0.9,2.3-1.1,5.1-1.6,6.2c-0.4,1.1-1.3,3.9-1.4,5
			"/>
		<path class="st6" d="M386,433.6c0,0,1.4,6.2,1.2,7.7c-0.2,1.4,0,2.3-0.6,3.5c-0.6,1.1-1.2,2.7-2.5,4.2c-1.2,1.6-2.9,2.8-3.3,4.2
			c-0.4,1.5-1,2.8-1.1,3.8c-0.1,1-0.1,1-0.1,1"/>
		<path class="st6" d="M391.2,436.5c0,0-0.7,5.6-1.1,6.9c-0.4,1.3,0.2,2.5-1.2,4.8c-1.5,2.3-1.9,2.3-3.2,4.1
			c-1.3,1.8-1.2,1.6-2.5,3.6c-1.2,2-1.7,2.7-1.7,2.7"/>
		<path class="st6" d="M396.4,439.9c0,0,0.3,0.1-1.3,3.6c-1.6,3.4-12.6,16-12.6,16"/>
		<path class="st6" d="M400.1,444c0,0-0.4,2.8-3.3,4.8c-2.9,2-12.8,11.2-12.8,11.2"/>
		<path class="st6" d="M403.4,450.1c0,0-0.7,0.1-2.3,1c-1.6,0.9-14.6,9.5-14.6,9.5"/>
		<path class="st6" d="M405.2,454.6c0,0-4.3,0.4-4.6,1c-0.3,0.6-13,6.6-13,6.6"/>
		<path class="st6" d="M406.7,459.7c0,0-3.9-0.4-4.8-0.1c-1,0.3-13.5,5.1-13.5,5.1"/>
		<path class="st6" d="M407.7,465.1c0,0-1.9-1.5-5.3-1.3c-3.4,0.2-14.2,3.3-14.2,3.3"/>
		<line class="st6" x1="407.3" y1="469.2" x2="388.7" y2="469"/>
		<path class="st6" d="M406.3,474.6c0,0-5-2-7.5-2.4c-2.6-0.4-8.9-0.6-8.9-0.6"/>
		<path class="st6" d="M404.9,478.8c0,0-11-4-15.3-3.9"/>
		<path class="st6" d="M402.8,483.8c0,0-6-5.4-15.3-6.4"/>
		<path class="st6" d="M400,487.1c0,0-8.6-6-11.1-6.7"/>
		<path class="st6" d="M398.6,491.3c0,0-7.6-7.7-11.1-8.8"/>
		<path class="st6" d="M395.9,494.9c0,0-6.7-7.6-10-9.7"/>
		<path class="st6" d="M392.2,499.2c0,0-5.4-9.3-8.1-10.9"/>
		<path class="st6" d="M389,502c0,0-3.5-7.6-6.9-10.4"/>
		<path class="st6" d="M385.4,505.1c0,0-3.7-10-6.2-12"/>
		<path class="st6" d="M380.9,507.4c0,0-0.4-9.1-3.7-11.4"/>
		<path class="st6" d="M376.9,508.4c0,0,1.1-7.7-2.8-11.2"/>
		<path class="st6" d="M288.8,442.4c0,0,4.9-5.3,9.1-3.3c4.2,2.1,6.9,5.3,6.9,5.3s9.1-3.7,13.6-3.6c4.5,0.2,17.1,1,19.7,4.5
			c2.7,3.6,9,11.7,9,11.7s0.7,4.2,0.6,4.6c-0.1,0.3-2.7,5-0.1,10.4c2.6,5.3,6,10.3,6,10.3s2.9,2.9,3.2,3.1c0.3,0.2,1.8,1.7,1.8,1.7"
			/>
		<path class="st6" d="M348.1,462.3c0,0,8.5,12.3,10.4,13.6"/>
		<path class="st6" d="M343.6,482.1c0.1,0.6-0.2,5.1-0.2,6.6c0,1.5,0.4,3.6-1.4,6.2c-1.9,2.7-1.8,2.9-4.5,5.6
			c-2.7,2.7-3.8,1.9-4.9,6c-1.1,4.1-0.9,5.5-0.8,6.6"/>
		<path class="st6" d="M339.7,488.8c0,0,2.6-0.3,3.1,0.2"/>
		<line class="st6" x1="351.9" y1="469.1" x2="352.8" y2="475.8"/>
		<line class="st6" x1="352.3" y1="477.9" x2="358" y2="477.7"/>
		<line class="st6" x1="355.4" y1="473.5" x2="355.4" y2="476.1"/>
		<line class="st6" x1="355.4" y1="479.4" x2="355.6" y2="483.1"/>
		<line class="st6" x1="348.2" y1="471.5" x2="350.3" y2="472.2"/>
		<path class="st6" d="M358.6,467.6c0,0-4.3-5.8-4.3-7.3c-0.1-1.5-3.3-1.5-5-3.8c-1.6-2.4-2-2.6-2.1-3.7c-0.2-1.2,0.5-0.3-0.7-2.1
			c-1.2-1.8-2.7-3-2.8-3.2c-0.2-0.3-2.3-1.8-2.3-1.8"/>
		<path class="st6" d="M348.1,449.9c0,0,1.4-0.7,2.2-0.1c0.8,0.6,1.2,1.8,1.1,2.1c-0.1,0.3-0.2,0.8-0.2,0.8"/>
		<path class="st6" d="M358.9,443c0,0-0.9,1.7,0.1,1.2C360,443.8,359.6,443.3,358.9,443z"/>
		<path class="st6" d="M365.6,461.7c0,0-0.9,1.7,0.1,1.2C366.6,462.5,366.3,462,365.6,461.7z"/>
		<path class="st6" d="M363.6,452.5c0,0-0.9,1.7,0.1,1.2C364.7,453.2,364.3,452.7,363.6,452.5z"/>
		<path class="st6" d="M354.2,437.2c0,0-0.9,1.7,0.1,1.2C355.3,438,354.9,437.5,354.2,437.2z"/>
		<path class="st6" d="M359.3,444.3"/>
		<path class="st6" d="M261.2,455.5c0,0-2.9,6.4-6.8,10.1c-3.9,3.7-4.5,5.2-4.5,5.2"/>
		<path class="st6" d="M247.6,444.9c0,0-5.2,3.3-8.5,9.8c-3.3,6.5-3.9,7.6-3.9,7.6"/>
		<path class="st6" d="M270.7,468c0,0-6,12-6.7,12.3"/>
		<path class="st6" d="M312.1,440.2c0,0-3-5,0.3-6.6c3.3-1.6,4.8-2.7,4.7-1.8c-0.1,0.9-1.1,1.2-1.1,1.2s-1.6,0.6-0.6,1.2
			c1,0.7,5.6,3.7,5.9,0.8c0.3-2.9,0.2-4.6-0.9-5c-1.1-0.4-3.8-0.7-4.2-0.7c-0.4,0-4.6,0.6-4.6,0.6s-2.2-1-3.1-0.7
			c-0.9,0.3-3.1,1.2-3.7,1.7c-0.6,0.4-1-0.1-1,0.9c0,1,0.8,2,1.3,2.2c0.6,0.2,1.6,0.2,1.6,0.2s0.4,0.1,1-0.3
			c0.6-0.4,0.9-1.1,0.9-1.1l-0.8-0.6l0.9-0.4c0,0-2.9,6.5-4.7,7.2c-1.8,0.8-1.8,0.8-1.8,0.8"/>
		<path class="st6" d="M308.4,439.3l-1,0.9c0,0-0.6,1.1-0.8,0.2C306.4,439.5,306.6,438.3,308.4,439.3z"/>
		<path class="st6" d="M328.6,429c0,0,5.1,2.1,4.8,5.7c-0.3,3.6-0.7,4-0.7,4"/>
		<path class="st6" d="M333.9,429.6c0,0,2.7,5.6,1.4,7.9c-1.2,2.3-1.6,3-2.1,3.3"/>
		<path class="st6" d="M301.4,433.3c-0.3,0.2-6.8,2.8-3.9,4"/>
		<path class="st6" d="M302.4,430c0,0-7.9,4.2-8,6.5"/>
		<path class="st6" d="M338.7,437.7c0,0,8.5,3.3,10.6,6.9c2.1,3.5,2.5,4.2,2.5,4.2"/>
		<path class="st6" d="M303,447.4c0,0-2.2,0.4-2.1,1.6c0.1,1.2,0.8,1.5,1.6,1.5c0.8,0,1.9-1,1.8-1.6
			C304.3,448.5,303.8,447.4,303,447.4z"/>
		<path class="st6" d="M314.6,444.3c0,0-2.2,0.4-2.1,1.6c0.1,1.2,0.8,1.5,1.6,1.5c0.8,0,1.9-1,1.8-1.6
			C315.9,445.4,315.4,444.2,314.6,444.3z"/>
		<path class="st6" d="M336.8,447.1c0,0-2.2,0.4-2.1,1.6c0.1,1.2,0.8,1.5,1.6,1.5c0.8,0,1.9-1,1.8-1.6
			C338.1,448.2,337.5,447.1,336.8,447.1z"/>
		<path class="st6" d="M325.7,443.9c0,0-2.2,0.4-2.1,1.6c0.1,1.2,0.8,1.5,1.6,1.5c0.8,0,1.9-1,1.8-1.6
			C327,444.9,326.5,443.8,325.7,443.9z"/>
		<path class="st6" d="M294.9,441.4c0,0-2.2,0.4-2.1,1.6c0.1,1.2,0.8,1.5,1.6,1.5c0.8,0,1.9-1,1.8-1.6
			C296.2,442.5,295.7,441.3,294.9,441.4z"/>
		<path class="st6" d="M287,448.6c0,0,5.7-6.2,8.7-1.9c3,4.3,2.8,6.9,6.5,6.1c3.7-0.8,9.1-4.8,9.1-4.8s7.2-1.2,9.8-1.2
			c2.6,0,5.6,0.2,8.5,1.1c2.9,0.9,8.5,3.6,9.4,5.1c0.9,1.6,4.1,9.5,4.8,13.3c0.7,3.8,2.3,7.2,3.5,8.9"/>
		<path class="st6" d="M303,478.7c0,0,1,0.9,1.3,2"/>
		<path class="st6" d="M295.5,489.1c0,0,4.8,0.1,6.6,1.6c1.9,1.6,3.8,3.1,4.3,4.5c0.5,1.3,1,2.7,1.1,2.9"/>
		<path class="st6" d="M298.4,497.1c0,0,2.9,1.1,4.8,1.7c1.9,0.6,2.8,0.9,2.8,0.9"/>
		<path class="st6" d="M304.4,501.8c-0.1,0.2-1.6,1.4-5.1,1.9c-3.6,0.4-4.5,0.5-4.5,0.5"/>
		<path class="st6" d="M50.5,397c0,0-3.1,6.8-0.9,8.3c2.2,1.5,4,6.1,19.9-0.9c15.9-7,29-18.6,29.3-21.4c0.3-2.8,4-7.9-5.6-7.6
			c-9.7,0.3-18.3,3.6-25,7.7C61.5,387.4,50.6,394.7,50.5,397z"/>
		<path class="st6" d="M104.7,376.7c0,0-0.4,8.2-9.4,15.5c-8.9,7.3-16.7,12.8-24.4,15.8c-7.7,3-19,6.7-22.6,1.5"/>
		<path class="st6" d="M56.7,420.1c0,0,29.3-6.4,37-14.6c7.7-8.2,13.8-14,14.9-16.6"/>
		<path class="st6" d="M60.6,423.8c0,0,30.9-9.2,38.5-17.7c7.6-8.5,10.7-12.2,10.7-12.2"/>
		<path class="st6" d="M161.4,439.9c0,0,12.2,7.1,13.7,12.6c1.5,5.5,1.9,10.6,1.9,11c0,0.4,0,2.7-0.3,4c-0.3,1.3-0.7,2.1-0.7,2.1"/>
		<path class="st6" d="M178.6,442.5c0,0,4,5.9,5.1,9.8c1,3.9,1.2,5.2,1.2,6.4c0,1.2-0.1,3.6-0.1,3.6"/>
		<path class="st6" d="M165.2,439c0,0,12.5,9.1,13.1,16.3c0.6,7.3-0.3,10.3-0.3,10.9"/>
		<path class="st6" d="M161.2,437.5c0,0,6.5,0,9.1-1c2.5-1,5.9-0.6,6.5-0.3c0.6,0.3,5.9,11,8.8,12.6c2.8,1.6,4.6,0.3,5.1,0.2
			c0.4-0.2,1.8-1.9,1.9-2.5c0.1-0.6-1.3-8-3.3-12.6c-1.9-4.6-3.7-5.7-4.5-7.1c-0.7-1.5-3.3-4.9-3.7-5.4c-0.4-0.4-1.5-0.3-3.3-2.1
			c-1.8-1.8-2.8-2.7-2.8-2.7"/>
		<path class="st6" d="M191.1,450.1c0,0-0.4,4.2,1.8,4c2.2-0.2,4.5-0.9,5.1-1.8c0.6-0.9,1.5-2.1,1.6-4.3c0.1-2.2,0.7-14,0.3-17.2
			c-0.4-3.3-4.3-9.5-6.1-11.6c-1.8-2.1-2.5-2.8-2.5-2.8"/>
		<path class="st6" d="M200.8,450.7c0,0,3.3,1.5,4.6,0.1c1.3-1.3,1.3-1.5,1.8-3.4c0.4-1.9,1.3-6.5,1.6-8.9c0.3-2.4,0-0.6,0.3-4.9
			c0.3-4.3,0.7-5.1,0.3-7.1c-0.4-2.1,0.6-1.6-1-3.3c-1.6-1.6-1.2-1.3-3.4-3.3c-2.2-1.9-4.3-3.3-4.3-3.3"/>
		<path class="st6" d="M209.1,441.2c0,0,1.5,1.6,2.7,1.5c1.2-0.1,3.1,0.7,3.4-1.2c0.3-1.9,0.3-2.2,0.3-3.7c0-1.5,0.6-0.9,0.4-5.9
			c-0.1-5.1-0.4-6.1-0.4-6.1l-1.6-4.5"/>
		<path class="st6" d="M189.2,440.7c0,0-2.1-0.4-1.3,1.3c0.7,1.8,0.6,2.5,1.2,3.3c0.6,0.7,0.6,1.5,0.6,1.5"/>
		<path class="st6" d="M198.2,447.9c0,0-1.2-1.2-1.9,0.3c-0.7,1.5-1.2,1.3-1.2,2.5"/>
		<path class="st6" d="M205.4,445.8c0,0-1.2-1.2-1.3,0.1c-0.2,1.3-0.2,1.3-0.2,2.2"/>
		<path class="st6" d="M214.3,437.2c0,0-2.5,0.6-2.5,1.8c0,1.2-0.3,3.1-0.3,3.1"/>
		<path class="st6" d="M174.6,432.7c0,0-2.4-1.2-4.2-0.6c-1.8,0.6-2.7,1.2-3.3,2.1c-0.6,0.9-0.6,0.9-0.6,0.9"/>
		<path class="st6" d="M173.7,420.5c0,0,9.2,10.4,9.8,12.8c0.6,2.4,0.9,4.8,0.9,4.8"/>
		<path class="st6" d="M190.4,424.7c0.9,0.9,3,5.1,3.6,7.7c0.6,2.7,0.9,5.9,0.9,6.8"/>
		<path class="st6" d="M203.1,429.4c0,0.9,0,2.1,0,5.6c0,3.6,0,5.4,0,5.4"/>
		<path class="st6" d="M200.2,422.3c-1.2-1.5-2.1-2.7-2.1-2.7"/>
		<path class="st6" d="M145.6,505.4c0,0,1.3,6.2-3.1,12c-4.5,5.8-6.7,9.4-6.7,9.4l-4,1.8"/>
		<path class="st6" d="M150.5,552.2c0,0,22.7,12.5,25.9,12.5c3.1,0,7.6,0.4,10.3-1.3c2.7-1.8,5.3-4,6.7-4.9c1.3-0.9,7.6-3.6,7.6-3.6
			"/>
		<path class="st6" d="M159,527.7c0,0,4-0.9,9.4,2.2c5.3,3.1,7.6,5.3,7.6,5.3"/>
		<path class="st6" d="M383,667.3c1.8,5.9,1.8,10.7,3.6,13.7"/>
		<path class="st6" d="M413.9,672.1c0,10.1,0,8.9-1.8,15.5"/>
		<path class="st6" d="M276,500.5c0.3,1.5,2.7,5.3,3.9,6.8c1.2,1.5,0,4.8,0,4.8s10.4-0.3,11.6-0.6c1.2-0.3,6.8-1.2,8-0.3
			c1.2,0.9,3.3,1.5,5.1,0.9c1.8-0.6,3.6-2.7,3.9-3.6c0.3-0.9,0.9-5.3,0.9-5.3s-0.3-1.2-0.3-2.4"/>
		<path class="st6" d="M307.8,489.5c1.5,0.6,2.7,1.2,3.6,4.5c0.9,3.3,2.1,4.8,2.1,7.7c0,3-0.3,4.2,0.9,4.2"/>
		<path class="st6" d="M351.5,490.7c2.1,3.9-0.3,5.6,5.3,7.7c5.6,2.1,6.5,2.7,8.6,2.1c2.1-0.6,1.2-3,3.6-0.9
			c2.4,2.1,3.6,3.9,3.6,3.9"/>
		<path class="st6" d="M347,501.1c1.5,4.2,4.5,5.6,5.9,11.3c1.5,5.7,4.5,5.1,0.3,9.2c-4.2,4.2-10.1,3.3-10.1,7.4
			c0,4.2-0.3,7.1,0,10.7c0.3,3.6,0.9,5.1,2.1,6.2"/>
		<path class="st6" d="M353.6,528.2c-0.9,0.6-4.8,2.1-2.1,6.5c2.7,4.5,4.2,5.1,6.2,6c2.1,0.9,3.9-2.4,5.4,3c1.5,5.4,0.3,9.2,0.3,9.2
			"/>
		<path class="st6" d="M347,533.8c0,3.6-2.1,4.8,3.3,7.4c5.3,2.7,6.5,0.6,8,5.1c1.5,4.5,1.5,8.3,1.5,8.3"/>
		<path class="st6" d="M354.2,504.4c2.4,1.8,5.6,3.9,7.7,3.9c2.1,0,2.1,0.3,4.5-1.2c2.4-1.5,3.9-2.1,4.8-1.8"/>
		<path class="st6" d="M361,516.3c3.9,3,3.9-3.9,8.3,5.3c4.5,9.2,4.8,9.8,4.5,10.7"/>
		<path class="st6" d="M357.4,518c0,0,2.4,1.2,3.9,5.9c1.5,4.8,1.8,9.8,3.3,13.7c1.5,3.9,0.3,5.6,3,7.4"/>
		<path class="st6" d="M288.8,518.9c0,0-7.7-2.4-5.1,4.5c2.7,6.8,5.4,13.1,7.1,15.5c1.8,2.4,3.9,1.2,2.4,6.8c-1.5,5.6-1.2,8-3.6,9.8
			c-2.4,1.8-5.1,3-4.5,4.8"/>
		<path class="st6" d="M273.3,514.2c0,0-4.2-0.6-5.1-0.3c-0.9,0.3-3.6,1.2-5.1,4.2c-1.5,3-0.9,3.9-2.1,5.1c-1.2,1.2-5.1,2.1-5.1,2.1
			l-5.1-1.8"/>
		<path class="st6" d="M300.4,516.6c2.1,5.6,8.9,9.2,10.4,10.1c1.5,0.9,3,2.4,3,5.3c0,3-3.6-5.3,3,4.2c6.5,9.5,6.5,11,7.1,12.8
			c0.6,1.8,1.2,5.1,2.1,5.3"/>
		<path class="st6" d="M295.9,524.3c0.9,3,4.8,5.6,7.1,8c2.4,2.4,4.5,4.2,5.1,6.2c0.6,2.1,0.3,4.5,1.2,7.4c0.9,3,1.5,4.8,3.3,6.8"/>
		<path class="st6" d="M312.3,516.9c3.6,4.5,5.9,7.4,10.1,10.4c4.2,3,7.1,3,7.1,5.6c0,2.7-1.5,4.5,0.3,8.6c1.8,4.2,2.4,5.6,3.6,6.8"
			/>
		<path class="st6" d="M335.2,529.6c0.3,1.8,1.5,4.2,1.5,9.8c0,5.6,1.5,8,2.4,9.8c0.9,1.8,1.8,3.3,1.8,3.3"/>
		<path class="st6" d="M282.8,525.8c-0.6,2.4,0.3,6.2,2.1,11c1.8,4.8,3.9,4.2,2.7,7.7c-1.2,3.6,0.3,3.9-1.8,6.2
			c-2.1,2.4-2.7,2.4-4.8,3.9"/>
		<path class="st6" d="M276,530.8c1.2,3.6,2.1,7.7,2.1,11c0,3.3,1.5,2.7-0.9,6.2"/>
		<path class="st6" d="M268.9,531.7c0,0-0.3,4.2-0.6,8.6c-0.3,4.5-1.5,10.7-1.8,12.2c-0.3,1.5-0.3,1.5-0.3,1.5"/>
		<path class="st6" d="M282.2,514.5c0,0-10.4,4.8-11.3,6.5c-0.9,1.8-4.2,2.1-6.2,5.1c-2.1,3-2.4,3.9-1.8,5.9"/>
		<path class="st6" d="M269.1,510.3c-1.2,0-11.9,2.7-12.8,5.1c-0.9,2.4,0.6,3.6-1.5,4.8c-2.1,1.2-3.6,1.5-3.6,1.5"/>
		<path class="st6" d="M272.4,498.7c-3,3-8.6,3.9-9.5,6.8c-0.9,3-1.8,4.5-1.8,4.5"/>
		<path class="st6" d="M140.4,434.2c0,0,0.6,7.7,9.5,6.5c8.9-1.2,13.4-2.4,13.4-2.4"/>
		<path class="st6" d="M119.6,420.5c0,0-11,8-9.5,14c1.5,6,3,8,3,8"/>
		<path class="st6" d="M120.2,449.1c0,0,1.8,2.7,4.5,3.9c2.7,1.2,4.2,2.1,5.1,2.1c0.9,0,3.6,0.3,3.6,0.3"/>
		<line class="st6" x1="111" y1="430.6" x2="115.4" y2="440.2"/>
		<line class="st6" x1="113.9" y1="427.4" x2="117.5" y2="434.8"/>
		<line class="st6" x1="116.6" y1="424.4" x2="119.6" y2="429.4"/>
		<line class="st6" x1="122.3" y1="446.4" x2="124.9" y2="451.2"/>
		<line class="st6" x1="122" y1="440.2" x2="129.4" y2="451.7"/>
		<line class="st6" x1="123.8" y1="436" x2="132.4" y2="451.5"/>
		<path class="st6" d="M120,428.5c0,0-4.2,12.7-4.9,13.4c-0.7,0.7-5.4,2-5.4,2"/>
		<path class="st6" d="M123.5,429.4c0,1.6-2.2,6.5-3.3,8.7c-1.1,2.2-4.2,9.8-5.6,11.2c-1.3,1.3-2.7,2-2.7,2"/>
		<path class="st6" d="M103.9,428.9c-0.7,0-3.6-2.5-4.5,0.9c-0.9,3.3-0.7,4.9-0.2,7.1c0.4,2.2,2.2,2.7,1.1,5.8
			c-1.1,3.1-2.2,3.8-1.1,6.7c1.1,2.9,1.8,3.6,4.7,6c2.9,2.5,11.8,6.9,12.3,7.6c0.4,0.7,0.7,1.8,3.1,2.2c2.5,0.4,3.6-0.7,4.2,0.4
			c0.7,1.1,1.6,3.3,4.2,5.6c2.7,2.2,5.6,2.2,7.6,2.5"/>
		<path class="st6" d="M127.1,461.9c1.6,0.7,4.7,2.9,6,3.8c1.3,0.9,7.1,1.8,7.1,1.8"/>
		<path class="st4" d="M376.9,550c0,0,6.4-0.7,8.9,1.6c2.5,2.3,5,5.7,5,5.7s-0.2,1.4,0.5,1.4s-24.2-0.7-27.3-0.2
			c-3.2,0.5-5.2,0.7-5.2,0.7S369.8,551.6,376.9,550z"/>
		<path class="st4" d="M389.6,783.7l-3.1-42.8l1.3-6.2l-5.8-27.2l-2.2-24.1l-1.3-17.8c0,0-4.9,6.1-4,4.9c0,0-5.4,14.2-6,16.9
			c-0.7,2.7-10.9,22.3-10.2,24.8c0.7,2.5,0.5,6.8,4,7.9c3.5,1.1,11.3,0.4,10.7,7.3c-0.7,6.8-1.4,12.6-1,15
			c0.3,2.4,5.5,20.9,5.5,22.9c0,2.1,2.1,18.5,3.1,19.8C381.3,786.5,389.6,783.7,389.6,783.7z"/>
	</g>
	<g class="st3">
		<text transform="matrix(1 0 0 1 299.0483 285.27)" class="st7 st8 st9">M</text>
	</g>
</g>
</svg>
