<?xml version="1.0" encoding="utf-8"?>
<!-- Generator: Adobe Illustrator 22.1.0, SVG Export Plug-In . SVG Version: 6.00 Build 0)  -->
<svg version="1.1" id="Réteg_1" xmlns="http://www.w3.org/2000/svg" xmlns:xlink="http://www.w3.org/1999/xlink" x="0px" y="0px"
	 viewBox="0 0 606.5 713.5" style="enable-background:new 0 0 606.5 713.5;" xml:space="preserve">
<style type="text/css">
	.st0{opacity:0.45;}
	.st1{fill:#FFFFFF;}
	.st2{fill:#FFFFFF;stroke:#FFFFFF;stroke-width:0.25;stroke-miterlimit:10;}
	.st3{fill:none;stroke:#FFFFFF;stroke-width:0.75;stroke-miterlimit:10;}
	.st4{opacity:0.36;fill:none;stroke:#FFFFFF;stroke-width:0.25;stroke-miterlimit:10;}
</style>
<g class="st0">
	<path class="st1" d="M12.4,694.8c0,0,3.7-4.6,10.1-12.6c6.5-8,15.8-19.4,26.9-33.2c5.6-6.9,11.6-14.3,18-22.1s13.2-16.1,20.2-24.6
		s14.3-17.3,21.6-26.3c7.3-9,14.7-18.1,22.2-27.3c7.4-9.2,14.8-18.3,22.1-27.3S168,503.6,175,495s13.7-16.8,20.1-24.7
		c6.4-7.9,12.5-15.2,18.1-22.1c11.2-13.6,20.6-25,27.2-32.9c6.6-7.9,10.3-12.5,10.3-12.5l0.1,0.1c0,0-3.7,4.6-10.1,12.6
		c-6.5,8-15.8,19.5-26.9,33.2c-5.6,6.9-11.6,14.3-18,22.1c-6.4,7.8-13.2,16.1-20.2,24.6s-14.2,17.4-21.6,26.4
		c-7.4,9-14.9,18-22.3,27.1c-7.5,9.1-15,18.2-22.3,27.2S94.9,594,87.9,602.5c-7,8.6-13.7,16.9-20.1,24.7
		c-6.4,7.9-12.4,15.3-18.1,22.1c-11.2,13.6-20.6,25-27.1,33C16.2,690.4,12.5,694.9,12.4,694.8L12.4,694.8z"/>
	<path class="st1" d="M238.3,410.8c0,0-3.3,0.1-9.1,0.3c-2.9,0.1-6.4,0.2-10.4,0.3c-4,0.1-8.6,0.2-13.5,0.3c-5,0.1-10.3,0.2-16,0.2
		c-5.7,0.1-11.7,0.1-17.9,0.1s-12.6,0.1-19.1,0.2s-13.1,0.3-19.7,0.4c-13.2,0.3-26.4,0.6-38.8,0.8c-6.2,0.1-12.2,0.2-17.9,0.2
		c-5.7,0.1-11,0.1-16,0.1c-9.9,0.1-18.2,0.1-24,0.2c-5.8,0-9.1,0-9.1,0v-0.1c0,0,3.3-0.1,9.1-0.3c5.8-0.1,14-0.3,23.9-0.5
		c5-0.1,10.3-0.2,16-0.3c5.7-0.1,11.7-0.2,17.9-0.3c12.4-0.2,25.6-0.3,38.8-0.3c6.6-0.1,13.2-0.1,19.7-0.2s12.9-0.2,19.1-0.4
		c6.2-0.1,12.2-0.3,17.9-0.4s11-0.2,16-0.2s9.5-0.1,13.5-0.1s7.5,0,10.4,0C235,410.7,238.3,410.7,238.3,410.8L238.3,410.8z"/>
	<path class="st1" d="M70.1,413.8c0,0-1.5,2.6-3.8,7.2c-2.3,4.6-5.5,11.3-8.9,19.5c-1.7,4.1-3.3,8.6-4.9,13.5
		c-1.5,4.8-3,10-4.1,15.5c-1,5.4-1.7,11.2-1.4,17c0.1,1.4,0.2,2.9,0.5,4.3c0.1,0.7,0.2,1.5,0.4,2.2l0.5,2.1c0.2,0.7,0.5,1.4,0.7,2.1
		c0.3,0.7,0.5,1.4,0.8,2l1,2l1.1,2c5.7,10.4,11.2,20.9,17,30.4c2.9,4.7,5.9,9.2,9,13.2s6.3,7.6,9.5,10.6s6.5,5.5,9.5,7.4
		c3.1,1.9,5.9,3.2,8.3,4.2c1.2,0.5,2.3,0.9,3.3,1.2s1.8,0.6,2.5,0.7c1.3,0.3,2.1,0.5,2.1,0.5v0.1c0,0-0.7-0.2-2.1-0.5
		c-0.7-0.1-1.5-0.4-2.5-0.6c-1-0.2-2.1-0.6-3.3-1.1c-2.4-0.9-5.3-2.2-8.5-4.1c-3.1-1.9-6.4-4.3-9.7-7.3c-3.3-3-6.6-6.6-9.7-10.6
		s-6.2-8.5-9.1-13.2c-2.9-4.8-5.7-9.8-8.5-14.9c-2.7-5.2-5.5-10.4-8.2-15.7l-1-2l-0.9-2c-0.3-0.7-0.6-1.4-0.8-2.1s-0.5-1.4-0.7-2.1
		l-0.5-2.2c-0.2-0.7-0.2-1.5-0.4-2.2c-0.3-1.5-0.3-2.9-0.5-4.4c-0.4-5.9,0.3-11.6,1.2-17.1c1-5.5,2.3-10.7,3.8-15.6s3.3-9.4,5-13.5
		s3.4-7.8,5-11.1c1.6-3.3,3-6.1,4.3-8.3C68.5,416.3,70.1,413.7,70.1,413.8L70.1,413.8z"/>
	<path class="st1" d="M132.6,478c0,0,0.3,0.3,0.7,0.8c0.4,0.5,1.1,1.3,1.8,2.2c0.3,0.5,0.7,1,1.1,1.6c0.4,0.6,0.7,1.2,1.1,1.8
		c0.4,0.6,0.8,1.3,1.2,1.9c0.4,0.6,0.9,1.3,1.4,1.9c1,1.2,1.9,2.5,2.8,3.7s1.6,2.3,2.3,3.4c0.6,1,1.1,1.9,1.5,2.5
		c0.3,0.6,0.5,1,0.5,1h-0.1c0,0-0.3-0.3-0.7-0.8s-1.1-1.3-1.8-2.2c-0.7-0.9-1.5-2-2.4-3.3c-0.8-1.2-1.7-2.5-2.5-3.9
		c-0.4-0.7-0.8-1.3-1.3-2s-0.9-1.2-1.4-1.8c-0.5-0.6-0.9-1.1-1.3-1.7c-0.4-0.5-0.8-1.1-1.1-1.6c-0.6-1-1.1-1.9-1.5-2.5
		C132.7,478.4,132.5,478.1,132.6,478L132.6,478z"/>
	<path class="st1" d="M117,473.3c0,0-0.9,1.1-2.4,2.6c-0.4,0.4-0.8,0.8-1.2,1.2c-0.5,0.4-1,0.8-1.5,1.2c-0.5,0.4-1.1,0.8-1.6,1.3
		s-1,1-1.5,1.5c-0.9,1.1-2,2-2.9,2.9s-1.9,1.7-2.7,2.4c-0.8,0.7-1.5,1.2-2,1.6s-0.8,0.6-0.8,0.6l-0.1-0.1c0,0,0.2-0.3,0.6-0.7
		c0.4-0.5,1-1.1,1.7-1.9s1.6-1.6,2.6-2.5s2-1.8,3.2-2.6c0.6-0.4,1.1-0.9,1.6-1.3c0.5-0.5,1-1,1.4-1.4c0.4-0.5,0.9-1,1.3-1.4
		s0.9-0.8,1.3-1.1C115.7,474,116.9,473.2,117,473.3L117,473.3z"/>
	<path class="st1" d="M123.5,459.7c0,0-1-1.1-2.2-2.8c-0.3-0.4-0.6-0.9-0.9-1.4s-0.6-1.1-0.9-1.7s-0.6-1.2-1-1.8
		c-0.4-0.6-0.8-1.2-1.2-1.7c-0.9-1.1-1.7-2.3-2.4-3.4c-0.8-1.1-1.4-2.2-1.9-3.1s-0.9-1.7-1.2-2.3c-0.3-0.6-0.4-0.9-0.4-0.9h0.1
		c0,0,0.2,0.3,0.6,0.8s0.9,1.2,1.6,2.1c0.6,0.9,1.3,1.9,2,3s1.4,2.4,2.1,3.6c0.3,0.6,0.7,1.3,1.1,1.8c0.4,0.6,0.8,1.2,1.2,1.7
		c0.4,0.5,0.8,1,1.2,1.5c0.3,0.5,0.6,1,0.9,1.5C123,458.4,123.6,459.7,123.5,459.7L123.5,459.7z"/>
	<path class="st1" d="M139.7,459.7c0,0,1-1,2.8-2.2c0.4-0.3,0.9-0.6,1.4-0.9s1.1-0.6,1.7-0.9c0.6-0.3,1.2-0.6,1.8-1s1.1-0.8,1.7-1.2
		c1.1-0.9,2.3-1.7,3.4-2.4c1.1-0.7,2.1-1.4,3.1-1.9c0.9-0.5,1.7-0.9,2.3-1.2c0.6-0.3,0.9-0.4,0.9-0.4v0.1c0,0-0.3,0.2-0.7,0.6
		c-0.5,0.4-1.2,0.9-2,1.6c-0.8,0.6-1.9,1.3-3,2s-2.3,1.4-3.6,2.1c-0.6,0.3-1.2,0.7-1.8,1.1s-1.1,0.8-1.7,1.2c-0.5,0.4-1,0.8-1.5,1.2
		c-0.5,0.3-1,0.6-1.4,0.9C141.1,459.2,139.8,459.7,139.7,459.7L139.7,459.7z"/>
	<path class="st1" d="M131.7,445.3c0,0,0.6,0.1,1.6,0.3c1,0.2,2.6,0.6,4.5,1.1c1.9,0.5,4.2,1.3,6.8,2.5c2.5,1.1,5.2,3.1,7.1,6.1
		c1.9,3,2.6,6.9,1.9,10.9c-0.3,1.9-0.9,4-1.7,5.9c-0.2,0.5-0.4,1-0.6,1.4c-0.2,0.5-0.5,0.9-0.7,1.4c-0.4,1-1.1,1.8-1.7,2.7
		c-2.4,3.6-5.8,6.6-9.7,8.9s-8.4,3.7-13,3.9c-0.6,0.1-1.1,0-1.7,0s-1.1,0-1.7-0.1c-1.1-0.2-2.3-0.3-3.4-0.6
		c-2.2-0.5-4.3-1.5-6.2-2.6c-1.9-1.1-3.7-2.6-4.9-4.5c-1.2-1.9-1.9-4-2.1-6.2c-0.3-2.1-0.2-4.2-0.2-6.3c0-2.1,0-4-0.1-6
		c0-0.5,0-1,0-1.5c0-0.3,0.1-0.5,0.1-0.8c0-0.2,0.1-0.5,0.2-0.7c0.2-1,0.7-1.8,1.2-2.6c1.1-1.6,2.4-2.8,3.8-3.9
		c2.7-2.1,5.5-3.6,8-4.8c2.5-1.2,4.8-2.1,6.6-2.8C129.4,445.8,131.6,445.3,131.7,445.3L131.7,445.3L131.7,445.3z M131.7,445.3
		c-0.1,0-2.3,0.7-5.8,2.1c-1.8,0.8-4.1,1.7-6.5,2.9c-2.4,1.3-5.2,2.8-7.8,4.9c-1.3,1.1-2.6,2.3-3.6,3.8c-0.4,0.8-0.9,1.5-1.1,2.4
		c-0.1,0.2-0.1,0.4-0.2,0.7c0,0.2-0.1,0.4-0.1,0.7c0,0.4,0,0.9,0,1.4c0.2,3.9-0.3,8.1,0,12.3c0.2,2.1,0.7,4.2,1.9,6
		c1.2,1.8,2.8,3.3,4.8,4.4c3.8,2.3,8.4,3.4,12.9,3s8.9-1.8,12.6-4.1c3.8-2.3,7.1-5.3,9.4-8.8c0.6-0.9,1.2-1.7,1.6-2.7
		c0.2-0.5,0.5-0.9,0.7-1.3c0.2-0.5,0.4-1,0.6-1.4c0.8-1.9,1.3-3.8,1.6-5.7c0.6-3.8,0.1-7.5-1.7-10.3c-1.7-2.8-4.3-4.8-6.7-6
		c-2.5-1.2-4.7-2-6.6-2.6c-1.9-0.6-3.4-1-4.4-1.3C132.3,445.5,131.7,445.4,131.7,445.3"/>
	<path class="st1" d="M78.5,413.1c0,0-0.9,1.3-2.5,3c-0.4,0.4-0.8,0.9-1.3,1.4s-1,0.9-1.6,1.4s-1.1,1-1.6,1.6
		c-0.5,0.5-1,1.1-1.5,1.7c-1,1.2-2,2.4-3,3.4c-1,1.1-2,2-2.8,2.8c-0.8,0.8-1.6,1.4-2.1,1.9c-0.5,0.4-0.8,0.7-0.8,0.7l-0.1-0.1
		c0,0,0.2-0.3,0.7-0.9c0.4-0.5,1-1.3,1.8-2.2c0.8-0.9,1.7-1.9,2.7-2.9s2.1-2.1,3.3-3.2c0.6-0.5,1.2-1,1.7-1.6c0.5-0.5,1-1.1,1.5-1.7
		s0.9-1.1,1.4-1.6s0.9-0.9,1.3-1.4C77.2,413.9,78.5,413,78.5,413.1L78.5,413.1z"/>
	<path class="st1" d="M87.8,413.8c0,0-0.5,0.6-1.3,1.7c-0.8,1-2,2.5-3.5,4.2c-0.7,0.9-1.5,1.8-2.4,2.8s-1.8,1.9-2.8,3
		c-1,1-2,2.1-2.9,3.2c-1,1.1-1.9,2.3-2.9,3.5c-1.9,2.4-3.9,4.7-5.7,6.8c-1.8,2.2-3.6,4.1-5.2,5.8c-1.5,1.7-2.8,3-3.8,4
		c-0.9,0.9-1.5,1.5-1.5,1.5l-0.1-0.1c0,0,0.5-0.6,1.3-1.6s2-2.5,3.5-4.3c1.4-1.7,3.2-3.8,5-5.9c1.9-2.1,3.9-4.4,6-6.5
		c1-1.1,2.1-2.2,3-3.3c1-1.1,1.9-2.2,2.8-3.3c0.9-1.1,1.7-2.2,2.6-3.2c0.8-1,1.7-1.9,2.4-2.7c1.5-1.7,2.8-3,3.7-4
		C87.2,414.3,87.8,413.7,87.8,413.8L87.8,413.8z"/>
	<path class="st1" d="M98.1,413.8c0,0-0.7,0.8-1.9,2.2c-1.2,1.4-2.9,3.3-5,5.6c-1,1.1-2.2,2.4-3.4,3.7c-1.2,1.3-2.6,2.6-3.9,4
		c-1.4,1.4-2.8,2.8-4.2,4.3c-1.4,1.5-2.8,3-4.2,4.6c-2.7,3.1-5.5,6.2-8.2,9c-1.3,1.4-2.6,2.8-3.8,4.1c-1.2,1.3-2.4,2.5-3.5,3.6
		c-2.2,2.2-4,4.1-5.3,5.3c-1.3,1.3-2,2-2,2l-0.1-0.1c0,0,0.7-0.8,1.9-2.2c1.2-1.4,2.9-3.3,5-5.6c1-1.2,2.2-2.4,3.4-3.7
		c1.2-1.3,2.5-2.7,3.8-4.1c2.7-2.8,5.5-5.8,8.5-8.7c1.5-1.5,2.9-3,4.3-4.4c1.4-1.5,2.7-3,4-4.4s2.5-2.9,3.7-4.2
		c1.2-1.3,2.4-2.5,3.4-3.6c2.1-2.3,4-4.1,5.3-5.4C97.2,414.5,98,413.7,98.1,413.8L98.1,413.8z"/>
	<path class="st1" d="M106.2,416.2c0,0-0.8,1-2.3,2.7s-3.5,4.2-6.1,7.1c-1.3,1.5-2.7,3-4.1,4.7c-1.5,1.7-3.1,3.4-4.7,5.1
		c-1.7,1.8-3.3,3.6-5,5.5s-3.4,3.9-5,5.8c-3.4,3.9-6.7,7.9-9.9,11.5c-1.6,1.8-3.2,3.6-4.6,5.2c-1.5,1.7-2.9,3.2-4.2,4.6
		c-2.6,2.9-4.8,5.2-6.4,6.9c-1.6,1.6-2.5,2.6-2.5,2.6l-0.1-0.1c0,0,0.8-1,2.3-2.7s3.5-4.2,6.1-7.1c1.3-1.5,2.6-3.1,4.1-4.7
		c1.5-1.7,3-3.4,4.6-5.2c3.2-3.6,6.7-7.4,10.2-11.2c1.8-1.9,3.5-3.8,5.2-5.7c1.7-1.9,3.3-3.8,4.9-5.7c1.6-1.8,3.1-3.7,4.5-5.3
		c1.5-1.7,2.9-3.2,4.2-4.7c2.6-2.9,4.8-5.2,6.4-6.9C105.2,417.1,106.1,416.1,106.2,416.2L106.2,416.2z"/>
	<path class="st1" d="M119.7,413.1c0,0-1,1.2-2.7,3.3c-0.9,1-1.9,2.3-3.1,3.7c-1.2,1.4-2.6,3-4.1,4.8c-1.5,1.7-3.1,3.6-4.9,5.6
		c-1.7,2-3.7,4-5.6,6.1c-2,2.1-3.9,4.3-6,6.6c-2,2.3-4,4.6-6,6.9c-4,4.7-8,9.3-11.8,13.7c-1.9,2.2-3.8,4.2-5.5,6.2
		c-1.7,2-3.4,3.8-5,5.5c-3.1,3.4-5.7,6.2-7.5,8.2s-2.9,3.1-2.9,3.1l-0.1-0.1c0,0,1-1.2,2.7-3.3c1.7-2.1,4.2-5,7.2-8.5
		c1.5-1.7,3.1-3.6,4.9-5.6c1.7-2,3.6-4.1,5.5-6.2c3.8-4.3,8-8.9,12.1-13.4c2.1-2.3,4.1-4.5,6.2-6.8c2-2.3,4-4.5,5.8-6.7
		c1.9-2.2,3.7-4.3,5.4-6.3c1.7-2,3.4-3.9,4.9-5.6s2.9-3.3,4.2-4.7c1.3-1.4,2.4-2.6,3.3-3.6C118.6,414.1,119.6,413,119.7,413.1
		L119.7,413.1z"/>
	<path class="st1" d="M129.8,413.1c0,0-1.1,1.3-3.1,3.7c-1,1.2-2.2,2.6-3.6,4.2s-3,3.4-4.7,5.4s-3.6,4.1-5.6,6.3
		c-2,2.2-4.1,4.5-6.3,6.9c-2.2,2.4-4.5,4.9-6.7,7.4c-2.3,2.6-4.5,5.2-6.8,7.8c-4.5,5.3-9.1,10.5-13.4,15.4c-2.2,2.4-4.3,4.8-6.2,7
		c-2,2.2-3.9,4.3-5.6,6.2c-3.5,3.9-6.4,7-8.5,9.3c-2.1,2.2-3.3,3.5-3.3,3.5l-0.1-0.1c0,0,1.1-1.3,3.1-3.7c2-2.3,4.8-5.6,8.2-9.5
		c1.7-2,3.6-4.1,5.5-6.3c2-2.2,4.1-4.6,6.2-7c4.3-4.9,9-10,13.7-15.1c2.4-2.6,4.7-5.1,7-7.7s4.5-5.1,6.6-7.6s4.2-4.9,6.1-7.1
		c2-2.3,3.9-4.3,5.6-6.3c1.7-1.9,3.4-3.7,4.8-5.3c1.4-1.6,2.7-2.9,3.7-4C128.5,414.3,129.7,413,129.8,413.1L129.8,413.1z"/>
	<path class="st1" d="M147,413.1c0,0-1.3,1.5-3.7,4.1c-1.2,1.3-2.6,2.8-4.3,4.6c-1.7,1.8-3.5,3.8-5.6,6c-2,2.2-4.3,4.5-6.6,7
		c-2.4,2.5-4.9,5-7.5,7.7s-5.3,5.4-8,8.3c-2.7,2.8-5.4,5.8-8.1,8.7c-5.4,5.8-10.8,11.7-15.9,17.1c-2.6,2.7-5.1,5.3-7.4,7.8
		c-2.4,2.5-4.6,4.8-6.7,6.9c-4.1,4.3-7.6,7.8-10.1,10.3c-2.5,2.5-3.9,3.9-3.9,3.9l-0.1-0.1c0,0,1.3-1.5,3.7-4.1s5.7-6.2,9.8-10.6
		c2-2.2,4.3-4.5,6.6-7c2.4-2.5,4.8-5.1,7.4-7.8c5.2-5.4,10.7-11.1,16.3-16.8c2.8-2.8,5.5-5.7,8.3-8.5c2.7-2.8,5.3-5.7,7.9-8.4
		c2.5-2.7,5-5.4,7.3-7.9s4.6-4.8,6.6-7c2.1-2.1,4-4.1,5.7-5.9c1.7-1.7,3.2-3.2,4.4-4.5C145.5,414.4,146.9,413,147,413.1L147,413.1z"
		/>
	<path class="st1" d="M103.2,471.8c0,0-0.5,0.7-1.5,1.9c-1,1.2-2.4,2.9-4.2,4.9c-0.9,1-1.8,2.1-2.9,3.2c-1,1.1-2.2,2.3-3.3,3.5
		c-1.2,1.2-2.3,2.4-3.5,3.7c-1.2,1.3-2.3,2.6-3.5,4c-2.3,2.7-4.6,5.4-6.8,7.9c-1.1,1.2-2.2,2.4-3.2,3.5s-2,2.2-2.9,3.1
		c-1.8,1.9-3.4,3.5-4.4,4.6c-1.1,1.1-1.7,1.7-1.7,1.7l-0.1-0.1c0,0,0.6-0.7,1.5-1.9c1-1.2,2.4-2.9,4.1-4.9c0.9-1,1.8-2.1,2.8-3.2
		s2.1-2.3,3.2-3.6c2.2-2.4,4.6-5,7.1-7.6c1.2-1.3,2.4-2.6,3.6-3.9s2.3-2.6,3.3-3.9c1.1-1.3,2.1-2.5,3.1-3.6s2-2.2,2.9-3.2
		c1.8-2,3.3-3.5,4.4-4.6C102.5,472.3,103.1,471.7,103.2,471.8L103.2,471.8z"/>
	<path class="st1" d="M104.7,480.8c0,0-0.6,0.8-1.6,2c-1,1.3-2.5,3.1-4.3,5.3c-0.9,1.1-1.9,2.3-3,3.5s-2.2,2.5-3.4,3.8
		c-1.2,1.3-2.4,2.7-3.6,4.1s-2.4,2.9-3.6,4.3c-2.4,2.9-4.8,5.8-7.1,8.5c-1.1,1.4-2.3,2.6-3.3,3.8c-1.1,1.2-2.1,2.4-3,3.4
		c-1.9,2.1-3.5,3.8-4.6,5s-1.8,1.9-1.8,1.9l-0.1-0.1c0,0,0.6-0.7,1.6-2s2.5-3.1,4.3-5.3c0.9-1.1,1.9-2.3,2.9-3.5
		c1.1-1.2,2.1-2.5,3.3-3.9c2.3-2.6,4.8-5.5,7.4-8.2c1.3-1.4,2.5-2.8,3.7-4.2c1.2-1.4,2.4-2.8,3.5-4.2c1.1-1.4,2.2-2.7,3.2-3.9
		c1-1.2,2.1-2.4,3-3.4c1.9-2.1,3.5-3.8,4.6-5.1C103.9,481.5,104.6,480.8,104.7,480.8L104.7,480.8z"/>
	<path class="st1" d="M113.3,491.6c0,0-0.6,0.9-1.8,2.4c-1.1,1.5-2.8,3.6-4.8,6.1c-1,1.3-2.1,2.6-3.3,4c-1.2,1.4-2.5,2.9-3.8,4.4
		s-2.7,3.1-4,4.7c-1.3,1.6-2.7,3.3-4,5c-2.6,3.4-5.3,6.7-7.8,9.9c-1.3,1.6-2.5,3.1-3.7,4.5s-2.3,2.8-3.3,4c-2.1,2.5-3.8,4.5-5.1,5.9
		c-1.2,1.4-2,2.2-2,2.2l-0.1-0.1c0,0,0.6-0.9,1.8-2.4c1.1-1.5,2.8-3.6,4.8-6.1c1-1.3,2.1-2.6,3.2-4.1c1.2-1.4,2.4-3,3.7-4.5
		c2.6-3.1,5.3-6.4,8.1-9.6c1.4-1.6,2.8-3.3,4.1-4.9c1.3-1.6,2.6-3.3,3.8-4.9c1.2-1.6,2.4-3.1,3.6-4.6c1.1-1.4,2.3-2.8,3.3-4
		c2-2.5,3.8-4.5,5-5.9C112.5,492.3,113.2,491.5,113.3,491.6L113.3,491.6z"/>
	<path class="st1" d="M120.9,498.8c0,0-0.5,0.8-1.5,2.1c-1,1.3-2.3,3.2-4,5.5c-0.8,1.1-1.8,2.3-2.8,3.6c-1,1.3-2.1,2.6-3.2,3.9
		c-1.1,1.3-2.3,2.8-3.4,4.2c-1.1,1.5-2.2,3-3.3,4.5c-2.2,3.1-4.4,6-6.6,8.8c-1.1,1.4-2.1,2.7-3.1,4s-1.9,2.5-2.8,3.6
		c-1.8,2.2-3.3,4-4.3,5.3c-1.1,1.2-1.7,2-1.7,2l-0.1-0.1c0,0,0.5-0.8,1.5-2.1s2.3-3.2,4-5.5c0.8-1.1,1.7-2.4,2.7-3.6
		c1-1.3,2-2.6,3.1-4c2.2-2.8,4.5-5.7,6.9-8.6c1.2-1.4,2.4-2.9,3.5-4.4s2.2-2.9,3.2-4.3c1-1.4,2-2.8,3-4.1c1-1.3,1.9-2.5,2.8-3.6
		c1.7-2.2,3.2-4,4.3-5.3C120.2,499.4,120.8,498.7,120.9,498.8L120.9,498.8z"/>
	<path class="st1" d="M202.3,413.8c0,0-1.8,2.2-4.8,6.1c-1.6,1.9-3.4,4.3-5.6,7c-2.2,2.7-4.6,5.7-7.3,9s-5.6,6.9-8.7,10.6
		c-3.1,3.8-6.4,7.7-9.8,11.8c-3.4,4.1-6.9,8.3-10.5,12.6c-3.5,4.3-7.1,8.8-10.7,13.2c-7.1,8.9-14.3,17.7-21,25.9
		c-3.4,4.1-6.6,8.1-9.7,11.9c-3.1,3.8-6,7.3-8.8,10.6c-5.5,6.5-10,12-13.2,15.8s-5,6-5,6l-0.1-0.1c0,0,1.8-2.2,4.9-6.1
		c3.1-3.9,7.6-9.4,12.9-16c2.7-3.3,5.6-6.9,8.7-10.7s6.4-7.8,9.7-11.9c6.8-8.2,14-17,21.3-25.7c3.6-4.4,7.2-8.7,10.8-13
		c3.5-4.3,7-8.6,10.3-12.8c3.3-4.1,6.5-8.2,9.6-12s6-7.3,8.7-10.6c2.7-3.3,5.2-6.3,7.4-8.9c2.2-2.7,4.2-5,5.8-6.9
		C200.4,415.9,202.2,413.7,202.3,413.8L202.3,413.8z"/>
	<path class="st1" d="M212.5,412.3c0,0-0.6,0.8-1.5,2.2c-1,1.4-2.4,3.4-4.2,5.8c-0.9,1.2-1.8,2.5-2.9,3.8c-1,1.3-2.2,2.7-3.3,4.1
		c-1.2,1.4-2.3,2.9-3.5,4.4s-2.3,3.1-3.5,4.7c-2.3,3.2-4.6,6.3-6.8,9.3c-1.1,1.5-2.2,2.9-3.2,4.2c-1,1.3-2,2.6-2.9,3.7
		c-1.8,2.3-3.4,4.2-4.5,5.5s-1.7,2.1-1.7,2.1l-0.1-0.1c0,0,0.6-0.8,1.5-2.2c1-1.4,2.4-3.4,4.2-5.8c0.9-1.2,1.8-2.5,2.8-3.8
		s2.1-2.8,3.2-4.2c2.3-2.9,4.7-6,7.2-9c1.2-1.5,2.5-3.1,3.6-4.6c1.2-1.5,2.3-3.1,3.4-4.6c1.1-1.5,2.1-3,3.1-4.3c1-1.4,2-2.6,2.9-3.8
		c1.8-2.3,3.4-4.2,4.5-5.5C211.8,413,212.4,412.2,212.5,412.3L212.5,412.3z"/>
	<path class="st1" d="M165.6,471.8c0,0-0.6,1.2-1.8,2.8c-0.3,0.4-0.6,0.8-1,1.3c-0.4,0.4-0.8,0.9-1.2,1.3s-0.9,0.9-1.3,1.4
		c-0.4,0.5-0.8,1.1-1.2,1.6c-0.7,1.1-1.5,2.2-2.3,3.2c-0.7,1-1.5,1.9-2.2,2.6c-0.7,0.8-1.2,1.3-1.7,1.8c-0.4,0.4-0.7,0.6-0.7,0.6
		l-0.1-0.1c0,0,0.2-0.3,0.5-0.8s0.8-1.2,1.3-2c0.6-0.8,1.3-1.8,2.1-2.7c0.8-1,1.7-2,2.6-2.9c0.5-0.5,0.9-1,1.3-1.5
		c0.4-0.5,0.8-1,1.1-1.6c0.3-0.5,0.7-1,1-1.5s0.7-0.9,1-1.3C164.5,472.6,165.6,471.7,165.6,471.8L165.6,471.8z"/>
	<path class="st1" d="M127.5,518.2c0,0-0.5,0.8-1.3,2.1s-2,3.3-3.5,5.5c-0.7,1.1-1.5,2.4-2.4,3.6c-0.9,1.3-1.9,2.6-2.9,4
		s-2,2.8-3,4.3s-2,3-2.9,4.5c-1.9,3.1-3.9,6.1-5.8,8.9c-0.9,1.4-1.9,2.8-2.7,4c-0.9,1.3-1.7,2.5-2.5,3.6c-1.6,2.2-2.9,4-3.8,5.3
		c-1,1.3-1.5,2-1.5,2h-0.1c0,0,0.5-0.8,1.3-2.1s2-3.3,3.5-5.5c0.7-1.1,1.5-2.4,2.4-3.7s1.8-2.7,2.7-4c1.9-2.8,4-5.8,6.1-8.7
		c1.1-1.5,2.1-2.9,3.1-4.4s2-2.9,2.8-4.4c0.9-1.4,1.8-2.8,2.6-4.1c0.8-1.3,1.7-2.5,2.5-3.6c1.5-2.2,2.9-4.1,3.8-5.3
		C126.9,518.8,127.4,518.1,127.5,518.2L127.5,518.2z"/>
	<path class="st1" d="M220.3,416.2c0,0-1.6,2.3-4.4,6.4c-1.4,2-3.1,4.5-5,7.3c-2,2.8-4.2,6-6.6,9.5c-2.4,3.5-5,7.2-7.9,11.2
		c-2.8,4-5.8,8.1-8.9,12.4c-1.5,2.2-3.2,4.2-4.9,6.4c-1.6,2.2-3.3,4.4-5,6.6c-3.4,4.4-6.8,8.9-10.2,13.4c-6.8,9-13.7,17.9-20.2,26.2
		c-3.3,4.1-6.3,8.3-9.2,12.1c-2.9,3.9-5.7,7.5-8.2,10.9c-5.1,6.7-9.3,12.4-12.2,16.4c-1.5,2-2.6,3.5-3.4,4.6c-0.4,0.5-0.7,1-0.8,1.3
		c-0.2,0.3-0.2,0.4-0.2,0.4h-0.1c0,0,0-0.2,0.2-0.5s0.4-0.7,0.8-1.3c0.7-1.1,1.8-2.7,3.2-4.7c2.8-4.1,6.9-9.8,11.9-16.6
		c2.5-3.4,5.2-7.1,8.1-11c1.4-1.9,2.9-3.9,4.4-6c0.8-1,1.5-2,2.3-3.1c0.8-1,1.6-2.1,2.4-3.1c6.5-8.3,13.5-17.1,20.5-26
		c3.5-4.4,6.9-8.9,10.4-13.2c1.7-2.2,3.3-4.4,5-6.6c1.6-2.2,3.3-4.3,4.7-6.5c3-4.3,5.9-8.6,8.7-12.5c2.8-4,5.4-7.7,7.9-11.1
		s4.7-6.6,6.7-9.4s3.8-5.2,5.2-7.2C218.6,418.4,220.2,416.1,220.3,416.2L220.3,416.2z"/>
	<path class="st1" d="M226.6,418c0,0-0.4,0.7-1.1,2c-0.7,1.3-1.7,3.1-3,5.2c-0.6,1.1-1.3,2.2-2.1,3.4c-0.8,1.2-1.6,2.4-2.5,3.7
		c-0.9,1.3-1.8,2.6-2.6,4c-0.9,1.4-1.7,2.8-2.6,4.2c-1.7,2.9-3.4,5.7-5.1,8.3c-1.7,2.6-3.3,5-4.7,7s-2.7,3.7-3.6,4.8
		c-0.5,0.6-0.8,1-1.1,1.3s-0.5,0.4-0.5,0.4v-0.1c0,0,0,0,0.1-0.1s0.2-0.2,0.3-0.3c0.2-0.3,0.6-0.8,1-1.4c0.8-1.2,1.9-2.9,3.2-5
		s2.9-4.5,4.6-7.1c1.7-2.6,3.5-5.3,5.4-8c0.9-1.4,1.8-2.7,2.7-4.1s1.7-2.7,2.5-4.1c0.8-1.3,1.5-2.6,2.3-3.8c0.7-1.2,1.5-2.3,2.1-3.4
		c1.3-2.1,2.5-3.8,3.3-5C226,418.6,226.5,417.9,226.6,418L226.6,418z"/>
	<path class="st1" d="M39.5,477.1c0,0,0,0.3,0,0.8s0,1.2,0,2.1c0,0.4,0,0.9,0,1.4s-0.1,1,0,1.5c0,0.2,0,0.6,0.2,0.6
		c0.2,0.1,0.5,0.1,0.8,0.2c0.6,0,1.1-0.1,1.7-0.3c1.1-0.4,2.2-0.7,3.2-1.1s2-0.7,2.8-0.9c0.8-0.2,1.6-0.4,2.1-0.5s0.8-0.2,0.8-0.2
		v0.1c0,0-0.3,0.2-0.7,0.4c-0.5,0.2-1.1,0.6-1.9,0.9c-0.8,0.4-1.8,0.7-2.8,1c-1.1,0.3-2.2,0.6-3.4,0.7c-0.6,0.1-1.2,0.1-1.8,0.1
		c-0.3,0-0.6,0-0.9-0.1c-0.4-0.2-0.4-0.5-0.5-0.8c-0.1-0.3-0.2-0.6-0.2-0.8c-0.1-0.3-0.1-0.5-0.1-0.8c0-0.5,0-1,0-1.4
		C39,478.2,39.4,477.1,39.5,477.1L39.5,477.1z"/>
	<path class="st1" d="M69.9,340.5c0,0,1.4,0.9,3.9,2.6c1.2,0.8,2.7,1.8,4.4,3c1.7,1.2,3.6,2.5,5.7,3.9s4.4,3,6.7,4.7
		c2.4,1.7,4.8,3.5,7.4,5.4s5.2,3.8,8,5.7c2.7,1.9,5.5,3.8,8.3,5.8c5.6,3.8,11.2,7.7,16.4,11.3c2.6,1.8,5.1,3.6,7.5,5.3
		c2.4,1.7,4.6,3.3,6.7,4.8c4.1,3,7.6,5.5,10,7.2s3.7,2.7,3.7,2.7v0.1c0,0-0.4-0.2-1.1-0.7c-0.7-0.4-1.6-1.1-2.9-1.9
		c-2.5-1.6-6-4-10.2-6.9c-2.1-1.4-4.4-3-6.8-4.7c-2.4-1.7-4.9-3.4-7.5-5.3c-2.6-1.8-5.3-3.8-8-5.7c-2.7-2-5.5-4-8.2-5.9
		c-2.7-2-5.5-4-8.2-5.9s-5.4-3.8-8.1-5.6c-2.6-1.8-5.2-3.5-7.6-5.2s-4.6-3.3-6.7-4.7c-2.1-1.5-4-2.9-5.6-4.1
		c-1.7-1.2-3.1-2.3-4.3-3.2C71.2,341.5,69.8,340.5,69.9,340.5L69.9,340.5z"/>
	<path class="st1" d="M99,309.2c0,0,0.9,1.6,2.4,4.3c0.8,1.4,1.7,3.1,2.7,5s2.2,4.1,3.5,6.5s2.7,4.9,4.1,7.7
		c1.5,2.7,2.9,5.6,4.5,8.6c1.5,3,3.2,6.1,4.8,9.2c1.7,3.1,3.4,6.2,5.2,9.4c3.6,6.2,7.1,12.5,10.5,18.3c1.7,2.9,3.3,5.7,4.9,8.4
		c1.6,2.7,3.1,5.2,4.4,7.5c2.8,4.6,5.2,8.4,7.1,10.9c0.9,1.3,1.7,2.2,2.4,2.8c0.3,0.3,0.6,0.4,0.8,0.5s0.3,0.1,0.3,0.1v0.1
		c0,0-0.1,0-0.3-0.1s-0.5-0.3-0.8-0.5c-0.7-0.5-1.5-1.4-2.5-2.7c-2-2.5-4.6-6.2-7.4-10.7c-1.4-2.3-3-4.8-4.6-7.4
		c-1.6-2.7-3.2-5.5-4.9-8.4c-3.3-5.9-6.8-12.2-10.1-18.5c-1.7-3.2-3.4-6.3-5.1-9.5c-1.7-3.1-3.4-6.2-5-9.1s-3.2-5.8-4.7-8.5
		s-2.8-5.3-4.1-7.7c-1.2-2.4-2.4-4.6-3.4-6.5c-1-2-1.8-3.7-2.5-5.1C99.7,310.9,99,309.3,99,309.2L99,309.2z"/>
	<path class="st1" d="M88.2,104.4c0,0-0.1,1.9-0.4,5.3c-0.1,1.7-0.3,3.8-0.5,6.1c-0.2,2.4-0.4,5-0.7,8c-0.3,2.9-0.5,6.1-0.9,9.4
		c-0.3,3.3-0.7,6.8-1.1,10.5c-0.4,3.6-0.8,7.4-1.1,11.2c-0.3,3.8-0.7,7.7-0.9,11.6c-0.6,7.8-1.2,15.6-1.8,22.8
		c-0.6,7.3-1.2,14.1-1.6,19.9c-0.2,2.9-0.4,5.6-0.6,8s-0.3,4.4-0.4,6.1c-0.1,0.9-0.1,1.6-0.1,2.3s0,1.2,0,1.7c0,0.9,0,1.4,0,1.4H78
		c0,0,0-0.5-0.1-1.4c0-0.5-0.1-1-0.1-1.7s0-1.4,0-2.3c0-1.7,0.1-3.8,0.2-6.2s0.3-5.1,0.4-8c0.2-2.9,0.4-6.1,0.6-9.4
		c0.3-3.3,0.5-6.9,0.8-10.5c0.6-7.3,1.4-15,2.2-22.8c0.4-3.9,0.8-7.8,1.1-11.6c0.3-3.8,0.7-7.6,0.9-11.2c0.3-3.6,0.5-7.2,0.8-10.5
		s0.6-6.5,0.9-9.4s0.6-5.6,0.8-7.9c0.3-2.4,0.5-4.4,0.7-6.1C87.8,106.4,88.1,104.4,88.2,104.4L88.2,104.4z"/>
	<path class="st1" d="M88.1,153.6c0,0,0.4-0.3,1.2-0.7c0.8-0.4,1.9-1.1,3.3-1.8c0.7-0.3,1.4-0.7,2.2-1.1c0.8-0.4,1.7-0.7,2.6-1.1
		c0.9-0.4,1.8-0.8,2.7-1.2c0.9-0.5,1.8-1,2.7-1.5c1.8-1.1,3.6-2,5.3-3c1.7-0.9,3.3-1.8,4.6-2.5c1.4-0.7,2.5-1.3,3.2-1.8
		c0.4-0.2,0.7-0.4,0.8-0.6c0.2-0.2,0.2-0.3,0.2-0.3h0.1c0,0,0,0.2-0.2,0.4s-0.4,0.5-0.8,0.8c-0.7,0.6-1.8,1.4-3.1,2.2
		c-1.3,0.8-2.9,1.7-4.6,2.6c-1.7,0.9-3.6,1.8-5.5,2.6c-0.9,0.4-1.9,0.9-2.8,1.3c-0.9,0.4-1.8,0.9-2.6,1.4c-0.8,0.5-1.6,1-2.4,1.4
		s-1.5,0.8-2.2,1.1c-1.4,0.6-2.6,1.1-3.4,1.5C88.6,153.6,88.1,153.7,88.1,153.6L88.1,153.6z"/>
	<path class="st1" d="M88.1,145.8c0,0,0.3-0.3,1-0.8c0.6-0.5,1.5-1.2,2.6-2c0.6-0.4,1.2-0.8,1.8-1.2c0.7-0.4,1.4-0.8,2.1-1.3
		c0.7-0.4,1.5-0.9,2.2-1.4s1.5-1,2.2-1.6c1.4-1.1,2.9-2.2,4.3-3.1c1.4-1,2.7-1.8,3.9-2.5c1.2-0.7,2.1-1.3,2.8-1.7
		c0.7-0.4,1.1-0.6,1.1-0.6v0.1c0,0-0.3,0.3-1,0.8c-0.6,0.5-1.5,1.2-2.6,2s-2.4,1.7-3.8,2.7c-1.4,0.9-2.9,1.9-4.5,2.8
		c-0.8,0.5-1.6,0.9-2.3,1.4c-0.7,0.5-1.4,1-2.1,1.5s-1.3,1-1.9,1.5s-1.3,0.8-1.8,1.2c-1.1,0.7-2.1,1.3-2.8,1.7
		C88.5,145.7,88.1,145.9,88.1,145.8L88.1,145.8z"/>
	<path class="st1" d="M88.1,135c0,0,1-0.9,2.6-1.9c0.4-0.2,0.8-0.5,1.3-0.8s1-0.5,1.5-0.7s1.1-0.5,1.6-0.8s1.1-0.7,1.6-1
		c1-0.8,2.1-1.4,3.1-2.1c1-0.6,2-1.2,2.8-1.6s1.6-0.8,2.1-1s0.8-0.3,0.8-0.3v0.1c0,0-0.2,0.2-0.7,0.5c-0.4,0.3-1.1,0.8-1.9,1.3
		s-1.7,1.1-2.8,1.7c-1,0.6-2.1,1.2-3.3,1.7c-0.6,0.3-1.1,0.5-1.7,0.9c-0.5,0.3-1,0.7-1.5,1s-0.9,0.7-1.4,1s-0.9,0.5-1.3,0.8
		C89.3,134.7,88.1,135.1,88.1,135L88.1,135z"/>
	<path class="st1" d="M88.1,124.8c0,0,0.9-0.9,2.5-2.1c0.4-0.3,0.8-0.6,1.3-0.9s1-0.6,1.5-0.9s1.1-0.6,1.6-1s1-0.8,1.6-1.2
		c0.5-0.4,1-0.8,1.5-1.2c0.5-0.4,1-0.7,1.5-1.1c1-0.7,2-1.3,2.8-1.8s1.6-0.9,2.1-1.1s0.8-0.4,0.8-0.4v0.1c0,0-0.2,0.2-0.7,0.6
		c-0.4,0.4-1.1,0.9-1.9,1.4c-0.8,0.6-1.7,1.2-2.8,1.9c-1,0.6-2.2,1.3-3.3,1.9c-0.6,0.3-1.1,0.6-1.7,1c-0.5,0.4-1,0.7-1.5,1.1
		s-0.9,0.8-1.4,1.1c-0.5,0.3-0.9,0.6-1.3,0.9C89.4,124.4,88.1,124.9,88.1,124.8L88.1,124.8z"/>
	<path class="st1" d="M77.8,181.9c0,0,0.7-0.6,1.9-1.5c1.2-0.9,3-2.3,5.2-3.8c1.1-0.8,2.3-1.6,3.5-2.5c1.3-0.9,2.6-1.7,4-2.6
		c1.4-0.9,2.8-1.9,4.3-2.9c1.4-1,2.9-2,4.3-3.1c2.9-2.1,5.8-4.2,8.5-6.1c1.4-1,2.7-1.9,4-2.7c1.3-0.9,2.5-1.7,3.6-2.4
		c2.2-1.5,4.1-2.7,5.4-3.5s2.1-1.3,2.1-1.3v0.1c0,0-0.7,0.5-1.9,1.5c-1.2,0.9-3,2.3-5.2,3.8c-1.1,0.8-2.3,1.6-3.5,2.5
		c-1.3,0.9-2.6,1.8-4,2.7c-2.8,1.9-5.7,3.9-8.7,5.8c-1.5,1-3,2-4.4,2.9c-1.4,1-2.8,2-4.2,3c-1.3,1-2.6,2-3.9,2.9
		c-1.2,0.9-2.4,1.7-3.6,2.4c-2.2,1.5-4.1,2.7-5.4,3.5C78.6,181.5,77.8,182,77.8,181.9L77.8,181.9z"/>
	<path class="st1" d="M96.9,149.4c0,0-0.1,0.8-0.3,2.1c-0.2,1.3-0.5,3.2-0.9,5.5c-0.2,1.1-0.4,2.4-0.7,3.6c-0.2,1.3-0.6,2.6-0.9,4
		s-0.6,2.8-0.9,4.3s-0.5,3-0.7,4.5s-0.4,3-0.7,4.5c-0.2,1.5-0.5,2.9-0.7,4.4c-0.5,2.8-1,5.4-1.4,7.7c-0.4,2.2-0.9,4.1-1.1,5.4
		c-0.2,1.3-0.4,2.1-0.4,2.1h-0.1c0,0,0.1-0.8,0.1-2.1c0.1-1.4,0.4-3.2,0.7-5.5c0.6-4.5,1.8-10.6,3.1-16.5c0.3-1.5,0.7-3,0.9-4.5
		c0.3-1.5,0.5-2.9,0.7-4.4c0.2-1.4,0.4-2.8,0.6-4.1s0.5-2.5,0.7-3.6c0.4-2.2,0.9-4.1,1.2-5.4C96.6,150.2,96.8,149.4,96.9,149.4
		L96.9,149.4z"/>
	<path class="st1" d="M105.5,189.1c0,0,0.5-0.4,1.4-1s2.1-1.5,3.6-2.5c0.8-0.5,1.6-1.1,2.5-1.6c0.9-0.6,1.8-1.1,2.8-1.7
		c2-1.1,4-2.5,5.9-4s3.8-3,5.6-4.4c1.8-1.4,3.4-2.7,4.8-3.9c0.7-0.6,1.3-1.2,1.8-1.7s1-1,1.3-1.4s0.6-0.7,0.7-1
		c0.2-0.2,0.3-0.4,0.3-0.4h0.1c0,0-0.1,0.1-0.2,0.4c-0.1,0.3-0.3,0.6-0.6,1.1c-0.6,0.9-1.6,2.1-2.9,3.4c-1.3,1.3-2.9,2.7-4.7,4.1
		c-1.8,1.4-3.8,2.8-5.9,4.1c-1,0.7-2,1.3-3,2s-1.9,1.4-2.9,2c-0.9,0.7-1.8,1.3-2.7,1.9c-0.9,0.6-1.7,1.1-2.5,1.6s-1.5,0.9-2.1,1.3
		c-0.6,0.4-1.2,0.7-1.7,0.9C106.1,188.9,105.6,189.2,105.5,189.1L105.5,189.1z"/>
	<path class="st1" d="M96.2,177.4c0,0,0.5-0.3,1.3-0.9c0.8-0.6,2-1.4,3.5-2.3c0.7-0.5,1.5-0.9,2.4-1.4s1.8-0.9,2.8-1.5
		c1-0.5,1.9-1,2.9-1.6s1.9-1.2,2.9-1.8s1.9-1.3,2.9-1.9c1-0.6,1.9-1.2,2.8-1.8c1.8-1.1,3.6-2.2,5.1-3c0.7-0.4,1.4-0.8,2-1.2
		c0.6-0.3,1.1-0.7,1.6-0.9c0.9-0.5,1.4-0.8,1.4-0.8l0.1,0.1c0,0-0.4,0.4-1.2,1c-0.4,0.3-0.9,0.7-1.5,1.1c-0.6,0.4-1.2,0.9-1.9,1.3
		c-1.4,1-3.1,2.1-5,3.1c-1.9,1.1-3.9,2.2-5.9,3.3c-1,0.5-2,1.1-3,1.7s-1.9,1.2-2.8,1.8s-1.8,1.2-2.6,1.7c-0.8,0.5-1.7,1-2.4,1.4
		c-1.5,0.9-2.8,1.5-3.7,2C96.8,177.2,96.2,177.4,96.2,177.4L96.2,177.4z"/>
	<path class="st2" d="M45.5-0.7c0,0,2.3,3.8,6.3,10.4c3.9,6.7,9.6,16.2,16.3,27.6c3.4,5.7,7,11.9,10.8,18.5s7.8,13.5,12,20.7
		s8.5,14.6,12.8,22.1c4.4,7.5,8.9,15.1,13.4,22.7c9,15.2,18,30.5,26.4,44.8c4.2,7.2,8.2,14.1,12.1,20.7c3.8,6.6,7.4,12.8,10.8,18.5
		c6.6,11.5,12.2,21.1,16,27.8s6,10.6,6,10.6h-0.1c0,0-2.3-3.8-6.3-10.4c-3.9-6.7-9.6-16.2-16.4-27.6c-3.4-5.7-7-11.9-10.9-18.5
		c-3.8-6.6-7.9-13.5-12.1-20.6c-8.3-14.4-17.2-29.7-26.1-45c-4.4-7.7-8.9-15.3-13.2-22.8c-4.4-7.5-8.8-14.9-13-22s-8.3-14-12.2-20.6
		c-3.9-6.5-7.5-12.8-10.8-18.5C60.7,26.2,55.1,16.6,51.2,9.9C47.6,3.2,45.4-0.7,45.5-0.7L45.5-0.7z"/>
	<path class="st1" d="M263.5,124.8c0,0,0.6,0.5,1.1,1.4c0.1,0.2,0.3,0.5,0.4,0.8c0.1,0.3,0.2,0.6,0.3,0.9c0.1,0.3,0.2,0.7,0.4,1
		c0.2,0.3,0.4,0.6,0.6,0.9c0.2,0.3,0.4,0.6,0.6,0.9c0.2,0.3,0.4,0.6,0.5,0.9c0.3,0.6,0.6,1.2,0.8,1.7c0.4,1,0.5,1.8,0.5,1.8h-0.1
		c0,0-0.5-0.5-1.1-1.4c-0.3-0.5-0.6-1-0.9-1.6c-0.1-0.3-0.3-0.6-0.4-1c-0.1-0.3-0.3-0.7-0.4-1c-0.1-0.3-0.2-0.7-0.4-1
		c-0.2-0.3-0.4-0.6-0.6-0.9c-0.2-0.3-0.4-0.5-0.6-0.8s-0.3-0.5-0.4-0.8C263.6,125.6,263.5,124.9,263.5,124.8L263.5,124.8z"/>
	<path class="st1" d="M268.9,141.1c0,0,0.5,0.7,1.3,2s1.9,3.1,3.1,5.4c0.6,1.1,1.3,2.3,2,3.6s1.4,2.7,2.1,4.1
		c0.7,1.4,1.5,2.9,2.3,4.4s1.7,3,2.6,4.4c1.8,2.9,3.4,5.9,5,8.7s3,5.4,4.2,7.7s2.2,4.2,2.8,5.5c0.7,1.4,1,2.1,1,2.1h-0.1
		c0,0-0.5-0.7-1.2-2c-0.8-1.3-1.9-3.1-3.2-5.3c-1.3-2.2-2.8-4.8-4.3-7.7c-1.5-2.8-3.1-5.9-4.7-8.9c-0.8-1.5-1.6-3-2.4-4.5
		s-1.6-2.9-2.5-4.3c-0.8-1.4-1.6-2.7-2.4-4c-0.7-1.3-1.4-2.5-2-3.6c-1.2-2.3-2.2-4.2-2.8-5.5C269.2,141.9,268.9,141.1,268.9,141.1
		L268.9,141.1z"/>
	<path class="st1" d="M169.5,29.6c-2.5,1.3-5,2.7-7.5,4.2s-4.9,3-7.3,4.6c-4.8,3.2-9.4,6.6-13.8,10.3c-2.2,1.9-4.3,3.8-6.3,5.8
		s-4,4.1-5.8,6.3c-1.9,2.2-3.5,4.5-5.1,6.9c-1.5,2.4-2.9,4.9-4,7.6c-0.3,0.7-0.5,1.3-0.7,2s-0.5,1.3-0.6,2l-0.5,2.1l-0.4,2.1
		c-0.2,0.7-0.2,1.4-0.2,2.1s-0.1,1.4-0.1,2.1V92c0,2.9-0.1,5.7,0.1,8.6l0.3,8.6c0.2,2.9,0.4,5.7,0.6,8.6s0.6,5.7,0.9,8.6
		c0.3,2.8,0.7,5.7,1.1,8.5l0.7,4.2c0.3,1.4,0.5,2.8,0.8,4.2l0.1,0.3l-0.3,0.2l-12.6,7.5c-4.1,2.5-8.3,4.9-12.5,7.4L83.9,166
		c-4.2,2.5-8.4,4.9-12.6,7.3v-0.1c4.1-2.5,8.2-5.1,12.4-7.6l12.4-7.5c4.1-2.5,8.3-5,12.4-7.5l12.5-7.5l-0.2,0.5
		c-0.3-1.4-0.5-2.8-0.8-4.3l-0.7-4.3c-0.4-2.9-0.8-5.7-1.1-8.6c-0.3-2.9-0.6-5.7-0.8-8.6c-0.2-2.9-0.4-5.7-0.5-8.6l-0.2-8.6
		c-0.1-2.9,0-5.7,0-8.6v-4.3c0-0.7,0.1-1.4,0.1-2.2c0.1-0.7,0.1-1.4,0.2-2.1l0.3-2.1l0.5-2.1c0.2-0.7,0.4-1.4,0.6-2.1s0.4-1.4,0.7-2
		c1.1-2.7,2.4-5.3,3.9-7.7c1.5-2.4,3.2-4.8,5-7c1.8-2.3,3.8-4.3,5.8-6.4c2-2,4.2-4,6.4-5.8c4.4-3.7,9.1-7.1,13.9-10.2
		C159.3,34.9,164.3,32,169.5,29.6L169.5,29.6z"/>
	<path class="st3" d="M213.4,123.9c0,0,1.5,19.4,14.5,16.9s17.6-6.6,21.8-3.1s8.4,6.4,1.2,8c-7.2,1.7-24.1-1.3-24.1-1.3
		 M266.2,139.1c0,0-22.2,13.6-26.9,14.6 M291.4,205.9c0.5,0.2,3,13.4,7.3,16.7s6.6,2.4,5,5.2c-1.6,2.9-7,2.6-7,2.6 M307.2,224.3
		l5.4-7.3 M312,214.7l-7.3,8.5 M301.2,221.2l9.4-13.6 M298.7,219.4l10.5-13.5 M300.2,211.8l9-8.6 M303.7,201.9l-5,5.2 M319.7,234.9
		l-7.7,10.7 M313.8,229.3l-7.9,15.3 M309.9,223.2l-4,11.4 M301.7,227.9l-3,16.5 M295.3,229.3l-2.8,8 M293.5,219.4c0,0,1.7,9.3,0,9.9
		c-1.7,0.6-9.5,5.3-9.5,5.3 M289.5,215.1l-9.1,19.5 M284.7,212.9l-10.1,28.3 M272,226.1l-4,15.1 M268,227.9l-6.8,11.9 M258,228.6
		l-4.2,12.6 M250.9,228.3l-4.4,12.9 M245.5,226.1l-12.3,22.5 M241.5,223.2L226,252.8 M230.5,229.3l-11.1,25.3 M224.5,232.4l-12.9,24
		 M217.3,229.3l-9.4,23.7 M287.5,199c2.9,4-1.6,8.9-10.1,11.9c-8.6,3.1-4.9,5-2.7,6.3s5.5,4.1,1.9,6c-3.5,1.9-22.6,2.6-27.6,2.6
		s0,0-3.5-6.5s-16.2,1.7-16.2,1.7l4.9,4.8l-28.2,5.7c0,0,6.5,6.1,4.5,8.1s-5.9,7.7-5.9,7.7 M220.4,219.4c0,0,5.2-7.4-4.9-8.8
		c-10.2-1.4-30.2,6.6-30.2,6.6l39.2,4.1 M242.6,119.1c0,0,40.2-17.9,55.3,1.7c15.1,19.5-1.2,27-24.6,41.3 M250.9,121.7
		c0,0,21.1-17.3,34.1-0.9c13.1,16.4,26.5,22.1-9.5,41.3 M280.4,131.2c0,0,7.1,2,14.1,2.9 M278.7,126.3c0,0,7.9-4.4,14.8-1.4
		c6.9,3,8.9,16.9,4.4,19.4 M263.5,115.4c0.8,0.6,17.6-8.7,19.1,0s4.7,16.7-10.6,22.2 M273.3,140.7c0,0,4.8,9.7-3.9,15.5
		 M301.5,141.1c0,0-6,11.6-14,15.5 M303.5,141.1c0,0-8.6,21.3-26.2,24 M255.7,113.4c0,0,17.7-8,31.8,2s14.7,15.2,14,19.6
		s-16.1,27.5-45.8,27 M303.5,130c0,0,25.6,2.3,46.6-2 M309.9,131.2c0,0,65.4-18.7,70.7-33.3 M313.8,27.2c0,0-54-4.2-105.9,12.3
		 M208.3,45.2c0,0-32.8,2.6-32.1,22.6 M223.2,38.3c0,0-31,1.5-27.6,21.2 M226.4,38.3c0,0,8,0.1,12.8,8.5s-1.1,7.2-2.4,14.8
		 M255.7,66.3c0,0-10.5-8.7-3.9-14.1s12.4,2.8,19,1.8c6.6-1,13.1-0.8,9.6-8.8c-2.5-5.8-19.2-9.9-19.2-9.9 M273.3,89.3l14.3-3.5
		 M268,82.6c0,0,13.9-0.8,17,1.2c3.2,2-0.5-3.4,4.5-4.3s12,1.5,12,1.5 M309.2,45.2c0,0-3.1,13-13.9,14s-4.8,0.7-7.8,6
		s-9.5-0.4-18.2,4.7S254.7,81,256.1,89.3c1.4,8.3,10.5,20.4,26.4,15.7 M319.7,99.5c0,0-27.5,11.6-26.2-6.9 M313.8,95.6
		c0,0-14,0.1-12.2,3.9s15.3,6.8,15.3,6.8 M313.8,85.8c0,0-21.2,0.3-20.3,4.2c0.9,3.9-0.1,13.4,12.3,13.4 M336.9,101.4
		c0,0,0.4,12.1,6.5,12.9c4.9,0.7-3-18.7-3-18.7 M324.2,65.6c0,0-18.1-2.9-18.3,6.9c-0.2,9.7,22.1,14.8,22.1,14.8 M330.4,87.3
		c0,0-17.4,3.7-26.9,0 M361.9,77.4c0,0-12.9,8.4-18.5,7.5c-5.7-0.9-11.5-4.5-10.6,0s9.7,6.4,4.2,12.9s-8.9,10.2-8.9,10.2
		s2.4,5,0,7.4s-4.8,9.1-22.1,12.5 M374.6,95.2c0,0,8,7.9,1.8,14.8c-6.3,6.9-23.4,14.9-23.4,14.9c21.6-1.5,31.5-25.4,31.5-25.4
		 M361.9,55.3c0,0,19.9,24.9,18.6,34.7c-1.4,9.8-19.8,35.2-33.8,30.1c-14-5-16.4-9.4-16.4-9.4 M370.1,49.7c0,0,9,0.5,5.4,7.5
		s-13.6,9.1-13.6,9.1 M355.2,43.2c0,0,11.3,6.5,4.5,19.6c-6.7,13.1-14.3,11.9-19.3,11.8 M313.8,24.3c0,0,32.4,7.3,38.7,14.9
		c6.3,7.6,8.1,20.3,7.2,23.6C358.8,66,343.3,75,343.3,75 M310.7,33.4c0,0,10.8-5.8,23-1s16.4,16.2,16.4,16.2 M305.9,48.6
		c0,0,3,12.8,13.8,14.9c10.8,2.1,20.3,3.2,26.6-2.3c6.3-5.5,3.6-14.4,0-16.7 M313.8,21.1c0,0-10.8,7.2-7.2,25.8 M293.1,41.9
		c0,0-10.4-9.4-7.7-14.7c2.7-5.3,13.1-8.5,17.1-7.6c4.1,0.9,8.1,2.9,8.1,2.9 M253.8,19.6c0,0,5.7-4.5,12.4-3.6
		c6.6,0.9,15.3,4.9,15.9,8.3 M239.2,20.4c0,0,5.5-3.3,12.6,0 M268.9,182.1c0,0,4.7,9.6,13.2,13 M182.4,232.4c0,0,3.4-8.4,6.1-5.7
		c2.7,2.7,4.2,10.5,4.2,10.5 M172.9,197c0,0-3.7,7.7,0.6,15.1c4.4,7.4,11.7,20.3,11.7,20.3 M171,186.4c0,0,2,7.2,1.9,8.7
		s-1.3,4.2,1.4,8.1c2.7,3.9,7.1,8.8,7.1,8.8 M175.4,186.8l1.6,20.3 M179.9,185.5l1.5,20.4 M185.3,186.4l-0.4,25.7 M188.9,186.4
		l-0.5,33.6 M195.6,185.5l-0.5,19.2 M202.5,184.2v27.6 M207.9,183.7l1.8,25.5 M216.3,181.9l1,27.3 M226.3,171.1v31.5 M233.5,173.2
		v21.9 M154.8,254.6l10.7,5.7 M156.6,248.6l12.6,9 M154.3,190.3l9.2,4.9 M191.4,320.2c0,0,11.2,34.5,19,35.8 M196.3,335.7
		c0,0,4.2,22.8,10.2,29.4 M193.6,357.3c0,0-2.1,21.7,5.6,28 M172.9,312.9c0,0,16.4,25.8,18.5,30.3s2.1,4.7,3.6,10s4.4,28.1,9.5,34.9
		c5.2,6.8,6.4,13.4,9.7,10.3 M201.2,361.2c0,0-2.7,33.5,3.4,41.7c6.1,8.2,14.2,6.9,17.8,5.4s6-3.3,6.9-10.1 M211.5,376.2
		c0,0-3.9,13.2,2.7,22.1c6.6,8.9,7.5,10.4,13.2,4.7c5.7-5.7,6.9-11.7,6.9-11.7 M216,381.9c0,0,2.4,9.3,6.6,8.1
		c4.2-1.2,7.8-9,8.7-10.8 M212.4,331.8c0,0-2.1,33.9,0,39.9s3.3,10.2,6,10.2s6.9,0,10.8-4.8 M204.6,297.5c0,0-12.8-3.3-7.6,8.4
		c5.3,11.7,5.9,10.5,11,16.5s6,7.5,6.3,13.2s-0.6,9.5,2.1,13.5c2.7,4,3.9,7,3.9,7 M207.9,297.5c0,0-10.2,8.1-5.5,16.8 M209.8,289.4
		c0,0-21-1.2-12.8,19.8 M205.5,271.4c0,0-23.1,10.8-24,21.3s6,26.1,12,31.2s16.8,14,16.2,25.2s0,19.9,0,19.9 M227.5,274.7
		c0,0-20.1-20.9-34.1-9.7c-14,11.2-22.7,17.8-22.4,22 M172.2,318c0,0,1.6,58.9,0,66.3 M197,393.6L181.5,406 M195,388.2l-11.1,8.1
		 M189.2,381.9l-5.4,13.3 M195,377.1l-13.5,11.1 M195,370.5l-15.6,11.4 M191.4,365.1l-7.6,10.8 M192.6,358.8l-13.2,11.3
		 M163.5,301.1c0,0-20.5-14.4-21.9-1.5 M174.9,309.3c0,0-17,12.3-9.7,26.4 M176.7,395.2c0,0-18.3-7-20.1-28s-2.3-32.7-2.3-32.7
		 M174.9,395.2c0,0-27.8-57.7-22.2-66.1 M167,381.9c-3.4-4.5-16.8-52.3-20-55.6c-3.2-3.3-5.4-6.9-5.4-17.1s20.8-14.7,20.8-14.7
		 M153.4,320.1c0,0-5.7-6-4.3,2.7s3.9,29.1,7.5,38.4 M134.2,309.3c0,0-7.2,7.8-2.8,10.2c4.4,2.4,8.8,2.4,11.6,9.9s4.8,34.4,7.3,40.8
		c2.4,6.4,8.7,20.8,9.9,22 M156.6,279.5c0,0-23.9,6-23.7,20.1s-1.3,15.9-1.3,15.9 M125.8,309.3c0,0,9.4,30.9,12.1,36.6
		s4.7,20.4,5.1,25.8c0.4,5.4,5.1,23.8,7.3,25.4 M158.9,279.5c0,0-31.2-3.9-33,11.4s0.3,21.9,1.8,24.3c1.5,2.4,5.9,12.3,10.3,20.7
		c4.4,8.4,8.5,6.3,9.5,13.8s2.8,18.3,5.2,26.7c2.4,8.4,1.5,26.6,3.9,28.2s-8.4,14.2,3.3,14.5s16.2-7.5,19.5-10.8 M123.5,271.4
		c0,0-3.1-11.4,0.6-8.1s17.5,18.6,16.4,23.7 M120.4,283.7c0,0-14.9-22.2-10.1-23.4c4.8-1.2,17.4,19.2,17.4,19.2 M192.6,258.7
		L174.9,291 M183.9,259.1l-9,17.7 M171,274.7l7.9-12.6 M164.7,274.7l10.2-16.1 M162.3,270.1l4.7-6.8 M152.7,276.8l12.5-13.5
		 M158.3,262.1l-7,9.3 M143.3,274.7l9.4-12.6 M151.3,260.3l-10.8,9 M143,258.7l-10.1,12.8 M138,258.1l-7.7,11.2 M130.3,257.6l-2.6,9
		 M124.8,252.8l-7.8,10.6 M122,248.6l-6.9,10.5 M116.9,245.6l-8.3,10.8 M115.8,238.2l-9.5,12.8 M112.1,233.9l-7,11.7 M110.3,228.8
		l-9.6,15 M112.1,223.4l-9.6,9 M110.3,214.9l-9.1,12.9 M109.1,209.2l-5.6,5.7 M109.1,204.7l-5.7,2.4 M107.1,199l-3.7,5.7
		 M107.1,192.7l-5,4.8 M105.2,187.8l-6.2,4.9 M103.5,183.7l-4.5,5.4 M96.9,177c0,0,3,10.6,3.3,16.3s4.3,17.7,3.6,19.8
		c-0.6,2.1,0.3,6.3-1.2,10.2s1.2,6.9,0,9s-0.4-2.4-1.2,4.8c-0.9,7.2-0.6,10.8,0,13.8s6.7,9,7.3,9.6c0.6,0.6-0.9,3.9,0,6
		s3.3,4.8,6.6,6.9c3.3,2.1,20.1,2.7,21.2,3c1.1,0.3,15,3,15,3 M101.3,178.9c0,0,7.3,15.3,8.8,23.4c1.5,8.1,4.1,14.7,4.3,19.2
		c0.2,4.5-0.7,7.2,0.8,11.1c1.5,3.9,5.1,12.3,5.3,12.9c0.1,0.6,3.8,6.6,4.4,7.2c0.6,0.6,2.5,2.4,5,3.6c2.5,1.2,13.3,2.4,15.7,2.4
		s17.8,3.9,19.7,4.5s7.3-1.5,11.8-4.8c4.5-3.3,13.7-5.4,15.9-5.1c2.2,0.3,4.1,1.2,4.1,1.2 M127.8,247.4l5.1,7.2 M124.8,237.2
		l15.8,20.4 M118.7,220.1l28.3,36.3 M112.1,201.1l39.1,53.5 M151.3,223.4l-3.9,25.2 M147,201.1l-3.7,44.5 M145.5,181.9l-5,59.8
		 M140.5,177c0,0-9.6,61-8.3,60.1 M132.2,173.5l-4.4,55.3 M123.5,164.8v52.9 M120.4,156.5v41 M116.5,151l-1.4,34.5 M110,135.1
		l-1.5,21.5 M190.9,181.9c1.2,1.6,21.5-6.7,22.5-10.8c0.9-4.1-13.9,6.3-13.9,6.3 M177,180.7c0,0,38.2-12.6,40.3-15.6
		s-30.2,16.8-30.2,16.8 M208.3,164.8c0,0-35.8,12.3-38.8,12.6 M199.4,164.8c0,0-39.8,6.3-41.2,8.4 M182.4,161.7
		c-0.8-0.8-31.1,6.2-31.1,6.2 M147,162.1l22.5-3.8l-18.2,6.7 M135.4,173.5c0,0,49.5,17.2,68.3,7.1c18.9-10.1,20.7-15.5,20.7-15.5
		 M219.4,162.1c0,0,0,15.6-13.4,18s-26.6,12-38.9,5.4c-12.3-6.6-31.8-18-33-23.4s-6.3-12.7-6.3-12.7 M148.5,151
		c0.9,0.9,71.8,13.2,97,10.8 M143.3,149.5c1.6,0.6,43.6-5.1,58.1-3.6s27.9,7.2,29.4,7.8 M141.4,148.3c0,0,43.6-6.9,66.9-2.4
		s48.9,11.4,55.2,10.2 M224.5,59.2c0,0-26.7-0.7-24.9,4.3 M224.5,52.2c0,0-29-2.9-31.9-12.3s14.3-13.7,18.5-15.6 M222.4,55.4
		c0,0-25.5,2.4-24.3,7.4s3.3,5.7,3.3,5.7 M167.1,85.8c0,0,2-9.1-6.5-10.1s-33.6,3.4-33.8-2.1 M184.9,92.6c0,0-16.3-11.3-30.7-13.1
		s-22,1.5-22,1.5 M215.4,69.9c0,0-27.7-1.7-30.5,2.6c-2.8,4.3-8,9.4,0,14.8s16.4,8.3,16.4,8.3 M206,76.1c0,0-26.3-5.8-26.7,5.7
		s0.4,12,5.7,13.4 M250.9,62.8c-0.9,0.5-25.5-2.2-27.9,7.1s2.7,19.1,11.1,18.7 M219.4,113.4c0,0,25.2,4.7,26.1-7.7
		c0.9-12.4,6.9-14.5,0-14.5s-7.2,4.8-11.4,0s-13.2-11.5-9.6-17.6c3.6-6.1-6.3-10.4,12.3-12s18.9,1.9,18.9,1.9 M229.9,84.6
		c-0.6,0.6-26.4,1.5-23.9,15.6c2.6,14.1-7,24.4,17,26s29.7,3.4,32.7-1.4 M169.5,119.1c0,0,38.4-4.2,45.6-11.1
		c7.2-6.9,14.7-9.8,9.3-15.4s-14.7-11.5-18.5-12 M186.8,153.7c0,0-13.1-2.1-9.1-11.4c4-9.3,15.1-14.5,15.1-14.5 M158.7,129.7
		c0,0,10.1-18.3,20.5-18.9s21.2-2.5,24.5,4s3,9.5-1.2,10.1s-6.7,4-9.7,1.4c-3-2.6,1.3-6.5,4.6-4.6c3.3,2,3.9,5.6-2.4,9.5
		c-6.3,3.9-18.3-1.5-21.6,6.9s-6.3,9.9,0,12.9 M152.8,131.2c0,0,3.2-7.9,16.7-11s23-5.8,21.1,1.4c-1.9,7.2-5.8,6.3-5.8,6.3
		 M152.8,112.2c0,0-25.3,7.3-28.1,12.6c-2.8,5.3,0,6.3,0,6.3 M151.3,131.2c0,0-17.1-0.3-21.5,6.5 M147.4,131.2
		c0,0-15.4,5.1-11.2,12.9 M154.2,117.2c0,0-15.6-11.5-19.5-1.8c-3.9,9.7-3.9,20.5,5.4,28.6 M153,90c0,0-1.5,9.6,4.2,14.4
		s10.2,12,6.9,17.1s-3.5,8.4-3.5,8.4 M169.5,104.4c0,0-14.4-5.7-22.1-4.9c-7.7,0.8-14.3,2.4-14.3,2.4s17.1,2.4,29.8,2.4
		 M192.9,103.8c0,0-25.7-5.1-28.4-4.1s11.1,4.7,11.1,4.7 M147.4,71.4c0,0-34,9.6-32.2,19.8s1.8,15.5,9.6,14.5s7.8-4.6,5.4-5.7
		c-2.4-1-14.7,1.1-18,4.4 M201.3,58.8c0,0-29.1-4.1-31.8,2.8c-2.7,6.8-1.5,9.5,1.2,9.8c2.7,0.3,6.3,2.6,2.7,3.4s-16.9-1.6-17.4-4.9
		 M153,42c0,0-2.4,20.3,15.3,18.4s5.1-1.8,5.1-1.8 M202.5,40.3c0,0-23-4.7-26.9,0 M181.2,35.3c0,0-26.6,5.4-28.2,13.3 M202.5,37.4
		c0,0-17.6-6.3-26.9-4c-9.4,2.3-18.7,4.6-18.7,6s-2.1,6.6,0,7.6 M147.4,63.5c0,0-9.2-4.3,0-6.3s18.5-1.3,20-1.8s6.8,3.8,6.8,3.8
		 M108.5,114.7c3.9,4.6,5.7,6.2,6.6,10.1c0.9,3.9,1.4,10.2,1.4,10.2 M116.9,71.4c0,0-12.3,24-12.6,28.7 M116.9,67.8
		c0,0-12.7,28.8-10.6,42.9 M140.1,44.5c0,0-17.8,16.4-19.8,25.4"/>
	<path class="st3" d="M469.1,388.7c0,0-5.4,10-9.4,9.8 M471,386.8c0,0-1.3,11.9-9.1,11.7 M487.7,381.9c0,0-8.1-8.2-14.2-5.2
		c-6,3-8,11-15.2,10s-5.6,1.4-4.6-7.2s3.6-7.9-3-16.8s-14.6-9.2-14.6-9.2 M428.8,333.2c0,0,8.7,15.1,19.7,24.9s19.2,14.4,21,19.2
		c1.8,4.8,5.2,15.5-2.8,17.9s-16.5,2.6-21.8-1.8c-5.4-4.4-26.9-14-29-7s-0.9,10.5-0.9,10.5 M415,355.7c0,0-7.6,9.8-5.3,8.2
		c2.3-1.6,13.4-7.2,13.4-7.2l-13.8,14.4c0,0-1,4.4-1,3.8s12.8-9.6,12.8-9.6s3.2-1.4,3-1.2c-0.2,0.2-11.6,9.6-10.8,9
		c0.8-0.6,14.8-7.8,14.8-7.8 M415,342.5c0,0,3.1,9.4,0.9,10.4c-2.3,1-9.7,3.8-9.7,3.8 M395,336.1c0.6-0.8,11.8-1.1,14.7-0.9
		 M404.6,340.7c-0.6-1.2-5.7,0.4-6.1-3 M397.4,343.7c0.6-0.2,17.9-0.4,17.6-6 M428.1,323.1c0,0,8.2,14.2-2,13s-52.5-11.8-56.1-16.4
		l-98.5,11.5 M438.1,315.9l-24,3.7 M440.9,300.2c0,0-14.9,17.9-22.8,17.9 M392.6,308.4c0,0,11.4,13.2,23.2,5.7 M412,284.7
		c0,0,0.7,7.2,3,7.9c2.3,0.7,4.7,0,4.7,0 M412,280.7c0-0.3,12.3-0.2,12.1,6.5c-0.2,6.7-2.2,14.8-2.2,14.8 M410.1,281.2
		c0,0-10,4-9.1,9.4s4.9,16.3,11.5,13.5s10.7-3.5,10.7-6.6 M490.3,276.5l-2.4,3.4 M481.9,274.7l2.6-2.7 M475.7,275.5l-1-3.5
		 M471.5,277.7l-2.9-2.5 M470.8,282.5l-5.6-0.9 M466.2,290.6l4.9-2.7 M471,296.7l3.7-4.9 M477,292.5v7.1 M482.9,299l-1-6.5
		 M489.2,296.7l-3.2-5.4 M494.5,291.9c0.2-0.1-5.3-4.4-5.3-4.4 M495.3,282.3l-6.1,2.3 M482.4,271.1c0,0-12.5-2-15.4,6.3
		c-2.9,8.4-1.6,22.4,9.1,22.7c10.7,0.3,21.9-4.5,20-14.7C494.2,275.2,486.5,272.7,482.4,271.1z M471.5,281.9c0,0,3.5,2.8,5.4,2.7
		c1.9,0,6.8-1.2,7.8-6 M477.1,274.9c0,0-7.7,2.7-6.3,7.7c1.3,5,2.4,9.9,9.9,9.3s8.1-6.4,6.5-10S483.3,273.6,477.1,274.9z
		 M416.7,705.7l2.4-242.1 M311,403l-25.8,134.5 M484.5,705.7L430.4,422l37.8,283.7L285.1,395.2 M555.8,518.1l-292.2,11.6 M502,404.7
		c0,0-41,28.3-43.6,55s-2.6,58.6,1.6,62.8 M428.1,274.9L521.4,422 M521.4,309.6v10 M515.9,309.1l2.9,24.1 M510.4,309.6l4.4,34.9
		 M505.6,311.5l1.6,34.6 M500.8,311.5l2.4,33 M496.1,311.5l3.3,30.2 M491.4,311.5l3.1,30.2 M486.5,313l3.8,27.9 M484.5,311.5l2,24.6
		 M480.3,313v23.1 M476.1,313v21.5 M473,313.2l1.2,22 M469.5,313v20.2 M464.6,314.1c0,0,0.9,15,1.1,15.1 M461.4,313l-1.4,16.1
		 M453.7,314.1l-1,13.4 M448.5,313.2v9.7 M444.9,314.1v6.4 M487.7,306.2c0.4,0,21.8-1.1,23.4-4.3 M515.9,291.8
		c0,0,10.4-9.7,10.9-12.8 M512.2,271.1l23.4,12.7 M508.8,284.7c0.6-0.4,11.4-6,14.3-6.9 M501.8,279.8c0.8,0,10.4,0.9,10.4,0.9
		 M507.2,291.8c0-0.6,3-3.2,4-5.8 M514.8,294.6c0,0,15.6-11.8,22.6-19.8 M543,262.8l19.2-1 M572.4,249.8c0,0-36,25.2-39.5,25
		 M591.3,269.5l-40.9-12.2 M593.1,272l17.9-9.2 M618.7,268.2l-21.4,9.8 M609.7,264.8c0,0-12.4,13-13.6,12.9
		c-1.2-0.1-26.8-4.8-27-6.5 M590.1,271.1c-0.6-0.8-39.5-3-48.2-1.2 M573.9,252.4c0,0-10.5-3.7-25.5,12c-15,15.6-19.4,24-24.3,26
		c-5,2-9.3,7.2-9.3,7.2 M555.8,257.3c0,0-33.4,41.7-47.1,46.9 M547.5,258.5l-32.7,22.8 M480.3,259.7c0,0-17.8,2.2-16.8,21.4
		c1,19.2,19.5,36.2,42,24.8 M491.4,262.2c0,0-23.4,0.5-26.8,15.8 M496.8,262.5c0,0-16.7-11.5-30.1,4.7s2.4,33.2,8.5,37.4
		c6.1,4.2,33.9,9.6,37.6-5.9s-1.2-26-4.4-28.9C505.2,266.9,496.8,262.5,496.8,262.5z M532.9,308.4l-149.1,9.7 M331.1,274.4
		L611,393.3 M484.7,237.4c0,0,27.8,23.6,32.8,45.1c5,21.4,11,30.4-4.2,68.5 M491.3,242.9l-2,1.3l2,7.7 M483.7,238.6l2.8,16.8
		l-115.3,11.8 M476.1,240.1c0.7,0.4,4.2,13.4,4.2,13.4 M470.8,242.9l4.3,15.4 M465.7,246.5l2.6,10.7 M461.6,246.5l1.9,11.7
		 M456.3,249.2c0,0,1.6,9.1,2.2,9.1 M451.9,251.6l0.8,3.8 M447.6,253.2l0.9,4.4 M517.6,253.2l-14.4,0.9 M331.1,301.9
		c0,0,4.1,5,6.9,3c2.9-2.1,36.5-15.9,36.5-15.9l55.4-21.6l20.4-16.4l50.5-20 M337.1,301.9l88.7-35.6l19.8-12.2 M415,272
		c0,0-26.3,1.2-29.1,5.7c-6.4,10.2,22.4-8.4,29.1-6.5c6.8,2,10.1,7.7,13.1,18.2s-3.9,18.6-12.5,26.5s-28.2-8.6-28.2-8.6
		 M386.6,287.2c0,0-3.3,11.7-5.1,12.5 M423.1,272c0,0-36.9-13.7-41.7,11.3c-4.8,24.9-1.4,11.6-1.4,11.6 M415,259.9
		c0,0-13.1,6.7-21,9.5c-8,2.9-9.8,6.2-11.9,8.3 M409.7,257.6c0,0-21.6,8.9-27.6,14.4 M397.6,249.8c0,0-1.8,5.7-3,6.8 M393.4,257.6
		c0,0,7.1-3.2,11.5-4.2c4.3-1.1,12.7-3.6,12.7-3.6 M380,272c0,0,5.3-10.2,12.5-12.1s7.8-1.9,11.4-4.3c3.6-2.4,14.7-4.1,14.7-4.1
		l15.6-1.2 M372.8,265c0,0,8,1.5,20.6,0s33.2-4.4,33.2-4.4l9.9-0.7 M364.9,269.5c0,0,18.2-16.2,28.5-15.3 M362,269.5
		c0,0-2.9-1.4,1.4-5c4.2-3.6,25.5-15.5,32.6-14 M401.5,226.1c0,0,12.2,28,16.1,31.5 M401.5,223.2c0,0,15.8,20.4,17.1,26.6
		 M422.4,241.2c0,0-17,2-23.6,6.2 M411.3,237.4c0,0,11.9,4.2,0,6.3s-17.9,3.8-17.9,3.8 M374.2,241.9c0,0,10.7-4.7,19.2,1
		 M399.7,249.8c0,0,18.9-1,18.9-5.2c0-4.1-20.4-8.5-32-4.4s-6,5.3-6,5.3 M422.4,243.6c0,0,8.4-3.7,1.3-6.3s-21.8-2.4-31.1-2.7
		c-9.3-0.3-26,5-17.6,9.8s21.9,4.8,21.9,4.8 M408.1,208.6c0,0,3.9,21.7-0.4,24.8 M402.7,203.2c0.5-1.2,8.8,22.2,6.9,27.8
		 M394.6,187.8l6.1,41.5 M385.3,201l18.6,23.9 M387.9,199l21.8,23.6 M390.9,195.1l23.6,26 M391.1,190.3l27.5,26.7 M397,184.2
		l30.8,28.8 M394.7,186.8l29.9,28.3 M427.8,198l10.3,9.5 M420.6,197.5c0,0,15.2,13.1,15,12.6 M398.8,181.6l33.9,31.9 M399.6,178.9
		l17.8,11.4 M400.1,171.7l15.9,13.2 M398,165.1l19.4,14.6 M395.7,157.6l17.9,15.6 M395.5,151l10.4,10.1 M395.5,142.7l9.8,9.3
		 M396.4,136.4l6.4,6.6 M400.7,134.1l5.1,5 M403.2,130l5.4,7.7 M407.3,127.2l5.8,5.7 M411.3,124.4l4.8,5.6 M415,121.7l3.8,5.4
		 M418.8,118.9l3.7,4.9 M424.5,117c0,0-3.3,1.1-2,3.8 M429.9,111.2c0,0-2.4,7.4-2.1,8 M418.8,221.4c0,0,9.5-5.1,8.9-2.4
		c-0.6,2.6-12,11.5-12,11.5 M408.6,227.9c0,0,26.4-17.5,29.7-14.9c3.3,2.6-5.9,12.8-15.8,16 M411.3,117.9l2.7,1.2 M404.6,121.7
		l2.7,3.2 M400.1,124.9l2.7,4.4 M393.4,126.1l4.6,6.6 M391.3,130.6l4.1,4.5 M389.8,137.6l3.2,3.1 M386.6,141.8l4.4,2.6 M382.4,146.1
		l7.3,6.8 M382.9,151l10.5,10.1 M397.6,173.2l-13-11.6 M384.6,157.6l13,10.3 M386.4,167.9l9.1,11 M382.4,170.1l11,11.5 M380.6,174.4
		l11.6,9.3 M384.7,190.3l-8.7-10.6l3.2-2.7l10.6,9.4 M376,184.2l6.5,8.6 M380.6,165.1l-9.2,14.6 M377.7,161.1l-7.9,16.9
		 M373.7,162.1l-7.9,13.4 M370.7,157.6l-7.2,13.5 M367.8,154l-7,13.9 M361.9,153.1l-3.7,9 M360,150.3l-3.5,6.3 M358.7,145.9
		l-4.5,7.2 M354.2,142.7l-4.1,11 M353,137.6l-5.5,8.3 M350,131.2l-5.1,11.5 M336.9,130l60.7,96.2 M386.6,144.4l13.5,95.4
		 M384.7,165.7c0,0-17.3-10.8-24.7-18.4c-7.4-7.6-7-17.3-7-17.3 M428.7,81.8c0,0,7.5,17,6.9,24.5s-3.6,13.3-11.7,18.6
		c-8.1,5.4-15.3,14.2-15.3,14.2s-3.6,1.5-3.9,7.3s3.9,17.2,5.4,19.3s11.7,11.7,10.1,15.9c-1.7,4.2,0,13.5,0,13.5s16.4,2.7,18.8,6.8
		s2.4,28.3-6.7,32.9 M426.6,81c0,0,9.9,17.3,3.3,24.8c-6.6,7.6-34.4,29.2-34.4,29.2s-4,7.5-2.5,15.9s9.6,20.2,4.7,28.7
		c-5,8.5-15.2,18.3-15.2,18.3 M421.5,108c0,0-8.4,8.1-12.9,11.1s-18.6,8.9-20.1,15c-1.5,6.1-5.2,9.5-6,12s0.3,16.5,0,18.6
		s-6,18.1-8.7,19 M376.4,74.2l53.5,28.5 M365.9,60.5L425.1,90 M416.1,99.9l2.7,10.1 M408.6,88.6L414,110 M400.7,74.2l10.8,44.9
		 M392.9,59.4c0,0,9.3,60.3,10.2,61.4 M361.9,48.6l55.6,26.1 M375.2,20.4h5.3 M370.7,28.6l15.6,6 M361.9,37.4l41.2,14.8 M370.7,45.2
		c0,0,12.3,89.5,14,93.9 M380.6,119.1c0,0,0.4,31.8,1.9,34.5 M370.7,123.1c0,0,1.5,11.6,1.2,16 M363.8,124.9c0,0-0.6,14,0,15.8
		 M382.4,32.4c0,0,13.5,88.7,16.8,90.7 M376.4,23.5c0,0,16.8,97.2,16.5,101.4 M319.7,136.3c0,0,1.5,20.8,0,22.1 M310.6,136.9
		c0,0,3.7,29.6,3.2,32.1 M304.7,136.9c0,0,2.1,46.5,1.9,50 M297.8,148.3c0,0,4.3,51.4,3.4,54.3 M293.5,160.3l2.9,27.5 M287.5,163.7
		c0,0,0.3,28.6,0.9,29 M279.7,163.7l2.4,27.5 M273.3,164.8c0,0,1.5,22.6,1.3,23.8 M268.9,158.3l-0.9,25.8 M259.9,163.7
		c0,0,2.8,12.8,1.2,16 M266.2,142.7c0,0-3.6,7.7,3.2,9.6c6.8,1.9,13.5,2,13.2,1.4 M216.9,118.2c0,0-1.9,7.2-2,9.7 M223.5,129.3
		c0,0-1.4,14.1-4.1,18.9c-2.7,4.8-10,9.7-15.9,10.2"/>
	<path class="st3" d="M358.1,282.8c0,0-13.3,9.6-7.9,23.1 M342.4,268l-11.4,2.1 M348.4,304.6c0.6,0.1,6.8-2.7,9,0s3.4,4.6,3.4,4.6
		 M377.6,292c0,0-7.9,2.9-4.4,9.8c3.4,6.8,8.3,12.6,8.3,12.6 M359.9,313.2c0,0,6.3,18.3,6.3,20.7c0,2.4-1.4,9.8-1.4,9.8
		 M375.5,340.7c-1.2,0.7-3.3-5.6-4.6-6.8 M400.8,398.3c0.2-0.2-1.4,9.8,4.7,7.7c6.1-2.1,14.8-7.1,14.9-7.7 M410.3,390.9
		c-0.5-0.8,4.8-10.1-4.1-8.2c-9,1.9-19.2,9.6-11.1,8.6c8.1-0.9,14.3-2.4,15.2-3.2c0.9-0.8,4-5.6,4-5.6 M362.8,384.7
		c0,0-12.2-7.3-14.9-3.5c-2.7,3.8-7.5,8.5-4.5,9s15-7.6,16.8-9 M382.4,347.9c0,0,5.1,5.8,6.6,14.2c1.5,8.4,0.6,13.5,0,20.6
		s3.8,10.4-4.1,10.2c-7.9-0.2-12.4-6.6-25.9-2.8c-13.5,3.8-14.4,13.1-17.4,7c-3-6.2-8.4-10.7-4.5-12.8 M343.4,334.5l-1.8,5.1
		c0,0,10.2,12.9,7.8,17.7c-2.4,4.8,2.4-4.8,2.4-4.8l-6.9,10.4c0,0,11.1-10.3,11.1-9.7c0,0.5-10.5,19.1-8.7,15.8
		c1.8-3.3,17.6-11.7,17.6-11.7l-13.5,17.1 M290.3,258.7c-1-0.5-24.5-6.4-37.6-1.2c-13.1,5.2-24,7.4-24,7.4 M317.2,247.1
		c0,0-7.2,9.5-24.6,7.4c-17.4-2-36.3-6-45.1-3.6s-32.6,12.4-15.6,9.3s28.5-16.4,37.1-14.7c8.6,1.6,29,11.2,33.8,10.8 M233.7,257.6
		c0,0,34.3-11.2,47.6-10.4s19.5,4.2,22.9,5.6 M227.5,262.1c0.4-0.9,9.7-18.5,30.6-18.3c20.9,0.2,40.7,2,44.7,5.6s20.1,8.5,5.1,9.3
		c-14.9,0.7-33.2-11.4-54.3-4.5c-21.1,6.9-29.7,14.7-27.1,8.6c2.6-6.1,10.6-18.6,34.7-18.1c24,0.5,31.7,2.6,39.1,5.2 M274.5,294.3
		c0,0,0.6,8.4,4.8,6.9c4.2-1.5,7-1.8,7-1.8 M289.1,299.3c0,0-4.7-9.8-14.6-6.7c-9.9,3.1-10,4.4-8.8,10.7c1.2,6.3,3.3,10,10.4,9.5
		C283.2,312.4,290.1,308.3,289.1,299.3z M293.9,279.9c0,0-23-10.7-38.8,2.9 M241.5,301.1c0-0.9,5.8-21.3,22.5-24.3 M283.2,274.8
		c0,0-36.5,11.2-38.9,26.4c-2.5,15.2,11.4,30.2,18.2,32.5 M320.4,270.1c0,0-72.3,16.1-77.5,19.4c-5.2,3.2,13.6-18.3,25.6-19.4
		 M307.9,282.8c0,0-6.8-11.8-27.6-11.4s-34.6,7.2-36,8.1 M299.3,283.7c0,0,12.6,14.3,10.4,19.5s-7,17.5-17.2,19.9
		c-2.7,0.6-6.5,1.4-10.6,1.7c-11.3,1-25.2-0.6-28.3-14.2c-4.3-18.6,6.5-26.2,11.7-26.9c5.2-0.7,26.8-6.9,32.7,5.7
		c5.9,12.6,7.6,15.9,5.7,21.8c0,0-3.8,11.1-22.4,11.9 M317.8,312.9c0,0,6-4,5.8-5.8s-15.7,0-15.7,0s13.1,14.3-26,20.8 M313.6,299.3
		c0,0,5.4-4.8,5.4-1.6c0,3.1-4.6,7.9-9.2,9.3 M286.3,350.7c3.2-0.4,9.6-5.6,9.6-5.6 M255.1,329.1c0,0,8,16.5,24.4,9
		c16.4-7.4,22.6-17.4,23-14.4s-3.4,13.2-23,16.8c-19.6,3.6-15.2,2-9.4,3.2c5.8,1.2,32.8,0.5,39-10.3c6.2-10.7-2.2-4.7-6.8-1.1
		c-4.6,3.6-13.1,8.6-13.2,8.2 M241.5,325.1c0.6-0.7,7.6,1.5,7.6,1.5 M202.4,334.5c0,0,43.1-1.5,51.2-6.7 M271.9,369
		c-0.4,0.3-18.2-27.1-25-42.4s-11.6-19.8-11.6-19.8s5-6,7.2-4.9 M298,384.3c0,0,4.7-1.2,7.2-7.2s4.5-7,5.7-5.3s6.8,9.3,6.8,9.3
		 M289.1,388c0,0-0.4,5.8,2.4,2.8c2.8-2.9,5-12.8,6.5-11.7c1.5,1.1,5.9,6.7,6.5,7.9c0.6,1.2,1.2,5.4,2,4.6s3.4-17.2,4.4-15.8
		c1,1.4,2.2,12.1,2.2,12.1s3-21.9,4.4-16.7c1.4,5.2,3.8,16.7,3.8,16.7 M271.9,441c0.6-1,33.4-36.2,41.2-38 M296.9,418
		c0,0-12.6,17.1-18,29.4 M307.5,399.1c0,0-36.4,27.3-37.8,29.7c-1.4,2.4,31.2-21.6,35.4-22.4c4.2-0.8,16.2,0.8,16.2,0.8
		s-28.4,16.8-36.2,27.4c-7.8,10.6-19.8,30.4-18,37.1c1.8,6.7,5.6-9.3,6.4-12s30.4-47.4,30.4-47.4 M267.1,441c0,0,21.4-37.2,26.4-38
		s-3,12.6-3.8,15 M205.5,569.6c0,0,23.6,45.8,24.6,52.3 M211.8,615.1c0,0-13.2-12.2-7.2-13.4s25.5,33.1,25.5,33.1 M189.6,505.4
		c0,0,7.2,76,21,95.2s35.8,47.6,40.6,55.8 M187.2,503.9c0,0,0,8.5-3.9,9.9s-11.7,3-10.5,6.3s34.5,42.6,35.6,44.4
		c1.1,1.8,2.3,6.9,2.3,6.9 M187.8,464.9c0,0-11.1,31.5-8.7,48c2.4,16.5,5.1,28.4,14.3,29.2s15-2.5,15-2.5s6.2,63.4,10.7,69.4
		 M185.1,483.4l-15.9,106.7 M219.1,454.5c0,0-13.5,5.2-16.8,15.7s-4.5,7.8-4.5,7.8l4.5-2.7l2.1,6.3 M268.8,685.3
		c0,0,21.1,17.1,34.7,16.6s37.8-13.4,48.9-13.2 M262.5,675c0,0,21.2,20.8,34.2,21.9c13.1,1.1,29.7,7.8,32.9,8.7 M264.5,671
		c0,0,24.5,40.5,39.9,37.8c15.3-2.7,20.8-21.8,20.8-21.8 M248.1,680.5c0,0,7.7,15.8,16.4,16.4 M262.5,696.9l-9.5-19.8 M253,680.5
		c0,0,11.7,14.8,23,14.3 M281.1,661.5c0,0-2.4,20.3-18.6,18.9 M328.2,631.3c-0.8-0.4-36.6-82.3-36.6-82.3 M285.1,615.1
		c0,0,18.3,32.3,29.6,30.8 M276,623.8c0,0,3.8,15.6,9.1,17.7c5.3,2.1,9.3,2.8,8.4-3.4s-21.2-18.8-15.3-18.4
		c5.9,0.4,20.7,22.2,28.8,23.3 M242.2,645.9c0,0,14.4,30.1,18,31.2 M221.9,556.6c0,0,12.6,85.8,20.3,95.9 M396.1,691.4
		c0,0-11.3,27.9-21.9,19.2 M401.8,691c0,0-9.2,16.5-14.8,17.7c-5.6,1.2-28.4-5.9-32.2-8.9c-3.8-2.9-43.8-7.2-43.8-7.2 M412.1,680.7
		c0,0,1.4,22-7.8,24c-9.2,2-47.9-15.6-49.3-16.8s-2.4-9.5-5.8-10.7 M405.7,644.8c0,0,6.8,8,2,22.6c-4.8,14.7-64.3,30.9-64.3,30.9
		 M391.8,652.4l-51.7-1.6 M328.2,652.4c0.4,0,10-2.8,19.4-3.8s54.9-1.6,55.5-1.6s-64.1-7.6-64.1-7.6 M333.6,641.6
		c0.6-0.4,9.8,0,9.8,0 M339,638c0.6-0.2,59.5,6,62.9,5.4 M423.7,658.8c0,0-13.4,16-54.5,22.6c-41,6.6-36.2,12.3-41,14 M426.5,634.9
		c0,0-27.5,21.6-29.5,34s-33,30.4-55.1,25.8 M455.9,626c0,0-16.6,14.4-31.6,29.2s-17.8,32.6-30,37s-46.3,5.6-49.3,4 M452.7,627.4
		c0,0-29.7,17-36.2,26.2s-1.3,30.4-16.9,31.6 M458.9,615.2c0,0,8.6,18.2-14,19.6c-22.6,1.4-119.7-25.8-119.7-25.8 M352.3,587.6
		c0,0,7.5,18.6,43.9,17.4c36.4-1.2,52.4-9.8,57.7-6.8c5.3,3,14.3,5.8,4.9,12.4c-9.4,6.6-54.8,15-70,12.8
		c-15.1-2.2-33.6-14.2-33.6-14.2 M440.5,591.6c0-0.6,8.2-2.8,8.8,1.8 M432.3,584.6c0,0,5.6,0.5,6.6,4.6s0,6.5,0,6.5 M416.7,587.6
		c-0.4-0.4-0.2-8,5-9s8,2.2,9,4.5s0,10.3,0,10.3 M403.1,598.2c0,0-0.9-14.6,4.5-16.8s8.5,0,8.5,0s0.3,13.4,0.5,15.6 M389,597
		c0-0.6-0.7-15.1,2-16.4c2.7-1.3,9.2-1.4,10.4,1.2c1.2,2.6,1.7,13.4,1.7,13.4 M358,587.6c0-1.6,0.8-10.2,6-10.2s7.6,1.6,7.2,5.1
		s-0.8,11.9-0.8,11.9s2-11.8,7.2-12.6s9.5,12.6,9.5,12.6 M354.2,587.6c0-0.6-8.4-17.6-1-25.6s10.4-11.8,15.6-8.4
		c5.2,3.4,7,11.8,7.4,11.2s9.6-11.4,13.8-13.4c4.2-2,12.9-4.4,15.5,0.8s6.2,25.6,6.2,25.6 M396.2,541.7c-0.2-0.6-44.8,8.8-44.6,8.7
		c0.2-0.1,22.3-10.1,22.3-10.1l-15.7-1l7.2-3.5 M410.3,489.1c0,0-37,12.2-37,11.8s-5.4,5-4,3.8s38.5-9,38.5-9l-40.2,15.6
		c0,0,34.2-6,36.2-7.2S364,518.2,364,518.2l38.2-8.3l-36.6,14c0,0,37.4-5.5,36.6-5.8C401.4,517.9,367,534,367,534l33.8-6.7
		c0,0-36.8,9.4-31,8.4s30.6-2.8,29.8-3.2 M429,480.1c0,0-13.5,13.8-17.1,18 M426.8,481.6c0,0-15.3,11.4-17.1,22.4
		c-1.8,11-5.7,30.6-3.6,40 M442.3,456.6c0.6-0.2,8,1.2,10,0s5.6-3.6,5.6-3.6 M427.5,459.6c0,0-1.5,9.4,0,13.2 M429,479.2
		c0,0-32.7,13.2-37.1,12.6s37.1-15.1,37.1-15.1 M424.5,460.8c0,0-0.2,5-1,7.3s-8.6,5.5-8.6,5.5 M412.5,464.9
		c0.4,0.3,5.3,14.3-2.8,15.2c-8,0.9-8.6,2.3-8.6,2.3 M383.4,483.4c0,0,2,6.6,0,9.4s-3.8,4.8-5.8,3.8s-4.4-0.8-4.4-0.8 M398.2,470.2
		c0,0,5.2,7.8,0.8,12.4c-4.4,4.6-9.4,10-11.8,5.8s-1.6-7.4-1.6-7.4 M414.7,463.6c0,0,1.4,12.1-3.4,14.3c-4.8,2.2-10.2,1.2-10.2,1.2
		 M441.1,458.4c0,0,5.4,13.4,1.2,17.1c-4.2,3.7-11.4,2.7-12.7-1.1c-1.3-3.8,0-16,0-16 M452.7,454.2c0,0,5.5,2.2,3.8,12.6
		c-1.6,10.4-8.6,9.8-10.4,6.8 M438.9,428.8c0,0,2.2,9.2,6,7.6s2-4.8,2-4.8s5.4-0.6,7.4,5s9,14.2,3.6,15s-16.6,2.4-24.6,2.6
		s-42.8,16-51.3,25.2c-8.4,9.2-15.6,24.6-18.6,30.4s-11.2,24.8-10.6,31.8s-1.3,18.8,0,17.6 M422.7,414c0.6-0.4,7.4-10,6.8-2.4
		c-0.6,7.5-3.4,10.5-3.4,10.5 M423.5,408.6c0,0-5.6-0.2-5.3,5.6c0.3,5.8-0.1,14.8-0.3,15.8 M427.1,404.7c0,0-1.7,17.5,9.2,24.1
		 M429.6,402c-0.7,0.6,1.1,15.7,2.7,19.2 M429.6,396.8c0,0-7.9,14.5-17.1,12.5s-45.8-1-61.7,9.6c-15.8,10.6-30.9,32-38.6,25
		 M454.3,400c0,0-8.6-9-18.2-6.6s-17.9,5.2-17.9,5.2 M439.9,422c0,0-8.8-9.2-10-22.3c-1.2-13-5.2-40.6-5.2-40.6"/>
	<path class="st3" d="M341.6,433.2c0,0,15.9,8.2,27,4.8c11-3.4,23-5.9,23-5.9 M417.2,408.7c0,0-78.9,19-87.5,33.2 M429.3,597
		l-64.1-1.2 M326.3,598.2c0,0,1.1,7.5,2.8,7.5c1.7,0,3.1-7.5,3.1-7.5s5.6,27.4,8.7,19.7s2.5-19.7,2.5-19.7s4.5,23.8,6.8,19.7
		s6.6-19.5,7.3-19.4c0.6,0.1,2.4,12.3,3.4,10.5s1.9-15.1,5.6-9.6s5.2,18.5,5.2,18.5 M378.8,600.6c0,0-58-5.5-57.2-6.2 M344.6,544.1
		l3.8,8.6"/>
	<path class="st1" d="M12.4,694.8c0,0,3.7-4.6,10.1-12.6c6.5-8,15.8-19.4,26.9-33.2c5.6-6.9,11.6-14.3,18-22.1s13.2-16.1,20.2-24.6
		s14.3-17.3,21.6-26.3c7.3-9,14.7-18.1,22.2-27.3c7.4-9.2,14.8-18.3,22.1-27.3S168,503.6,175,495s13.7-16.8,20.1-24.7
		c6.4-7.9,12.5-15.2,18.1-22.1c11.2-13.6,20.6-25,27.2-32.9c6.6-7.9,10.3-12.5,10.3-12.5l0.1,0.1c0,0-3.7,4.6-10.1,12.6
		c-6.5,8-15.8,19.5-26.9,33.2c-5.6,6.9-11.6,14.3-18,22.1c-6.4,7.8-13.2,16.1-20.2,24.6s-14.2,17.4-21.6,26.4
		c-7.4,9-14.9,18-22.3,27.1c-7.5,9.1-15,18.2-22.3,27.2S94.9,594,87.9,602.5c-7,8.6-13.7,16.9-20.1,24.7
		c-6.4,7.9-12.4,15.3-18.1,22.1c-11.2,13.6-20.6,25-27.1,33C16.2,690.4,12.5,694.9,12.4,694.8L12.4,694.8z"/>
	<path class="st1" d="M238.3,410.8c0,0-3.3,0.1-9.1,0.3c-2.9,0.1-6.4,0.2-10.4,0.3c-4,0.1-8.6,0.2-13.5,0.3c-5,0.1-10.3,0.2-16,0.2
		c-5.7,0.1-11.7,0.1-17.9,0.1s-12.6,0.1-19.1,0.2s-13.1,0.3-19.7,0.4c-13.2,0.3-26.4,0.6-38.8,0.8c-6.2,0.1-12.2,0.2-17.9,0.2
		c-5.7,0.1-11,0.1-16,0.1c-9.9,0.1-18.2,0.1-24,0.2c-5.8,0-9.1,0-9.1,0v-0.1c0,0,3.3-0.1,9.1-0.3c5.8-0.1,14-0.3,23.9-0.5
		c5-0.1,10.3-0.2,16-0.3c5.7-0.1,11.7-0.2,17.9-0.3c12.4-0.2,25.6-0.3,38.8-0.3c6.6-0.1,13.2-0.1,19.7-0.2s12.9-0.2,19.1-0.4
		c6.2-0.1,12.2-0.3,17.9-0.4s11-0.2,16-0.2s9.5-0.1,13.5-0.1s7.5,0,10.4,0C235,410.7,238.3,410.7,238.3,410.8L238.3,410.8z"/>
	<path class="st1" d="M70.1,413.8c0,0-1.5,2.6-3.8,7.2c-2.3,4.6-5.5,11.3-8.9,19.5c-1.7,4.1-3.3,8.6-4.9,13.5
		c-1.5,4.8-3,10-4.1,15.5c-1,5.4-1.7,11.2-1.4,17c0.1,1.4,0.2,2.9,0.5,4.3c0.1,0.7,0.2,1.5,0.4,2.2l0.5,2.1c0.2,0.7,0.5,1.4,0.7,2.1
		c0.3,0.7,0.5,1.4,0.8,2l1,2l1.1,2c5.7,10.4,11.2,20.9,17,30.4c2.9,4.7,5.9,9.2,9,13.2s6.3,7.6,9.5,10.6s6.5,5.5,9.5,7.4
		c3.1,1.9,5.9,3.2,8.3,4.2c1.2,0.5,2.3,0.9,3.3,1.2s1.8,0.6,2.5,0.7c1.3,0.3,2.1,0.5,2.1,0.5v0.1c0,0-0.7-0.2-2.1-0.5
		c-0.7-0.1-1.5-0.4-2.5-0.6c-1-0.2-2.1-0.6-3.3-1.1c-2.4-0.9-5.3-2.2-8.5-4.1c-3.1-1.9-6.4-4.3-9.7-7.3c-3.3-3-6.6-6.6-9.7-10.6
		s-6.2-8.5-9.1-13.2c-2.9-4.8-5.7-9.8-8.5-14.9c-2.7-5.2-5.5-10.4-8.2-15.7l-1-2l-0.9-2c-0.3-0.7-0.6-1.4-0.8-2.1s-0.5-1.4-0.7-2.1
		l-0.5-2.2c-0.2-0.7-0.2-1.5-0.4-2.2c-0.3-1.5-0.3-2.9-0.5-4.4c-0.4-5.9,0.3-11.6,1.2-17.1c1-5.5,2.3-10.7,3.8-15.6s3.3-9.4,5-13.5
		s3.4-7.8,5-11.1c1.6-3.3,3-6.1,4.3-8.3C68.5,416.3,70.1,413.7,70.1,413.8L70.1,413.8z"/>
	<path class="st1" d="M132.6,478c0,0,0.3,0.3,0.7,0.8c0.4,0.5,1.1,1.3,1.8,2.2c0.3,0.5,0.7,1,1.1,1.6c0.4,0.6,0.7,1.2,1.1,1.8
		c0.4,0.6,0.8,1.3,1.2,1.9c0.4,0.6,0.9,1.3,1.4,1.9c1,1.2,1.9,2.5,2.8,3.7s1.6,2.3,2.3,3.4c0.6,1,1.1,1.9,1.5,2.5
		c0.3,0.6,0.5,1,0.5,1h-0.1c0,0-0.3-0.3-0.7-0.8s-1.1-1.3-1.8-2.2c-0.7-0.9-1.5-2-2.4-3.3c-0.8-1.2-1.7-2.5-2.5-3.9
		c-0.4-0.7-0.8-1.3-1.3-2s-0.9-1.2-1.4-1.8c-0.5-0.6-0.9-1.1-1.3-1.7c-0.4-0.5-0.8-1.1-1.1-1.6c-0.6-1-1.1-1.9-1.5-2.5
		C132.7,478.4,132.5,478.1,132.6,478L132.6,478z"/>
	<path class="st1" d="M117,473.3c0,0-0.9,1.1-2.4,2.6c-0.4,0.4-0.8,0.8-1.2,1.2c-0.5,0.4-1,0.8-1.5,1.2c-0.5,0.4-1.1,0.8-1.6,1.3
		s-1,1-1.5,1.5c-0.9,1.1-2,2-2.9,2.9s-1.9,1.7-2.7,2.4c-0.8,0.7-1.5,1.2-2,1.6s-0.8,0.6-0.8,0.6l-0.1-0.1c0,0,0.2-0.3,0.6-0.7
		c0.4-0.5,1-1.1,1.7-1.9s1.6-1.6,2.6-2.5s2-1.8,3.2-2.6c0.6-0.4,1.1-0.9,1.6-1.3c0.5-0.5,1-1,1.4-1.4c0.4-0.5,0.9-1,1.3-1.4
		s0.9-0.8,1.3-1.1C115.7,474,116.9,473.2,117,473.3L117,473.3z"/>
	<path class="st1" d="M123.5,459.7c0,0-1-1.1-2.2-2.8c-0.3-0.4-0.6-0.9-0.9-1.4s-0.6-1.1-0.9-1.7s-0.6-1.2-1-1.8
		c-0.4-0.6-0.8-1.2-1.2-1.7c-0.9-1.1-1.7-2.3-2.4-3.4c-0.8-1.1-1.4-2.2-1.9-3.1s-0.9-1.7-1.2-2.3c-0.3-0.6-0.4-0.9-0.4-0.9h0.1
		c0,0,0.2,0.3,0.6,0.8s0.9,1.2,1.6,2.1c0.6,0.9,1.3,1.9,2,3s1.4,2.4,2.1,3.6c0.3,0.6,0.7,1.3,1.1,1.8c0.4,0.6,0.8,1.2,1.2,1.7
		c0.4,0.5,0.8,1,1.2,1.5c0.3,0.5,0.6,1,0.9,1.5C123,458.4,123.6,459.7,123.5,459.7L123.5,459.7z"/>
	<path class="st1" d="M139.7,459.7c0,0,1-1,2.8-2.2c0.4-0.3,0.9-0.6,1.4-0.9s1.1-0.6,1.7-0.9c0.6-0.3,1.2-0.6,1.8-1s1.1-0.8,1.7-1.2
		c1.1-0.9,2.3-1.7,3.4-2.4c1.1-0.7,2.1-1.4,3.1-1.9c0.9-0.5,1.7-0.9,2.3-1.2c0.6-0.3,0.9-0.4,0.9-0.4v0.1c0,0-0.3,0.2-0.7,0.6
		c-0.5,0.4-1.2,0.9-2,1.6c-0.8,0.6-1.9,1.3-3,2s-2.3,1.4-3.6,2.1c-0.6,0.3-1.2,0.7-1.8,1.1s-1.1,0.8-1.7,1.2c-0.5,0.4-1,0.8-1.5,1.2
		c-0.5,0.3-1,0.6-1.4,0.9C141.1,459.2,139.8,459.7,139.7,459.7L139.7,459.7z"/>
	<path class="st1" d="M131.7,445.3c0,0,0.6,0.1,1.6,0.3c1,0.2,2.6,0.6,4.5,1.1c1.9,0.5,4.2,1.3,6.8,2.5c2.5,1.1,5.2,3.1,7.1,6.1
		c1.9,3,2.6,6.9,1.9,10.9c-0.3,1.9-0.9,4-1.7,5.9c-0.2,0.5-0.4,1-0.6,1.4c-0.2,0.5-0.5,0.9-0.7,1.4c-0.4,1-1.1,1.8-1.7,2.7
		c-2.4,3.6-5.8,6.6-9.7,8.9s-8.4,3.7-13,3.9c-0.6,0.1-1.1,0-1.7,0s-1.1,0-1.7-0.1c-1.1-0.2-2.3-0.3-3.4-0.6
		c-2.2-0.5-4.3-1.5-6.2-2.6c-1.9-1.1-3.7-2.6-4.9-4.5c-1.2-1.9-1.9-4-2.1-6.2c-0.3-2.1-0.2-4.2-0.2-6.3c0-2.1,0-4-0.1-6
		c0-0.5,0-1,0-1.5c0-0.3,0.1-0.5,0.1-0.8c0-0.2,0.1-0.5,0.2-0.7c0.2-1,0.7-1.8,1.2-2.6c1.1-1.6,2.4-2.8,3.8-3.9
		c2.7-2.1,5.5-3.6,8-4.8c2.5-1.2,4.8-2.1,6.6-2.8C129.4,445.8,131.6,445.3,131.7,445.3L131.7,445.3L131.7,445.3z M131.7,445.3
		c-0.1,0-2.3,0.7-5.8,2.1c-1.8,0.8-4.1,1.7-6.5,2.9c-2.4,1.3-5.2,2.8-7.8,4.9c-1.3,1.1-2.6,2.3-3.6,3.8c-0.4,0.8-0.9,1.5-1.1,2.4
		c-0.1,0.2-0.1,0.4-0.2,0.7c0,0.2-0.1,0.4-0.1,0.7c0,0.4,0,0.9,0,1.4c0.2,3.9-0.3,8.1,0,12.3c0.2,2.1,0.7,4.2,1.9,6
		c1.2,1.8,2.8,3.3,4.8,4.4c3.8,2.3,8.4,3.4,12.9,3s8.9-1.8,12.6-4.1c3.8-2.3,7.1-5.3,9.4-8.8c0.6-0.9,1.2-1.7,1.6-2.7
		c0.2-0.5,0.5-0.9,0.7-1.3c0.2-0.5,0.4-1,0.6-1.4c0.8-1.9,1.3-3.8,1.6-5.7c0.6-3.8,0.1-7.5-1.7-10.3c-1.7-2.8-4.3-4.8-6.7-6
		c-2.5-1.2-4.7-2-6.6-2.6c-1.9-0.6-3.4-1-4.4-1.3C132.3,445.5,131.7,445.4,131.7,445.3"/>
	<path class="st1" d="M78.5,413.1c0,0-0.9,1.3-2.5,3c-0.4,0.4-0.8,0.9-1.3,1.4s-1,0.9-1.6,1.4s-1.1,1-1.6,1.6
		c-0.5,0.5-1,1.1-1.5,1.7c-1,1.2-2,2.4-3,3.4c-1,1.1-2,2-2.8,2.8c-0.8,0.8-1.6,1.4-2.1,1.9c-0.5,0.4-0.8,0.7-0.8,0.7l-0.1-0.1
		c0,0,0.2-0.3,0.7-0.9c0.4-0.5,1-1.3,1.8-2.2c0.8-0.9,1.7-1.9,2.7-2.9s2.1-2.1,3.3-3.2c0.6-0.5,1.2-1,1.7-1.6c0.5-0.5,1-1.1,1.5-1.7
		s0.9-1.1,1.4-1.6s0.9-0.9,1.3-1.4C77.2,413.9,78.5,413,78.5,413.1L78.5,413.1z"/>
	<path class="st1" d="M87.8,413.8c0,0-0.5,0.6-1.3,1.7c-0.8,1-2,2.5-3.5,4.2c-0.7,0.9-1.5,1.8-2.4,2.8s-1.8,1.9-2.8,3
		c-1,1-2,2.1-2.9,3.2c-1,1.1-1.9,2.3-2.9,3.5c-1.9,2.4-3.9,4.7-5.7,6.8c-1.8,2.2-3.6,4.1-5.2,5.8c-1.5,1.7-2.8,3-3.8,4
		c-0.9,0.9-1.5,1.5-1.5,1.5l-0.1-0.1c0,0,0.5-0.6,1.3-1.6s2-2.5,3.5-4.3c1.4-1.7,3.2-3.8,5-5.9c1.9-2.1,3.9-4.4,6-6.5
		c1-1.1,2.1-2.2,3-3.3c1-1.1,1.9-2.2,2.8-3.3c0.9-1.1,1.7-2.2,2.6-3.2c0.8-1,1.7-1.9,2.4-2.7c1.5-1.7,2.8-3,3.7-4
		C87.2,414.3,87.8,413.7,87.8,413.8L87.8,413.8z"/>
	<path class="st1" d="M98.1,413.8c0,0-0.7,0.8-1.9,2.2c-1.2,1.4-2.9,3.3-5,5.6c-1,1.1-2.2,2.4-3.4,3.7c-1.2,1.3-2.6,2.6-3.9,4
		c-1.4,1.4-2.8,2.8-4.2,4.3c-1.4,1.5-2.8,3-4.2,4.6c-2.7,3.1-5.5,6.2-8.2,9c-1.3,1.4-2.6,2.8-3.8,4.1c-1.2,1.3-2.4,2.5-3.5,3.6
		c-2.2,2.2-4,4.1-5.3,5.3c-1.3,1.3-2,2-2,2l-0.1-0.1c0,0,0.7-0.8,1.9-2.2c1.2-1.4,2.9-3.3,5-5.6c1-1.2,2.2-2.4,3.4-3.7
		c1.2-1.3,2.5-2.7,3.8-4.1c2.7-2.8,5.5-5.8,8.5-8.7c1.5-1.5,2.9-3,4.3-4.4c1.4-1.5,2.7-3,4-4.4s2.5-2.9,3.7-4.2
		c1.2-1.3,2.4-2.5,3.4-3.6c2.1-2.3,4-4.1,5.3-5.4C97.2,414.5,98,413.7,98.1,413.8L98.1,413.8z"/>
	<path class="st1" d="M106.2,416.2c0,0-0.8,1-2.3,2.7s-3.5,4.2-6.1,7.1c-1.3,1.5-2.7,3-4.1,4.7c-1.5,1.7-3.1,3.4-4.7,5.1
		c-1.7,1.8-3.3,3.6-5,5.5s-3.4,3.9-5,5.8c-3.4,3.9-6.7,7.9-9.9,11.5c-1.6,1.8-3.2,3.6-4.6,5.2c-1.5,1.7-2.9,3.2-4.2,4.6
		c-2.6,2.9-4.8,5.2-6.4,6.9c-1.6,1.6-2.5,2.6-2.5,2.6l-0.1-0.1c0,0,0.8-1,2.3-2.7s3.5-4.2,6.1-7.1c1.3-1.5,2.6-3.1,4.1-4.7
		c1.5-1.7,3-3.4,4.6-5.2c3.2-3.6,6.7-7.4,10.2-11.2c1.8-1.9,3.5-3.8,5.2-5.7c1.7-1.9,3.3-3.8,4.9-5.7c1.6-1.8,3.1-3.7,4.5-5.3
		c1.5-1.7,2.9-3.2,4.2-4.7c2.6-2.9,4.8-5.2,6.4-6.9C105.2,417.1,106.1,416.1,106.2,416.2L106.2,416.2z"/>
	<path class="st1" d="M119.7,413.1c0,0-1,1.2-2.7,3.3c-0.9,1-1.9,2.3-3.1,3.7c-1.2,1.4-2.6,3-4.1,4.8c-1.5,1.7-3.1,3.6-4.9,5.6
		c-1.7,2-3.7,4-5.6,6.1c-2,2.1-3.9,4.3-6,6.6c-2,2.3-4,4.6-6,6.9c-4,4.7-8,9.3-11.8,13.7c-1.9,2.2-3.8,4.2-5.5,6.2
		c-1.7,2-3.4,3.8-5,5.5c-3.1,3.4-5.7,6.2-7.5,8.2s-2.9,3.1-2.9,3.1l-0.1-0.1c0,0,1-1.2,2.7-3.3c1.7-2.1,4.2-5,7.2-8.5
		c1.5-1.7,3.1-3.6,4.9-5.6c1.7-2,3.6-4.1,5.5-6.2c3.8-4.3,8-8.9,12.1-13.4c2.1-2.3,4.1-4.5,6.2-6.8c2-2.3,4-4.5,5.8-6.7
		c1.9-2.2,3.7-4.3,5.4-6.3c1.7-2,3.4-3.9,4.9-5.6s2.9-3.3,4.2-4.7c1.3-1.4,2.4-2.6,3.3-3.6C118.6,414.1,119.6,413,119.7,413.1
		L119.7,413.1z"/>
	<path class="st1" d="M129.8,413.1c0,0-1.1,1.3-3.1,3.7c-1,1.2-2.2,2.6-3.6,4.2s-3,3.4-4.7,5.4s-3.6,4.1-5.6,6.3
		c-2,2.2-4.1,4.5-6.3,6.9c-2.2,2.4-4.5,4.9-6.7,7.4c-2.3,2.6-4.5,5.2-6.8,7.8c-4.5,5.3-9.1,10.5-13.4,15.4c-2.2,2.4-4.3,4.8-6.2,7
		c-2,2.2-3.9,4.3-5.6,6.2c-3.5,3.9-6.4,7-8.5,9.3c-2.1,2.2-3.3,3.5-3.3,3.5l-0.1-0.1c0,0,1.1-1.3,3.1-3.7c2-2.3,4.8-5.6,8.2-9.5
		c1.7-2,3.6-4.1,5.5-6.3c2-2.2,4.1-4.6,6.2-7c4.3-4.9,9-10,13.7-15.1c2.4-2.6,4.7-5.1,7-7.7s4.5-5.1,6.6-7.6s4.2-4.9,6.1-7.1
		c2-2.3,3.9-4.3,5.6-6.3c1.7-1.9,3.4-3.7,4.8-5.3c1.4-1.6,2.7-2.9,3.7-4C128.5,414.3,129.7,413,129.8,413.1L129.8,413.1z"/>
	<path class="st1" d="M147,413.1c0,0-1.3,1.5-3.7,4.1c-1.2,1.3-2.6,2.8-4.3,4.6c-1.7,1.8-3.5,3.8-5.6,6c-2,2.2-4.3,4.5-6.6,7
		c-2.4,2.5-4.9,5-7.5,7.7s-5.3,5.4-8,8.3c-2.7,2.8-5.4,5.8-8.1,8.7c-5.4,5.8-10.8,11.7-15.9,17.1c-2.6,2.7-5.1,5.3-7.4,7.8
		c-2.4,2.5-4.6,4.8-6.7,6.9c-4.1,4.3-7.6,7.8-10.1,10.3c-2.5,2.5-3.9,3.9-3.9,3.9l-0.1-0.1c0,0,1.3-1.5,3.7-4.1s5.7-6.2,9.8-10.6
		c2-2.2,4.3-4.5,6.6-7c2.4-2.5,4.8-5.1,7.4-7.8c5.2-5.4,10.7-11.1,16.3-16.8c2.8-2.8,5.5-5.7,8.3-8.5c2.7-2.8,5.3-5.7,7.9-8.4
		c2.5-2.7,5-5.4,7.3-7.9s4.6-4.8,6.6-7c2.1-2.1,4-4.1,5.7-5.9c1.7-1.7,3.2-3.2,4.4-4.5C145.5,414.4,146.9,413,147,413.1L147,413.1z"
		/>
	<path class="st1" d="M103.2,471.8c0,0-0.5,0.7-1.5,1.9c-1,1.2-2.4,2.9-4.2,4.9c-0.9,1-1.8,2.1-2.9,3.2c-1,1.1-2.2,2.3-3.3,3.5
		c-1.2,1.2-2.3,2.4-3.5,3.7c-1.2,1.3-2.3,2.6-3.5,4c-2.3,2.7-4.6,5.4-6.8,7.9c-1.1,1.2-2.2,2.4-3.2,3.5s-2,2.2-2.9,3.1
		c-1.8,1.9-3.4,3.5-4.4,4.6c-1.1,1.1-1.7,1.7-1.7,1.7l-0.1-0.1c0,0,0.6-0.7,1.5-1.9c1-1.2,2.4-2.9,4.1-4.9c0.9-1,1.8-2.1,2.8-3.2
		s2.1-2.3,3.2-3.6c2.2-2.4,4.6-5,7.1-7.6c1.2-1.3,2.4-2.6,3.6-3.9s2.3-2.6,3.3-3.9c1.1-1.3,2.1-2.5,3.1-3.6s2-2.2,2.9-3.2
		c1.8-2,3.3-3.5,4.4-4.6C102.5,472.3,103.1,471.7,103.2,471.8L103.2,471.8z"/>
	<path class="st1" d="M104.7,480.8c0,0-0.6,0.8-1.6,2c-1,1.3-2.5,3.1-4.3,5.3c-0.9,1.1-1.9,2.3-3,3.5s-2.2,2.5-3.4,3.8
		c-1.2,1.3-2.4,2.7-3.6,4.1s-2.4,2.9-3.6,4.3c-2.4,2.9-4.8,5.8-7.1,8.5c-1.1,1.4-2.3,2.6-3.3,3.8c-1.1,1.2-2.1,2.4-3,3.4
		c-1.9,2.1-3.5,3.8-4.6,5s-1.8,1.9-1.8,1.9l-0.1-0.1c0,0,0.6-0.7,1.6-2s2.5-3.1,4.3-5.3c0.9-1.1,1.9-2.3,2.9-3.5
		c1.1-1.2,2.1-2.5,3.3-3.9c2.3-2.6,4.8-5.5,7.4-8.2c1.3-1.4,2.5-2.8,3.7-4.2c1.2-1.4,2.4-2.8,3.5-4.2c1.1-1.4,2.2-2.7,3.2-3.9
		c1-1.2,2.1-2.4,3-3.4c1.9-2.1,3.5-3.8,4.6-5.1C103.9,481.5,104.6,480.8,104.7,480.8L104.7,480.8z"/>
	<path class="st1" d="M113.3,491.6c0,0-0.6,0.9-1.8,2.4c-1.1,1.5-2.8,3.6-4.8,6.1c-1,1.3-2.1,2.6-3.3,4c-1.2,1.4-2.5,2.9-3.8,4.4
		s-2.7,3.1-4,4.7c-1.3,1.6-2.7,3.3-4,5c-2.6,3.4-5.3,6.7-7.8,9.9c-1.3,1.6-2.5,3.1-3.7,4.5s-2.3,2.8-3.3,4c-2.1,2.5-3.8,4.5-5.1,5.9
		c-1.2,1.4-2,2.2-2,2.2l-0.1-0.1c0,0,0.6-0.9,1.8-2.4c1.1-1.5,2.8-3.6,4.8-6.1c1-1.3,2.1-2.6,3.2-4.1c1.2-1.4,2.4-3,3.7-4.5
		c2.6-3.1,5.3-6.4,8.1-9.6c1.4-1.6,2.8-3.3,4.1-4.9c1.3-1.6,2.6-3.3,3.8-4.9c1.2-1.6,2.4-3.1,3.6-4.6c1.1-1.4,2.3-2.8,3.3-4
		c2-2.5,3.8-4.5,5-5.9C112.5,492.3,113.2,491.5,113.3,491.6L113.3,491.6z"/>
	<path class="st1" d="M120.9,498.8c0,0-0.5,0.8-1.5,2.1c-1,1.3-2.3,3.2-4,5.5c-0.8,1.1-1.8,2.3-2.8,3.6c-1,1.3-2.1,2.6-3.2,3.9
		c-1.1,1.3-2.3,2.8-3.4,4.2c-1.1,1.5-2.2,3-3.3,4.5c-2.2,3.1-4.4,6-6.6,8.8c-1.1,1.4-2.1,2.7-3.1,4s-1.9,2.5-2.8,3.6
		c-1.8,2.2-3.3,4-4.3,5.3c-1.1,1.2-1.7,2-1.7,2l-0.1-0.1c0,0,0.5-0.8,1.5-2.1s2.3-3.2,4-5.5c0.8-1.1,1.7-2.4,2.7-3.6
		c1-1.3,2-2.6,3.1-4c2.2-2.8,4.5-5.7,6.9-8.6c1.2-1.4,2.4-2.9,3.5-4.4s2.2-2.9,3.2-4.3c1-1.4,2-2.8,3-4.1c1-1.3,1.9-2.5,2.8-3.6
		c1.7-2.2,3.2-4,4.3-5.3C120.2,499.4,120.8,498.7,120.9,498.8L120.9,498.8z"/>
	<path class="st1" d="M202.3,413.8c0,0-1.8,2.2-4.8,6.1c-1.6,1.9-3.4,4.3-5.6,7c-2.2,2.7-4.6,5.7-7.3,9s-5.6,6.9-8.7,10.6
		c-3.1,3.8-6.4,7.7-9.8,11.8c-3.4,4.1-6.9,8.3-10.5,12.6c-3.5,4.3-7.1,8.8-10.7,13.2c-7.1,8.9-14.3,17.7-21,25.9
		c-3.4,4.1-6.6,8.1-9.7,11.9c-3.1,3.8-6,7.3-8.8,10.6c-5.5,6.5-10,12-13.2,15.8s-5,6-5,6l-0.1-0.1c0,0,1.8-2.2,4.9-6.1
		c3.1-3.9,7.6-9.4,12.9-16c2.7-3.3,5.6-6.9,8.7-10.7s6.4-7.8,9.7-11.9c6.8-8.2,14-17,21.3-25.7c3.6-4.4,7.2-8.7,10.8-13
		c3.5-4.3,7-8.6,10.3-12.8c3.3-4.1,6.5-8.2,9.6-12s6-7.3,8.7-10.6c2.7-3.3,5.2-6.3,7.4-8.9c2.2-2.7,4.2-5,5.8-6.9
		C200.4,415.9,202.2,413.7,202.3,413.8L202.3,413.8z"/>
	<path class="st1" d="M212.5,412.3c0,0-0.6,0.8-1.5,2.2c-1,1.4-2.4,3.4-4.2,5.8c-0.9,1.2-1.8,2.5-2.9,3.8c-1,1.3-2.2,2.7-3.3,4.1
		c-1.2,1.4-2.3,2.9-3.5,4.4s-2.3,3.1-3.5,4.7c-2.3,3.2-4.6,6.3-6.8,9.3c-1.1,1.5-2.2,2.9-3.2,4.2c-1,1.3-2,2.6-2.9,3.7
		c-1.8,2.3-3.4,4.2-4.5,5.5s-1.7,2.1-1.7,2.1l-0.1-0.1c0,0,0.6-0.8,1.5-2.2c1-1.4,2.4-3.4,4.2-5.8c0.9-1.2,1.8-2.5,2.8-3.8
		s2.1-2.8,3.2-4.2c2.3-2.9,4.7-6,7.2-9c1.2-1.5,2.5-3.1,3.6-4.6c1.2-1.5,2.3-3.1,3.4-4.6c1.1-1.5,2.1-3,3.1-4.3c1-1.4,2-2.6,2.9-3.8
		c1.8-2.3,3.4-4.2,4.5-5.5C211.8,413,212.4,412.2,212.5,412.3L212.5,412.3z"/>
	<path class="st1" d="M165.6,471.8c0,0-0.6,1.2-1.8,2.8c-0.3,0.4-0.6,0.8-1,1.3c-0.4,0.4-0.8,0.9-1.2,1.3s-0.9,0.9-1.3,1.4
		c-0.4,0.5-0.8,1.1-1.2,1.6c-0.7,1.1-1.5,2.2-2.3,3.2c-0.7,1-1.5,1.9-2.2,2.6c-0.7,0.8-1.2,1.3-1.7,1.8c-0.4,0.4-0.7,0.6-0.7,0.6
		l-0.1-0.1c0,0,0.2-0.3,0.5-0.8s0.8-1.2,1.3-2c0.6-0.8,1.3-1.8,2.1-2.7c0.8-1,1.7-2,2.6-2.9c0.5-0.5,0.9-1,1.3-1.5
		c0.4-0.5,0.8-1,1.1-1.6c0.3-0.5,0.7-1,1-1.5s0.7-0.9,1-1.3C164.5,472.6,165.6,471.7,165.6,471.8L165.6,471.8z"/>
	<path class="st1" d="M127.5,518.2c0,0-0.5,0.8-1.3,2.1s-2,3.3-3.5,5.5c-0.7,1.1-1.5,2.4-2.4,3.6c-0.9,1.3-1.9,2.6-2.9,4
		s-2,2.8-3,4.3s-2,3-2.9,4.5c-1.9,3.1-3.9,6.1-5.8,8.9c-0.9,1.4-1.9,2.8-2.7,4c-0.9,1.3-1.7,2.5-2.5,3.6c-1.6,2.2-2.9,4-3.8,5.3
		c-1,1.3-1.5,2-1.5,2h-0.1c0,0,0.5-0.8,1.3-2.1s2-3.3,3.5-5.5c0.7-1.1,1.5-2.4,2.4-3.7s1.8-2.7,2.7-4c1.9-2.8,4-5.8,6.1-8.7
		c1.1-1.5,2.1-2.9,3.1-4.4s2-2.9,2.8-4.4c0.9-1.4,1.8-2.8,2.6-4.1c0.8-1.3,1.7-2.5,2.5-3.6c1.5-2.2,2.9-4.1,3.8-5.3
		C126.9,518.8,127.4,518.1,127.5,518.2L127.5,518.2z"/>
	<path class="st1" d="M220.3,416.2c0,0-1.6,2.3-4.4,6.4c-1.4,2-3.1,4.5-5,7.3c-2,2.8-4.2,6-6.6,9.5c-2.4,3.5-5,7.2-7.9,11.2
		c-2.8,4-5.8,8.1-8.9,12.4c-1.5,2.2-3.2,4.2-4.9,6.4c-1.6,2.2-3.3,4.4-5,6.6c-3.4,4.4-6.8,8.9-10.2,13.4c-6.8,9-13.7,17.9-20.2,26.2
		c-3.3,4.1-6.3,8.3-9.2,12.1c-2.9,3.9-5.7,7.5-8.2,10.9c-5.1,6.7-9.3,12.4-12.2,16.4c-1.5,2-2.6,3.5-3.4,4.6c-0.4,0.5-0.7,1-0.8,1.3
		c-0.2,0.3-0.2,0.4-0.2,0.4h-0.1c0,0,0-0.2,0.2-0.5s0.4-0.7,0.8-1.3c0.7-1.1,1.8-2.7,3.2-4.7c2.8-4.1,6.9-9.8,11.9-16.6
		c2.5-3.4,5.2-7.1,8.1-11c1.4-1.9,2.9-3.9,4.4-6c0.8-1,1.5-2,2.3-3.1c0.8-1,1.6-2.1,2.4-3.1c6.5-8.3,13.5-17.1,20.5-26
		c3.5-4.4,6.9-8.9,10.4-13.2c1.7-2.2,3.3-4.4,5-6.6c1.6-2.2,3.3-4.3,4.7-6.5c3-4.3,5.9-8.6,8.7-12.5c2.8-4,5.4-7.7,7.9-11.1
		s4.7-6.6,6.7-9.4s3.8-5.2,5.2-7.2C218.6,418.4,220.2,416.1,220.3,416.2L220.3,416.2z"/>
	<path class="st1" d="M226.6,418c0,0-0.4,0.7-1.1,2c-0.7,1.3-1.7,3.1-3,5.2c-0.6,1.1-1.3,2.2-2.1,3.4c-0.8,1.2-1.6,2.4-2.5,3.7
		c-0.9,1.3-1.8,2.6-2.6,4c-0.9,1.4-1.7,2.8-2.6,4.2c-1.7,2.9-3.4,5.7-5.1,8.3c-1.7,2.6-3.3,5-4.7,7s-2.7,3.7-3.6,4.8
		c-0.5,0.6-0.8,1-1.1,1.3s-0.5,0.4-0.5,0.4v-0.1c0,0,0,0,0.1-0.1s0.2-0.2,0.3-0.3c0.2-0.3,0.6-0.8,1-1.4c0.8-1.2,1.9-2.9,3.2-5
		s2.9-4.5,4.6-7.1c1.7-2.6,3.5-5.3,5.4-8c0.9-1.4,1.8-2.7,2.7-4.1s1.7-2.7,2.5-4.1c0.8-1.3,1.5-2.6,2.3-3.8c0.7-1.2,1.5-2.3,2.1-3.4
		c1.3-2.1,2.5-3.8,3.3-5C226,418.6,226.5,417.9,226.6,418L226.6,418z"/>
	<path class="st1" d="M69.9,340.5c0,0,1.4,0.9,3.9,2.6c1.2,0.8,2.7,1.8,4.4,3c1.7,1.2,3.6,2.5,5.7,3.9s4.4,3,6.7,4.7
		c2.4,1.7,4.8,3.5,7.4,5.4s5.2,3.8,8,5.7c2.7,1.9,5.5,3.8,8.3,5.8c5.6,3.8,11.2,7.7,16.4,11.3c2.6,1.8,5.1,3.6,7.5,5.3
		c2.4,1.7,4.6,3.3,6.7,4.8c4.1,3,7.6,5.5,10,7.2s3.7,2.7,3.7,2.7v0.1c0,0-0.4-0.2-1.1-0.7c-0.7-0.4-1.6-1.1-2.9-1.9
		c-2.5-1.6-6-4-10.2-6.9c-2.1-1.4-4.4-3-6.8-4.7c-2.4-1.7-4.9-3.4-7.5-5.3c-2.6-1.8-5.3-3.8-8-5.7c-2.7-2-5.5-4-8.2-5.9
		c-2.7-2-5.5-4-8.2-5.9s-5.4-3.8-8.1-5.6c-2.6-1.8-5.2-3.5-7.6-5.2s-4.6-3.3-6.7-4.7c-2.1-1.5-4-2.9-5.6-4.1
		c-1.7-1.2-3.1-2.3-4.3-3.2C71.2,341.5,69.8,340.5,69.9,340.5L69.9,340.5z"/>
	<path class="st1" d="M99,309.2c0,0,0.9,1.6,2.4,4.3c0.8,1.4,1.7,3.1,2.7,5s2.2,4.1,3.5,6.5s2.7,4.9,4.1,7.7
		c1.5,2.7,2.9,5.6,4.5,8.6c1.5,3,3.2,6.1,4.8,9.2c1.7,3.1,3.4,6.2,5.2,9.4c3.6,6.2,7.1,12.5,10.5,18.3c1.7,2.9,3.3,5.7,4.9,8.4
		c1.6,2.7,3.1,5.2,4.4,7.5c2.8,4.6,5.2,8.4,7.1,10.9c0.9,1.3,1.7,2.2,2.4,2.8c0.3,0.3,0.6,0.4,0.8,0.5s0.3,0.1,0.3,0.1v0.1
		c0,0-0.1,0-0.3-0.1s-0.5-0.3-0.8-0.5c-0.7-0.5-1.5-1.4-2.5-2.7c-2-2.5-4.6-6.2-7.4-10.7c-1.4-2.3-3-4.8-4.6-7.4
		c-1.6-2.7-3.2-5.5-4.9-8.4c-3.3-5.9-6.8-12.2-10.1-18.5c-1.7-3.2-3.4-6.3-5.1-9.5c-1.7-3.1-3.4-6.2-5-9.1s-3.2-5.8-4.7-8.5
		s-2.8-5.3-4.1-7.7c-1.2-2.4-2.4-4.6-3.4-6.5c-1-2-1.8-3.7-2.5-5.1C99.7,310.9,99,309.3,99,309.2L99,309.2z"/>
	<path class="st1" d="M88.2,104.4c0,0-0.1,1.9-0.4,5.3c-0.1,1.7-0.3,3.8-0.5,6.1c-0.2,2.4-0.4,5-0.7,8c-0.3,2.9-0.5,6.1-0.9,9.4
		c-0.3,3.3-0.7,6.8-1.1,10.5c-0.4,3.6-0.8,7.4-1.1,11.2c-0.3,3.8-0.7,7.7-0.9,11.6c-0.6,7.8-1.2,15.6-1.8,22.8
		c-0.6,7.3-1.2,14.1-1.6,19.9c-0.2,2.9-0.4,5.6-0.6,8s-0.3,4.4-0.4,6.1c-0.1,0.9-0.1,1.6-0.1,2.3s0,1.2,0,1.7c0,0.9,0,1.4,0,1.4H78
		c0,0,0-0.5-0.1-1.4c0-0.5-0.1-1-0.1-1.7s0-1.4,0-2.3c0-1.7,0.1-3.8,0.2-6.2s0.3-5.1,0.4-8c0.2-2.9,0.4-6.1,0.6-9.4
		c0.3-3.3,0.5-6.9,0.8-10.5c0.6-7.3,1.4-15,2.2-22.8c0.4-3.9,0.8-7.8,1.1-11.6c0.3-3.8,0.7-7.6,0.9-11.2c0.3-3.6,0.5-7.2,0.8-10.5
		s0.6-6.5,0.9-9.4s0.6-5.6,0.8-7.9c0.3-2.4,0.5-4.4,0.7-6.1C87.8,106.4,88.1,104.4,88.2,104.4L88.2,104.4z"/>
	<path class="st1" d="M88.1,153.6c0,0,0.4-0.3,1.2-0.7c0.8-0.4,1.9-1.1,3.3-1.8c0.7-0.3,1.4-0.7,2.2-1.1c0.8-0.4,1.7-0.7,2.6-1.1
		c0.9-0.4,1.8-0.8,2.7-1.2c0.9-0.5,1.8-1,2.7-1.5c1.8-1.1,3.6-2,5.3-3c1.7-0.9,3.3-1.8,4.6-2.5c1.4-0.7,2.5-1.3,3.2-1.8
		c0.4-0.2,0.7-0.4,0.8-0.6c0.2-0.2,0.2-0.3,0.2-0.3h0.1c0,0,0,0.2-0.2,0.4s-0.4,0.5-0.8,0.8c-0.7,0.6-1.8,1.4-3.1,2.2
		c-1.3,0.8-2.9,1.7-4.6,2.6c-1.7,0.9-3.6,1.8-5.5,2.6c-0.9,0.4-1.9,0.9-2.8,1.3c-0.9,0.4-1.8,0.9-2.6,1.4c-0.8,0.5-1.6,1-2.4,1.4
		s-1.5,0.8-2.2,1.1c-1.4,0.6-2.6,1.1-3.4,1.5C88.6,153.6,88.1,153.7,88.1,153.6L88.1,153.6z"/>
	<path class="st1" d="M88.1,145.8c0,0,0.3-0.3,1-0.8c0.6-0.5,1.5-1.2,2.6-2c0.6-0.4,1.2-0.8,1.8-1.2c0.7-0.4,1.4-0.8,2.1-1.3
		c0.7-0.4,1.5-0.9,2.2-1.4s1.5-1,2.2-1.6c1.4-1.1,2.9-2.2,4.3-3.1c1.4-1,2.7-1.8,3.9-2.5c1.2-0.7,2.1-1.3,2.8-1.7
		c0.7-0.4,1.1-0.6,1.1-0.6v0.1c0,0-0.3,0.3-1,0.8c-0.6,0.5-1.5,1.2-2.6,2s-2.4,1.7-3.8,2.7c-1.4,0.9-2.9,1.9-4.5,2.8
		c-0.8,0.5-1.6,0.9-2.3,1.4c-0.7,0.5-1.4,1-2.1,1.5s-1.3,1-1.9,1.5s-1.3,0.8-1.8,1.2c-1.1,0.7-2.1,1.3-2.8,1.7
		C88.5,145.7,88.1,145.9,88.1,145.8L88.1,145.8z"/>
	<path class="st1" d="M88.1,135c0,0,1-0.9,2.6-1.9c0.4-0.2,0.8-0.5,1.3-0.8s1-0.5,1.5-0.7s1.1-0.5,1.6-0.8s1.1-0.7,1.6-1
		c1-0.8,2.1-1.4,3.1-2.1c1-0.6,2-1.2,2.8-1.6s1.6-0.8,2.1-1s0.8-0.3,0.8-0.3v0.1c0,0-0.2,0.2-0.7,0.5c-0.4,0.3-1.1,0.8-1.9,1.3
		s-1.7,1.1-2.8,1.7c-1,0.6-2.1,1.2-3.3,1.7c-0.6,0.3-1.1,0.5-1.7,0.9c-0.5,0.3-1,0.7-1.5,1s-0.9,0.7-1.4,1s-0.9,0.5-1.3,0.8
		C89.3,134.7,88.1,135.1,88.1,135L88.1,135z"/>
	<path class="st1" d="M88.1,124.8c0,0,0.9-0.9,2.5-2.1c0.4-0.3,0.8-0.6,1.3-0.9s1-0.6,1.5-0.9s1.1-0.6,1.6-1s1-0.8,1.6-1.2
		c0.5-0.4,1-0.8,1.5-1.2c0.5-0.4,1-0.7,1.5-1.1c1-0.7,2-1.3,2.8-1.8s1.6-0.9,2.1-1.1s0.8-0.4,0.8-0.4v0.1c0,0-0.2,0.2-0.7,0.6
		c-0.4,0.4-1.1,0.9-1.9,1.4c-0.8,0.6-1.7,1.2-2.8,1.9c-1,0.6-2.2,1.3-3.3,1.9c-0.6,0.3-1.1,0.6-1.7,1c-0.5,0.4-1,0.7-1.5,1.1
		s-0.9,0.8-1.4,1.1c-0.5,0.3-0.9,0.6-1.3,0.9C89.4,124.4,88.1,124.9,88.1,124.8L88.1,124.8z"/>
	<path class="st1" d="M77.8,181.9c0,0,0.7-0.6,1.9-1.5c1.2-0.9,3-2.3,5.2-3.8c1.1-0.8,2.3-1.6,3.5-2.5c1.3-0.9,2.6-1.7,4-2.6
		c1.4-0.9,2.8-1.9,4.3-2.9c1.4-1,2.9-2,4.3-3.1c2.9-2.1,5.8-4.2,8.5-6.1c1.4-1,2.7-1.9,4-2.7c1.3-0.9,2.5-1.7,3.6-2.4
		c2.2-1.5,4.1-2.7,5.4-3.5s2.1-1.3,2.1-1.3v0.1c0,0-0.7,0.5-1.9,1.5c-1.2,0.9-3,2.3-5.2,3.8c-1.1,0.8-2.3,1.6-3.5,2.5
		c-1.3,0.9-2.6,1.8-4,2.7c-2.8,1.9-5.7,3.9-8.7,5.8c-1.5,1-3,2-4.4,2.9c-1.4,1-2.8,2-4.2,3c-1.3,1-2.6,2-3.9,2.9
		c-1.2,0.9-2.4,1.7-3.6,2.4c-2.2,1.5-4.1,2.7-5.4,3.5C78.6,181.5,77.8,182,77.8,181.9L77.8,181.9z"/>
	<path class="st1" d="M96.9,149.4c0,0-0.1,0.8-0.3,2.1c-0.2,1.3-0.5,3.2-0.9,5.5c-0.2,1.1-0.4,2.4-0.7,3.6c-0.2,1.3-0.6,2.6-0.9,4
		s-0.6,2.8-0.9,4.3s-0.5,3-0.7,4.5s-0.4,3-0.7,4.5c-0.2,1.5-0.5,2.9-0.7,4.4c-0.5,2.8-1,5.4-1.4,7.7c-0.4,2.2-0.9,4.1-1.1,5.4
		c-0.2,1.3-0.4,2.1-0.4,2.1h-0.1c0,0,0.1-0.8,0.1-2.1c0.1-1.4,0.4-3.2,0.7-5.5c0.6-4.5,1.8-10.6,3.1-16.5c0.3-1.5,0.7-3,0.9-4.5
		c0.3-1.5,0.5-2.9,0.7-4.4c0.2-1.4,0.4-2.8,0.6-4.1s0.5-2.5,0.7-3.6c0.4-2.2,0.9-4.1,1.2-5.4C96.6,150.2,96.8,149.4,96.9,149.4
		L96.9,149.4z"/>
	<path class="st1" d="M105.5,189.1c0,0,0.5-0.4,1.4-1s2.1-1.5,3.6-2.5c0.8-0.5,1.6-1.1,2.5-1.6c0.9-0.6,1.8-1.1,2.8-1.7
		c2-1.1,4-2.5,5.9-4s3.8-3,5.6-4.4c1.8-1.4,3.4-2.7,4.8-3.9c0.7-0.6,1.3-1.2,1.8-1.7s1-1,1.3-1.4s0.6-0.7,0.7-1
		c0.2-0.2,0.3-0.4,0.3-0.4h0.1c0,0-0.1,0.1-0.2,0.4c-0.1,0.3-0.3,0.6-0.6,1.1c-0.6,0.9-1.6,2.1-2.9,3.4c-1.3,1.3-2.9,2.7-4.7,4.1
		c-1.8,1.4-3.8,2.8-5.9,4.1c-1,0.7-2,1.3-3,2s-1.9,1.4-2.9,2c-0.9,0.7-1.8,1.3-2.7,1.9c-0.9,0.6-1.7,1.1-2.5,1.6s-1.5,0.9-2.1,1.3
		c-0.6,0.4-1.2,0.7-1.7,0.9C106.1,188.9,105.6,189.2,105.5,189.1L105.5,189.1z"/>
	<path class="st1" d="M96.2,177.4c0,0,0.5-0.3,1.3-0.9c0.8-0.6,2-1.4,3.5-2.3c0.7-0.5,1.5-0.9,2.4-1.4s1.8-0.9,2.8-1.5
		c1-0.5,1.9-1,2.9-1.6s1.9-1.2,2.9-1.8s1.9-1.3,2.9-1.9c1-0.6,1.9-1.2,2.8-1.8c1.8-1.1,3.6-2.2,5.1-3c0.7-0.4,1.4-0.8,2-1.2
		c0.6-0.3,1.1-0.7,1.6-0.9c0.9-0.5,1.4-0.8,1.4-0.8l0.1,0.1c0,0-0.4,0.4-1.2,1c-0.4,0.3-0.9,0.7-1.5,1.1c-0.6,0.4-1.2,0.9-1.9,1.3
		c-1.4,1-3.1,2.1-5,3.1c-1.9,1.1-3.9,2.2-5.9,3.3c-1,0.5-2,1.1-3,1.7s-1.9,1.2-2.8,1.8s-1.8,1.2-2.6,1.7c-0.8,0.5-1.7,1-2.4,1.4
		c-1.5,0.9-2.8,1.5-3.7,2C96.8,177.2,96.2,177.4,96.2,177.4L96.2,177.4z"/>
	<path class="st1" d="M263.5,124.8c0,0,0.6,0.5,1.1,1.4c0.1,0.2,0.3,0.5,0.4,0.8c0.1,0.3,0.2,0.6,0.3,0.9c0.1,0.3,0.2,0.7,0.4,1
		c0.2,0.3,0.4,0.6,0.6,0.9c0.2,0.3,0.4,0.6,0.6,0.9c0.2,0.3,0.4,0.6,0.5,0.9c0.3,0.6,0.6,1.2,0.8,1.7c0.4,1,0.5,1.8,0.5,1.8h-0.1
		c0,0-0.5-0.5-1.1-1.4c-0.3-0.5-0.6-1-0.9-1.6c-0.1-0.3-0.3-0.6-0.4-1c-0.1-0.3-0.3-0.7-0.4-1c-0.1-0.3-0.2-0.7-0.4-1
		c-0.2-0.3-0.4-0.6-0.6-0.9c-0.2-0.3-0.4-0.5-0.6-0.8s-0.3-0.5-0.4-0.8C263.6,125.6,263.5,124.9,263.5,124.8L263.5,124.8z"/>
	<path class="st1" d="M268.9,141.1c0,0,0.5,0.7,1.3,2s1.9,3.1,3.1,5.4c0.6,1.1,1.3,2.3,2,3.6s1.4,2.7,2.1,4.1
		c0.7,1.4,1.5,2.9,2.3,4.4s1.7,3,2.6,4.4c1.8,2.9,3.4,5.9,5,8.7s3,5.4,4.2,7.7s2.2,4.2,2.8,5.5c0.7,1.4,1,2.1,1,2.1h-0.1
		c0,0-0.5-0.7-1.2-2c-0.8-1.3-1.9-3.1-3.2-5.3c-1.3-2.2-2.8-4.8-4.3-7.7c-1.5-2.8-3.1-5.9-4.7-8.9c-0.8-1.5-1.6-3-2.4-4.5
		s-1.6-2.9-2.5-4.3c-0.8-1.4-1.6-2.7-2.4-4c-0.7-1.3-1.4-2.5-2-3.6c-1.2-2.3-2.2-4.2-2.8-5.5C269.2,141.9,268.9,141.1,268.9,141.1
		L268.9,141.1z"/>
	<path class="st1" d="M169.5,29.6c-2.5,1.3-5,2.7-7.5,4.2s-4.9,3-7.3,4.6c-4.8,3.2-9.4,6.6-13.8,10.3c-2.2,1.9-4.3,3.8-6.3,5.8
		s-4,4.1-5.8,6.3c-1.9,2.2-3.5,4.5-5.1,6.9c-1.5,2.4-2.9,4.9-4,7.6c-0.3,0.7-0.5,1.3-0.7,2s-0.5,1.3-0.6,2l-0.5,2.1l-0.4,2.1
		c-0.2,0.7-0.2,1.4-0.2,2.1s-0.1,1.4-0.1,2.1V92c0,2.9-0.1,5.7,0.1,8.6l0.3,8.6c0.2,2.9,0.4,5.7,0.6,8.6s0.6,5.7,0.9,8.6
		c0.3,2.8,0.7,5.7,1.1,8.5l0.7,4.2c0.3,1.4,0.5,2.8,0.8,4.2l0.1,0.3l-0.3,0.2l-12.6,7.5c-4.1,2.5-8.3,4.9-12.5,7.4L83.9,166
		c-4.2,2.5-8.4,4.9-12.6,7.3v-0.1c4.1-2.5,8.2-5.1,12.4-7.6l12.4-7.5c4.1-2.5,8.3-5,12.4-7.5l12.5-7.5l-0.2,0.5
		c-0.3-1.4-0.5-2.8-0.8-4.3l-0.7-4.3c-0.4-2.9-0.8-5.7-1.1-8.6c-0.3-2.9-0.6-5.7-0.8-8.6c-0.2-2.9-0.4-5.7-0.5-8.6l-0.2-8.6
		c-0.1-2.9,0-5.7,0-8.6v-4.3c0-0.7,0.1-1.4,0.1-2.2c0.1-0.7,0.1-1.4,0.2-2.1l0.3-2.1l0.5-2.1c0.2-0.7,0.4-1.4,0.6-2.1s0.4-1.4,0.7-2
		c1.1-2.7,2.4-5.3,3.9-7.7c1.5-2.4,3.2-4.8,5-7c1.8-2.3,3.8-4.3,5.8-6.4c2-2,4.2-4,6.4-5.8c4.4-3.7,9.1-7.1,13.9-10.2
		C159.3,34.9,164.3,32,169.5,29.6L169.5,29.6z"/>
	<path class="st4" d="M191.4,320.2c0,0,11.2,34.5,19,35.8 M196.3,335.7c0,0,4.2,22.8,10.2,29.4 M193.6,357.3c0,0-2.1,21.7,5.6,28
		 M172.9,312.9c0,0,16.4,25.8,18.5,30.3s2.1,4.7,3.6,10s4.4,28.1,9.5,34.9c5.2,6.8,6.4,13.4,9.7,10.3 M201.2,361.2
		c0,0-2.7,33.5,3.4,41.7c6.1,8.2,14.2,6.9,17.8,5.4s6-3.3,6.9-10.1 M211.5,376.2c0,0-3.9,13.2,2.7,22.1c6.6,8.9,7.5,10.4,13.2,4.7
		c5.7-5.7,6.9-11.7,6.9-11.7 M216,381.9c0,0,2.4,9.3,6.6,8.1c4.2-1.2,7.8-9,8.7-10.8 M212.4,331.8c0,0-2.1,33.9,0,39.9
		s3.3,10.2,6,10.2s6.9,0,10.8-4.8 M204.6,297.5c0,0-12.8-3.3-7.6,8.4c5.3,11.7,5.9,10.5,11,16.5s6,7.5,6.3,13.2s-0.6,9.5,2.1,13.5
		c2.7,4,3.9,7,3.9,7 M207.9,297.5c0,0-10.2,8.1-5.5,16.8 M205.5,271.4c0,0-23.1,10.8-24,21.3s6,26.1,12,31.2s16.8,14,16.2,25.2
		s0,19.9,0,19.9 M227.5,274.7c0,0-20.1-20.9-34.1-9.7c-14,11.2-22.7,17.8-22.4,22 M172.2,318c0,0,1.6,58.9,0,66.3 M197,393.6
		L181.5,406 M195,388.2l-11.1,8.1 M189.2,381.9l-5.4,13.3 M195,377.1l-13.5,11.1 M195,370.5l-15.6,11.4 M191.4,365.1l-7.6,10.8
		 M192.6,358.8l-13.2,11.3 M163.5,301.1c0,0-20.5-14.4-21.9-1.5 M174.9,309.3c0,0-17,12.3-9.7,26.4 M176.7,395.2c0,0-18.3-7-20.1-28
		s-2.3-32.7-2.3-32.7 M174.9,395.2c0,0-27.8-57.7-22.2-66.1 M167,381.9c-3.4-4.5-16.8-52.3-20-55.6c-3.2-3.3-5.4-6.9-5.4-17.1
		s20.8-14.7,20.8-14.7 M153.4,320.1c0,0-5.7-6-4.3,2.7s3.9,29.1,7.5,38.4 M134.2,309.3c0,0-7.2,7.8-2.8,10.2
		c4.4,2.4,8.8,2.4,11.6,9.9s4.8,34.4,7.3,40.8c2.4,6.4,8.7,20.8,9.9,22 M156.6,279.5c0,0-23.9,6-23.7,20.1s-1.3,15.9-1.3,15.9
		 M125.8,309.3c0,0,9.4,30.9,12.1,36.6s4.7,20.4,5.1,25.8c0.4,5.4,5.1,23.8,7.3,25.4 M158.9,279.5c0,0-31.2-3.9-33,11.4
		s0.3,21.9,1.8,24.3c1.5,2.4,5.9,12.3,10.3,20.7c4.4,8.4,8.5,6.3,9.5,13.8s2.8,18.3,5.2,26.7c2.4,8.4,1.5,26.6,3.9,28.2
		s-8.4,14.2,3.3,14.5s16.2-7.5,19.5-10.8 M123.5,271.4c0,0-3.1-11.4,0.6-8.1s17.5,18.6,16.4,23.7 M120.4,283.7
		c0,0-14.9-22.2-10.1-23.4c4.8-1.2,17.4,19.2,17.4,19.2 M192.6,258.7L174.9,291 M183.9,259.1l-9,17.7 M171,274.7l7.9-12.6
		 M164.7,274.7l10.2-16.1 M162.3,270.1l4.7-6.8 M152.7,276.8l12.5-13.5 M158.3,262.1l-7,9.3 M143.3,274.7l9.4-12.6 M151.3,260.3
		l-10.8,9 M143,258.7l-10.1,12.8 M138,258.1l-7.7,11.2 M130.3,257.6l-2.6,9 M124.8,252.8l-7.8,10.6 M122,248.6l-6.9,10.5
		 M116.9,245.6l-8.3,10.8 M115.8,238.2l-9.5,12.8 M112.1,233.9l-7,11.7 M110.3,228.8l-9.6,15 M112.1,223.4l-9.6,9 M110.3,214.9
		l-9.1,12.9 M109.1,209.2l-5.6,5.7 M109.1,204.7l-5.7,2.4 M107.1,199l-3.7,5.7 M107.1,192.7l-5,4.8 M105.2,187.8l-6.2,4.9
		 M103.5,183.7l-4.5,5.4 M96.9,177c0,0,3,10.6,3.3,16.3s4.3,17.7,3.6,19.8c-0.6,2.1,0.3,6.3-1.2,10.2s1.2,6.9,0,9s-0.4-2.4-1.2,4.8
		c-0.9,7.2-0.6,10.8,0,13.8s6.7,9,7.3,9.6c0.6,0.6-0.9,3.9,0,6s3.3,4.8,6.6,6.9c3.3,2.1,20.1,2.7,21.2,3c1.1,0.3,15,3,15,3
		 M101.3,178.9c0,0,7.3,15.3,8.8,23.4c1.5,8.1,4.1,14.7,4.3,19.2c0.2,4.5-0.7,7.2,0.8,11.1c1.5,3.9,5.1,12.3,5.3,12.9
		c0.1,0.6,3.8,6.6,4.4,7.2c0.6,0.6,2.5,2.4,5,3.6c2.5,1.2,13.3,2.4,15.7,2.4s17.8,3.9,19.7,4.5s7.3-1.5,11.8-4.8
		c4.5-3.3,13.7-5.4,15.9-5.1c2.2,0.3,4.1,1.2,4.1,1.2 M127.8,247.4l5.1,7.2 M124.8,237.2l15.8,20.4 M118.7,220.1l28.3,36.3
		 M112.1,201.1l39.1,53.5 M151.3,223.4l-3.9,25.2 M147,201.1l-3.7,44.5 M145.5,181.9l-5,59.8 M140.5,177c0,0-9.6,61-8.3,60.1
		 M132.2,173.5l-4.4,55.3 M123.5,164.8v52.9 M120.4,156.5v41 M116.5,151l-1.4,34.5 M110,135.1l-1.5,21.5 M190.9,181.9
		c1.2,1.6,21.5-6.7,22.5-10.8c0.9-4.1-13.9,6.3-13.9,6.3 M177,180.7c0,0,38.2-12.6,40.3-15.6s-30.2,16.8-30.2,16.8 M208.3,164.8
		c0,0-35.8,12.3-38.8,12.6 M199.4,164.8c0,0-39.8,6.3-41.2,8.4 M182.4,161.7c-0.8-0.8-31.1,6.2-31.1,6.2 M147,162.1l22.5-3.8
		l-18.2,6.7 M135.4,173.5c0,0,49.5,17.2,68.3,7.1c18.9-10.1,20.7-15.5,20.7-15.5 M219.4,162.1c0,0,0,15.6-13.4,18s-26.6,12-38.9,5.4
		c-12.3-6.6-31.8-18-33-23.4s-6.3-12.7-6.3-12.7 M148.5,151c0.9,0.9,71.8,13.2,97,10.8 M143.3,149.5c1.6,0.6,43.6-5.1,58.1-3.6
		s27.9,7.2,29.4,7.8 M141.4,148.3c0,0,43.6-6.9,66.9-2.4s48.9,11.4,55.2,10.2 M224.5,59.2c0,0-26.7-0.7-24.9,4.3 M224.5,52.2
		c0,0-29-2.9-31.9-12.3s14.3-13.7,18.5-15.6 M222.4,55.4c0,0-25.5,2.4-24.3,7.4s3.3,5.7,3.3,5.7 M167.1,85.8c0,0,2-9.1-6.5-10.1
		s-33.6,3.4-33.8-2.1 M184.9,92.6c0,0-16.3-11.3-30.7-13.1s-22,1.5-22,1.5 M215.4,69.9c0,0-27.7-1.7-30.5,2.6c-2.8,4.3-8,9.4,0,14.8
		s16.4,8.3,16.4,8.3 M206,76.1c0,0-26.3-5.8-26.7,5.7s0.4,12,5.7,13.4 M250.9,62.8c-0.9,0.5-25.5-2.2-27.9,7.1s2.7,19.1,11.1,18.7
		 M219.4,113.4c0,0,25.2,4.7,26.1-7.7c0.9-12.4,6.9-14.5,0-14.5s-7.2,4.8-11.4,0s-13.2-11.5-9.6-17.6c3.6-6.1-6.3-10.4,12.3-12
		s18.9,1.9,18.9,1.9 M229.9,84.6c-0.6,0.6-26.4,1.5-23.9,15.6c2.6,14.1-7,24.4,17,26s29.7,3.4,32.7-1.4 M169.5,119.1
		c0,0,38.4-4.2,45.6-11.1c7.2-6.9,14.7-9.8,9.3-15.4s-14.7-11.5-18.5-12 M186.8,153.7c0,0-13.1-2.1-9.1-11.4
		c4-9.3,15.1-14.5,15.1-14.5 M158.7,129.7c0,0,10.1-18.3,20.5-18.9s21.2-2.5,24.5,4s3,9.5-1.2,10.1s-6.7,4-9.7,1.4
		c-3-2.6,1.3-6.5,4.6-4.6c3.3,2,3.9,5.6-2.4,9.5c-6.3,3.9-18.3-1.5-21.6,6.9s-6.3,9.9,0,12.9 M152.8,131.2c0,0,3.2-7.9,16.7-11
		s23-5.8,21.1,1.4c-1.9,7.2-5.8,6.3-5.8,6.3 M152.8,112.2c0,0-25.3,7.3-28.1,12.6c-2.8,5.3,0,6.3,0,6.3 M151.3,131.2
		c0,0-17.1-0.3-21.5,6.5 M147.4,131.2c0,0-15.4,5.1-11.2,12.9 M154.2,117.2c0,0-15.6-11.5-19.5-1.8c-3.9,9.7-3.9,20.5,5.4,28.6
		 M153,90c0,0-1.5,9.6,4.2,14.4s10.2,12,6.9,17.1s-3.5,8.4-3.5,8.4 M169.5,104.4c0,0-14.4-5.7-22.1-4.9c-7.7,0.8-14.3,2.4-14.3,2.4
		s17.1,2.4,29.8,2.4 M192.9,103.8c0,0-25.7-5.1-28.4-4.1s11.1,4.7,11.1,4.7 M147.4,71.4c0,0-34,9.6-32.2,19.8s1.8,15.5,9.6,14.5
		s7.8-4.6,5.4-5.7c-2.4-1-14.7,1.1-18,4.4 M201.3,58.8c0,0-29.1-4.1-31.8,2.8c-2.7,6.8-1.5,9.5,1.2,9.8c2.7,0.3,6.3,2.6,2.7,3.4
		s-16.9-1.6-17.4-4.9 M153,42c0,0-2.4,20.3,15.3,18.4s5.1-1.8,5.1-1.8 M202.5,40.3c0,0-23-4.7-26.9,0 M181.2,35.3
		c0,0-26.6,5.4-28.2,13.3 M202.5,37.4c0,0-17.6-6.3-26.9-4c-9.4,2.3-18.7,4.6-18.7,6s-2.1,6.6,0,7.6 M147.4,63.5c0,0-9.2-4.3,0-6.3
		s18.5-1.3,20-1.8s6.8,3.8,6.8,3.8 M108.5,114.7c3.9,4.6,5.7,6.2,6.6,10.1c0.9,3.9,1.4,10.2,1.4,10.2 M116.9,71.4
		c0,0-12.3,24-12.6,28.7 M116.9,67.8c0,0-12.7,28.8-10.6,42.9 M140.1,44.5c0,0-17.8,16.4-19.8,25.4"/>
</g>
</svg>
